<?xml version="1.0" encoding="utf-8"?>
<!-- Generator: Adobe Illustrator 24.2.0, SVG Export Plug-In . SVG Version: 6.00 Build 0)  -->
<svg version="1.1" id="Layer_1" xmlns="http://www.w3.org/2000/svg" xmlns:xlink="http://www.w3.org/1999/xlink" x="0px" y="0px"
	 viewBox="0 0 425 125" style="enable-background:new 0 0 425 125;" xml:space="preserve">
<style type="text/css">
	.st0{fill:url(#SVGID_1_);}
	.st1{fill:url(#SVGID_2_);}
	.st2{fill:url(#SVGID_3_);}
	.st3{fill:url(#SVGID_4_);}
	.st4{fill:url(#SVGID_5_);}
</style>
<g>
	
		<linearGradient id="SVGID_1_" gradientUnits="userSpaceOnUse" x1="662.5594" y1="118.1418" x2="62.132" y2="145.6614" gradientTransform="matrix(-1 0 0 -1 519.2242 199.7423)">
		<stop  offset="0" style="stop-color:#FFFFFF"/>
		<stop  offset="1" style="stop-color:#9E9E9E"/>
	</linearGradient>
	<path class="st0" d="M265.2,23.4l31.1,31.1c4.5,4.5,4.5,11.7,0,16.2l-31.1,31.1c-2.1,2.1-3.3,5.1-3.3,8.1v0
		c0,10.2,12.3,15.3,19.5,8.1l47.2-47.2c4.5-4.5,4.5-11.7,0-16.2L281.4,7.2c-7.2-7.2-19.5-2.1-19.5,8.1v0
		C261.9,18.3,263.1,21.2,265.2,23.4z"/>
	
		<linearGradient id="SVGID_2_" gradientUnits="userSpaceOnUse" x1="572.5419" y1="118.1418" x2="-27.8856" y2="145.6614" gradientTransform="matrix(-1 0 0 -1 519.2242 199.7423)">
		<stop  offset="0" style="stop-color:#FFFFFF"/>
		<stop  offset="1" style="stop-color:#9E9E9E"/>
	</linearGradient>
	<path class="st1" d="M355.3,23.4l31.1,31.1c4.5,4.5,4.5,11.7,0,16.2l-31.1,31.1c-2.1,2.1-3.3,5.1-3.3,8.1v0
		c0,10.2,12.3,15.3,19.5,8.1l47.2-47.2c4.5-4.5,4.5-11.7,0-16.2L371.4,7.2c-7.2-7.2-19.5-2.1-19.5,8.1v0
		C351.9,18.3,353.1,21.2,355.3,23.4z"/>
	
		<linearGradient id="SVGID_3_" gradientUnits="userSpaceOnUse" x1="662.7417" y1="122.1193" x2="62.3143" y2="149.6389" gradientTransform="matrix(-1 0 0 -1 519.2242 199.7423)">
		<stop  offset="0" style="stop-color:#FFFFFF"/>
		<stop  offset="1" style="stop-color:#9E9E9E"/>
	</linearGradient>
	<path class="st2" d="M178.3,23.4l31.1,31.1c4.5,4.5,4.5,11.7,0,16.2l-31.1,31.1c-2.1,2.1-3.3,5.1-3.3,8.1v0
		c0,10.2,12.3,15.3,19.5,8.1l47.2-47.2c4.5-4.5,4.5-11.7,0-16.2L194.4,7.2c-7.2-7.2-19.5-2.1-19.5,8.1v0
		C174.9,18.3,176.1,21.2,178.3,23.4z"/>
	
		<linearGradient id="SVGID_4_" gradientUnits="userSpaceOnUse" x1="662.924" y1="126.0968" x2="62.4966" y2="153.6164" gradientTransform="matrix(-1 0 0 -1 519.2242 199.7423)">
		<stop  offset="0" style="stop-color:#FFFFFF"/>
		<stop  offset="1" style="stop-color:#9E9E9E"/>
	</linearGradient>
	<path class="st3" d="M91.3,23.4l31.1,31.1c4.5,4.5,4.5,11.7,0,16.2l-31.1,31.1c-2.1,2.1-3.3,5.1-3.3,8.1v0
		c0,10.2,12.3,15.3,19.5,8.1l47.2-47.2c4.5-4.5,4.5-11.7,0-16.2L107.5,7.2C100.3,0,88,5.1,88,15.3v0C88,18.3,89.2,21.2,91.3,23.4z"
		/>
	
		<linearGradient id="SVGID_5_" gradientUnits="userSpaceOnUse" x1="663.1063" y1="130.0743" x2="62.6789" y2="157.5939" gradientTransform="matrix(-1 0 0 -1 519.2242 199.7423)">
		<stop  offset="0" style="stop-color:#FFFFFF"/>
		<stop  offset="1" style="stop-color:#9E9E9E"/>
	</linearGradient>
	<path class="st4" d="M4.3,23.4l31.1,31.1c4.5,4.5,4.5,11.7,0,16.2L4.3,101.6c-2.1,2.1-3.3,5.1-3.3,8.1v0c0,10.2,12.3,15.3,19.5,8.1
		l47.2-47.2c4.5-4.5,4.5-11.7,0-16.2L20.5,7.2C13.3,0,1,5.1,1,15.3v0C1,18.3,2.2,21.2,4.3,23.4z"/>
</g>
</svg>
