<svg id="Layer_1" data-name="Layer 1" xmlns="http://www.w3.org/2000/svg" xmlns:xlink="http://www.w3.org/1999/xlink" viewBox="0 0 350.7649 97.7881"><defs><style>.cls-1{fill:url(#linear-gradient);}.cls-2{fill:url(#linear-gradient-2);}.cls-3{fill:url(#linear-gradient-3);}.cls-4{fill:url(#linear-gradient-4);}.cls-5{fill:url(#linear-gradient-5);}</style><linearGradient id="linear-gradient" x1="471.63831" y1="33.58602" x2="-28.62032" y2="56.51454" gradientUnits="userSpaceOnUse"><stop offset="0" stop-color="#fff"/><stop offset="1" stop-color="#9e9e9e"/></linearGradient><linearGradient id="linear-gradient-2" x1="396.63831" y1="33.58602" x2="-103.62032" y2="56.51454" xlink:href="#linear-gradient"/><linearGradient id="linear-gradient-3" x1="471.7902" y1="36.89994" x2="-28.46843" y2="59.82846" xlink:href="#linear-gradient"/><linearGradient id="linear-gradient-4" x1="471.94208" y1="40.21386" x2="-28.31654" y2="63.14238" xlink:href="#linear-gradient"/><linearGradient id="linear-gradient-5" x1="472.09397" y1="43.52778" x2="-28.16466" y2="66.4563" xlink:href="#linear-gradient"/></defs><path class="cls-1" d="M131.22641,82.11783,105.3425,56.23392a9.5232,9.5232,0,0,1,0-13.46782l25.88391-25.88391a9.52319,9.52319,0,0,0,2.78928-6.73391v0a9.52319,9.52319,0,0,0-16.2571-6.73391L78.40682,42.7661a9.52319,9.52319,0,0,0,0,13.46782l39.35176,39.35176a9.52319,9.52319,0,0,0,16.2571-6.73391v0A9.52319,9.52319,0,0,0,131.22641,82.11783Z" transform="translate(-0.61755 -0.60595)"/><path class="cls-2" d="M56.22641,82.11783,30.3425,56.23392a9.5232,9.5232,0,0,1,0-13.46782L56.22641,16.88219a9.52319,9.52319,0,0,0,2.78928-6.73391v0a9.52319,9.52319,0,0,0-16.2571-6.73391L3.40682,42.7661a9.52319,9.52319,0,0,0,0,13.46782L42.75859,95.58568a9.52319,9.52319,0,0,0,16.2571-6.73391v0A9.52319,9.52319,0,0,0,56.22641,82.11783Z" transform="translate(-0.61755 -0.60595)"/><path class="cls-3" d="M203.682,82.11783,177.79809,56.23392a9.52318,9.52318,0,0,1,0-13.46782L203.682,16.88219a9.52323,9.52323,0,0,0,2.78928-6.73391v0a9.52319,9.52319,0,0,0-16.25711-6.73391L150.86241,42.7661a9.5232,9.5232,0,0,0,0,13.46782l39.35177,39.35176a9.52319,9.52319,0,0,0,16.2571-6.73391v0A9.52323,9.52323,0,0,0,203.682,82.11783Z" transform="translate(-0.61755 -0.60595)"/><path class="cls-4" d="M276.13759,82.11783,250.25368,56.23392a9.52318,9.52318,0,0,1,0-13.46782l25.88391-25.88391a9.52322,9.52322,0,0,0,2.78927-6.73391v0a9.52319,9.52319,0,0,0-16.2571-6.73391L223.318,42.7661a9.52318,9.52318,0,0,0,0,13.46782l39.35176,39.35176a9.52319,9.52319,0,0,0,16.2571-6.73391v0A9.52322,9.52322,0,0,0,276.13759,82.11783Z" transform="translate(-0.61755 -0.60595)"/><path class="cls-5" d="M348.59317,82.11783,322.70926,56.23392a9.5232,9.5232,0,0,1,0-13.46782l25.88391-25.88391a9.52319,9.52319,0,0,0,2.78928-6.73391v0a9.52319,9.52319,0,0,0-16.2571-6.73391L295.77359,42.7661a9.52318,9.52318,0,0,0,0,13.46782l39.35176,39.35176a9.52319,9.52319,0,0,0,16.2571-6.73391v0A9.52319,9.52319,0,0,0,348.59317,82.11783Z" transform="translate(-0.61755 -0.60595)"/></svg>