<?xml version="1.0" encoding="utf-8"?>
<!-- Generator: Adobe Illustrator 24.2.0, SVG Export Plug-In . SVG Version: 6.00 Build 0)  -->
<svg version="1.1" id="Layer_1" xmlns="http://www.w3.org/2000/svg" xmlns:xlink="http://www.w3.org/1999/xlink" x="0px" y="0px"
	 viewBox="0 0 49 49" style="enable-background:new 0 0 49 49;" xml:space="preserve">
<style type="text/css">
	.st0{fill:#27313C;}
	.st1{fill-rule:evenodd;clip-rule:evenodd;fill:#27313C;}
</style>
<g>
	<path class="st0" d="M28.7,26.6v7.9c0,0,0,0,0,0l0,6.1h1.9c2.6,0,4.7-2.1,4.7-4.7v-1.4V28l0,0l0,0l0,0l0,0l0,0l0,0l0,0l0,0l0,0l0,0
		l0,0l0,0l0,0l0,0l0,0l0,0l0,0l0,0l0,0l0,0l0,0l0,0l0,0l0,0l0,0l0,0l0,0l0,0l0,0l0,0l0,0l0,0l0,0l0,0l0,0l0,0l0,0l0,0l0,0l0,0l0,0
		l0,0l0,0l0,0l0,0l0,0l0,0l0,0l0,0l0,0l0,0l-0.1,0h0l-0.1,0l-0.1,0l0,0l-0.1,0l0,0l-0.1,0l0,0l-0.1,0l0,0l-0.1,0l0,0
		c0,0-0.1,0-0.1,0l0,0l-0.1,0l0,0l-0.1,0l0,0l-0.1,0l0,0c0,0-0.1,0-0.1,0l0,0l-0.1,0l0,0l-0.1,0l0,0l-0.1,0l0,0c0,0-0.1,0-0.1,0l0,0
		c0,0-0.1,0-0.1,0l0,0l-0.1,0l0,0l-0.1,0l0,0l-0.1,0l0,0c0,0-0.1,0-0.1,0l0,0l-0.1,0l0,0l-0.1,0l0,0c0,0-0.1,0-0.1,0l0,0l-0.1,0l0,0
		l-0.1,0l0,0l-0.1,0l0,0l-0.1,0l0,0l-0.1,0l0,0c0,0-0.1,0-0.1,0l0,0l0,0l-0.1,0l-0.1,0l0,0l-0.1,0l0,0l-0.1,0l0,0l-0.1,0l0,0l-0.1,0
		l-0.1,0l0,0l-0.1,0l0,0l-0.1,0l0,0l0,0l-0.1,0l-0.1,0l0,0l0,0l-0.1,0l-0.1,0l0,0l-0.1,0l0,0l-0.1,0l0,0l0,0l-0.1,0l-0.1,0l0,0
		l-0.1,0l0,0l-0.1,0l0,0l-0.1,0l0,0l-0.1,0l0,0l-0.1,0l0,0l-0.1,0l0,0l-0.1,0l-0.1,0l0,0l0,0c0,0-0.1,0-0.1,0l-0.1,0l0,0l0,0l-0.1,0
		l0,0l-0.1,0l0,0l-0.1,0l0,0l-0.1,0l0,0l-0.1,0l-0.1,0L28.7,26.6z M39.4,8.3c-0.1,0-0.2,0-0.2,0c-0.1,0-0.2,0-0.2,0h-3.6h-6.6v4.3
		v1.2V20l0,0h0h0h0l0,0h0h0h0l0,0h0h0h0h0l0,0h0h0h0l0,0h0h0h0h0l0,0h0h0h0l0,0h0h0h0l0,0h0h0h0l0,0h0h0h0l0,0h0h0h0l0,0h0h0h0h0
		l0,0h0l0,0h0h0h0l0,0h0h0h0l0,0h0h0l0,0h0h0h0l0,0h0h0l0,0h0h0l0,0h0h0h0l0,0h0h0l0,0h0h0l0.1,0l0.1,0l0,0l0.1,0l0,0l0,0l0.1,0l0,0
		l0.1,0l0,0l0.1,0l0,0l0.1,0l0,0l0.1,0l0.1,0l0.1,0l0,0l0.1,0l0,0l0.1,0l0,0l0.1,0l0,0l0.1,0l0,0l0.1,0l0.1,0l0,0c0.1,0,0.1,0,0.2,0
		h0l0.1,0l0,0l0.1,0l0,0l0.1,0l0,0l0.1,0l0,0l0.1,0l0,0l0.1,0l0,0l0,0l0.1,0l0,0l0.1,0l0.1,0l0,0l0.1,0l0,0l0.1,0l0,0l0.1,0l0,0
		l0.1,0l0,0l0.1,0l0,0l0.1,0l0.1,0l0.1,0l0,0l0.1,0l0,0l0.1,0l0,0c0.1,0,0.1,0,0.2,0l0,0l0.1,0c0.1,0,0.2,0,0.3,0l0,0l0.1,0l0,0
		l0.1,0l0,0l0.1,0l0,0l0.1,0l0,0l0.1,0l0,0l0.1,0l0,0l0.1,0l0,0l0.1,0l0,0c0.1,0,0.2,0,0.3,0l0,0c0.3,0.1,0.6,0.1,1,0.2l0,0
		c0.1,0,0.1,0,0.2,0l0,0v-6.6h2.9c0.2,0,0.4,0,0.6,0h0c0.2,0,0.4,0,0.5,0c2,0.1,3.6,1.7,3.6,3.7c0,1.8-1.2,3.2-2.9,3.6
		c0,0,0,0-0.1,0c-0.1,0-0.2,0-0.3,0.1l-0.2,0.3l0.1,0l0,0l0.1,0l0,0l0,0l0,0c0.1,0,0.1,0,0.2,0.1l0,0l0.1,0l0,0l0.1,0l0,0l0,0l0,0
		c0.1,0,0.1,0,0.2,0.1l0,0l0,0l0,0l0,0l0,0l0,0l0,0l0,0l0,0l0.1,0l0,0l0.1,0l0,0l0,0l0,0l0,0l0,0l0,0l0,0l0,0l0,0l0,0l0,0l0.1,0l0,0
		c0.1,0,0.1,0.1,0.2,0.1l0,0l0,0l0,0l0,0l0,0l0,0l0,0l0,0l0,0l0,0l0,0l0,0l0,0l0,0l0,0l0,0l0,0l0.1,0l0,0l0,0l0,0l0,0l0,0l0,0l0,0
		l0,0l0.8,0.4l0,0l1.1,0.5l0,0c0.6,0.4,1.2,0.8,1.7,1.2l0.8-0.9c1.5-1.7,2.4-3.9,2.4-6.3C48.7,12.7,44.6,8.5,39.4,8.3z"/>
	<polyline class="st0" points="11.9,26.9 11.9,26.9 11.9,26.9 11.9,26.9 	"/>
	<polygon class="st0" points="28.7,8.3 28.7,13.9 28.7,13.9 28.7,8.3 	"/>
	<path class="st0" d="M20.8,26.4c-1.5,0.1-3,0.3-4.5,0.5c-0.3,0-0.6,0.1-0.8,0.1l0,0c-0.9,0.2-1.8,0.4-2.7,0.6
		c0,0.1,0.1,0.1,0.1,0.1c1.5,0.7,2.7,1.3,3.6,1.9c3.7,2.5,2.8,5.2,0.9,6c0,0-0.1,0-0.1,0c-5.5,1.4-7.9-3.9-8.2-4.8c0,0,0-0.1,0-0.1
		c0,0,0,0,0,0H5.7c0,0,0,0,0,0v9.2h0l0,0.4l11.2,0c5.5,0,8.2-2.7,9.5-4.7c0,0,0-0.1,0.1-0.1c0-0.1,0.1-0.1,0.1-0.1c0,0,0,0,0,0
		c0.1-0.2,0.2-0.4,0.3-0.6c0,0,0-0.1,0.1-0.1c0.3-0.7,0.4-1.2,0.4-1.2c0.2-0.8,0.3-1.7,0.3-2.5c0-1.5-0.3-2.9-0.9-4.1
		c0,0,0-0.1-0.1-0.2c-1-0.1-1.9-0.1-2.9-0.1C22.8,26.3,21.8,26.3,20.8,26.4"/>
	<path class="st0" d="M8.9,25l0.2,0.2c1.3-0.5,2.7-1.1,4.2-1.5l-0.1-0.4l0,0C11.7,23.8,10.3,24.4,8.9,25 M27.6,8.3l-11.2,0
		c-5.5,0-8.2,2.7-9.5,4.7c0,0,0,0.1-0.1,0.1c0,0.1-0.1,0.1-0.1,0.1c0,0,0,0,0,0c-0.1,0.2-0.2,0.4-0.3,0.6c0,0,0,0.1-0.1,0.1
		C6.1,14.9,6,15.4,6,15.4l0,0c-0.2,0.8-0.3,1.7-0.3,2.5c0,1.5,0.3,2.9,0.9,4.1c0.3,0.7,0.8,1.4,1.4,2c0,0,0,0,0,0l0.1,0.1
		c1.5-0.7,3.1-1.4,4.8-2l0,0l1.1-0.3l0,0l1-0.3l0,0c1.6-0.4,3.2-0.8,4.9-1c-1.2-0.6-2.3-1.1-3.1-1.6c-3.7-2.5-2.8-5.2-0.9-6
		c0,0,0.1,0,0.1,0c5.5-1.4,7.9,3.9,8.2,4.8c0,0,0,0.1,0,0.1c0,0,0,0,0,0h3.4c0,0,0,0,0,0V8.7h0L27.6,8.3z"/>
	<path class="st1" d="M14.3,23L14.3,23l0.3,1L14.3,23z M14.2,26.2l-0.9-2.9l0,0c-6.2,2.1-11,5.4-13,9.1C3.6,29.6,8.4,27.4,14.2,26.2
		z"/>
	<path class="st0" d="M43.2,24.7c0.6,0.4,1.2,0.7,1.7,1.2c2.2,1.7,3.6,3.8,3.8,6.1c0.3,3.1-1.4,6.1-4.5,8.7c0.8-1.5,1.2-3,1-4.6
		c-0.3-2.7-2.1-5.1-5-7L43.2,24.7L43.2,24.7z M42.3,24.2L42.3,24.2l-0.9,1.3L42.3,24.2z"/>
	<path class="st1" d="M26.5,25.3L26.5,25.3l0.5-4.2c-1.4,0-2.8,0.1-4.3,0.2c-3,0.3-5.8,0.9-8.4,1.6l1,3c1.3-0.2,2.6-0.4,3.9-0.6
		c1.6-0.2,3.1-0.2,4.6-0.2C24.7,25.2,25.6,25.2,26.5,25.3"/>
	<path class="st1" d="M28,21.1c0.3,0,0.5,0,0.8,0c2.3,0.1,4.5,0.3,6.6,0.8c1.2,0.3,2.4,0.6,3.5,0.9c1.2,0.4,2.3,0.9,3.4,1.4l-3,4.4
		c-1.2-0.6-2.5-1.2-3.9-1.7c-2-0.7-4.2-1.2-6.6-1.4c-0.4-0.1-0.8-0.1-1.3-0.1L28,21.1z"/>
</g>
</svg>
