<svg id="Layer_1" data-name="Layer 1" xmlns="http://www.w3.org/2000/svg" viewBox="0 0 82.17 80.36"><defs><style>.cls-1,.cls-2{fill:#27313c;}.cls-2{fill-rule:evenodd;}</style></defs><path class="cls-1" d="M76.78,65.89c.17-.44.33-.79.37-.86h0a6.81,6.81,0,0,1,.36.92l.85,2.38c.14.39.11.45-.34.45H76.12c-.44,0-.46,0-.33-.35Zm2.8,5.83a2.71,2.71,0,0,1,.21.77c0,.15-.22.23-.55.26l-.46,0a.24.24,0,0,0,0,.37c.45,0,1.05,0,1.8,0s1.25,0,1.9,0c.07-.06.11-.3,0-.37l-.43,0c-.67-.07-.88-.29-1.33-1.54l-2.15-5.88c-.23-.64-.49-1.31-.69-2a.22.22,0,0,0-.23-.13,1.78,1.78,0,0,1-.82.56,2,2,0,0,1-.27,1L75,68.78c-.65,1.64-1.09,2.59-1.38,3.26a1,1,0,0,1-.94.71l-.51,0a.27.27,0,0,0,0,.37c.42,0,1,0,1.5,0,.74,0,1.23,0,1.63,0a.24.24,0,0,0,0-.37l-.52,0c-.38,0-.46-.11-.46-.29a5.18,5.18,0,0,1,.35-1.21l.55-1.53c.11-.31.2-.35.59-.35h2.37c.47,0,.53,0,.64.36ZM66.32,64.35c0-.26.06-.33.22-.38a2,2,0,0,1,.72-.08c1.19,0,2.33.54,2.33,2s-.86,1.81-2.46,1.87c-.8,0-.81,0-.81-.41Zm0,4.2c0-.29.06-.38.91-.38,2.49,0,3.12,1.34,3.12,2.5,0,1.46-1.07,2-2.47,2a1.58,1.58,0,0,1-1.23-.4,2.71,2.71,0,0,1-.33-1.6ZM65,70.93c0,1.53,0,1.69-.86,1.82l-.28,0a.26.26,0,0,0,0,.37c.58,0,1.11,0,1.8,0s1.43,0,1.88,0c2.83,0,4.17-1.14,4.17-2.84a2.48,2.48,0,0,0-2.1-2.44c-.17,0-.29-.07-.29-.22.94-.41,1.59-1,1.59-2a1.91,1.91,0,0,0-1.19-1.83,6.41,6.41,0,0,0-2.63-.41c-1.46,0-2.53,0-3.37.12a.22.22,0,0,0,0,.36l.5.05c.71.06.77.33.77,1.42Zm-7.51-5A6.71,6.71,0,0,1,57.9,65h0c.09.17.23.57.36.92l.84,2.38c.15.39.11.45-.34.45H56.86c-.44,0-.45,0-.33-.35Zm2.81,5.83a3,3,0,0,1,.2.77c0,.15-.22.23-.55.26l-.45,0a.24.24,0,0,0,0,.37c.45,0,1,0,1.8,0s1.26,0,1.9,0c.08-.06.11-.3,0-.37l-.42,0c-.68-.07-.88-.29-1.34-1.54l-2.15-5.88c-.23-.64-.48-1.31-.69-2a.22.22,0,0,0-.23-.13,1.73,1.73,0,0,1-.82.56,1.94,1.94,0,0,1-.26,1l-1.6,3.94c-.66,1.64-1.1,2.59-1.38,3.26a1,1,0,0,1-.94.71l-.52,0c-.1.07-.06.31,0,.37.42,0,1,0,1.51,0,.73,0,1.22,0,1.63,0a.23.23,0,0,0,0-.37l-.52,0c-.38,0-.45-.11-.45-.29a5.49,5.49,0,0,1,.34-1.21L56,69.72c.11-.31.2-.35.6-.35H59c.47,0,.54,0,.65.36ZM49.18,68.4c.75,0,.78,0,.78.47v2.06c0,1.53,0,1.68-1,1.82l-.29,0a.26.26,0,0,0,0,.37c.69,0,1.25,0,1.9,0s1.14,0,1.89,0c.1,0,.13-.31,0-.37l-.37,0c-.91-.1-.94-.29-.94-1.82V65.67c0-1.54,0-1.76.94-1.84l.33,0c.09-.06.06-.32,0-.37-.71,0-1.24,0-1.85,0s-1.18,0-1.9,0c-.1,0-.13.31,0,.37l.29,0c.93.08,1,.3,1,1.84v1.68c0,.45,0,.47-.78.47H44.69c-.75,0-.78,0-.78-.47V65.67c0-1.54,0-1.76.94-1.84l.3,0c.09-.06.06-.32,0-.37-.68,0-1.21,0-1.82,0s-1.21,0-2,0c-.09,0-.13.31,0,.37l.41,0c.81.06.92.3.92,1.84v5.26c0,1.53,0,1.68-.91,1.82l-.26,0a.26.26,0,0,0,0,.37c.61,0,1.14,0,1.82,0s1.14,0,2,0c.09,0,.12-.31,0-.37l-.46,0c-.87-.08-1-.29-1-1.82V68.87c0-.44,0-.47.78-.47ZM35.11,65.89a6.71,6.71,0,0,1,.38-.86h0c.09.17.23.57.36.92l.85,2.38c.14.39.11.45-.35.45H34.45c-.44,0-.45,0-.33-.35Zm2.81,5.83a3,3,0,0,1,.2.77c0,.15-.22.23-.55.26l-.45,0a.24.24,0,0,0,0,.37c.45,0,1.05,0,1.8,0s1.26,0,1.9,0c.08-.06.11-.3,0-.37l-.42,0c-.68-.07-.88-.29-1.34-1.54l-2.15-5.88c-.23-.64-.48-1.31-.69-2a.22.22,0,0,0-.23-.13,1.73,1.73,0,0,1-.82.56,1.94,1.94,0,0,1-.26,1l-1.6,3.94c-.66,1.64-1.1,2.59-1.38,3.26a1,1,0,0,1-.94.71l-.52,0a.29.29,0,0,0,0,.37c.42,0,1,0,1.51,0,.73,0,1.22,0,1.63,0a.23.23,0,0,0,0-.37l-.52,0c-.37,0-.45-.11-.45-.29a5.49,5.49,0,0,1,.34-1.21l.55-1.53c.11-.31.2-.35.6-.35h2.36c.47,0,.54,0,.65.36ZM30,70.65a3.28,3.28,0,0,0-2-2.8l-1.26-.73a2.31,2.31,0,0,1-1.33-1.8c0-.67.33-1.62,1.87-1.62a2,2,0,0,1,2.13,1.65.33.33,0,0,0,.39,0,6,6,0,0,0-.28-1.78,2.21,2.21,0,0,1-.55-.09,6.61,6.61,0,0,0-1.46-.19c-2,0-3.2,1.13-3.2,2.52a3.09,3.09,0,0,0,1.7,2.51l1.49.91a2.16,2.16,0,0,1,1.28,2,1.73,1.73,0,0,1-2,1.68,2.77,2.77,0,0,1-2.69-2.17c-.07-.09-.3-.06-.38,0a6.55,6.55,0,0,0,.42,2,5.2,5.2,0,0,0,2.45.54C28.73,73.36,30,72.26,30,70.65Zm-17.44.28c0,1.53,0,1.74-.94,1.82l-.47,0a.29.29,0,0,0,0,.37c.88,0,1.38,0,2,0h1.44c1.62,0,3.11,0,3.91,0a11.28,11.28,0,0,0,.66-2c0-.1-.3-.16-.4-.09a3.08,3.08,0,0,1-1,1.45,4.37,4.37,0,0,1-1.91.19c-1.24,0-1.54-.17-1.71-.34s-.33-.65-.33-1.57V65.67c0-1.54,0-1.77.95-1.84l.38,0c.09-.06.06-.32,0-.37-.78,0-1.32,0-1.93,0s-1.16,0-2,0c-.09,0-.12.31,0,.37l.39,0c1,.07,1,.3,1,1.84Zm-7.51-5A6.71,6.71,0,0,1,5.46,65h0c.09.17.23.57.36.92l.85,2.38c.14.39.1.45-.35.45H4.42c-.44,0-.45,0-.33-.35Zm2.81,5.83a3,3,0,0,1,.2.77c0,.15-.22.23-.55.26l-.45,0a.24.24,0,0,0,0,.37c.45,0,1,0,1.8,0s1.26,0,1.9,0c.08-.06.11-.3,0-.37l-.42,0c-.68-.07-.88-.29-1.34-1.54L6.91,65.33c-.23-.64-.48-1.31-.69-2A.22.22,0,0,0,6,63.24a1.73,1.73,0,0,1-.82.56,1.94,1.94,0,0,1-.26,1l-1.6,3.94c-.66,1.64-1.1,2.59-1.38,3.26a1,1,0,0,1-.94.71l-.52,0a.29.29,0,0,0,0,.37c.42,0,1,0,1.51,0,.73,0,1.22,0,1.63,0a.23.23,0,0,0,0-.37l-.52,0c-.38,0-.45-.11-.45-.29A5.49,5.49,0,0,1,3,71.25l.55-1.53c.11-.31.2-.35.6-.35H6.55c.47,0,.54,0,.65.36Z" transform="translate(-0.41 -0.32)"/><path class="cls-1" d="M76.78,65.89c.17-.44.33-.79.37-.86h0a6.81,6.81,0,0,1,.36.92l.85,2.38c.14.39.11.45-.34.45H76.12c-.44,0-.46,0-.33-.35Zm2.8,5.83a2.71,2.71,0,0,1,.21.77c0,.15-.22.23-.55.26l-.46,0a.24.24,0,0,0,0,.37c.45,0,1.05,0,1.8,0s1.25,0,1.9,0c.07-.06.11-.3,0-.37l-.43,0c-.67-.07-.88-.29-1.33-1.54l-2.15-5.88c-.23-.64-.49-1.31-.69-2a.22.22,0,0,0-.23-.13,1.78,1.78,0,0,1-.82.56,2,2,0,0,1-.27,1L75,68.78c-.65,1.64-1.09,2.59-1.38,3.26a1,1,0,0,1-.94.71l-.51,0a.27.27,0,0,0,0,.37c.42,0,1,0,1.5,0,.74,0,1.23,0,1.63,0a.24.24,0,0,0,0-.37l-.52,0c-.38,0-.46-.11-.46-.29a5.18,5.18,0,0,1,.35-1.21l.55-1.53c.11-.31.2-.35.59-.35h2.37c.47,0,.53,0,.64.36ZM66.32,64.35c0-.26.06-.33.22-.38a2,2,0,0,1,.72-.08c1.19,0,2.33.54,2.33,2s-.86,1.81-2.46,1.87c-.8,0-.81,0-.81-.41Zm0,4.2c0-.29.06-.38.91-.38,2.49,0,3.12,1.34,3.12,2.5,0,1.46-1.07,2-2.47,2a1.58,1.58,0,0,1-1.23-.4,2.71,2.71,0,0,1-.33-1.6ZM65,70.93c0,1.53,0,1.69-.86,1.82l-.28,0a.26.26,0,0,0,0,.37c.58,0,1.11,0,1.8,0s1.43,0,1.88,0c2.83,0,4.17-1.14,4.17-2.84a2.48,2.48,0,0,0-2.1-2.44c-.17,0-.29-.07-.29-.22.94-.41,1.59-1,1.59-2a1.91,1.91,0,0,0-1.19-1.83,6.41,6.41,0,0,0-2.63-.41c-1.46,0-2.53,0-3.37.12a.22.22,0,0,0,0,.36l.5.05c.71.06.77.33.77,1.42Zm-7.51-5A6.71,6.71,0,0,1,57.9,65h0c.09.17.23.57.36.92l.84,2.38c.15.39.11.45-.34.45H56.86c-.44,0-.45,0-.33-.35Zm2.81,5.83a3,3,0,0,1,.2.77c0,.15-.22.23-.55.26l-.45,0a.24.24,0,0,0,0,.37c.45,0,1,0,1.8,0s1.26,0,1.9,0c.08-.06.11-.3,0-.37l-.42,0c-.68-.07-.88-.29-1.34-1.54l-2.15-5.88c-.23-.64-.48-1.31-.69-2a.22.22,0,0,0-.23-.13,1.73,1.73,0,0,1-.82.56,1.94,1.94,0,0,1-.26,1l-1.6,3.94c-.66,1.64-1.1,2.59-1.38,3.26a1,1,0,0,1-.94.71l-.52,0c-.1.07-.06.31,0,.37.42,0,1,0,1.51,0,.73,0,1.22,0,1.63,0a.23.23,0,0,0,0-.37l-.52,0c-.38,0-.45-.11-.45-.29a5.49,5.49,0,0,1,.34-1.21L56,69.72c.11-.31.2-.35.6-.35H59c.47,0,.54,0,.65.36ZM49.18,68.4c.75,0,.78,0,.78.47v2.06c0,1.53,0,1.68-1,1.82l-.29,0a.26.26,0,0,0,0,.37c.69,0,1.25,0,1.9,0s1.14,0,1.89,0c.1,0,.13-.31,0-.37l-.37,0c-.91-.1-.94-.29-.94-1.82V65.67c0-1.54,0-1.76.94-1.84l.33,0c.09-.06.06-.32,0-.37-.71,0-1.24,0-1.85,0s-1.18,0-1.9,0c-.1,0-.13.31,0,.37l.29,0c.93.08,1,.3,1,1.84v1.68c0,.45,0,.47-.78.47H44.69c-.75,0-.78,0-.78-.47V65.67c0-1.54,0-1.76.94-1.84l.3,0c.09-.06.06-.32,0-.37-.68,0-1.21,0-1.82,0s-1.21,0-2,0c-.09,0-.13.31,0,.37l.41,0c.81.06.92.3.92,1.84v5.26c0,1.53,0,1.68-.91,1.82l-.26,0a.26.26,0,0,0,0,.37c.61,0,1.14,0,1.82,0s1.14,0,2,0c.09,0,.12-.31,0-.37l-.46,0c-.87-.08-1-.29-1-1.82V68.87c0-.44,0-.47.78-.47ZM35.11,65.89a6.71,6.71,0,0,1,.38-.86h0c.09.17.23.57.36.92l.85,2.38c.14.39.11.45-.35.45H34.45c-.44,0-.45,0-.33-.35Zm2.81,5.83a3,3,0,0,1,.2.77c0,.15-.22.23-.55.26l-.45,0a.24.24,0,0,0,0,.37c.45,0,1.05,0,1.8,0s1.26,0,1.9,0c.08-.06.11-.3,0-.37l-.42,0c-.68-.07-.88-.29-1.34-1.54l-2.15-5.88c-.23-.64-.48-1.31-.69-2a.22.22,0,0,0-.23-.13,1.73,1.73,0,0,1-.82.56,1.94,1.94,0,0,1-.26,1l-1.6,3.94c-.66,1.64-1.1,2.59-1.38,3.26a1,1,0,0,1-.94.71l-.52,0a.29.29,0,0,0,0,.37c.42,0,1,0,1.51,0,.73,0,1.22,0,1.63,0a.23.23,0,0,0,0-.37l-.52,0c-.37,0-.45-.11-.45-.29a5.49,5.49,0,0,1,.34-1.21l.55-1.53c.11-.31.2-.35.6-.35h2.36c.47,0,.54,0,.65.36ZM30,70.65a3.28,3.28,0,0,0-2-2.8l-1.26-.73a2.31,2.31,0,0,1-1.33-1.8c0-.67.33-1.62,1.87-1.62a2,2,0,0,1,2.13,1.65.33.33,0,0,0,.39,0,6,6,0,0,0-.28-1.78,2.21,2.21,0,0,1-.55-.09,6.61,6.61,0,0,0-1.46-.19c-2,0-3.2,1.13-3.2,2.52a3.09,3.09,0,0,0,1.7,2.51l1.49.91a2.16,2.16,0,0,1,1.28,2,1.73,1.73,0,0,1-2,1.68,2.77,2.77,0,0,1-2.69-2.17c-.07-.09-.3-.06-.38,0a6.55,6.55,0,0,0,.42,2,5.2,5.2,0,0,0,2.45.54C28.73,73.36,30,72.26,30,70.65Zm-17.44.28c0,1.53,0,1.74-.94,1.82l-.47,0a.29.29,0,0,0,0,.37c.88,0,1.38,0,2,0h1.44c1.62,0,3.11,0,3.91,0a11.28,11.28,0,0,0,.66-2c0-.1-.3-.16-.4-.09a3.08,3.08,0,0,1-1,1.45,4.37,4.37,0,0,1-1.91.19c-1.24,0-1.54-.17-1.71-.34s-.33-.65-.33-1.57V65.67c0-1.54,0-1.77.95-1.84l.38,0c.09-.06.06-.32,0-.37-.78,0-1.32,0-1.93,0s-1.16,0-2,0c-.09,0-.12.31,0,.37l.39,0c1,.07,1,.3,1,1.84Zm-7.51-5A6.71,6.71,0,0,1,5.46,65h0c.09.17.23.57.36.92l.85,2.38c.14.39.1.45-.35.45H4.42c-.44,0-.45,0-.33-.35Zm2.81,5.83a3,3,0,0,1,.2.77c0,.15-.22.23-.55.26l-.45,0a.24.24,0,0,0,0,.37c.45,0,1,0,1.8,0s1.26,0,1.9,0c.08-.06.11-.3,0-.37l-.42,0c-.68-.07-.88-.29-1.34-1.54L6.91,65.33c-.23-.64-.48-1.31-.69-2A.22.22,0,0,0,6,63.24a1.73,1.73,0,0,1-.82.56,1.94,1.94,0,0,1-.26,1l-1.6,3.94c-.66,1.64-1.1,2.59-1.38,3.26a1,1,0,0,1-.94.71l-.52,0a.29.29,0,0,0,0,.37c.42,0,1,0,1.51,0,.73,0,1.22,0,1.63,0a.23.23,0,0,0,0-.37l-.52,0c-.38,0-.45-.11-.45-.29A5.49,5.49,0,0,1,3,71.25l.55-1.53c.11-.31.2-.35.6-.35H6.55c.47,0,.54,0,.65.36Z" transform="translate(-0.41 -0.32)"/><path class="cls-1" d="M73.63,79.47a1.47,1.47,0,0,0-.82-1.25l-.52-.33a1,1,0,0,1-.56-.8.69.69,0,0,1,.78-.73.86.86,0,0,1,.89.74s.13,0,.16,0a2.87,2.87,0,0,0-.12-.8l-.22,0a2.36,2.36,0,0,0-.61-.09c-.85,0-1.33.5-1.33,1.12a1.39,1.39,0,0,0,.7,1.13l.62.4a1,1,0,0,1,.54.92.74.74,0,0,1-.82.75,1.18,1.18,0,0,1-1.12-1s-.13,0-.16,0a2.93,2.93,0,0,0,.18.92,2.05,2.05,0,0,0,1,.24A1.24,1.24,0,0,0,73.63,79.47Zm-4.33,0a1.45,1.45,0,0,0-.82-1.25L68,77.89a1,1,0,0,1-.55-.8.68.68,0,0,1,.77-.73.86.86,0,0,1,.89.74s.14,0,.17,0a2.87,2.87,0,0,0-.12-.8l-.23,0a2.36,2.36,0,0,0-.61-.09c-.85,0-1.33.5-1.33,1.12a1.4,1.4,0,0,0,.71,1.13l.62.4a1,1,0,0,1,.53.92.74.74,0,0,1-.82.75,1.19,1.19,0,0,1-1.12-1s-.12,0-.15,0a3,3,0,0,0,.17.92,2.09,2.09,0,0,0,1,.24A1.23,1.23,0,0,0,69.3,79.47Zm-7,.12c0,.69,0,.79-.41.82l-.21,0a.12.12,0,0,0,0,.16l.89,0h.59l1.75,0a6.79,6.79,0,0,0,.29-.9.12.12,0,0,0-.16,0,1.55,1.55,0,0,1-.47.63,1.74,1.74,0,0,1-.83.1c-.58,0-.72-.07-.79-.15s-.13-.33-.13-.68v-.92c0-.17,0-.17.22-.17h.38a2,2,0,0,1,.5,0,.27.27,0,0,1,.2.25l.06.25a.12.12,0,0,0,.17,0c0-.14,0-.39,0-.62s0-.51,0-.66a.12.12,0,0,0-.17,0l0,.27c0,.16-.08.2-.16.23a2.82,2.82,0,0,1-.55,0h-.38c-.2,0-.22,0-.22-.19v-1.3c0-.25,0-.26.2-.26h.47a2.62,2.62,0,0,1,.63,0c.34.08.4.31.5.62,0,0,.14,0,.16,0a6.2,6.2,0,0,0-.1-.86H61.85s-.05.13,0,.16h.11c.38,0,.4.14.4.82Zm-4.81-2.93c0-.19,0-.21.42-.21a1,1,0,0,1,1,1,.91.91,0,0,1-.33.81,1.06,1.06,0,0,1-.67.17c-.33,0-.43,0-.45,0a.53.53,0,0,1,0-.22ZM57,79.59c0,.69,0,.77-.39.82l-.16,0a.12.12,0,0,0,0,.16H58s.06-.13,0-.16l-.14,0c-.38,0-.39-.13-.39-.82v-.82c0-.14,0-.14.3-.14s.37.06.47.21.47.74.64,1c.46.66.8.83,1.35.83a1,1,0,0,0,.29,0s0-.07,0-.09a.73.73,0,0,1-.45-.18,7.12,7.12,0,0,1-1.31-1.74s-.07-.12,0-.15a1.22,1.22,0,0,0,.81-1.09,1,1,0,0,0-.54-.92A2.36,2.36,0,0,0,58,76.25a14.19,14.19,0,0,0-1.46,0s0,.13,0,.16l.21,0c.26,0,.28.14.28.76Zm-4.18-2.91c0-.21,0-.23.35-.23a1,1,0,0,1,1.05,1,1,1,0,0,1-1,1.1s0,.11,0,.13a2.13,2.13,0,0,0,.9-.2,1.09,1.09,0,0,0,.66-1,1.14,1.14,0,0,0-.53-1A2.33,2.33,0,0,0,53,76.25a9.51,9.51,0,0,0-1.29,0c-.06,0-.06.12,0,.16l.24,0c.29,0,.31.14.31.7v2.4c0,.69,0,.77-.4.82l-.13,0a.12.12,0,0,0,0,.16H53.4s.06-.13,0-.16l-.18,0c-.42,0-.43-.13-.43-.82ZM48,79.54c0-.33,0-.51.28-.54l.1,0a.11.11,0,0,0,0-.16l-.7,0-.93,0s-.05.14,0,.16l.29,0c.4,0,.42.08.42.63v.26a.75.75,0,0,1-.06.37c-.07.11-.32.2-.72.2a2,2,0,0,1-2-2.24,1.73,1.73,0,0,1,1.82-1.88,1.19,1.19,0,0,1,1.34.92s.16,0,.18,0a7.18,7.18,0,0,1-.1-.94,2.53,2.53,0,0,1-.41-.06,3.53,3.53,0,0,0-.82-.1,2.75,2.75,0,0,0-2.08.76,2.29,2.29,0,0,0-.58,1.55A2.08,2.08,0,0,0,44.7,80a2.74,2.74,0,0,0,2,.72,5.25,5.25,0,0,0,1.17-.17,1.58,1.58,0,0,1,.32-.06.08.08,0,0,0,0-.08c-.12,0-.16-.2-.16-.46ZM41.9,77.9a5.25,5.25,0,0,1,.1-1.34s.16-.11.36-.14h.1a.12.12,0,0,0,0-.16H41s-.06.12,0,.16h.11c.26,0,.36.07.4.13a4.43,4.43,0,0,1,.13,1.35v1.4a.8.8,0,0,1,0,.27h0c-.3-.31-.62-.67-1.07-1.18l-.64-.71a9.25,9.25,0,0,1-1.11-1.43h-1s0,.12,0,.16h.12a.72.72,0,0,1,.4.16.58.58,0,0,1,.14.47v1.88a6.45,6.45,0,0,1-.08,1.35c0,.07-.14.11-.29.13l-.17,0a.11.11,0,0,0,0,.16h1.44a.11.11,0,0,0,0-.16l-.2,0c-.16,0-.29,0-.33-.13a5.1,5.1,0,0,1-.12-1.35V77.51a1.92,1.92,0,0,1,0-.42h0c.13.14.58.68.75.88L41,79.69c.57.65.76.88.84,1s.11,0,.12-.07,0-1,0-1.15Zm-6.85,1.68c0,.69,0,.78-.4.83l-.16,0a.12.12,0,0,0,0,.16h1.63s0-.14,0-.16l-.16,0c-.38,0-.4-.14-.4-.83V77.26c0-.7,0-.81.4-.84h.16s0-.15,0-.16H34.5s0,.13,0,.16h.16c.38,0,.4.14.4.84Zm-3.88-2.89c0-.22,0-.22.19-.22h.47a1.31,1.31,0,0,1,.75.16c.1.07.15.31.17.48a.12.12,0,0,0,.17,0,4,4,0,0,1,.09-1s-.08,0-.11,0c-.1.17-.16.18-.51.18H29.74c-.3,0-.51,0-.55-.2,0,0-.11,0-.13,0a6.52,6.52,0,0,1-.24,1,.12.12,0,0,0,.17,0,1.12,1.12,0,0,1,.29-.45,1.32,1.32,0,0,1,.8-.16h.36c.2,0,.2,0,.2.21v2.91c0,.69,0,.79-.41.82l-.23,0c-.06,0,0,.14,0,.16h1.76s0-.14,0-.16l-.21,0c-.37,0-.39-.13-.39-.82Zm-4.3,1.21a5.25,5.25,0,0,1,.1-1.34.59.59,0,0,1,.37-.14h.09a.11.11,0,0,0,0-.16H26s-.06.12,0,.16h.11c.26,0,.37.07.4.13a4.43,4.43,0,0,1,.13,1.35v1.4a.8.8,0,0,1,0,.27h0c-.31-.31-.63-.67-1.08-1.18l-.63-.71a8.73,8.73,0,0,1-1.12-1.43h-1c-.05,0-.05.12,0,.16h.11a.72.72,0,0,1,.4.16.58.58,0,0,1,.15.47v1.88a6.42,6.42,0,0,1-.09,1.35c0,.07-.14.11-.29.13l-.17,0a.12.12,0,0,0,0,.16h1.44a.11.11,0,0,0,0-.16l-.2,0c-.17,0-.3,0-.34-.13a5.1,5.1,0,0,1-.12-1.35V77.51a1.34,1.34,0,0,1,0-.42h0c.14.14.58.68.76.88l1.51,1.72c.57.65.76.88.84,1s.11,0,.12-.07,0-1,0-1.15ZM20,79.58c0,.69,0,.78-.4.83l-.16,0a.12.12,0,0,0,0,.16H21.1s.06-.14,0-.16l-.17,0c-.38,0-.39-.14-.39-.83V77.26c0-.7,0-.81.39-.84h.17s0-.15,0-.16H19.47s0,.13,0,.16h.16c.39,0,.4.14.4.84Zm-4.81-2.92c0-.19,0-.21.43-.21a1,1,0,0,1,1,1,.91.91,0,0,1-.33.81,1,1,0,0,1-.67.17c-.33,0-.43,0-.45,0a.53.53,0,0,1,0-.22Zm-.53,2.93c0,.69,0,.77-.4.82l-.16,0a.12.12,0,0,0,0,.16h1.6a.12.12,0,0,0,0-.16l-.14,0c-.38,0-.39-.13-.39-.82v-.82c0-.14,0-.14.31-.14a.45.45,0,0,1,.46.21c.2.29.47.74.64,1,.47.66.8.83,1.35.83a1,1,0,0,0,.29,0,.05.05,0,0,0,0-.09.76.76,0,0,1-.45-.18,7.12,7.12,0,0,1-1.31-1.74s-.06-.12,0-.15a1.22,1.22,0,0,0,.81-1.09,1,1,0,0,0-.54-.92,2.34,2.34,0,0,0-1.09-.19,13.86,13.86,0,0,0-1.45,0c-.06,0-.06.13,0,.16l.21,0c.27,0,.29.14.29.76Zm-4.19-2.91c0-.21,0-.23.36-.23a1,1,0,0,1,1.05,1,1,1,0,0,1-1,1.1s0,.11,0,.13a2.21,2.21,0,0,0,.91-.2,1.09,1.09,0,0,0,.65-1,1.13,1.13,0,0,0-.52-1,2.39,2.39,0,0,0-1.26-.26,9.59,9.59,0,0,0-1.29,0,.1.1,0,0,0,0,.16l.23,0c.3,0,.31.14.31.7v2.4c0,.69,0,.77-.39.82l-.14,0a.12.12,0,0,0,0,.16h1.65a.12.12,0,0,0,0-.16l-.17,0c-.42,0-.44-.13-.44-.82Z" transform="translate(-0.41 -0.32)"/><path class="cls-1" d="M73.63,79.47a1.47,1.47,0,0,0-.82-1.25l-.52-.33a1,1,0,0,1-.56-.8.69.69,0,0,1,.78-.73.86.86,0,0,1,.89.74s.13,0,.16,0a2.87,2.87,0,0,0-.12-.8l-.22,0a2.36,2.36,0,0,0-.61-.09c-.85,0-1.33.5-1.33,1.12a1.39,1.39,0,0,0,.7,1.13l.62.4a1,1,0,0,1,.54.92.74.74,0,0,1-.82.75,1.18,1.18,0,0,1-1.12-1s-.13,0-.16,0a2.93,2.93,0,0,0,.18.92,2.05,2.05,0,0,0,1,.24A1.24,1.24,0,0,0,73.63,79.47Zm-4.33,0a1.45,1.45,0,0,0-.82-1.25L68,77.89a1,1,0,0,1-.55-.8.68.68,0,0,1,.77-.73.86.86,0,0,1,.89.74s.14,0,.17,0a2.87,2.87,0,0,0-.12-.8l-.23,0a2.36,2.36,0,0,0-.61-.09c-.85,0-1.33.5-1.33,1.12a1.4,1.4,0,0,0,.71,1.13l.62.4a1,1,0,0,1,.53.92.74.74,0,0,1-.82.75,1.19,1.19,0,0,1-1.12-1s-.12,0-.15,0a3,3,0,0,0,.17.92,2.09,2.09,0,0,0,1,.24A1.23,1.23,0,0,0,69.3,79.47Zm-7,.12c0,.69,0,.79-.41.82l-.21,0a.12.12,0,0,0,0,.16l.89,0h.59l1.75,0a6.79,6.79,0,0,0,.29-.9.12.12,0,0,0-.16,0,1.55,1.55,0,0,1-.47.63,1.74,1.74,0,0,1-.83.1c-.58,0-.72-.07-.79-.15s-.13-.33-.13-.68v-.92c0-.17,0-.17.22-.17h.38a2,2,0,0,1,.5,0,.27.27,0,0,1,.2.25l.06.25a.12.12,0,0,0,.17,0c0-.14,0-.39,0-.62s0-.51,0-.66a.12.12,0,0,0-.17,0l0,.27c0,.16-.08.2-.16.23a2.82,2.82,0,0,1-.55,0h-.38c-.2,0-.22,0-.22-.19v-1.3c0-.25,0-.26.2-.26h.47a2.62,2.62,0,0,1,.63,0c.34.08.4.31.5.62,0,0,.14,0,.16,0a6.2,6.2,0,0,0-.1-.86H61.85s-.05.13,0,.16h.11c.38,0,.4.14.4.82Zm-4.81-2.93c0-.19,0-.21.42-.21a1,1,0,0,1,1,1,.91.91,0,0,1-.33.81,1.06,1.06,0,0,1-.67.17c-.33,0-.43,0-.45,0a.53.53,0,0,1,0-.22ZM57,79.59c0,.69,0,.77-.39.82l-.16,0a.12.12,0,0,0,0,.16H58s.06-.13,0-.16l-.14,0c-.38,0-.39-.13-.39-.82v-.82c0-.14,0-.14.3-.14s.37.06.47.21.47.74.64,1c.46.66.8.83,1.35.83a1,1,0,0,0,.29,0s0-.07,0-.09a.73.73,0,0,1-.45-.18,7.12,7.12,0,0,1-1.31-1.74s-.07-.12,0-.15a1.22,1.22,0,0,0,.81-1.09,1,1,0,0,0-.54-.92A2.36,2.36,0,0,0,58,76.25a14.19,14.19,0,0,0-1.46,0s0,.13,0,.16l.21,0c.26,0,.28.14.28.76Zm-4.18-2.91c0-.21,0-.23.35-.23a1,1,0,0,1,1.05,1,1,1,0,0,1-1,1.1s0,.11,0,.13a2.13,2.13,0,0,0,.9-.2,1.09,1.09,0,0,0,.66-1,1.14,1.14,0,0,0-.53-1A2.33,2.33,0,0,0,53,76.25a9.51,9.51,0,0,0-1.29,0c-.06,0-.06.12,0,.16l.24,0c.29,0,.31.14.31.7v2.4c0,.69,0,.77-.4.82l-.13,0a.12.12,0,0,0,0,.16H53.4s.06-.13,0-.16l-.18,0c-.42,0-.43-.13-.43-.82ZM48,79.54c0-.33,0-.51.28-.54l.1,0a.11.11,0,0,0,0-.16l-.7,0-.93,0s-.05.14,0,.16l.29,0c.4,0,.42.08.42.63v.26a.75.75,0,0,1-.06.37c-.07.11-.32.2-.72.2a2,2,0,0,1-2-2.24,1.73,1.73,0,0,1,1.82-1.88,1.19,1.19,0,0,1,1.34.92s.16,0,.18,0a7.18,7.18,0,0,1-.1-.94,2.53,2.53,0,0,1-.41-.06,3.53,3.53,0,0,0-.82-.1,2.75,2.75,0,0,0-2.08.76,2.29,2.29,0,0,0-.58,1.55A2.08,2.08,0,0,0,44.7,80a2.74,2.74,0,0,0,2,.72,5.25,5.25,0,0,0,1.17-.17,1.58,1.58,0,0,1,.32-.06.08.08,0,0,0,0-.08c-.12,0-.16-.2-.16-.46ZM41.9,77.9a5.25,5.25,0,0,1,.1-1.34s.16-.11.36-.14h.1a.12.12,0,0,0,0-.16H41s-.06.12,0,.16h.11c.26,0,.36.07.4.13a4.43,4.43,0,0,1,.13,1.35v1.4a.8.8,0,0,1,0,.27h0c-.3-.31-.62-.67-1.07-1.18l-.64-.71a9.25,9.25,0,0,1-1.11-1.43h-1s0,.12,0,.16h.12a.72.72,0,0,1,.4.16.58.58,0,0,1,.14.47v1.88a6.45,6.45,0,0,1-.08,1.35c0,.07-.14.11-.29.13l-.17,0a.11.11,0,0,0,0,.16h1.44a.11.11,0,0,0,0-.16l-.2,0c-.16,0-.29,0-.33-.13a5.1,5.1,0,0,1-.12-1.35V77.51a1.92,1.92,0,0,1,0-.42h0c.13.14.58.68.75.88L41,79.69c.57.65.76.88.84,1s.11,0,.12-.07,0-1,0-1.15Zm-6.85,1.68c0,.69,0,.78-.4.83l-.16,0a.12.12,0,0,0,0,.16h1.63s0-.14,0-.16l-.16,0c-.38,0-.4-.14-.4-.83V77.26c0-.7,0-.81.4-.84h.16s0-.15,0-.16H34.5s0,.13,0,.16h.16c.38,0,.4.14.4.84Zm-3.88-2.89c0-.22,0-.22.19-.22h.47a1.31,1.31,0,0,1,.75.16c.1.07.15.31.17.48a.12.12,0,0,0,.17,0,4,4,0,0,1,.09-1s-.08,0-.11,0c-.1.17-.16.18-.51.18H29.74c-.3,0-.51,0-.55-.2,0,0-.11,0-.13,0a6.52,6.52,0,0,1-.24,1,.12.12,0,0,0,.17,0,1.12,1.12,0,0,1,.29-.45,1.32,1.32,0,0,1,.8-.16h.36c.2,0,.2,0,.2.21v2.91c0,.69,0,.79-.41.82l-.23,0c-.06,0,0,.14,0,.16h1.76s0-.14,0-.16l-.21,0c-.37,0-.39-.13-.39-.82Zm-4.3,1.21a5.25,5.25,0,0,1,.1-1.34.59.59,0,0,1,.37-.14h.09a.11.11,0,0,0,0-.16H26s-.06.12,0,.16h.11c.26,0,.37.07.4.13a4.43,4.43,0,0,1,.13,1.35v1.4a.8.8,0,0,1,0,.27h0c-.31-.31-.63-.67-1.08-1.18l-.63-.71a8.73,8.73,0,0,1-1.12-1.43h-1c-.05,0-.05.12,0,.16h.11a.72.72,0,0,1,.4.16.58.58,0,0,1,.15.47v1.88a6.42,6.42,0,0,1-.09,1.35c0,.07-.14.11-.29.13l-.17,0a.12.12,0,0,0,0,.16h1.44a.11.11,0,0,0,0-.16l-.2,0c-.17,0-.3,0-.34-.13a5.1,5.1,0,0,1-.12-1.35V77.51a1.34,1.34,0,0,1,0-.42h0c.14.14.58.68.76.88l1.51,1.72c.57.65.76.88.84,1s.11,0,.12-.07,0-1,0-1.15ZM20,79.58c0,.69,0,.78-.4.83l-.16,0a.12.12,0,0,0,0,.16H21.1s.06-.14,0-.16l-.17,0c-.38,0-.39-.14-.39-.83V77.26c0-.7,0-.81.39-.84h.17s0-.15,0-.16H19.47s0,.13,0,.16h.16c.39,0,.4.14.4.84Zm-4.81-2.92c0-.19,0-.21.43-.21a1,1,0,0,1,1,1,.91.91,0,0,1-.33.81,1,1,0,0,1-.67.17c-.33,0-.43,0-.45,0a.53.53,0,0,1,0-.22Zm-.53,2.93c0,.69,0,.77-.4.82l-.16,0a.12.12,0,0,0,0,.16h1.6a.12.12,0,0,0,0-.16l-.14,0c-.38,0-.39-.13-.39-.82v-.82c0-.14,0-.14.31-.14a.45.45,0,0,1,.46.21c.2.29.47.74.64,1,.47.66.8.83,1.35.83a1,1,0,0,0,.29,0,.05.05,0,0,0,0-.09.76.76,0,0,1-.45-.18,7.12,7.12,0,0,1-1.31-1.74s-.06-.12,0-.15a1.22,1.22,0,0,0,.81-1.09,1,1,0,0,0-.54-.92,2.34,2.34,0,0,0-1.09-.19,13.86,13.86,0,0,0-1.45,0c-.06,0-.06.13,0,.16l.21,0c.27,0,.29.14.29.76Zm-4.19-2.91c0-.21,0-.23.36-.23a1,1,0,0,1,1.05,1,1,1,0,0,1-1,1.1s0,.11,0,.13a2.21,2.21,0,0,0,.91-.2,1.09,1.09,0,0,0,.65-1,1.13,1.13,0,0,0-.52-1,2.39,2.39,0,0,0-1.26-.26,9.59,9.59,0,0,0-1.29,0,.1.1,0,0,0,0,.16l.23,0c.3,0,.31.14.31.7v2.4c0,.69,0,.77-.39.82l-.14,0a.12.12,0,0,0,0,.16h1.65a.12.12,0,0,0,0-.16l-.17,0c-.42,0-.44-.13-.44-.82Z" transform="translate(-0.41 -0.32)"/><path class="cls-2" d="M9.05,58.37h0Zm.83-5.92v5.14a.75.75,0,0,1-.06.29.72.72,0,0,1-.18.25.9.9,0,0,1-.59.24h0a.83.83,0,0,1-.6-.24.68.68,0,0,1-.18-.26.79.79,0,0,1-.06-.29V54.06a1.61,1.61,0,0,0-.14-.64,2,2,0,0,0-.37-.53,1.82,1.82,0,0,0-.55-.34,1.68,1.68,0,0,0-.63-.12H3.13a1.68,1.68,0,0,0-.64.14,1.84,1.84,0,0,0-.56.35,1.43,1.43,0,0,0-.36.51,1.69,1.69,0,0,0-.13.63v3.51a1.51,1.51,0,0,0,.14.62,1.64,1.64,0,0,0,.37.53,1.2,1.2,0,0,0,.26.21,2.49,2.49,0,0,0,.28.15,1.66,1.66,0,0,0,.64.11H6.52a1.82,1.82,0,0,0,.65-.12,1.53,1.53,0,0,0,.53-.35l.08-.07.08.08a1.9,1.9,0,0,0,.55.35A1.59,1.59,0,0,0,9,59.2H9a1.82,1.82,0,0,0,.65-.12,1.68,1.68,0,0,0,.54-.35,1.51,1.51,0,0,0,.36-.52,1.38,1.38,0,0,0,.14-.63V52.45Zm4.25,5.91h0m17.43-4.69a1.64,1.64,0,0,1,.21.44,1.38,1.38,0,0,1,.06.26,2.66,2.66,0,0,1,0,.3V57a2,2,0,0,1-.08.55,1.23,1.23,0,0,1-.08.25,1,1,0,0,1-.13.2.85.85,0,0,1-.25.25.49.49,0,0,1-.28.09h-5.9a.57.57,0,0,1-.28-.08,1.25,1.25,0,0,1-.25-.26,1.39,1.39,0,0,1-.2-.44,1.82,1.82,0,0,1-.09-.56V55.84a3,3,0,0,1,0-.52,2.4,2.4,0,0,1,.1-.48,2.76,2.76,0,0,1,.39-.83,1.76,1.76,0,0,1,.52-.5,1.1,1.1,0,0,1,.59-.18H31a.43.43,0,0,1,.27.08A.8.8,0,0,1,31.54,53.67Zm2.76-2.93v6.84a.71.71,0,0,1-.25.54.62.62,0,0,1-.26.17.73.73,0,0,1-.31.07.72.72,0,0,1-.29-.06.75.75,0,0,1-.28-.18.66.66,0,0,1-.25-.53V54.43l0-.26a2.2,2.2,0,0,0-.39-1,1.85,1.85,0,0,0-.54-.51,1.24,1.24,0,0,0-.67-.19H25.93a1.82,1.82,0,0,0-.88.22,2.56,2.56,0,0,0-.76.61v-.83h-.83v5.1a.73.73,0,0,1-.07.29.69.69,0,0,1-.18.24.74.74,0,0,1-.56.24.84.84,0,0,1-.75-.48.73.73,0,0,1-.06-.3v-3.5a1.52,1.52,0,0,0-.14-.63,1.64,1.64,0,0,0-.37-.53,1.61,1.61,0,0,0-1.18-.46H15.94v.84h4.21a.91.91,0,0,1,.32.06.75.75,0,0,1,.28.18.71.71,0,0,1,.24.54v3.5a.71.71,0,0,1-.24.54,1.27,1.27,0,0,1-.27.18.92.92,0,0,1-.33.06h-6a.85.85,0,0,1-.59-.24.8.8,0,0,1-.18-.24.65.65,0,0,1,0-.15.66.66,0,0,1,0-.15V50.75h-.85v6.83a1.66,1.66,0,0,0,.5,1.15,1.84,1.84,0,0,0,.55.35,2.13,2.13,0,0,0,.6.12h6.06a1.64,1.64,0,0,0,.65-.13,1.72,1.72,0,0,0,.53-.34l.08-.08.08.08a1.82,1.82,0,0,0,.54.36,1.71,1.71,0,0,0,.65.12h0a1.88,1.88,0,0,0,.59-.12,1.81,1.81,0,0,0,.53-.35l.15-.16a1.5,1.5,0,0,0,.52.45,1.33,1.33,0,0,0,.64.17H31a1.28,1.28,0,0,0,.63-.16,1.65,1.65,0,0,0,.53-.46l.08.09.08.07a1.84,1.84,0,0,0,.54.34,1.68,1.68,0,0,0,.58.13v0a1.63,1.63,0,0,0,1.19-.48,1.68,1.68,0,0,0,.37-.53,1.41,1.41,0,0,0,.14-.63V50.74Zm2.6,8.46h.84V50.76H36.9Zm6.18-5.69a.75.75,0,0,0-.24.55v3.51a.71.71,0,0,0,.24.54.81.81,0,0,0,.6.24h3.39a.76.76,0,0,0,.32-.06,1,1,0,0,0,.28-.17.78.78,0,0,0,.17-.26.65.65,0,0,0,.07-.29V54.06a.74.74,0,0,0-.24-.55.85.85,0,0,0-.6-.23H43.68a.83.83,0,0,0-.32.06A.75.75,0,0,0,43.08,53.51Zm13.53-.21h0m15.34.11a.49.49,0,0,0-.28-.09H66.56a1.07,1.07,0,0,0-.59.18,1.79,1.79,0,0,0-.52.51,2.78,2.78,0,0,0-.39.81,3.86,3.86,0,0,0-.14,1V57a2.15,2.15,0,0,0,.08.55,1.34,1.34,0,0,0,.21.45,1.14,1.14,0,0,0,.24.25.55.55,0,0,0,.29.09h5.9a.48.48,0,0,0,.27-.09,1,1,0,0,0,.26-.25,1.73,1.73,0,0,0,.29-1V54.67a2,2,0,0,0-.08-.55,1.4,1.4,0,0,0-.21-.46A.75.75,0,0,0,71.92,53.41Zm3.42,5.31a1.66,1.66,0,0,0,.54.34,1.53,1.53,0,0,0,.64.13h3.36a1.67,1.67,0,0,0,.65-.12,1.54,1.54,0,0,0,.52-.35,1.76,1.76,0,0,0,.37-.52,1.52,1.52,0,0,0,.14-.63V54.08a1.45,1.45,0,0,0-.13-.63,1.41,1.41,0,0,0-.35-.51,1.77,1.77,0,0,0-.56-.35,1.63,1.63,0,0,0-.64-.13H76.52a1.72,1.72,0,0,0-.33,0l-.3.09a1.9,1.9,0,0,0-.55.35,1.57,1.57,0,0,0-.36.51,1.65,1.65,0,0,0-.14.65v3.49a.72.72,0,0,1-.06.29.81.81,0,0,1-.18.26.84.84,0,0,1-.57.23.78.78,0,0,1-.5-.23.69.69,0,0,1-.18-.24.6.6,0,0,1,0-.14s0-.08,0-.16V54.66l0-.5a2.59,2.59,0,0,0-.38-.95,2,2,0,0,0-.57-.55,1.25,1.25,0,0,0-.66-.17H66.56a1.82,1.82,0,0,0-.88.22,2.47,2.47,0,0,0-.76.61V50.81h-.84v7.52H61.57v0a1.33,1.33,0,0,1-.3-.06.8.8,0,0,1-.27-.18.73.73,0,0,1-.24-.54V52.43h-.84v5.15a.76.76,0,0,1-.25.54.81.81,0,0,1-.6.24h-5a1,1,0,0,1-.32-.06,1.4,1.4,0,0,1-.28-.17.73.73,0,0,1-.24-.54V54.08a.79.79,0,0,1,.06-.28.64.64,0,0,1,.18-.25.92.92,0,0,1,.28-.19,1,1,0,0,1,.32-.06h2.53a1,1,0,0,1,.33.06.68.68,0,0,1,.27.18.71.71,0,0,1,.24.54v1.34h.85V54.08a1.36,1.36,0,0,0,0-.29c0-.09,0-.15,0-.18a.48.48,0,0,0-.07-.15,1.41,1.41,0,0,0-.35-.51,2,2,0,0,0-.56-.35,1.68,1.68,0,0,0-.64-.14H54.05a1.69,1.69,0,0,0-1.54,1,1.41,1.41,0,0,0-.14.63v3.5a.8.8,0,0,1-.06.3.64.64,0,0,1-.18.25.83.83,0,0,1-.53.23h-2a.82.82,0,0,1-.56-.24.68.68,0,0,1-.18-.26.79.79,0,0,1-.06-.29V54.06a1.61,1.61,0,0,0-.14-.64,1.6,1.6,0,0,0-.92-.87,1.68,1.68,0,0,0-.63-.12H43.68a1.68,1.68,0,0,0-.64.14,1.84,1.84,0,0,0-.56.35,1.43,1.43,0,0,0-.36.51,1.69,1.69,0,0,0-.13.63v3.51a1.51,1.51,0,0,0,.14.62,1.64,1.64,0,0,0,.37.53,1.2,1.2,0,0,0,.26.21,2.49,2.49,0,0,0,.28.15,1.66,1.66,0,0,0,.64.11h3.39a1.82,1.82,0,0,0,.65-.12,1.53,1.53,0,0,0,.53-.35l.08-.07.08.08a1.9,1.9,0,0,0,.55.35,1.69,1.69,0,0,0,.64.12h1.92v0h0a1.67,1.67,0,0,0,.65-.13,2,2,0,0,0,.54-.35l.08-.08.08.07a1.63,1.63,0,0,0,.53.35,1.82,1.82,0,0,0,.65.12h5.06a2.13,2.13,0,0,0,.61-.12,1.79,1.79,0,0,0,.54-.35l.08-.08.08.08a1.93,1.93,0,0,0,.53.34,1.61,1.61,0,0,0,.65.13h0v0h10a1.35,1.35,0,0,0,.64-.16,1.91,1.91,0,0,0,.52-.46l.08.1.08.06a1.36,1.36,0,0,0,.53.35,1.36,1.36,0,0,0,.5.12h.14a1.59,1.59,0,0,0,.5-.11,2,2,0,0,0,.29-.15l.12-.09a.75.75,0,0,0,.14-.12l.08-.08Zm.84-5.36a1,1,0,0,1,.34-.06h3.36a.72.72,0,0,1,.33.07,1.07,1.07,0,0,1,.27.17.71.71,0,0,1,.24.54v3.49a.68.68,0,0,1-.24.54.91.91,0,0,1-.27.18,1.26,1.26,0,0,1-.33.05H76.51a.83.83,0,0,1-.59-.23.76.76,0,0,1-.18-.24.77.77,0,0,1-.06-.3V54.08a.68.68,0,0,1,.24-.54A1,1,0,0,1,76.18,53.36Zm-73.65.15a.75.75,0,0,0-.24.55v3.51a.71.71,0,0,0,.24.54.81.81,0,0,0,.6.24H6.52a.76.76,0,0,0,.32-.06,1,1,0,0,0,.28-.17.78.78,0,0,0,.17-.26.65.65,0,0,0,.07-.29V54.06a.74.74,0,0,0-.24-.55.86.86,0,0,0-.6-.23H3.13a.83.83,0,0,0-.32.06A.75.75,0,0,0,2.53,53.51Z" transform="translate(-0.41 -0.32)"/><path class="cls-2" d="M5.61,51.14H5a.11.11,0,0,0-.11.11v.64A.11.11,0,0,0,5,52h.64a.11.11,0,0,0,.11-.11v-.64a.11.11,0,0,0-.11-.11" transform="translate(-0.41 -0.32)"/><path class="cls-2" d="M4.32,51.14H3.67a.1.1,0,0,0-.1.11v.64a.1.1,0,0,0,.1.11h.65a.11.11,0,0,0,.11-.11v-.64a.11.11,0,0,0-.11-.11" transform="translate(-0.41 -0.32)"/><path class="cls-2" d="M46.2,51.14h-.65a.1.1,0,0,0-.1.11v.64a.1.1,0,0,0,.1.11h.65a.11.11,0,0,0,.11-.11v-.64a.11.11,0,0,0-.11-.11" transform="translate(-0.41 -0.32)"/><path class="cls-2" d="M44.91,51.14h-.65a.11.11,0,0,0-.11.11v.64a.11.11,0,0,0,.11.11h.65a.11.11,0,0,0,.11-.11v-.64a.11.11,0,0,0-.11-.11" transform="translate(-0.41 -0.32)"/><path class="cls-2" d="M60.62,59.89H60a.1.1,0,0,0-.11.1v.65a.11.11,0,0,0,.11.11h.64a.11.11,0,0,0,.11-.11V60a.1.1,0,0,0-.11-.1" transform="translate(-0.41 -0.32)"/><path class="cls-2" d="M9.4,59.89H8.75a.1.1,0,0,0-.11.1v.65a.11.11,0,0,0,.11.11H9.4a.11.11,0,0,0,.1-.11V60a.1.1,0,0,0-.1-.1" transform="translate(-0.41 -0.32)"/><path class="cls-1" d="M44.75,25V35.74h0V44h2.58a6.32,6.32,0,0,0,6.32-6.32V27h-.3l-.13,0h0l-.12,0-.12,0h0l-.13,0h0l-.12,0h0l-.13,0h0l-.12,0h0l-.13,0h0l-.13,0h0l-.12,0h0l-.13,0h0l-.13,0h0l-.12,0h0l-.12,0h0l-.12,0h0l-.13,0h0l-.13,0h0l-.13,0h0l-.13,0h0l-.13,0h0l-.13,0h0l-.13,0h0l-.12,0h0l-.13,0h0l-.13,0h0L50,26h0l-.13,0h0l-.13,0h0l-.13,0h0l-.12,0h0l-.09,0-.13,0h0l-.13,0h0l-.13,0h0l-.13,0h0l-.13,0-.13,0h0l-.13,0h0l-.12,0h0l-.12,0-.13,0h0l-.14,0-.13,0h0l-.13,0h0l-.13,0h0l-.12,0-.13,0h0l-.13,0h0l-.13,0h0l-.13,0h0l-.13,0h0l-.14,0h0l-.13,0h0l-.13,0H46l-.13,0h-.16l-.13,0h0l-.13,0h0l-.14,0h0l-.13,0h0l-.13,0h-.15ZM59.2.33H44.75V16.17h2.33l.25,0h.28l.14,0h1.8l.11,0h.15l.26,0h.14l.37.05h.31l.11,0h0l.12,0h0l.13,0h0l.13,0h0l.12,0h0l.12,0h0l.39.07h0l1.3.23h0l.25,0h0v-9h5.45a5.07,5.07,0,0,1,1,10l-.09,0-.38.07-.31.45.11,0,0,0,.11,0,0,0h.06l.21.07,0,0,.11,0,0,0,.11,0,0,0h0l.05,0,.26.1,0,0,.06,0,0,0h0l0,0,0,0h0l0,0,.06,0,.1,0,.05,0,.1,0,.05,0h0l0,0h0l0,0h0l.05,0h.07l.08,0h0l.25.11,0,0H62l0,0h0l.05,0h0l0,0h0l.05,0h0l.06,0h0l0,0h0l.07,0h0l.05,0h0l0,0h.05l0,0,1.14.59.05,0,1.43.73,0,0a23.71,23.71,0,0,1,2.36,1.6l1.09-1.25a12.74,12.74,0,0,0,3.23-8.48A13,13,0,0,0,59.2.33Z" transform="translate(-0.41 -0.32)"/><polyline class="cls-1" points="21.53 25.13 21.53 25.13 21.54 25.13 21.53 25.13"/><polygon class="cls-1" points="44.33 0 44.33 7.48 44.33 7.58 44.33 0 44.33 0"/><path class="cls-1" d="M34,24.76q-3,.27-6.09.72l-1.12.19h0c-1.23.23-2.43.5-3.6.79a.76.76,0,0,0,.11.19,40,40,0,0,1,4.94,2.54c5,3.39,3.8,7,1.29,8.11l-.17,0c-7.5,1.94-10.67-5.33-11.14-6.54l0-.14s0,0,0,0H13.57s0,0,0,0V43.11h0v.5l15.21,0c7.52,0,11.14-3.61,12.82-6.38l.1-.17.12-.16s0,0,0-.05a9,9,0,0,0,.44-.88,1.34,1.34,0,0,1,.07-.18,9.09,9.09,0,0,0,.58-1.67,13.44,13.44,0,0,0,.44-3.43A12.51,12.51,0,0,0,42.13,25L42,24.76c-1.29-.09-2.61-.13-3.93-.13s-2.69,0-4.05.13" transform="translate(-0.41 -0.32)"/><path class="cls-1" d="M18,22.9l.3.28c1.78-.73,3.68-1.43,5.68-2.09l-.16-.51h0A47.37,47.37,0,0,0,18,22.9M43.33.32,28.11.37C20.6.37,17,4,15.3,6.75l-.1.17-.12.16,0,0c-.16.29-.3.58-.43.88l-.07.18A9.09,9.09,0,0,0,14,9.86h0a13.08,13.08,0,0,0-.44,3.44,12.34,12.34,0,0,0,1.2,5.61,11.48,11.48,0,0,0,1.91,2.75,0,0,0,0,0,.05,0l.17.16a49.79,49.79,0,0,1,6.52-2.65v0l1.43-.42.07,0,1.31-.39h0a61.87,61.87,0,0,1,6.66-1.41,33,33,0,0,1-4.19-2.18c-5-3.39-3.8-7-1.29-8.11a1.54,1.54,0,0,1,.17,0C35,4.64,38.2,11.91,38.67,13.13l0,.14s0,0,0,0h4.55a0,0,0,0,0,0,0V.82h0Z" transform="translate(-0.41 -0.32)"/><path class="cls-2" d="M25.22,20.13h0l.45,1.41Zm-.13,4.39-1.26-3.94h0c-8.47,2.78-14.9,7.25-17.6,12.29C10.7,29.16,17.32,26.16,25.09,24.52Z" transform="translate(-0.41 -0.32)"/><path class="cls-1" d="M64.41,22.54a21.31,21.31,0,0,1,2.32,1.56c3,2.31,4.82,5.12,5.14,8.28.42,4.17-1.9,8.26-6.12,11.75A10.72,10.72,0,0,0,67.1,38c-.36-3.71-2.84-6.94-6.78-9.43l4-5.86Zm-1.28-.7h0l-1.24,1.8Z" transform="translate(-0.41 -0.32)"/><path class="cls-2" d="M41.72,23.28v-.07l.68-5.6q-2.85,0-5.8.3a61,61,0,0,0-11.39,2.22l1.31,4.11c1.73-.33,3.49-.58,5.31-.76,2.11-.21,4.2-.32,6.22-.32q1.86,0,3.66.12" transform="translate(-0.41 -0.32)"/><path class="cls-2" d="M43.88,17.62c.34,0,.69,0,1,0a53.75,53.75,0,0,1,8.91,1A44.72,44.72,0,0,1,58.59,20a31.23,31.23,0,0,1,4.54,1.89l-4.07,5.94a30.28,30.28,0,0,0-5.24-2.26,45.24,45.24,0,0,0-8.91-2c-.57-.07-1.15-.12-1.73-.17Z" transform="translate(-0.41 -0.32)"/></svg>