<?xml version="1.0" encoding="utf-8"?>
<!-- Generator: Adobe Illustrator 24.2.0, SVG Export Plug-In . SVG Version: 6.00 Build 0)  -->
<svg version="1.1" id="Layer_1" xmlns="http://www.w3.org/2000/svg" xmlns:xlink="http://www.w3.org/1999/xlink" x="0px" y="0px"
	 viewBox="0 0 551 57.3" style="enable-background:new 0 0 551 57.3;" xml:space="preserve">
<style type="text/css">
	.st0{fill:#F29100;}
	.st1{fill:#F6F7F8;}
	.st2{fill:#FFFFFF;}
</style>
<g>
	<polygon class="st0" points="524.1,28.7 550.6,0.8 0.4,0.8 26.9,28.7 0.4,56.5 550.6,56.5 	"/>
</g>
<g>
	<g>
		<g>
			<path class="st2" d="M83.2,28.1c0,2.2-0.4,4.3-1.3,6.2c-0.9,2.1-2.3,3.7-4,4.9c-1.7,1.1-3.4,1.7-5.3,1.7c-3.2,0-5.8-1.4-7.9-4.1
				c-1.9-2.5-2.8-5.4-2.8-8.7s0.9-6.2,2.8-8.7c2-2.7,4.7-4.1,7.9-4.1c2,0,3.8,0.6,5.5,1.8c1.6,1.1,2.8,2.6,3.7,4.5
				C82.8,23.6,83.2,25.8,83.2,28.1z M81.5,28.1c0-2.8-0.8-5.3-2.3-7.4c-1.7-2.4-3.9-3.6-6.6-3.6c-2.7,0-4.9,1.2-6.6,3.6
				c-1.5,2.2-2.3,4.6-2.3,7.4c0,2.8,0.8,5.2,2.3,7.4c1.7,2.4,3.9,3.6,6.6,3.6c2.7,0,4.9-1.2,6.6-3.6C80.7,33.4,81.5,30.9,81.5,28.1z
				"/>
			<path class="st2" d="M109,21.9c0,0.8-0.3,1.2-0.9,1.2c-0.6,0-0.9-0.4-0.9-1.2v-4.3H93.9v9.1h6.3v-2c0-0.8,0.3-1.2,0.9-1.2
				c0.6,0,0.9,0.4,0.9,1.2v5.7c0,0.8-0.3,1.2-0.9,1.2c-0.6,0-0.9-0.4-0.9-1.2v-2h-6.3v10h6c0.8,0,1.2,0.3,1.2,0.9
				c0,0.6-0.4,0.9-1.2,0.9H89.8c-0.8,0-1.2-0.3-1.2-0.9c0-0.6,0.4-0.9,1.2-0.9h2.3V17.6h-2.3c-0.8,0-1.2-0.3-1.2-0.9
				c0-0.6,0.4-0.9,1.2-0.9H109V21.9z"/>
			<path class="st2" d="M134.6,21.9c0,0.8-0.3,1.2-0.9,1.2c-0.6,0-0.9-0.4-0.9-1.2v-4.3h-13.4v9.1h6.3v-2c0-0.8,0.3-1.2,0.9-1.2
				c0.6,0,0.9,0.4,0.9,1.2v5.7c0,0.8-0.3,1.2-0.9,1.2c-0.6,0-0.9-0.4-0.9-1.2v-2h-6.3v10h6c0.8,0,1.2,0.3,1.2,0.9
				c0,0.6-0.4,0.9-1.2,0.9h-10.1c-0.8,0-1.2-0.3-1.2-0.9c0-0.6,0.4-0.9,1.2-0.9h2.3V17.6h-2.3c-0.8,0-1.2-0.3-1.2-0.9
				c0-0.6,0.4-0.9,1.2-0.9h19.2V21.9z"/>
			<path class="st2" d="M158.7,40.2h-19.3c-0.8,0-1.2-0.3-1.2-0.9c0-0.6,0.4-0.9,1.2-0.9h2.3V17.6h-2.3c-0.8,0-1.2-0.3-1.2-0.9
				c0-0.6,0.4-0.9,1.2-0.9h18.3v6c0,0.8-0.3,1.2-0.9,1.2c-0.6,0-0.9-0.4-0.9-1.2v-4.3h-12.5v9.1h6.3v-2c0-0.8,0.3-1.2,0.9-1.2
				c0.6,0,0.9,0.4,0.9,1.2v5.7c0,0.8-0.3,1.2-0.9,1.2c-0.6,0-0.9-0.4-0.9-1.2v-2h-6.3v10h13.4v-5.2c0-0.8,0.3-1.2,0.9-1.2
				c0.6,0,0.9,0.4,0.9,1.2V40.2z"/>
			<path class="st2" d="M187.2,39.3c0,0.6-0.4,0.9-1.2,0.9h-2.3c-1.7-3-2.9-5.1-3.7-6.2c-1.6-2.2-3.4-3.7-5.4-4.7H169v9.1h3.2
				c0.8,0,1.2,0.3,1.2,0.9c0,0.6-0.4,0.9-1.2,0.9h-7.3c-0.8,0-1.2-0.3-1.2-0.9c0-0.6,0.4-0.9,1.2-0.9h2.3V17.6h-2.3
				c-0.8,0-1.2-0.3-1.2-0.9c0-0.6,0.4-0.9,1.2-0.9h10.6c2,0,3.7,0.6,5.3,1.8c1.6,1.3,2.5,3,2.5,4.9c0,2.8-2,4.9-6,6.3
				c1.5,1.1,2.9,2.5,4.3,4.3c0.6,0.8,1.7,2.6,3.2,5.2h1.3C186.8,38.5,187.2,38.7,187.2,39.3z M181.5,22.5c0-1.4-0.7-2.6-2-3.6
				c-1.2-0.9-2.6-1.4-4-1.4H169v10h4.8c1.3,0,2.5-0.2,3.7-0.7c1.4-0.5,2.4-1.2,3.1-2.1C181.2,24.1,181.5,23.3,181.5,22.5z"/>
			<path class="st2" d="M209.2,33.7c0,2.3-0.9,4.1-2.8,5.4c-1.7,1.2-3.7,1.8-6,1.8c-3,0-5.5-0.9-7.3-2.8v1c0,0.8-0.3,1.2-0.9,1.2
				c-0.6,0-0.9-0.4-0.9-1.2v-4.8c0-0.8,0.3-1.2,0.9-1.2c0.5,0,0.8,0.4,0.9,1.1c0.1,1.6,0.9,2.9,2.6,3.8c1.4,0.8,2.9,1.2,4.7,1.2
				c1.9,0,3.4-0.4,4.8-1.3c1.5-1,2.3-2.4,2.3-4.2c0-1.9-1-3.3-2.9-4.1c-0.7-0.3-2.1-0.6-4.2-1c-2.5-0.4-4.3-1-5.5-1.7
				c-1.8-1.1-2.6-2.7-2.6-4.8c0-2.1,0.8-3.7,2.5-5c1.5-1.1,3.3-1.7,5.5-1.7c2.4,0,4.5,0.8,6.3,2.3v-0.6c0-0.8,0.3-1.2,0.9-1.2
				c0.6,0,0.9,0.4,0.9,1.2v4.4c0,0.8-0.3,1.2-0.9,1.2c-0.5,0-0.8-0.4-0.9-1.1c-0.1-1.4-0.8-2.5-2.2-3.4c-1.2-0.7-2.6-1.1-4.1-1.1
				c-1.6,0-3.1,0.4-4.3,1.2c-1.4,0.9-2,2.2-2,3.8c0,1.4,0.6,2.5,1.7,3.3c0.9,0.6,2.6,1.2,4.9,1.5c2.4,0.4,4,0.8,4.9,1.2
				C208,29.1,209.2,31,209.2,33.7z"/>
			<path class="st2" d="M244.1,28.1c0,2.2-0.4,4.3-1.3,6.2c-0.9,2.1-2.3,3.7-4,4.9c-1.7,1.1-3.4,1.7-5.3,1.7c-3.2,0-5.8-1.4-7.9-4.1
				c-1.9-2.5-2.8-5.4-2.8-8.7s0.9-6.2,2.8-8.7c2-2.7,4.7-4.1,7.9-4.1c2,0,3.8,0.6,5.5,1.8c1.6,1.1,2.8,2.6,3.7,4.5
				C243.6,23.6,244.1,25.8,244.1,28.1z M242.3,28.1c0-2.8-0.8-5.3-2.3-7.4c-1.7-2.4-3.9-3.6-6.6-3.6c-2.7,0-4.9,1.2-6.6,3.6
				c-1.5,2.2-2.3,4.6-2.3,7.4c0,2.8,0.8,5.2,2.3,7.4c1.7,2.4,3.9,3.6,6.6,3.6c2.7,0,4.9-1.2,6.6-3.6
				C241.5,33.4,242.3,30.9,242.3,28.1z"/>
			<path class="st2" d="M269.8,21.9c0,0.8-0.3,1.2-0.9,1.2c-0.6,0-0.9-0.4-0.9-1.2v-4.3h-13.4v9.1h6.3v-2c0-0.8,0.3-1.2,0.9-1.2
				c0.6,0,0.9,0.4,0.9,1.2v5.7c0,0.8-0.3,1.2-0.9,1.2c-0.6,0-0.9-0.4-0.9-1.2v-2h-6.3v10h6c0.8,0,1.2,0.3,1.2,0.9
				c0,0.6-0.4,0.9-1.2,0.9h-10.1c-0.8,0-1.2-0.3-1.2-0.9c0-0.6,0.4-0.9,1.2-0.9h2.3V17.6h-2.3c-0.8,0-1.2-0.3-1.2-0.9
				c0-0.6,0.4-0.9,1.2-0.9h19.2V21.9z"/>
			<path class="st2" d="M301.8,23.7c0,0.8-0.3,1.2-0.9,1.2s-0.9-0.4-0.9-1.2v-6h-7.1v20.8h4.5c0.8,0,1.2,0.3,1.2,0.9
				c0,0.6-0.4,0.9-1.2,0.9h-10.8c-0.8,0-1.2-0.3-1.2-0.9c0-0.6,0.4-0.9,1.2-0.9h4.5V17.6H284v6c0,0.8-0.3,1.2-0.9,1.2
				s-0.9-0.4-0.9-1.2v-7.8h19.6V23.7z"/>
			<path class="st2" d="M328.4,39.3c0,0.6-0.4,0.9-1.2,0.9h-6.1c-0.8,0-1.2-0.3-1.2-0.9c0-0.6,0.4-0.9,1.2-0.9h2.3v-10h-11.6v10h2.3
				c0.8,0,1.2,0.3,1.2,0.9c0,0.6-0.4,0.9-1.2,0.9h-6.1c-0.8,0-1.2-0.3-1.2-0.9c0-0.6,0.4-0.9,1.2-0.9h2V17.6h-1.1
				c-0.8,0-1.2-0.3-1.2-0.9c0-0.6,0.4-0.9,1.2-0.9h5.2c0.8,0,1.2,0.3,1.2,0.9c0,0.6-0.4,0.9-1.2,0.9h-2.3v9.1h11.6v-9.1h-2.3
				c-0.8,0-1.2-0.3-1.2-0.9c0-0.6,0.4-0.9,1.2-0.9h5.2c0.8,0,1.2,0.3,1.2,0.9c0,0.6-0.4,0.9-1.2,0.9h-1.1v20.8h2
				C328,38.5,328.4,38.7,328.4,39.3z"/>
			<path class="st2" d="M352.6,40.2h-19.3c-0.8,0-1.2-0.3-1.2-0.9c0-0.6,0.4-0.9,1.2-0.9h2.3V17.6h-2.3c-0.8,0-1.2-0.3-1.2-0.9
				c0-0.6,0.4-0.9,1.2-0.9h18.3v6c0,0.8-0.3,1.2-0.9,1.2s-0.9-0.4-0.9-1.2v-4.3h-12.5v9.1h6.3v-2c0-0.8,0.3-1.2,0.9-1.2
				c0.6,0,0.9,0.4,0.9,1.2v5.7c0,0.8-0.3,1.2-0.9,1.2c-0.6,0-0.9-0.4-0.9-1.2v-2h-6.3v10h13.4v-5.2c0-0.8,0.3-1.2,0.9-1.2
				s0.9,0.4,0.9,1.2V40.2z"/>
			<path class="st2" d="M388.8,39.3c0,0.6-0.4,0.9-1.2,0.9h-6.4c-0.8,0-1.2-0.3-1.2-0.9c0-0.6,0.4-0.9,1.2-0.9h3.2V17.6H384
				l-6.6,15.3h-2l-6.7-15.3h-0.3v20.8h3.2c0.8,0,1.2,0.3,1.2,0.9c0,0.6-0.4,0.9-1.2,0.9h-6.4c-0.8,0-1.2-0.3-1.2-0.9
				c0-0.6,0.4-0.9,1.2-0.9h1.5V17.6h-1.1c-0.8,0-1.2-0.3-1.2-0.9c0-0.6,0.4-0.9,1.2-0.9h4.3l6.6,15l6.5-15h4.3
				c0.8,0,1.2,0.3,1.2,0.9c0,0.6-0.4,0.9-1.2,0.9h-1.1v20.8h1.5C388.4,38.5,388.8,38.7,388.8,39.3z"/>
			<path class="st2" d="M412.5,28.1c0,2.2-0.4,4.3-1.3,6.2c-0.9,2.1-2.3,3.7-4,4.9c-1.7,1.1-3.4,1.7-5.3,1.7c-3.2,0-5.8-1.4-7.9-4.1
				c-1.9-2.5-2.8-5.4-2.8-8.7s0.9-6.2,2.8-8.7c2-2.7,4.7-4.1,7.9-4.1c2,0,3.8,0.6,5.5,1.8c1.6,1.1,2.8,2.6,3.7,4.5
				C412,23.6,412.5,25.8,412.5,28.1z M410.7,28.1c0-2.8-0.8-5.3-2.3-7.4c-1.7-2.4-3.9-3.6-6.6-3.6s-4.9,1.2-6.6,3.6
				c-1.5,2.2-2.3,4.6-2.3,7.4c0,2.8,0.8,5.2,2.3,7.4c1.7,2.4,3.9,3.6,6.6,3.6c2.7,0,4.9-1.2,6.6-3.6C410,33.4,410.7,30.9,410.7,28.1
				z"/>
			<path class="st2" d="M438.5,16.8c0,0.6-0.4,0.9-1.2,0.9h-1.5v22.6h-2.2l-12.9-21.8v20h3.2c0.8,0,1.2,0.3,1.2,0.9
				c0,0.6-0.4,0.9-1.2,0.9h-6.4c-0.8,0-1.2-0.3-1.2-0.9c0-0.6,0.4-0.9,1.2-0.9h1.5V17.6h-2.3c-0.8,0-1.2-0.3-1.2-0.9
				c0-0.6,0.4-0.9,1.2-0.9h4.6l12.9,21.8V17.6h-3.2c-0.8,0-1.2-0.3-1.2-0.9c0-0.6,0.4-0.9,1.2-0.9h6.4
				C438.2,15.9,438.5,16.2,438.5,16.8z"/>
			<path class="st2" d="M462.6,23.7c0,0.8-0.3,1.2-0.9,1.2s-0.9-0.4-0.9-1.2v-6h-7.1v20.8h4.5c0.8,0,1.2,0.3,1.2,0.9
				c0,0.6-0.4,0.9-1.2,0.9h-10.8c-0.8,0-1.2-0.3-1.2-0.9c0-0.6,0.4-0.9,1.2-0.9h4.5V17.6h-7.1v6c0,0.8-0.3,1.2-0.9,1.2
				c-0.6,0-0.9-0.4-0.9-1.2v-7.8h19.6V23.7z"/>
			<path class="st2" d="M489.2,39.3c0,0.6-0.4,0.9-1.2,0.9H482c-0.8,0-1.2-0.3-1.2-0.9c0-0.6,0.4-0.9,1.2-0.9h2.3v-10h-11.6v10h2.3
				c0.8,0,1.2,0.3,1.2,0.9c0,0.6-0.4,0.9-1.2,0.9H469c-0.8,0-1.2-0.3-1.2-0.9c0-0.6,0.4-0.9,1.2-0.9h2V17.6h-1.1
				c-0.8,0-1.2-0.3-1.2-0.9c0-0.6,0.4-0.9,1.2-0.9h5.2c0.8,0,1.2,0.3,1.2,0.9c0,0.6-0.4,0.9-1.2,0.9h-2.3v9.1h11.6v-9.1H482
				c-0.8,0-1.2-0.3-1.2-0.9c0-0.6,0.4-0.9,1.2-0.9h5.2c0.8,0,1.2,0.3,1.2,0.9c0,0.6-0.4,0.9-1.2,0.9h-1.1v20.8h2
				C488.9,38.5,489.2,38.7,489.2,39.3z"/>
		</g>
	</g>
</g>
</svg>
