<?xml version="1.0" encoding="utf-8"?>
<!-- Generator: Adobe Illustrator 24.2.0, SVG Export Plug-In . SVG Version: 6.00 Build 0)  -->
<svg version="1.1" id="Layer_1" xmlns="http://www.w3.org/2000/svg" xmlns:xlink="http://www.w3.org/1999/xlink" x="0px" y="0px"
	 viewBox="0 0 551 57.3" style="enable-background:new 0 0 551 57.3;" xml:space="preserve">
<style type="text/css">
	.st0{fill:#F29100;}
	.st1{fill:#F6F7F8;}
	.st2{fill:#FFFFFF;}
</style>
<polygon class="st0" points="524.1,28.7 550.6,0.8 0.4,0.8 26.9,28.7 0.4,56.5 550.6,56.5 "/>
<g>
	<g>
		<path class="st1" d="M161.5,38.3h-4.1c-2.9,0-5.3-2-6.1-5c-1.2,1.7-2.6,2.5-4.3,2.5c-4.3,0-7-3.2-7-7.9c0-5.1,2.7-8.2,7-8.2h8.3
			v10.7c0,2.6,1.2,4,3.8,4h2.4V38.3z M151.5,27.5v-4.9h-3.4c-2.6,0-4.2,2.1-4.2,5.2c0,2.6,1.4,4.8,3.7,4.8
			C150,32.7,151.5,30.4,151.5,27.5z M148.7,17H145v-3.8h3.7V17z M155.1,17h-3.7v-3.8h3.7V17z"/>
		<path class="st1" d="M168,38.3h-7.4v-3.8h7.4V38.3z"/>
		<path class="st1" d="M170.6,45.6h-3.7v-3.8h3.7V45.6z M177.1,32.2c0,4.1-1.9,6.1-5.6,6.1h-4v-3.8h3.2c1.2,0,2-0.4,2.4-1.1
			c0.2-0.4,0.3-1.2,0.3-2.4V23h3.8V32.2z M177,45.6h-3.7v-3.8h3.7V45.6z"/>
		<path class="st1" d="M193.8,38.3h-6c-0.6,3.6-3.6,5.6-8.2,5.6v-3.2c3.1,0,4.7-1.5,4.7-4.8V23h3.8v11.5h5.8V38.3z"/>
		<path class="st1" d="M220,38.3h-27.4v-3.8h4.6c-0.6-1.4-0.9-2.5-0.9-3.5c0-4,2.7-6.5,6.7-6.5c3.9,0,6.6,2.5,6.6,6.5
			c0,0.9-0.3,2.1-0.9,3.5h4.4c0-0.4,0-0.7,0-1c0-5.7-3.5-10.6-8.4-11.7l0.5-3.6c7.3,1.5,11.6,7.8,11.6,16.3h3V38.3z M206.1,30.9
			c0-2.1-1.2-3.5-3.1-3.5c-2,0-3.1,1.5-3.1,3.5c0,2.1,1.3,3.6,3.1,3.6C204.8,34.5,206.1,32.9,206.1,30.9z"/>
		<path class="st1" d="M226.6,38.3h-7.4v-3.8h7.4V38.3z"/>
		<path class="st1" d="M225.6,38.3v-3.8h3.4c1.9,0,2.9-1.3,2.9-4V23h3.8v7.3c0,2-0.2,3.3-0.6,3.9v0.2h3.5c1.9,0,2.9-1.2,2.9-3.7V23
			h3.8v7.3c0,2.2-0.3,3.6-0.8,4.1h3.7c1.9,0,2.9-1.2,2.9-3.7V23h3.8v7.3c0,1.6-0.3,3-0.8,4.2h5.8v3.8H225.6z M238.3,19.9v-3.7h3.7
			v3.7H238.3z M241.5,14.6v-3.8h3.7v3.8H241.5z M244.6,19.9v-3.7h3.7v3.7H244.6z"/>
		<path class="st1" d="M268.2,32.2c0,4.1-1.9,6.1-5.7,6.1h-4v-3.8h3.2c1.2,0,2-0.4,2.4-1.1c0.2-0.4,0.3-1.2,0.3-2.4V16.5h3.8V32.2z"
			/>
		<path class="st1" d="M275.4,38.3h-3.7V16.5h3.7V38.3z"/>
		<path class="st1" d="M296.9,38.3h-4.4c-1.8,0-3.2-0.6-4.2-1.8c-0.9-1.1-1.3-2.5-1.3-4.4V16.5h3.7v14.1c0,1.7,0.4,2.7,1.1,3.2
			c0.5,0.4,1.5,0.6,2.9,0.6h2.2V38.3z"/>
		<path class="st1" d="M303.2,38.3h-7.4v-3.8h7.4V38.3z"/>
		<path class="st1" d="M317.9,38.3h-15.6v-3.8h3.5c1.1,0,1.9-0.4,2.3-1.1c0.3-0.5,0.4-1.4,0.4-2.6V23h3.7v7.5c0,2-0.3,3.3-0.8,3.9
			h6.5V38.3z M312.2,19.9h-3.7v-3.7h3.7V19.9z"/>
		<path class="st1" d="M345.1,38.3H317v-3.8h2.8c1.9,0,2.9-1.3,2.9-4v-5.9h3.8v4.6c2.9-4,6.7-6.3,10.3-6.3c5.8,0,8.7,4,8.7,11.9
			C345.3,35.9,345.2,37,345.1,38.3z M341.4,34.4l0.1-1.1c0-4.3-2-7.1-5.2-7.1c-3.8,0-7.8,3.5-9.9,8.1H341.4z M338,19.9h-3.7v-3.7
			h3.7V19.9z"/>
		<path class="st1" d="M363.3,37.8c0,4-2.4,6-7.3,6v-3c2.4-0.1,3.5-1.7,3.6-4.3c-0.6,1.1-1.9,1.7-3.6,1.7c-4.3,0-7.2-3.2-7.2-7.7
			c0-4.5,3-7.6,7.2-7.6c4.4,0,7.3,3.3,7.3,7.7V37.8z M359.4,30.8c0-2.6-1.4-4.4-3.6-4.4c-2,0-3.3,1.9-3.3,4.2c0,2.4,1.4,4.3,3.5,4.3
			C358,34.9,359.4,33,359.4,30.8z"/>
		<path class="st1" d="M380,38.3h-6c-0.6,3.6-3.6,5.6-8.2,5.6v-3.2c3.1,0,4.7-1.5,4.7-4.8V23h3.8v11.5h5.8V38.3z"/>
		<path class="st1" d="M386.2,38.3h-7.4v-3.8h7.4V38.3z"/>
		<path class="st1" d="M392.9,38.3h-7.4v-3.8h7.4V38.3z"/>
		<path class="st1" d="M410.9,38.3h-18.7v-3.8h4.9c-0.5-1.1-0.7-2.3-0.7-3.5c0-2.3,0.7-4.2,2.2-5.8c1.4-1.6,3.3-2.4,5.6-2.4
			c3,0,5.5,1.6,6.6,4.3l-3.2,1.5c-0.6-1.7-1.8-2.6-3.5-2.6c-1.2,0-2.2,0.5-2.9,1.5c-0.6,0.9-0.9,2-0.9,3.3c0,1.5,0.4,2.7,1.2,3.6
			h9.5V38.3z"/>
	</g>
</g>
</svg>
