<?xml version="1.0" encoding="utf-8"?>
<!-- Generator: Adobe Illustrator 24.2.0, SVG Export Plug-In . SVG Version: 6.00 Build 0)  -->
<svg version="1.1" id="Layer_1" xmlns="http://www.w3.org/2000/svg" xmlns:xlink="http://www.w3.org/1999/xlink" x="0px" y="0px"
	 viewBox="0 0 551 57.3" style="enable-background:new 0 0 551 57.3;" xml:space="preserve">
<style type="text/css">
	.st0{fill:#F29100;}
	.st1{fill:#F6F7F8;}
	.st2{fill:#FFFFFF;}
</style>
<g>
	<polygon class="st0" points="524.1,28.7 550.6,0.8 0.4,0.8 26.9,28.7 0.4,56.5 550.6,56.5 	"/>
</g>
<g>
	<g>
		<g>
			<path class="st2" d="M124.6,42.7c3.1-8.3,7.3-18.4,9.5-23.1c1-2.2,1.9-2.9,3.6-2.9c1.5,0,2.2,0.6,2.6,1
				c2.7,4.6,8.9,20.9,10.4,24.9h-4.3c-0.5-1.1-1.6-4.2-2.5-6.6h-12.8c-1.2,2.8-2,5.3-2.5,6.6H124.6z M132.5,32.7h10.1
				c-1.8-4.7-4.1-10.5-5-12.2C136.5,22.8,134.4,27.8,132.5,32.7z"/>
			<path class="st2" d="M151.9,19.1c0-0.9,0.4-1.9,1.9-1.9c1,0,1.5,0.3,1.7,0.5c0.9,1.3,5.2,8.2,8.2,11.9c2.6-3.7,5.4-8.3,6.8-10.4
				c0.8-1.2,1.4-2,2.8-2c1.2,0,2.1,0.7,2.2,0.9c-1.2,2.2-6.6,10.9-9.9,15v9.6h-4.2V33c-2.7-3.3-6.5-8.8-8.1-11.1
				C152.5,20.8,151.9,19.9,151.9,19.1z"/>
			<path class="st2" d="M179.7,19.1c0-1.3,0.8-1.9,2.1-1.9c0.9,0,1.6,0.3,1.9,0.4v25h-4V19.1z"/>
			<path class="st2" d="M208,36.6V19.1c0-1.3,0.8-1.9,2.1-1.9c0.9,0,1.6,0.3,1.9,0.4v25h-4.2c-3.7-5.7-10.4-16.1-13.3-20v20h-3.9
				V19.3c0-1,0.9-2.1,2.5-2.1c1.3,0,2.1,0.6,2.5,0.9C197.1,20,204.1,30.3,208,36.6z"/>
			<path class="st2" d="M244.8,17.2c1.3,0,1.9,0.6,1.9,1.7c0,0.9-0.3,1.5-0.5,1.8h-8.6v22h-4v-22H227c-1.3,0-1.9-0.6-1.9-1.7
				c0-0.9,0.3-1.5,0.5-1.8H244.8z"/>
			<path class="st2" d="M254.8,31.5v7.8h12.8v3.5h-16.8V19.4c0-1.4,0.7-2.2,2.3-2.2H266c1.2,0,1.9,0.6,1.9,1.7
				c0,0.9-0.3,1.5-0.5,1.8h-12.5v7.2h10.6c1.2,0,1.9,0.6,1.9,1.7c0,0.9-0.3,1.5-0.5,1.8H254.8z"/>
			<path class="st2" d="M278,28.2c2.4-2.3,7.8-7.1,10.7-9.6c1-0.9,1.6-1.4,2.9-1.4c1.6,0,2.4,1.2,2.6,1.3
				c-1.5,1.3-10.2,8.8-12.1,10.7c5,4.4,9.6,9,13,13.5h-5c-2.9-3.5-8-8.8-12.1-11.8v11.8h-4V19.1c0-1.3,0.8-1.9,2.1-1.9
				c0.9,0,1.6,0.3,1.9,0.4V28.2z"/>
			<path class="st2" d="M298.8,19.1c0-1.3,0.8-1.9,2.1-1.9c0.9,0,1.6,0.3,1.9,0.4v21.6h12.4v3.5h-16.4V19.1z"/>
			<path class="st2" d="M319.2,12.7c0-1.2,1.2-2.3,2.4-2.3s2.4,1.2,2.4,2.3s-1.1,2.3-2.4,2.3S319.2,13.9,319.2,12.7z M319.6,19.1
				c0-1.3,0.8-1.9,2.1-1.9c0.9,0,1.6,0.3,1.9,0.4v25h-4V19.1z"/>
			<path class="st2" d="M330.4,42.7V19.4c0-1.4,0.7-2.2,2.3-2.2h11.6c1.3,0,1.9,0.6,1.9,1.7c0,0.9-0.3,1.5-0.5,1.8h-11.3v7.6h8.8
				c1.2,0,1.9,0.6,1.9,1.7c0,0.9-0.3,1.5-0.5,1.8h-10.2v10.9H330.4z"/>
			<path class="st2" d="M351.3,19.1c0-1.3,0.8-1.9,2.1-1.9c0.9,0,1.6,0.3,1.9,0.4v21.6h12.4v3.5h-16.4V19.1z"/>
			<path class="st2" d="M376.1,31.5v7.8h12.8v3.5h-16.8V19.4c0-1.4,0.7-2.2,2.3-2.2h12.8c1.2,0,1.9,0.6,1.9,1.7
				c0,0.9-0.3,1.5-0.5,1.8h-12.5v7.2h10.6c1.2,0,1.9,0.6,1.9,1.7c0,0.9-0.3,1.5-0.5,1.8H376.1z"/>
			<path class="st2" d="M399.2,33v9.7h-3.9V19.4c0-1.4,0.8-2.2,2.3-2.2h6.5c5.9,0,8.9,3.6,8.9,7.9c0,3-1.6,5.8-4.7,7.1
				c2.3,2.6,5.3,7.7,6.6,10.4h-4.6c-0.8-1.8-3.6-6.7-6-9.5c-0.3,0-0.6,0-0.9,0C401.4,33.2,400.2,33.1,399.2,33z M403.4,20.5h-4.2
				v9.2c0.3,0.1,1.4,0.3,3.4,0.3c4.6,0,6.3-2,6.3-4.8C408.9,22.5,407.2,20.5,403.4,20.5z"/>
			<path class="st2" d="M419.2,12.7c0-1.2,1.2-2.3,2.4-2.3s2.4,1.2,2.4,2.3s-1.1,2.3-2.4,2.3S419.2,13.9,419.2,12.7z M419.6,19.1
				c0-1.3,0.8-1.9,2.1-1.9c0.9,0,1.6,0.3,1.9,0.4v25h-4V19.1z"/>
		</g>
	</g>
</g>
</svg>
