<?xml version="1.0" encoding="utf-8"?>
<!-- Generator: Adobe Illustrator 24.2.0, SVG Export Plug-In . SVG Version: 6.00 Build 0)  -->
<svg version="1.1" id="Layer_1" xmlns="http://www.w3.org/2000/svg" xmlns:xlink="http://www.w3.org/1999/xlink" x="0px" y="0px"
	 viewBox="0 0 179.9 163" style="enable-background:new 0 0 179.9 163;" xml:space="preserve">
<style type="text/css">
	.st0{fill:#28323D;}
	.st1{fill:#F29104;}
</style>
<g>
	<path class="st0" d="M50.4,87.9C37.5,77,31.1,63.2,32.2,46.4c0.9-13,6.5-23.9,16.2-32.4c19.2-16.9,48.2-15.8,65.9,2.4
		c9.9,10.2,14.6,22.5,13.7,36.7c-0.9,14.2-7.2,25.7-18.1,34.7c3.6,2.1,7.3,3.9,10.8,6.2c3.4,2.2,6.7,4.8,10,7.2
		c-2.3,2.2-4.3,4.2-6.4,6.3c-1.2-0.9-2.5-2-3.8-3.1c-5.8-4.5-12.2-8-19.2-10.4c-0.6-0.2-1.3-0.2-1.9,0.1c-12.8,5.5-25.7,5.5-38.5,0
		c-0.8-0.3-1.5-0.4-2.3-0.1C39.4,101,26,114.4,17.2,132.7c-3.6,7.6-5.8,15.6-6.9,23.9c0,0.3,0,0.6,0,0.9c0,2.4-1.9,4.3-4.2,4.4
		c-2.4,0.1-4.5-1.9-4.4-4.3c0.1-2.3,0.5-4.5,0.9-6.8c2.3-12.8,7.1-24.6,14.6-35.3C25.4,103.7,36,94.7,49,88.6
		C49.4,88.4,49.9,88.2,50.4,87.9z M40.6,50C40.5,71.5,58.1,89.3,80,89.5c21.5,0.2,39.5-17.5,39.7-39c0.2-21.9-17.4-39.7-39.4-39.9
		C58.5,10.4,40.8,28.1,40.6,50z"/>
	<path class="st1" d="M109.6,150.4c2.9-3,5.8-5.9,8.7-8.8c17.2-17.2,34.3-34.3,51.5-51.5c1-1,2.1-1.9,3.6-2c1.9-0.1,3.8,0.9,4.6,2.7
		c0.9,1.8,0.6,3.9-1,5.4c-4.2,4.2-8.4,8.4-12.7,12.7c-16.9,16.9-33.8,33.8-50.7,50.7c-1.5,1.5-3.1,2.7-5.4,1.9
		c-0.8-0.3-1.7-0.8-2.3-1.4c-11.5-11.4-22.9-22.8-34.3-34.3c-2.1-2.1-2.2-5-0.2-6.9c1.9-1.9,4.8-1.8,6.9,0.2
		c10.1,10.1,20.2,20.2,30.3,30.3C109,149.8,109.2,150,109.6,150.4z"/>
</g>
</svg>
