<svg id="Layer_1" data-name="Layer 1" xmlns="http://www.w3.org/2000/svg" viewBox="0 0 57.89 56.36"><defs><style>.cls-1{fill:#f7f8f9;}.cls-2,.cls-3{fill:#28323d;}.cls-2{fill-rule:evenodd;}</style></defs><rect class="cls-1" width="57.89" height="56.63"/><path class="cls-2" d="M19.8,15.93v1.63l-1.65,0,0,1.57-1.57,0,0-1.59h-3.3l0,1.55-1.56.05,0-1.59H9.87l0,1.59H8.26v1.55l-3.19.05v4.9l1.6,0v1.53l-1.55.06L5.05,29l1.6,0v1.42l-1.59,0,0,1.71H8.26v3.26l4.93.08v1.41l-1.59,0v1.72l6.57-.06,0,1.65h1.59v1.6H18.13v1.72h1.73V42.07L24.53,42l0,1.59h3.3v1.46H23.07V43.49l-1.73,0v1.68l1.57,0,0,1.57-1.6,0,0,1.58H19.73v1.49L18.19,50l-.07,1.71h4.94L23,50l-1.58,0V48.53l6.48,0L28,46.78l1.59,0a15,15,0,0,1,.09-3.17h1.51V41.87H29.63l-.05-1.56-1.59,0,0-1.59,1.58,0V37L28,37,28,33.71A7.63,7.63,0,0,0,31,33.3l0,3.74,3.42.05,0-1.6,1.47,0v4.69l-1.47.07,0-1.72H31.09l0,1.64,3.33.08v3.17l-1.59,0v3.28l1.6,0,0,1.57-1.58,0v3.28l1.73,0V48.5H36V50a4.3,4.3,0,0,0,1.53.11l.08,1.55,3.32,0V48.42l-1.56-.06,0-1.58-1.59,0V45.21l3.18,0,0,1.59h3.19l0,1.71h4.92v3.14l1.73,0V48.5h1.56l0-1.67-1.59,0V45.18l1.59,0V41.91l-1.58,0,0-1.59,1.6,0,0-1.68-3.18,0V37.14l3.16-.07,0-4.87-1.59,0V29l1.6,0,0-1.68-6.59,0-.06,3.31h1.72l0-1.58h1.58l0,3.16,1.59,0v1.59H49.09l0,3.18H47.47v3.31h1.58v1.6H45.89l0-6.49H44.13l0,1.59H41l-.06-1.47h1.73l0-1.55,1.59,0v-5l-1.6,0V27.27H41l-.12-1.6h3.3l.06-3.17h3.18l0,1.41L45.73,24l0,1.71h1.69l0-1.58h1.6v1.56l3.29,0,0-1.68-1.6,0V20.89h1.55l0-1.67-1.73,0v1.59H47.46V19.24l-1.73-.08,0,1.6-1.58,0v1.58H42.55l0,1.58h-6.4V22.49h1.59l0-1.58,4.91,0V19.37l1.57-.08,0-1.71-1.72,0,0,1.57H41l0-1.56-1.59,0V14.26H37.76l0-1.41,1.6-.05V11.07l-1.7,0,0,1.58H36.13V9.48h3.13l.07-3.32h-1.6l0-1.58H34.46l-.07,1.57-1.58,0,0,1.59H31.23l-.05-3.14-4.88,0-.05,1.59H24.66V4.61L23,4.57l-.07,1.58-3.18,0V9.45l1.6,0v1.59l-1.58,0,0,1.58H18.13V16Zm3.27-9.65,1.46.06,0,1.4-1.44,0Zm11.47,0H37.6l0,1.47H36l0,1.58H34.54ZM18.14,25.68l4.91,0,0-3.16,1.55-.08.12-1.53h1.5l0-3.31h-1.7l0,1.57-1.44,0,0-1.58-1.6,0L21.5,16l1.56,0V14.39h1.46L24.58,16h1.68V14.27l-1.59-.07V12.67H22.93l0,1.58-1.55,0-.11,1.55-1.43.09.06-3.11,1.59,0,0-1.72,1.58,0V9.48l1.58,0V7.89h6.41l0,1.58,3.3,0v1.57H29.59V9.37l-1.73,0v1.72l-1.59,0v1.68l3.2,0,0,1.42H27.86v3.31h3.33l0-1.58,1.55,0,0,1.59,1.72,0L34.59,16h1.54V14.43l1.47,0v3.19H36l0,1.58-4.92.08,0,1.64h1.7v1.47c-2,0-1.5-.14-1.83.35,0,0,0,.13,0,.11s0,.07-.06.11l-.76-.24-.3-.12c-.27-.11-.16-.09-.27-.13-1.26-.44-3.78.74-4.79,1.55-.68.55-1.25,2.45-1.66,3.27l-1.74,0v1.58H19.86l0-1.58H18.12ZM31.19,12.81H34.4v3l-.53,0h-.55l-.53,0V14.27l-1.59,0Zm-1.6,1.58h1.47v1.46H29.59Zm-9.8,3.17,1.54,0,0,1.6-1.43-.06Zm17.94,0H39.2l0,1.6-1.44,0Zm-1.6,1.71H37.6v1.46H36.13Zm-21.21,0,1.47,0,0,1-.08.49-1.39,0Zm-4.93,0h1.6v3H8.39V20.89H10Zm3.33,1.58h1.47v1.47H13.32Zm4.82,4.79h-1.6l0-1.71-1.6-.05,0-1.41h1.57V20.9l1.59,0V19.3h1.6l0,1.58h1.67l0-1.58h1.47v3l-1.59,0,0,1.58h-3.2Zm14.68-3.19h1.57V24l-1.6,0ZM8.39,24.08h3.2l0,1.59h4.78v1.6H14.83l0,1.66,1.73,0,0-1.59h1.53l0,3-4.92,0v1.7l-1.59,0v1.57H10V30.61l1.57,0V27.28H8.39Zm26.23,3.19a14.58,14.58,0,0,1-.09-3.19h1l.49.07,0,3.12Zm-1.26,1.57a4.69,4.69,0,1,1-9.25-1.56C25.18,21.33,34.33,22.82,33.36,28.84Zm-25,.2L9.84,29v1.47l-1.45,0ZM36.12,27.4H37.6v1.54l3.32.06v1.43l-4.77,0Zm4.81,7.42v.51l-1.6,0v-1.6h-1.7l0,1.58H36.14l0-1.54-1.59-.06V30.58l1.47.05v1.55h4.93V30.7a2.64,2.64,0,0,1,1.6,0v1.47l-1.59,0Zm-26-2.63,1.38,0,.08,1.6-1.48,0Zm3.18,0h1.61v1.6H18.12ZM26.26,37h-1.6V35.42l-4.8-.07V34l1.6-.06V29l1.46,0,0,1.59c.92,0,.77.2,1.15.77a5.41,5.41,0,0,0,3.13,2.19l-1,.25ZM13.34,33.9h1.41l.05,1.46H13.33Zm19.46,0,1.57,0,0,1.45H32.8ZM14.92,35.54l1.59,0,0-1.59H18.1l0,3H15Zm11.34,1.6.5-.07,1.1,0v1.46l-1.6,0Zm-8.1,1.48-.05-1.53h3.21v1.56l1.73,0,0-1.6h1.38l.06,3.13-4.67.05V38.55Zm6.5,1.65h1.59v1.6H24.69Zm11.47,0h1.45v1.6H36.16ZM28,42h1.48l0,1.43-1.38,0Zm11.35-3.32h4.74l.06,4.78H39.39Zm-3.34,8-1.45.06v-3.2H37.6v1.46H36Zm9.87-3.14h3.21v1.46H45.86Zm3.33,3.22,1.48,0,0,1.6H49.23Z"/><path class="cls-2" d="M41,16h11.3L52.4,4.59,41,4.57A113.93,113.93,0,0,0,41,16M42.67,6.3h8l-.05,8-8,0Z"/><path class="cls-2" d="M5.06,51.69H16.52V40.8l0-.53H5.06ZM6.79,42h8v8h-8Z"/><path class="cls-2" d="M5.06,16H16.52V4.57H5.11ZM6.81,6.29h8l-.06,8H6.79Z"/><polygon class="cls-2" points="44.13 12.78 49.19 12.8 49.2 12.26 49.2 7.76 44.13 7.76 44.13 12.78"/><path class="cls-2" d="M8.26,12.74l5.06,0v-5a30.53,30.53,0,0,0-5.06,0Z"/><polygon class="cls-2" points="8.28 48.5 13.32 48.46 13.28 43.46 8.26 43.49 8.28 48.5"/><path class="cls-2" d="M25.72,26.13c0,4.44-.45,5,1.05,5h4c.8,0,1-.07,1-.92V26.13c0-.8-.22-1-1-1h-4c-.9,0-1.05.14-1.05,1m5.24.76c-1,.1-1.11.05-1-1H31Zm-2.64.21a1.15,1.15,0,0,1,1,2.09A1.2,1.2,0,0,1,27.7,27.6C27.9,27.14,28,27.25,28.32,27.1Zm2.54.59L31.05,29c0,.31.06,1.23-.17,1.4a25,25,0,0,1-4,.06c-.73-.08-.49-.65-.49-1.46,0-.25-.06-2,.43-1.17.26.44,0,.85.53,1.52a1.85,1.85,0,0,0,3.2-.75c0-.11.08-.41.09-.43Z"/><path class="cls-2" d="M24.53,51.6a18,18,0,0,0,3.47.09L27.94,50l-3.4.06Z"/><rect class="cls-3" x="29.46" y="48.37" width="1.73" height="1.72"/><polygon class="cls-2" points="45.73 51.69 46.98 51.7 47.47 51.62 47.43 49.98 45.78 49.96 45.73 50.45 45.73 51.69"/><polygon class="cls-2" points="5.06 38.69 6.79 38.63 6.79 36.99 6.28 36.96 5.6 36.95 5.06 36.96 5.06 38.69"/><polygon class="cls-2" points="40.94 42 42.62 42 42.66 40.27 40.95 40.27 40.94 42"/><polygon class="cls-2" points="18.14 46.77 19.86 46.77 19.81 45.05 18.14 45.05 18.14 46.77"/><polygon class="cls-2" points="5.06 19.3 6.77 19.29 6.79 17.61 5.07 17.57 5.06 19.3"/><polygon class="cls-2" points="5.05 35.49 6.78 35.48 6.78 33.8 5.09 33.77 5.05 35.49"/><polygon class="cls-2" points="45.72 33.9 47.47 33.88 47.45 32.21 45.81 32.17 45.72 33.9"/></svg>