<svg id="Layer_1" data-name="Layer 1" xmlns="http://www.w3.org/2000/svg" viewBox="0 0 128.83 23.95"><defs><style>.cls-1{fill:#e5e5e5;}.cls-2{fill:gray;}</style></defs><path class="cls-1" d="M126.1.08H2.9A2.73,2.73,0,0,0,.08,2.71V21.39A2.73,2.73,0,0,0,2.9,24H126.1a2.73,2.73,0,0,0,2.82-2.63V2.71A2.73,2.73,0,0,0,126.1.08Z" transform="translate(-0.08 -0.08)"/><path class="cls-2" d="M7.1,18.39a.48.48,0,0,1,0-.66L11,14.19a.45.45,0,0,1,.65,0l1.39,1.54a.46.46,0,0,1,0,.65L9.15,20a.47.47,0,0,1-.65,0Z" transform="translate(-0.08 -0.08)"/><path class="cls-2" d="M16.46,5.92a5.12,5.12,0,1,1-4.83,3.44,5.09,5.09,0,0,1,4.83-3.44m0,1.39a3.73,3.73,0,0,0-3.52,2.51,3.74,3.74,0,0,0,2.3,4.74,4,4,0,0,0,1.22.2A3.73,3.73,0,0,0,20,12.25a3.64,3.64,0,0,0-.17-2.84,3.69,3.69,0,0,0-2.13-1.9h0a4,4,0,0,0-1.22-.2Z" transform="translate(-0.08 -0.08)"/></svg>