<?xml version="1.0" encoding="utf-8"?>
<!-- Generator: Adobe Illustrator 24.2.0, SVG Export Plug-In . SVG Version: 6.00 Build 0)  -->
<svg version="1.1" id="Layer_1" xmlns="http://www.w3.org/2000/svg" xmlns:xlink="http://www.w3.org/1999/xlink" x="0px" y="0px"
	 viewBox="0 0 67 67" style="enable-background:new 0 0 67 67;" xml:space="preserve">
<style type="text/css">
	.st0{fill:#24CDD5;}
	.st1{fill:#FFFFFF;}
</style>
<circle class="st0" cx="33.5" cy="33.5" r="28.6"/>
<path class="st0" d="M33.5,0.9c-18,0-32.6,14.6-32.6,32.6s14.6,32.6,32.6,32.6c18,0,32.6-14.6,32.6-32.6C66,15.5,51.5,1,33.5,0.9z"
	/>
<path class="st1" d="M28.4,30.9c-1.1,0.2-2.2,0.2-3.3-0.1c-0.1,0-0.3,0-0.4,0.1c-1.2,0.5-2.5,1.1-3.7,1.6c-0.3,0.1-0.5,0.2-0.7-0.1
	c-0.2-0.3-0.1-0.5,0.1-0.7c0.7-0.9,1.3-1.7,2-2.6c-1.2-1.3-1.9-3-1.9-4.7c0-1.3,0.4-2.5,1.1-3.6c1.5-2.3,4.3-3.3,7-2.6
	c2.9,0.8,5,3.4,5,6.4c0.6,0.1,1.2,0.2,1.9,0.4c0.6,0.2,1.2,0.4,1.7,0.6c0.2-0.7,0.4-1.4,0.6-2.1c1.4-3.3,5.2-4.9,8.5-3.5
	c3.3,1.4,4.9,5.2,3.5,8.5c-0.1,0.3-0.3,0.7-0.5,1c-0.2,0.3-0.2,0.6-0.1,0.9c0.3,1,0.5,2,0.8,3c0.1,0.3,0.2,0.5-0.1,0.7
	c-0.3,0.2-0.5,0-0.8-0.1c-0.9-0.6-1.8-1.1-2.8-1.7c-0.1-0.1-0.3-0.1-0.5-0.1c-2.1,0.7-4.4,0.2-6.1-1.1c0,0-0.1-0.1-0.1-0.1
	c-0.1,0.3-0.1,0.6,0.1,0.8c0.2,0.3,0.4,0.7,0.4,1.1c0.1,1.1-0.2,2.2-1,3c-0.1,0.1-0.1,0.2-0.1,0.4c-0.2,1.5-1.1,2.8-2.4,3.6
	c-0.2,0.1-0.3,0.3-0.3,0.5c0.1,0.2,0.1,0.5,0.2,0.7c0.1,0.4,0.4,0.7,0.8,0.8c2,0.6,4,1.4,5.9,2.3c0.8,0.3,1.3,1,1.5,1.9
	c0.1,0.5,0.2,0.9,0.4,1.4c0.3,1.2-0.4,2.5-1.7,2.8c-0.2,0.1-0.4,0.1-0.6,0.1c-5.9,0-11.8,0-17.7,0c-1.3,0-2.3-1-2.4-2.3
	c0-0.2,0-0.4,0.1-0.6c0.1-0.6,0.3-1.1,0.5-1.7c0.1-0.6,0.5-1.1,1.1-1.3c1.5-0.7,3.1-1.4,4.7-2c0.5-0.2,0.9-0.4,1.4-0.5
	c0.5-0.1,0.9-0.6,1-1.1c0.2-0.8,0.2-0.8-0.4-1.2c-1.2-0.8-2-2.1-2.2-3.5c0-0.1-0.1-0.3-0.2-0.4c-0.8-0.9-1.2-2.2-0.9-3.4
	c0.1-0.3,0.4-0.5,0.5-0.8C28.3,31.4,28.4,31.2,28.4,30.9z M38.6,43.5c-0.5-0.2-1.1-0.4-1.6-0.5c-0.9-0.2-1.5-0.9-1.6-1.8
	c-0.1-0.3-0.1-0.6-0.2-0.9c-0.1-0.4,0.1-0.8,0.5-0.9c1.1-0.5,1.9-1.5,2.2-2.7c0.1-0.6,0.3-1.1,0.7-1.6c0.5-0.6,0.7-1.4,0.5-2.2
	c0-0.1-0.1-0.2-0.2-0.3c-0.4-0.1-0.5-0.3-0.5-0.7c0.1-0.4,0.1-0.9,0.2-1.3c0-0.3,0-0.5-0.2-0.7c-0.4-0.6-0.7-1.3-1-2
	c-0.1-0.8-0.7-1.5-1.5-1.6c-0.3-0.1-0.5-0.2-0.8-0.3c-0.6-0.1-1.1-0.3-1.7-0.4c0,0.2-0.1,0.3-0.1,0.3c-0.4,1.8-1.5,3.3-3,4.2
	c-0.4,0.2-0.9,0.3-1.1,0.6c-0.2,0.3,0,0.8,0,1.3c0,0.3-0.2,0.5-0.4,0.6c-0.1,0-0.2,0.2-0.3,0.3c-0.1,0.7,0,1.4,0.4,2.1
	c0.1,0.1,0.1,0.2,0.3,0.3c0.3,0.1,0.4,0.4,0.4,0.7c0.1,1.5,1.1,2.8,2.4,3.4c0.3,0.1,0.4,0.4,0.4,0.6c-0.1,0.5-0.2,1-0.3,1.5
	c-0.2,0.7-0.7,1.2-1.3,1.4c-0.5,0.1-1,0.3-1.5,0.5c-0.1,0-0.2,0.1-0.3,0.1C31.2,45.2,36.9,45,38.6,43.5z M33.8,49.5
	c2.9,0,5.8,0,8.7,0c0.8,0.1,1.5-0.5,1.5-1.3c0-0.2,0-0.4-0.1-0.6c-0.1-0.5-0.3-1.1-0.5-1.6c-0.1-0.3-0.3-0.5-0.5-0.6
	c-1-0.5-2.1-1-3.2-1.5c-0.1,0-0.3,0-0.4,0.1c-0.6,0.4-1.1,0.7-1.7,1c-1.9,0.7-4,0.8-6,0.5c-1.3-0.1-2.6-0.6-3.6-1.5
	c-0.1-0.1-0.2-0.1-0.3,0c-1,0.4-1.9,0.9-2.9,1.3c-0.4,0.2-0.7,0.5-0.8,1c-0.1,0.4-0.2,0.9-0.3,1.3c-0.3,0.7,0,1.6,0.8,1.9
	c0.3,0.1,0.5,0.1,0.8,0.1C28.1,49.5,31,49.5,33.8,49.5z M22.2,30.8L22.2,30.8c0.8-0.2,1.5-0.5,2.2-0.9c0.3-0.2,0.7-0.2,1-0.1
	c3,0.8,6.1-0.9,6.9-3.9c0.8-3-0.9-6.1-3.9-6.9c-3-0.8-6.1,0.9-6.9,3.9c-0.6,2,0,4.2,1.5,5.6c0.4,0.4,0.4,0.5,0.1,1
	C22.9,30,22.6,30.4,22.2,30.8z M48.8,32.8c-0.2-0.9-0.4-1.7-0.6-2.5c-0.1-0.4,0-0.7,0.2-1c1.2-1.7,1.4-3.9,0.5-5.7
	c-1.4-2.8-4.7-3.9-7.5-2.5c-1.2,0.6-2.1,1.5-2.6,2.7c-1,2-0.7,4.4,0.9,6c1.5,1.7,3.8,2.4,6,1.6c0.3-0.1,0.7-0.1,1,0.1
	C47.3,31.9,48,32.3,48.8,32.8z"/>
<path class="st1" d="M25,39.1c-0.6-0.3-1.1,0-1.6,0.6c-0.4,0.4-1,0.4-1.3,0c-0.1-0.1-0.2-0.3-0.3-0.5c0-0.6-0.5-1.2-1.1-1.4
	c-0.5-0.2-0.7-0.8-0.4-1.3c0.1-0.2,0.2-0.3,0.4-0.4c0.6-0.2,1-0.8,1-1.4c0.1-0.5,0.6-0.9,1.1-0.8c0.2,0,0.4,0.1,0.6,0.3
	c0.1,0,0.1,0.1,0.1,0.1c0.2,0.4,0.8,0.6,1.2,0.4c0.4-0.2,0.9,0,1.2,0.4c0.3,0.3,0.3,0.8,0,1.2c-0.3,0.4-0.3,1,0,1.4
	c0.3,0.5,0.2,1.1-0.3,1.4C25.5,39.1,25.3,39.1,25,39.1z M25.2,35.5c-0.9,0.4-2,0.1-2.5-0.8c0.1,1-0.5,1.9-1.5,2.2
	c1,0.2,1.7,1.1,1.6,2.1c0.5-0.9,1.6-1.2,2.5-0.8C24.6,37.4,24.6,36.3,25.2,35.5z"/>
<path class="st1" d="M38.4,19.5c0,1.3-1.1,2.4-2.4,2.3s-2.4-1.1-2.3-2.4c0-1.3,1-2.3,2.3-2.3C37.4,17.1,38.4,18.1,38.4,19.5
	C38.4,19.4,38.4,19.4,38.4,19.5z M37.5,19.5c0-0.8-0.6-1.4-1.4-1.4c0,0,0,0,0,0c-0.8,0-1.4,0.6-1.4,1.4c0,0.8,0.6,1.4,1.4,1.4
	C36.9,20.9,37.5,20.3,37.5,19.5L37.5,19.5z"/>
<path class="st1" d="M42.1,38.5c0-0.9,0.8-1.7,1.7-1.7c0.9,0,1.7,0.7,1.7,1.7c0,0,0,0.1,0,0.1c0,0.9-0.8,1.6-1.7,1.7
	c-0.9,0-1.7-0.7-1.7-1.7C42,38.5,42.1,38.5,42.1,38.5z M43.7,39.3c0.4,0,0.8-0.4,0.8-0.8c0-0.4-0.3-0.8-0.7-0.8
	c-0.4,0-0.8,0.3-0.8,0.7c0,0,0,0,0,0.1C43,38.9,43.3,39.3,43.7,39.3z"/>
<path class="st1" d="M23.3,25.6c0-0.6,0-1.3,0-1.9c0-0.6,0.2-0.8,0.8-0.8c0.5,0,1.1,0,1.6,0c0.2,0,0.3-0.1,0.5-0.3
	c0.3-0.4,0.5-0.9,0.8-1.3c0.2-0.4,0.7-0.7,1.2-0.5c0.5,0.2,0.7,0.7,0.6,1.1c-0.1,0.4-0.1,0.8-0.2,1.2c-0.1,0.3,0.1,0.4,0.3,0.4
	c0.3,0,0.6,0,1,0c0.5,0,0.8,0.2,0.8,0.7c0,0.9,0,1.7-0.1,2.6c-0.1,0.6-0.5,1.1-1.1,1.2c-0.9,0.2-1.9,0.3-2.8,0.4
	c-0.8,0-1.7-0.1-2.5-0.1c-0.6,0-0.9-0.2-0.9-0.9C23.3,26.9,23.3,26.2,23.3,25.6z M27.8,21.9c-0.5,0.9-1.4,1.7-1.1,2.9
	c0,0.4,0,0.8,0,1.2v1.5c0.9,0.1,1.8-0.1,2.7-0.4c0.2-0.1,0.3-0.2,0.3-0.4c0.1-0.4,0.1-0.9,0.2-1.4c0-0.9,0-0.9-0.8-0.9
	c-0.1,0-0.1,0-0.2,0c-1,0-1.3-0.4-1.2-1.4C27.6,22.7,27.7,22.3,27.8,21.9z M24.2,23.8v3.5h1.4v-3.5H24.2z"/>
<path class="st1" d="M39.5,24.6c-0.1-0.9,0.6-1.7,1.5-1.8c0.1,0,0.3,0,0.4,0c0.7,0.1,1.4,0.4,2,0.7c0.2,0.1,0.4,0.1,0.6,0
	c0.6-0.3,1.2-0.5,1.9-0.7c0.9-0.2,1.8,0.3,2,1.2c0.1,0.3,0.1,0.5,0,0.8c-0.2,1.1-0.7,2.2-1.5,3c-0.7,0.7-1.5,1.4-2.3,2
	c-0.2,0.2-0.5,0.2-0.7,0c-1.6-0.9-2.8-2.3-3.5-4C39.7,25.5,39.6,25,39.5,24.6z M41.5,23.7c-0.7,0-1,0.2-1,0.8c0,0.3,0.1,0.5,0.2,0.8
	c0.6,1.5,1.6,2.7,2.9,3.5c0.1,0.1,0.3,0,0.4,0c0.6-0.5,1.3-1.1,1.8-1.7c0.6-0.7,1-1.5,1.2-2.4c0.1-0.7-0.2-1.1-0.9-1
	c-0.6,0.2-1.3,0.4-1.8,0.7c-0.3,0.2-0.7,0.2-1,0C42.7,24.1,42.1,23.8,41.5,23.7z"/>
</svg>
