<?xml version="1.0" encoding="utf-8"?>
<!-- Generator: Adobe Illustrator 24.2.0, SVG Export Plug-In . SVG Version: 6.00 Build 0)  -->
<svg version="1.1" id="Layer_1" xmlns="http://www.w3.org/2000/svg" xmlns:xlink="http://www.w3.org/1999/xlink" x="0px" y="0px"
	 viewBox="0 0 67 67" style="enable-background:new 0 0 67 67;" xml:space="preserve">
<style type="text/css">
	.st0{fill:#24CDD5;}
	.st1{fill:#FFFFFF;}
</style>
<circle class="st0" cx="33.5" cy="33.5" r="28.6"/>
<path class="st0" d="M33.5,66.6c-18.3,0-33.1-14.8-33.1-33.1S15.2,0.4,33.5,0.4s33.1,14.8,33.1,33.1c0,0,0,0,0,0
	C66.6,51.8,51.8,66.6,33.5,66.6z"/>
<path class="st1" d="M28.4,21.7c-0.6,0-1.1,0-1.6,0c-0.6,0-1.1-0.4-1.2-1c0,0,0-0.1,0-0.1c0-1.2,0-2.5,0-3.7c0-0.6,0.4-1.1,1-1.2
	c0.1,0,0.1,0,0.2,0c5.4,0,10.8,0,16.3,0c0.6-0.1,1.1,0.4,1.2,1c0,0.1,0,0.1,0,0.2c0,1.3,0,2.5,0,3.8c0,0.6-0.5,1.1-1.1,1.1
	c0,0-0.1,0-0.1,0c-0.5,0-1,0-1.4,0c0,0-0.1,0-0.1,0c0,0.7,0,1.4,0,2.1c0,0.5-0.1,1-0.4,1.4c-1.1,1.9-2.2,3.7-3.3,5.6
	c-0.2,0.5-0.7,0.8-1.3,0.7c-0.4,0-0.7,0-1.1,0v0.4c0,0.8,0,1.5,0,2.3c0,0.3-0.2,0.6-0.5,0.6c0,0,0,0-0.1,0c-0.3,0-0.6-0.3-0.5-0.6
	c0,0,0,0,0,0c0-0.9,0-1.7,0-2.7c-0.3,0-0.6,0-0.8,0c-0.7,0.1-1.4-0.3-1.7-0.9c-1-1.9-2.2-3.7-3.2-5.6c-0.2-0.3-0.3-0.6-0.3-1
	C28.5,23.3,28.4,22.5,28.4,21.7z M30,25c0,0.1,0,0.1,0.1,0.2c1,1.7,2,3.4,3,5.1c0.1,0.1,0.2,0.2,0.4,0.2c1.1,0,2.1,0,3.2,0
	c0.2,0,0.4-0.1,0.5-0.3c0.9-1.6,1.9-3.3,2.8-4.9c0.1-0.1,0.1-0.2,0.2-0.3h-0.4c-1.7,0-3.4,0-5.1,0c-0.2,0-0.4-0.1-0.6-0.2
	c-0.1-0.2-0.1-0.4-0.1-0.6c0.1-0.2,0.3-0.3,0.5-0.3c1.9,0,3.7,0,5.6,0h0.4v-2.2H29.6v2.1c0,0,0.1,0,0.1,0c0.7,0,1.3,0,2,0
	c0.4,0,0.7,0.2,0.6,0.6c0,0.3-0.3,0.6-0.6,0.5c0,0,0,0,0,0C31.1,25,30.6,25,30,25L30,25z M37.7,16.8c0,0.3,0,0.7,0,1
	c0,0.4-0.2,0.7-0.6,0.7c-0.3,0-0.5-0.3-0.5-0.7c0-0.3,0-0.7,0-1h-1.1c0,0,0,0.1,0,0.1c0,0.3,0,0.6,0,0.9c0,0.4-0.2,0.7-0.6,0.7
	c-0.3,0-0.5-0.3-0.5-0.7c0-0.3,0-0.6,0-0.9h-1.1c0,0.3,0,0.6,0,0.9c0,0.1,0,0.3-0.1,0.4c-0.1,0.2-0.3,0.3-0.6,0.3
	c-0.3,0-0.5-0.3-0.5-0.5c0-0.4,0-0.7,0-1.1h-1.1c0,0.3,0,0.7,0,1c0,0.2-0.1,0.4-0.2,0.5c-0.2,0.1-0.3,0.1-0.5,0.1
	c-0.3-0.1-0.4-0.3-0.4-0.5c0-0.3,0-0.7,0-1H29c0,0.3,0,0.6,0,0.9c0,0.4-0.2,0.7-0.6,0.7c-0.3,0-0.6-0.3-0.6-0.7c0-0.3,0-0.6,0-1h-1
	v3.8h16.3v-3.8h-1c0,0,0,0.1,0,0.1c0,0.3,0,0.6,0,0.9c0,0.4-0.2,0.7-0.6,0.7c-0.3,0-0.6-0.3-0.6-0.6c0,0,0,0,0,0c0-0.3,0-0.7,0-1
	h-1.1c0,0.3,0,0.6,0,0.9c0,0.4-0.2,0.7-0.5,0.7c-0.3,0-0.6-0.3-0.6-0.7c0-0.3,0-0.6,0-1L37.7,16.8z"/>
<path class="st1" d="M35.6,39.5c0,1,0,1,0,1.9c0,0.4-0.2,0.7-0.6,0.7c-0.3,0-0.5-0.3-0.5-0.7c0-1.9,0-6.1,0-8c0-0.4,0.2-0.6,0.6-0.6
	c0.3,0,0.5,0.2,0.5,0.6C35.6,34.4,35.6,38.5,35.6,39.5z"/>
<path class="st1" d="M28.1,46.1c-0.8,0.5-0.8,0.5-1.6,1.1c-0.2,0.2-0.6,0.2-0.8,0c0,0,0,0,0-0.1c-0.2-0.3-0.8-0.1-0.4-0.3
	c1.6-1.1,7.8-4.5,9.5-5.6c0.2-0.2,0.6-0.2,0.8,0c0,0,0,0.1,0.1,0.1c0.2,0.3,0.1,0.6-0.2,0.8c0,0-0.1,0-0.1,0
	C34.4,42.6,28.9,45.6,28.1,46.1z"/>
<path class="st1" d="M34.9,50.9c-0.1,0-0.2,0-0.4-0.1l-18.2-5.2c-0.7-0.2-1.1-0.9-0.9-1.6c0.1-0.4,0.4-0.7,0.7-0.8l18.3-8.6
	c0.3-0.1,0.6-0.2,0.9-0.1l17.1,4c0.7,0.2,1.1,0.9,1,1.6c-0.1,0.3-0.3,0.6-0.6,0.8l0,0l-17.1,9.8C35.4,50.9,35.2,50.9,34.9,50.9z
	 M35,35.8C35,35.8,35,35.8,35,35.8l-18.3,8.6c0,0,0,0,0,0.1c0,0,0,0,0,0l18.2,5.2c0,0,0,0,0,0l0,0l17.1-9.8c0,0,0,0,0,0c0,0,0,0,0,0
	L35,35.8L35,35.8z"/>
<path class="st1" d="M36.4,40.8c-0.1,0-0.2-0.1-0.2-0.2c0,0,0-0.1,0-0.1l0.9-1.4c0.1-0.1,0.2-0.1,0.3-0.1c0.1,0.1,0.1,0.2,0.1,0.3
	l-0.9,1.4C36.6,40.8,36.5,40.8,36.4,40.8z"/>
<path class="st1" d="M37.8,43.4c0,0-0.1,0-0.1,0l-1.3-1c-0.1-0.1-0.1-0.2,0-0.3c0.1-0.1,0.2-0.1,0.3,0l1.3,1c0.1,0.1,0.1,0.2,0,0.3
	C37.9,43.3,37.8,43.4,37.8,43.4z"/>
<path class="st1" d="M38.8,41.8L38.8,41.8l-2-0.2c-0.1,0-0.2-0.1-0.2-0.2c0-0.1,0.1-0.2,0.2-0.2l1.9,0.2c0.1,0,0.2,0.1,0.2,0.2
	C39,41.7,38.9,41.8,38.8,41.8L38.8,41.8z"/>
<path class="st1" d="M35.2,44.5C35.2,44.5,35.2,44.5,35.2,44.5c-0.2,0-0.2-0.1-0.2-0.3c0,0,0,0,0,0l0.2-1.5c0-0.1,0.1-0.2,0.3-0.2
	c0.1,0,0.2,0.1,0.2,0.3c0,0,0,0,0,0l-0.2,1.5C35.4,44.5,35.3,44.5,35.2,44.5z"/>
<path class="st1" d="M33.6,40.4c-0.1,0-0.1,0-0.2-0.1l-0.8-0.9c-0.1-0.1-0.1-0.2,0-0.3c0.1-0.1,0.2-0.1,0.3,0c0,0,0,0,0,0l0.8,0.9
	c0.1,0.1,0.1,0.2,0,0.3C33.7,40.4,33.7,40.4,33.6,40.4z"/>
</svg>
