<?xml version="1.0" encoding="utf-8"?>
<!-- Generator: Adobe Illustrator 24.2.0, SVG Export Plug-In . SVG Version: 6.00 Build 0)  -->
<svg version="1.1" id="Layer_1" xmlns="http://www.w3.org/2000/svg" xmlns:xlink="http://www.w3.org/1999/xlink" x="0px" y="0px"
	 viewBox="0 0 67 67" style="enable-background:new 0 0 67 67;" xml:space="preserve">
<style type="text/css">
	.st0{fill:#24CDD5;}
	.st1{fill:#FFFFFF;}
</style>
<g>
	<path class="st0" d="M33.5,66.6c-18.3,0-33.1-14.8-33.1-33.1S15.2,0.4,33.5,0.4s33.1,14.8,33.1,33.1l0,0
		C66.6,51.8,51.8,66.6,33.5,66.6z"/>
</g>
<g>
	<g>
		<path class="st1" d="M51.3,31.2c-0.1-0.3-0.2-0.6-0.4-0.8c-0.4-0.6-1-0.9-1.7-1c-0.2,0-0.4-0.1-0.5-0.1c-0.1,0-0.1-0.1-0.1-0.2
			c0,0,0-0.1,0-0.1c0-0.6,0-1.2,0-1.8c0-1.2,0-2.3,0-3.5c0-0.1,0-0.1,0-0.2c-0.2,0-0.4,0-0.6-0.1c-0.2,0-0.4-0.1-0.7-0.1h0
			c-0.2,0-0.4-0.1-0.7-0.2c-0.3,0-0.6-0.1-0.8-0.1c-0.3,0-0.3-0.1-0.3-0.4c0-0.5,0-0.9,0-1.4s-0.1-0.8-0.4-1.2
			c-0.4-0.4-0.8-0.7-1.4-0.7c-0.1,0-0.2,0-0.3,0c-0.1,0-0.3,0-0.4,0.1c0,0-0.1,0-0.2,0c-0.3-0.2-0.6-0.4-0.9-0.5
			c-0.3-0.1-0.7-0.1-1,0c-0.1,0-0.3,0.1-0.4-0.1c0-0.1-0.1-0.1-0.2-0.2c-0.3-0.2-0.7-0.3-1.1-0.3c-0.2,0-0.5,0.1-0.7,0.1
			c0,0-0.1-0.1-0.1-0.1c-0.2-0.2-0.6-0.4-0.9-0.5c-0.5-0.1-0.9,0-1.4,0.2c-0.4,0.2-0.7,0.5-0.8,0.8c-0.1,0.3-0.2,0.7-0.2,1
			c0,0.2,0,0.4,0,0.5c0,0,0,0.1,0,0.2c-0.1,0-0.1,0-0.2,0c-0.1,0-0.2,0-0.3-0.1c-0.1,0-0.2,0-0.3,0c-0.1,0-0.1,0-0.2,0
			c-0.2,0-0.5-0.1-0.7-0.1c-0.3,0-0.5-0.1-0.8-0.2c-0.2,0-0.5-0.1-0.7-0.1h0c-0.3,0-0.5-0.1-0.8-0.2c-0.2,0-0.5-0.1-0.7-0.1h0
			c-0.2,0-0.5-0.1-0.7-0.2c-0.4,0-0.7-0.1-1-0.2c-0.4-0.1-0.7-0.1-1.1-0.2c-0.2,0-0.5-0.1-0.7-0.1h0c-0.3,0-0.5-0.1-0.8-0.2
			c-0.3,0-0.5-0.1-0.8-0.1c0,0,0,0-0.1,0c-0.1,0-0.2,0-0.3-0.1c-0.1,0-0.2,0-0.3,0c-0.2,0-0.3,0-0.5,0c-0.1,0-0.2,0-0.3,0.1
			c-0.1,0-0.3,0.1-0.5,0.1c-0.2,0.1-0.4,0.2-0.7,0.3c-0.2,0.1-0.4,0.1-0.6,0.3c-0.3,0.1-0.6,0.3-0.8,0.5c-0.3,0.2-0.7,0.4-1,0.7
			c-0.2,0.1-0.3,0.3-0.5,0.4c-0.6,0.4-1,1-1.4,1.5c-0.3,0.4-0.6,0.8-0.8,1.3c-0.2,0.4-0.4,0.8-0.6,1.2c-0.1,0.2-0.2,0.4-0.2,0.7
			c-0.1,0.3-0.2,0.5-0.3,0.8c0,0.1-0.1,0.2-0.1,0.4c0,0.2-0.1,0.5-0.1,0.7c0,0.3-0.1,0.5-0.2,0.8c0,0.2-0.1,0.5-0.1,0.7
			c0,0.6-0.1,1.2-0.1,1.8c0,0,0,0.1,0,0.2c0.3,0.1,0.5,0.1,0.7,0.2c0,0.1,0,0.2,0,0.3c0,0.7,0,1.4,0,2c0,0.1,0,0.1,0,0.2
			c0,0.3,0.1,0.6,0.2,0.9c0,0.1,0.1,0.2,0.2,0.2c0.3,0.1,0.6,0.1,0.9,0.2c0.1,0,0.3,0.1,0.4,0.1c0.3,0.1,0.6,0.2,0.9,0.3
			c0.3,0.1,0.7,0.2,1,0.3c0.1,0,0.3,0.1,0.4,0.1c0.2,0,0.4,0.1,0.6,0.1c0.3,0.1,0.7,0.2,0.9,0.3c0.1,0,0.2,0,0.3,0.1
			c0.2,0,0.4,0.1,0.6,0.1c0.2,0,0.4,0.1,0.6,0.2c0.1,0,0.2,0.1,0.2,0.3c0,0.7,0,1.4,0,2c0,0.1-0.1,0.2-0.2,0.3
			c-0.1,0-0.3,0.1-0.5,0.1c-0.3,0.1-0.6,0.2-0.8,0.3c-0.1,0-0.3,0.1-0.4,0.1c-0.2,0.1-0.5,0.2-0.7,0.3c-0.1,0-0.3,0.1-0.5,0.1
			c-0.1,0-0.2,0.1-0.4,0.1c-0.2,0.1-0.5,0.2-0.7,0.3c-0.3,0.1-0.5,0.1-0.8,0.2c-0.2,0-0.3,0.1-0.5,0.2c-0.1,0-0.2,0.1-0.2,0.3
			c0,0.7,0,1.3,0,2c0,0.1,0,0.2,0.1,0.2c0.1,0,0.2,0.1,0.4,0.1c0.3,0.1,0.5,0.1,0.8,0.2c0.2,0.1,0.5,0.2,0.7,0.3c0,0,0.1,0,0.1,0
			c0.1,0,0.3-0.1,0.4-0.2c0.2-0.1,0.5-0.2,0.7-0.3c0.3-0.1,0.6-0.2,0.8-0.3c0.1,0,0.3-0.1,0.4-0.1c0.2-0.1,0.5-0.2,0.7-0.3
			c0.2-0.1,0.5-0.1,0.7-0.2c0.4-0.1,0.7-0.3,1.1-0.4c0.1,0,0.2-0.1,0.3-0.1c0.1,0,0.3-0.1,0.5-0.1c0.2-0.1,0.5-0.2,0.7-0.3
			c0.2-0.1,0.5-0.2,0.7-0.3c0-0.1,0-0.2,0-0.2c0-0.3,0-0.6,0-0.9c0-0.1,0-0.1,0-0.2c0.2,0.1,0.4,0.1,0.7,0.2c0.1,0,0.3,0.1,0.5,0.1
			c0.2,0,0.4,0.1,0.5,0.2c0.1,0,0.2,0.1,0.3,0.1c0.2,0,0.4,0.1,0.6,0.1c0.3,0.1,0.7,0.2,1,0.3c0.1,0,0.3,0.1,0.5,0.1
			s0.3,0.1,0.5,0.2c0.2,0,0.4,0.1,0.5,0.1c0.3,0.1,0.6,0.2,0.8,0.3c0.3,0.1,0.7,0.2,1,0.3c0.3,0.1,0.7,0.2,1,0.3
			c0.3,0.1,0.6,0.2,0.9,0.3c0.1,0,0.2,0.1,0.4,0.1c0.2,0,0.3,0.1,0.5,0.2c0.1,0,0.2,0.1,0.3,0.1c0.2,0,0.3,0.1,0.5,0.1
			c0.1,0,0.2,0,0.3,0.1c0.2,0,0.4,0.1,0.6,0.2c0.1,0,0.3,0.1,0.5,0.1c0.2,0,0.4,0.1,0.6,0.2c0.3,0.1,0.6,0.2,0.8,0.3
			c0,0,0.1,0,0.1,0c0.2,0,0.3,0.1,0.5,0.1c0.3,0.1,0.6,0.2,0.8,0.3c0.3,0.1,0.6,0.2,0.8,0.2c0.3,0.1,0.7,0.2,1,0.3
			c0,0,0.1,0,0.1,0.1s0,0.1-0.1,0.1c0,0-0.1,0-0.1,0c-0.2,0.1-0.5,0.2-0.7,0.3c-0.2,0.1-0.4,0.1-0.6,0.2c-0.2,0.1-0.5,0.2-0.7,0.3
			c-0.2,0.1-0.4,0.2-0.7,0.3c-0.2,0.1-0.4,0.2-0.6,0.2c-0.2,0.1-0.4,0.2-0.7,0.3c-0.2,0.1-0.4,0.2-0.6,0.3c-0.4,0.1-0.7,0.3-1.1,0.5
			c0,0.1,0,0.2,0,0.3c0,0.7,0,1.3,0,2c0,0.3,0,0.3,0.3,0.4c0,0,0,0,0.1,0c0.1,0,0.3,0.1,0.4,0.1c0.1,0,0.3,0.1,0.5,0.1
			c0.1,0,0.2,0.1,0.4,0.1c0.1,0,0.3,0.1,0.5,0.2c0,0,0.1,0,0.2,0c0.2-0.1,0.4-0.2,0.6-0.3c0.2-0.1,0.4-0.2,0.6-0.3
			c0.2-0.1,0.4-0.2,0.7-0.3c0.2-0.1,0.4-0.2,0.6-0.3c0.2-0.1,0.4-0.2,0.6-0.3c0.2-0.1,0.4-0.2,0.6-0.3c0.2-0.1,0.4-0.2,0.7-0.3
			c0.2-0.1,0.4-0.2,0.6-0.3c0.2-0.1,0.4-0.1,0.6-0.2c0.2-0.1,0.4-0.2,0.6-0.3c0.4-0.2,0.7-0.3,1.1-0.5c0-0.1,0-0.2,0-0.3
			c0-1.6,0-3.2,0-4.8c0-0.4,0-0.8,0-1.3c0-0.1,0-0.1,0-0.2c0.2-0.4,0.4-0.7,0.7-1.1c0.3-0.4,0.6-0.9,0.8-1.3c0.2-0.3,0.4-0.7,0.6-1
			c0.3-0.5,0.6-0.9,0.8-1.4c0.2-0.4,0.5-0.8,0.7-1.2c0.1-0.2,0.3-0.4,0.4-0.7s0.2-0.4,0.3-0.7c0.1-0.3,0.2-0.5,0.2-0.8
			c0,0,0-0.1,0-0.2c0-0.1,0-0.3,0-0.4C51.5,32.2,51.4,31.7,51.3,31.2z M48,30c0.2-0.1,0.4,0,0.4,0.1c-0.1,0-0.2,0.2-0.4,0.1
			C48,30.2,48,30.1,48,30z M47.8,24.1c0,0.1,0,0.2,0,0.2c0,1.1,0,2.1,0,3.2c-0.1,1.6,0,3.3-0.1,4.9c0,0.1,0,0.3,0,0.5
			c0,0.2,0,0.2-0.2,0.3c-0.2,0.1-0.5,0.2-0.7,0.3c-0.2,0.1-0.5,0.1-0.7,0.2c-0.2,0.1-0.5,0.2-0.7,0.3c-0.1,0-0.2,0.1-0.4,0.1
			c-0.3,0.1-0.7,0.2-1,0.4c-0.2,0.1-0.5,0.2-0.7,0.3c-0.2,0.1-0.5,0.1-0.7,0.2c-0.2,0.1-0.5,0.2-0.7,0.3c-0.2,0.1-0.5,0.2-0.7,0.3
			s-0.5,0.2-0.7,0.3c-0.1,0-0.3,0.1-0.5,0.2c-0.1,0-0.3,0.1-0.4,0.1c0,0-0.1,0-0.1,0c0-0.1,0-0.2,0-0.2c0-0.2,0-0.4,0.1-0.7
			c0-0.1,0-0.2,0-0.3c0-0.2,0-0.4,0.1-0.6c0,0,0,0,0-0.1c0-0.3,0.1-0.6,0.1-0.8c0-0.2,0.1-0.5,0.2-0.7c0-0.2,0.1-0.4,0.1-0.6
			c0-0.1,0.1-0.3,0.1-0.5c0-0.2,0.1-0.4,0.2-0.5c0.1-0.2,0.1-0.4,0.2-0.6c0.1-0.2,0.2-0.4,0.3-0.6c0.1-0.2,0.2-0.5,0.4-0.7
			c0.3-0.4,0.6-0.8,0.8-1.3c0.5-0.7,1-1.2,1.6-1.8c0.6-0.6,1.3-1,2-1.4c0.3-0.2,0.7-0.4,1.1-0.6c0.2-0.1,0.5-0.2,0.7-0.2
			C47.4,24.3,47.6,24.2,47.8,24.1z M45.1,46.2c-0.3-0.1-0.6-0.2-0.8-0.3c0-0.2,0-10.8,0-11c0.3-0.1,0.6-0.2,0.8-0.3
			c0,0.1,0,0.1,0,0.2c0,0,0,0.1,0,0.1c0,3.6,0,7.3,0,10.9C45.1,46,45.2,46.1,45.1,46.2z M42.5,21c0-0.4,0.2-0.7,0.6-0.9
			c0.3-0.1,0.6-0.1,0.8-0.1c0.3,0.1,0.5,0.3,0.7,0.6c0.1,0.2,0.1,0.4,0.1,0.6c0,0.3,0,0.6,0,0.9l0,0c0,0.3,0,0.6,0,0.9
			c0,0.4-0.1,0.7-0.5,0.9c-0.3,0.2-0.6,0.2-1,0.1c-0.3-0.1-0.5-0.3-0.6-0.5c-0.1-0.1-0.1-0.3-0.1-0.5C42.5,22.4,42.5,21.7,42.5,21z
			 M40.2,20.5c0-0.5,0.3-0.8,0.7-1c0.2-0.1,0.4-0.1,0.7,0c0.3,0,0.5,0.2,0.7,0.4c0.1,0.2,0.2,0.3,0,0.6c-0.1,0.1-0.1,0.3-0.1,0.6
			c0,0.3,0,0.7,0,1l0,0c0,0.3,0,0.7,0,1c0,0.1,0,0.2-0.1,0.2c-0.4,0.3-0.7,0.3-1.2,0.1c-0.4-0.2-0.6-0.5-0.6-0.9
			C40.2,21.8,40.2,21.2,40.2,20.5z M38.1,19.7c0.1-0.3,0.3-0.6,0.7-0.7c0.1,0,0.1,0,0.2,0c0.1,0,0.2,0,0.2,0
			c0.4,0.1,0.7,0.3,0.9,0.7c0,0,0,0.1,0,0.2c-0.2,0.3-0.2,0.6-0.2,0.9c0,0.6,0,1.3,0,1.9c0,0.1,0,0.2-0.1,0.2
			c-0.2,0.1-0.5,0.3-0.7,0.3c-0.4,0-1-0.4-1.1-0.9c0-0.2,0-0.5,0-0.7c0-0.4,0-0.7,0-1.1C38,20.2,38,19.9,38.1,19.7z M35.8,19.4
			c0-0.4,0.2-0.7,0.6-0.9c0.3-0.1,0.5-0.1,0.8-0.1c0.3,0.1,0.6,0.3,0.7,0.6c0,0.1,0,0.2,0,0.3c-0.1,0.2-0.1,0.5-0.2,0.7
			c0,0.6,0,1.2,0,1.8c0,0.3-0.1,0.4-0.3,0.5c-0.2,0.1-0.5,0.1-0.7,0.1c-0.3,0-0.5-0.2-0.7-0.4c-0.1-0.2-0.2-0.5-0.2-0.7s0-0.6,0-0.9
			l0,0C35.8,20.2,35.7,19.8,35.8,19.4z M17.5,24.2c0.1-0.3,0.3-0.6,0.5-0.9c0,0,0.1-0.1,0.1-0.2c0,0,0.1,0,0.1,0c0.2,0,0.3,0,0.5,0
			c0,0,0.1,0,0.2,0c0.3,0,0.6,0.1,0.8,0.2c0.2,0,0.4,0.1,0.6,0.1c0.3,0,0.6,0.1,0.8,0.2c0.2,0,0.4,0.1,0.7,0.1
			c0.2,0,0.5,0.1,0.7,0.2c0.2,0,0.5,0.1,0.7,0.1c0.1,0,0.1,0,0.2,0c0.2,0,0.5,0.1,0.7,0.1c0.1,0,0.1,0,0.2,0c0,0,0,0,0.1,0
			c0.2,0,0.4,0.1,0.6,0.1c0.3,0.1,0.5,0.1,0.8,0.2c0.1,0,0.3,0,0.4,0.1c0.2,0,0.5,0.1,0.7,0.1c0.2,0,0.4,0.1,0.6,0.1
			c0.1,0,0.1,0,0.2,0c0.2,0,0.5,0.1,0.7,0.2h0c0.2,0,0.5,0.1,0.7,0.1c0.2,0,0.4,0.1,0.6,0.1c0.1,0,0.1,0,0.2,0c0.1,0,0.2,0,0.3,0.1
			c0,0,0.1,0,0.1,0c0.3,0,0.6,0.1,0.8,0.2h0c0.3,0,0.6,0.1,0.9,0.2c0.2,0,0.3,0,0.5,0.1c0.1,0,0.1,0,0.2-0.1c0.3-0.4,0.6-0.7,0.9-1
			c0.2-0.3,0.5-0.6,0.7-0.8c-0.1-0.1-0.2-0.1-0.4-0.1c-0.3,0-0.6-0.1-0.8-0.2h0c-0.2,0-0.5-0.1-0.7-0.1c-0.2,0-0.5-0.1-0.7-0.2
			s-0.4-0.1-0.7-0.1c-0.1,0-0.2,0-0.3,0c0,0,0,0-0.1,0c-0.2,0-0.5-0.1-0.7-0.1c-0.2,0-0.5-0.1-0.7-0.2c0,0-0.1,0-0.1,0
			c-0.3,0-0.6-0.1-0.8-0.2h0c-0.2,0-0.5-0.1-0.7-0.1c-0.2,0-0.5-0.1-0.7-0.2c-0.1,0-0.3,0-0.4-0.1c-0.2,0-0.5-0.1-0.7-0.1
			c-0.2,0-0.4-0.1-0.6-0.1c-0.1,0-0.2,0-0.3-0.1c-0.1,0-0.2-0.1-0.3-0.1c-0.2,0-0.5-0.1-0.7-0.1s-0.5-0.1-0.7-0.2
			c-0.1,0-0.3,0-0.4-0.1c-0.2,0-0.5-0.1-0.7-0.1c-0.2,0-0.5-0.1-0.7-0.2h0c-0.2,0-0.5-0.1-0.7-0.1c-0.1,0-0.3-0.1-0.5-0.1
			c0.1-0.1,0.1-0.1,0.2-0.2c0.3-0.2,0.7-0.5,1-0.7c0.3-0.2,0.7-0.4,1.1-0.6c0.3-0.1,0.6-0.3,0.8-0.4c0.2-0.1,0.5-0.1,0.7-0.2
			c0.1,0,0.2,0,0.3,0c0.1,0,0.2,0,0.3,0c0.1,0,0.2,0,0.3,0.1c0,0,0,0,0.1,0c0.2,0,0.5,0.1,0.7,0.1c0.3,0,0.5,0.1,0.8,0.2
			c0.2,0,0.5,0.1,0.7,0.1c0.1,0,0.2,0,0.3,0c0,0,0,0,0.1,0c0.2,0,0.5,0.1,0.7,0.1c0.3,0,0.6,0.1,0.8,0.2c0.2,0,0.3,0.1,0.5,0.1
			c0.3,0,0.6,0.1,0.8,0.1c0.3,0,0.5,0.1,0.8,0.2c0,0,0,0,0.1,0c0.1,0,0.3,0,0.5,0.1c0.2,0.1,0.5,0.1,0.7,0.1c0,0,0.1,0,0.2,0
			c0,0,0.1,0,0.1,0c0.2,0,0.5,0,0.7,0.1c0.3,0.1,0.6,0.1,0.8,0.2c0.2,0.1,0.5,0.1,0.7,0.1c0.2,0,0.4,0.1,0.5,0.1
			c0,0.2,0.1,0.3,0.1,0.5c0.1,0.4,0.4,0.7,0.8,0.8c0.2,0.1,0.4,0.1,0.7,0.1c0.2,0,0.4-0.1,0.6-0.2c0.1,0,0.1-0.1,0.2-0.1
			c0.2,0.4,0.6,0.7,1,0.8c0.5,0.1,0.8,0,1.3-0.3c0,0,0.1,0.1,0.1,0.2c0.3,0.5,0.7,0.7,1.2,0.7c0.3,0,0.5,0,0.7-0.2c0,0,0.1,0,0.2,0
			c0.2,0.4,0.5,0.7,0.9,0.7c0.4,0.1,0.7,0,1.1-0.1c0.3-0.2,0.5-0.4,0.6-0.7c0-0.1,0.1-0.1,0.2-0.1c0,0,0,0,0.1,0
			c0.3,0,0.6,0.1,0.8,0.1c0.1,0,0.2,0,0.3,0.1c0.2,0,0.4,0.1,0.7,0.1c0,0,0,0,0.1,0c-0.1,0-0.2,0.1-0.2,0.1c-0.5,0.2-1,0.4-1.5,0.7
			c-0.5,0.3-1,0.6-1.4,0.9c-0.6,0.4-1.1,0.9-1.5,1.4c-0.3,0.3-0.6,0.7-0.8,1c-0.4,0.5-0.7,1.1-1.1,1.7c0,0.1-0.1,0.2-0.1,0.3
			c-0.1,0.2-0.1,0.2-0.3,0.2c-0.3,0-0.6-0.1-0.8-0.2c-0.1,0-0.3,0-0.4-0.1c-0.2,0-0.5-0.1-0.7-0.1c-0.2,0-0.4-0.1-0.6-0.1
			c-0.1,0-0.2,0-0.3-0.1c-0.2,0-0.4-0.1-0.6-0.1c-0.2,0-0.5-0.1-0.7-0.2c-0.2,0-0.3-0.1-0.5-0.1c-0.2,0-0.4-0.1-0.6-0.2
			c-0.1,0-0.3-0.1-0.4-0.1c-0.2,0-0.5-0.1-0.7-0.1c-0.2,0-0.3-0.1-0.5-0.1c-0.3,0-0.5-0.1-0.8-0.2c-0.2,0-0.4-0.1-0.6-0.2
			c0,0,0,0-0.1,0c-0.2,0-0.4-0.1-0.7-0.1c-0.2,0-0.4-0.1-0.6-0.2h0c-0.3,0-0.6-0.1-0.9-0.2c-0.4-0.1-0.7-0.1-1.1-0.2
			c-0.2,0-0.4-0.1-0.7-0.2c-0.2,0-0.4-0.1-0.7-0.1c-0.2,0-0.4-0.1-0.6-0.1c-0.3,0-0.5-0.2-0.8-0.2c-0.1,0-0.3-0.1-0.5-0.1
			c-0.2,0-0.4-0.1-0.6-0.2c-0.1,0-0.3-0.1-0.5-0.1c-0.2,0-0.4-0.1-0.7-0.1c-0.2,0-0.4-0.1-0.6-0.1c-0.1,0-0.2,0-0.3,0
			c-0.1,0-0.2,0-0.3-0.1c-0.2,0-0.4-0.1-0.6-0.1c-0.2,0-0.5-0.1-0.7-0.2c-0.2,0-0.4-0.1-0.6-0.1c-0.1,0-0.1,0-0.2,0c0,0-0.1,0-0.1,0
			c-0.3-0.1-0.6-0.1-0.8-0.2c-0.2,0-0.4-0.1-0.7-0.1c-0.2,0-0.4-0.1-0.7-0.2c0,0-0.1,0-0.1,0c-0.2,0-0.4-0.1-0.6-0.1
			C17.3,24.4,17.4,24.3,17.5,24.2z M17.2,24.8c0.2,0,0.4,0.1,0.7,0.2c0.4,0.1,0.8,0.2,1.3,0.3c0.2,0,0.5,0.1,0.7,0.1
			c0.2,0,0.4,0.1,0.6,0.2h0c0.2,0,0.4,0.1,0.7,0.1c0.2,0,0.4,0.1,0.7,0.2c0.1,0,0.3,0,0.4,0.1c0.2,0,0.5,0.1,0.7,0.1
			c0.2,0,0.4,0.1,0.6,0.1c0,0,0.1,0,0.2,0c0.1,0,0.2,0,0.3,0.1c0,0,0,0,0.1,0c0.2,0,0.4,0.1,0.6,0.1c0.2,0,0.5,0.1,0.7,0.2
			c0.2,0,0.4,0.1,0.6,0.1c0.1,0,0.2,0,0.3,0.1c0,0,0,0,0,0c0.2,0,0.4,0.1,0.6,0.1c0.2,0,0.5,0.1,0.7,0.2c0.1,0,0.3,0,0.4,0.1
			c0.2,0,0.5,0.1,0.7,0.1c0.2,0,0.4,0.1,0.6,0.1c0,0,0.1,0,0.2,0c0.2,0,0.4,0.1,0.7,0.1c0.1,0,0.2,0,0.3,0.1c0.2,0,0.5,0.1,0.7,0.2
			c0.1,0,0.3,0.1,0.4,0.1c0.2,0,0.5,0.1,0.7,0.1c0.2,0,0.4,0.1,0.6,0.2h0c0.2,0,0.5,0.1,0.7,0.1c0.2,0,0.4,0.1,0.6,0.2
			c0,0,0,0,0.1,0c0.3,0,0.5,0.1,0.8,0.2c0,0,0.1,0,0.1,0c0.1,0,0.2,0,0.3,0.1c0.1,0,0.3,0.1,0.4,0.1c0.2,0,0.5,0.1,0.7,0.1
			c0.2,0,0.4,0.1,0.6,0.1c0.1,0,0.1,0,0.2,0c0.1,0,0.2,0,0.3,0.1c0,0,0,0,0.1,0c0.3,0,0.6,0.1,0.8,0.2c0.2,0,0.4,0.1,0.6,0.1
			c0.3,0.1,0.7,0.1,1,0.2c-0.1,0.2-0.1,0.4-0.2,0.6c-0.1,0-0.1,0-0.2,0c-0.1,0-0.2,0-0.4-0.1c-0.2,0-0.4-0.1-0.6-0.2
			c-0.1,0-0.2,0-0.2,0c-0.2,0-0.4-0.1-0.7-0.2c-0.2,0-0.4-0.1-0.6-0.1c-0.1,0-0.1,0-0.2,0c0,0,0,0-0.1,0c-0.2,0-0.4-0.1-0.7-0.1
			c-0.2,0-0.4-0.1-0.7-0.2c-0.2,0-0.4-0.1-0.6-0.1c-0.1,0-0.2-0.1-0.3-0.1c-0.1,0-0.3,0-0.4-0.1c-0.2,0-0.4-0.1-0.7-0.1
			c-0.2,0-0.3-0.1-0.5-0.1c-0.3-0.1-0.5-0.2-0.8-0.2c-0.2,0-0.4-0.1-0.6-0.2h0c-0.2,0-0.4-0.1-0.7-0.1c-0.2,0-0.4-0.1-0.7-0.2h0
			c-0.2,0-0.5-0.1-0.7-0.1c-0.2,0-0.4-0.1-0.6-0.2c-0.2,0-0.4-0.1-0.6-0.1c-0.2,0-0.5-0.1-0.7-0.2c-0.2,0-0.4-0.1-0.6-0.1
			c-0.1,0-0.1,0-0.2,0c0,0,0,0-0.1,0c-0.2,0-0.4-0.1-0.6-0.1c-0.2,0-0.4-0.1-0.7-0.2c-0.2,0-0.4-0.1-0.6-0.1c0,0-0.1,0-0.2,0
			s0,0-0.1,0c-0.2,0-0.4-0.1-0.6-0.1c-0.2,0-0.4-0.1-0.7-0.2c-0.1,0-0.2,0-0.4-0.1c-0.2,0-0.5-0.1-0.7-0.1c-0.2,0-0.4-0.1-0.6-0.1
			c0,0-0.1,0-0.2,0c-0.1,0-0.2,0-0.3-0.1c0,0,0,0-0.1,0c-0.2,0-0.4-0.1-0.6-0.1c-0.2,0-0.4-0.1-0.7-0.2c-0.2,0-0.4-0.1-0.6-0.1
			c0,0-0.1,0-0.2,0c0,0-0.1,0-0.1,0c-0.3,0-0.6-0.1-0.8-0.2c-0.2,0-0.4-0.1-0.6-0.1c-0.2,0-0.4-0.1-0.6-0.1
			C17,25.1,17.1,25,17.2,24.8z M16.9,25.6C17,25.6,17,25.6,16.9,25.6c0.3,0,0.6,0.1,0.8,0.2c0.1,0,0.3,0.1,0.5,0.1
			c0.2,0,0.4,0.1,0.5,0.1c0.2,0.1,0.5,0.1,0.7,0.2h0c0.2,0,0.5,0.1,0.7,0.1c0.2,0,0.4,0.1,0.6,0.2c0.1,0,0.3,0.1,0.5,0.1
			c0.3,0.1,0.6,0.1,0.8,0.2c0.2,0,0.4,0.1,0.6,0.1c0,0,0.1,0,0.2,0c0,0,0,0,0.1,0c0.2,0,0.4,0.1,0.7,0.1c0.2,0,0.4,0.1,0.6,0.2
			c0.1,0,0.3,0,0.4,0.1c0.2,0,0.5,0.1,0.7,0.1c0.2,0,0.4,0.1,0.6,0.1c0,0,0.1,0,0.2,0c0.1,0,0.2,0,0.3,0.1c0.1,0,0.3,0,0.4,0.1
			c0.2,0,0.5,0.1,0.7,0.2c0.2,0,0.4,0.1,0.6,0.2c0,0,0,0,0.1,0c0.2,0,0.5,0.1,0.7,0.1c0.2,0,0.4,0.1,0.6,0.2h0
			c0.2,0,0.4,0.1,0.7,0.1s0.4,0.1,0.7,0.2h0c0.2,0,0.4,0.1,0.7,0.1c0.2,0,0.4,0.1,0.7,0.2c0.2,0,0.4,0.1,0.6,0.1c0,0,0.1,0,0.2,0
			c0,0,0,0,0.1,0c0.2,0,0.4,0.1,0.6,0.1c0.2,0,0.5,0.1,0.7,0.2c0.1,0,0.3,0.1,0.5,0.1c0.4,0.1,0.7,0.2,1.1,0.3
			c0.3,0,0.6,0.1,0.8,0.2c0.2,0,0.4,0.1,0.6,0.2h0c0.3,0,0.6,0.1,0.8,0.2c0.2,0,0.5,0.1,0.7,0.1c0.2,0,0.4,0.1,0.6,0.2
			c0.1,0,0.2,0,0.2,0c0.1,0,0.1,0.1,0.1,0.2c0,0.2-0.1,0.4-0.2,0.5c0,0.1-0.1,0.2-0.1,0.3c0,0.2-0.1,0.4-0.2,0.6c0,0.1,0,0.2,0,0.2
			c0,0.1-0.1,0.2-0.2,0.1c0,0-0.1,0-0.1,0c-0.2,0-0.4-0.1-0.7-0.2c-0.1,0-0.3-0.1-0.4-0.1c-0.2,0-0.4-0.1-0.7-0.1
			c-0.1,0-0.3-0.1-0.4-0.1c-0.3-0.1-0.7-0.2-1-0.3c-0.2,0-0.4-0.1-0.7-0.1c-0.1,0-0.3-0.1-0.4-0.1c-0.2,0-0.4-0.1-0.6-0.2
			c-0.1,0-0.2-0.1-0.4-0.1c-0.2,0-0.4-0.1-0.7-0.1c-0.1,0-0.3-0.1-0.4-0.1c-0.2,0-0.4-0.1-0.6-0.2c-0.1,0-0.2,0-0.4-0.1
			c-0.2,0-0.4-0.1-0.7-0.1c-0.2,0-0.3-0.1-0.5-0.1c-0.2,0-0.5-0.1-0.7-0.2c-0.2,0-0.4-0.1-0.6-0.2h0c-0.2,0-0.4-0.1-0.7-0.1
			c-0.2,0-0.4-0.1-0.6-0.2c-0.2,0-0.3-0.1-0.5-0.1c-0.4-0.1-0.7-0.2-1.1-0.3C26,30,25.8,30,25.6,30c-0.1,0-0.3-0.1-0.4-0.1
			c-0.2,0-0.4-0.1-0.6-0.2c-0.2,0-0.4-0.1-0.6-0.1c-0.2,0-0.4-0.1-0.6-0.2c-0.2,0-0.4-0.1-0.6-0.1c-0.2,0-0.4-0.1-0.6-0.1
			c-0.2,0-0.5-0.2-0.7-0.2c-0.2,0-0.4-0.1-0.5-0.1c-0.2,0-0.5-0.1-0.7-0.2c-0.2,0-0.4-0.1-0.6-0.2h0c-0.3-0.1-0.7-0.1-1-0.2
			c-0.3-0.1-0.7-0.2-1-0.3h0c-0.3,0-0.5-0.1-0.8-0.2c-0.2,0-0.4,0-0.5-0.2C16.5,26.6,16.7,26.1,16.9,25.6z M38.8,34.5
			c-0.1,0-0.2-0.1-0.4-0.1c-0.1,0-0.2-0.1-0.4-0.1c0.1-0.2,0.2-0.5,0.2-0.7c0.3,0.1,0.5,0.1,0.7,0.2c0.1,0,0.1,0.1,0.1,0.2
			c0,0.1,0,0.3-0.1,0.4C39,34.5,38.9,34.6,38.8,34.5z M38.9,34.9c0,0.5-0.1,1-0.1,1.5c-0.1,0-0.1,0-0.2,0c-0.2,0-0.4-0.1-0.5-0.2
			c0,0-0.1,0-0.1,0c-0.1,0-0.2-0.1-0.2-0.2c0-0.4,0.1-0.7,0.2-1.1c0-0.1,0-0.1,0-0.2C38.3,34.7,38.6,34.8,38.9,34.9z M16.3,27.6
			c0.1,0,0.2,0,0.4,0c0,0,0.1,0,0.2,0c0.1,0,0.2,0.1,0.1,0.2c0,0.1,0,0.2-0.1,0.2c0,0.1,0,0.2-0.2,0.1c-0.2,0-0.3-0.1-0.5-0.1
			c0,0-0.1-0.1-0.1-0.1C16.3,28,16.3,27.8,16.3,27.6z M16.1,29.8c0,0,0-0.1,0-0.2c0-0.3,0-0.6,0.1-0.8c0-0.1,0-0.2,0.2-0.2
			c0.1,0,0.3,0.1,0.5,0.1c0,0.1,0,0.3,0,0.4c0,0.1,0,0.3-0.1,0.4c0,0.1,0,0.2-0.1,0.4C16.3,30,16.2,29.9,16.1,29.8z M22.9,35.5
			c-0.1,0-0.3-0.1-0.4-0.1c-0.2,0-0.4-0.1-0.7-0.2c-0.1,0-0.3-0.1-0.5-0.1c-0.2,0-0.4-0.1-0.6-0.2c-0.2,0-0.3-0.1-0.5-0.1
			c-0.2,0-0.3-0.1-0.5-0.1c-0.2,0-0.4-0.1-0.6-0.2c-0.1,0-0.3-0.1-0.5-0.1c-0.2,0-0.4-0.1-0.6-0.2c-0.1,0-0.3-0.1-0.5-0.2
			c0,0,0,0-0.1,0c-0.2,0-0.4-0.1-0.5-0.1c-0.1,0-0.2-0.2-0.2-0.3c-0.1-0.8-0.2-1.6-0.1-2.4c0-0.3,0-0.7,0.1-1c0-0.3,0.1-0.5,0.2-0.8
			c0-0.2,0.1-0.4,0.1-0.6c0-0.2,0.1-0.4,0.2-0.7c0-0.1,0.1-0.1,0.2-0.1c0.1,0,0.1,0,0.2,0l0,0l0.8,0.2c0,0,0.1,0,0.2,0
			c0,0,0.1,0,0.2,0l0.5,0.1c0,0,0.1,0,0.2,0c0,0,0,0,0,0l0.6,0.1c0,0,0.1,0,0.2,0l0.3,0.1c0,0,0,0,0.1,0l0,0l0.4,0.1
			c0,0,0.1,0,0.1,0l0.2,0c0,0,0,0,0.1,0h0l0.4,0.1c0,0,0,0,0.1,0l0.2,0h0c0,0,0,0,0.1,0l0.4,0.1c0,0,0.1,0,0.1,0l0.2,0l0,0
			c0,0,0.1,0,0.1,0l0.6,0.1c0,0,0.1,0,0.1,0l0.8,0.2c0,0,0.1,0,0.2,0l3.2,0.8h0c0,0,0.1,0,0.2,0l0.6,0.1c0,0,0,0,0.1,0
			c0,0,0.1,0,0.1,0l1.1,0.3l0,0l0,0l1.2,0.3l0,0l0,0l0.8,0.2l0,0c0,0,0,0,0,0l5.8,1.5l0,0c0,0,0,0.1,0,0.1c0,0.2-0.1,0.4-0.2,0.6
			c0,0.2-0.1,0.4-0.2,0.7v0c0,0.2,0,0.5-0.1,0.7c-0.1,0.4,0,0.7-0.2,1.1c0,0.1,0,0.3,0,0.4c0,0.6,0,1.1,0,1.6c0,0.3,0,0.6,0.1,0.9
			c0,0.2,0,0.2-0.2,0.1c-0.2,0-0.4-0.1-0.7-0.2c-0.1,0-0.3-0.1-0.5-0.1c-0.3-0.1-0.7-0.2-1-0.3c-0.2,0-0.4-0.1-0.6-0.1
			c-0.1,0-0.2,0-0.4-0.1c-0.3-0.1-0.6-0.2-0.9-0.3c-0.2,0-0.4-0.1-0.6-0.1c-0.1,0-0.2,0-0.3-0.1c-0.3-0.1-0.6-0.2-0.9-0.3
			c-0.2,0-0.4-0.1-0.6-0.1c-0.1,0-0.2-0.1-0.3-0.1c-0.2,0-0.4-0.1-0.6-0.2c-0.1,0-0.3-0.1-0.4-0.1c-0.2,0-0.4-0.1-0.6-0.1
			c-0.1,0-0.3-0.1-0.4-0.1c-0.2,0-0.4-0.1-0.7-0.2c-0.1,0-0.3-0.1-0.5-0.2c0,0,0,0-0.1,0c-0.2,0-0.5-0.1-0.7-0.2
			c-0.2,0-0.4-0.1-0.6-0.1c-0.2,0-0.3-0.1-0.5-0.2c-0.1,0-0.3-0.1-0.4-0.1c-0.2,0-0.3-0.1-0.5-0.1c-0.1,0-0.3-0.1-0.4-0.1
			c-0.2-0.1-0.5-0.1-0.7-0.2C23.5,35.7,23.2,35.6,22.9,35.5z M25.5,37.3c-0.2,0.1-0.3,0.2-0.5,0.4c0-0.2,0-1,0-1.2
			c0.1,0,0.2,0,0.3,0c0,0,0.1,0,0.1,0.1C25.4,36.8,25.4,37,25.5,37.3C25.5,37.2,25.5,37.3,25.5,37.3z M24.8,36.6c0,0.9,0,1.9,0,2.8
			c0,0.2,0,0.2-0.2,0.2c-0.2,0-0.3-0.1-0.5-0.2c-0.1,0-0.1-0.1-0.1-0.2c0,0,0-0.1,0-0.1c0-0.9,0-1.8,0-2.7c0-0.1,0-0.2,0-0.3
			c0.1,0,0.2,0,0.2,0c0.1,0,0.3,0.1,0.4,0.1C24.7,36.3,24.8,36.4,24.8,36.6z M19.2,42.9C19.2,42.9,19.2,42.9,19.2,42.9
			c-0.2,0-0.3,0-0.4,0c-0.2,0-0.4-0.1-0.6-0.2c-0.1,0-0.1-0.1-0.1-0.2c0-0.3,0-0.6,0-0.8c0.1-0.1,0.2,0,0.4,0c0.2,0,0.4,0.1,0.6,0.2
			c0.1,0,0.2,0.1,0.2,0.2C19.2,42.3,19.2,42.6,19.2,42.9z M19.1,41.7c-0.2,0-0.4-0.1-0.7-0.2c0.1,0,0.2-0.1,0.3-0.1
			c0.2,0,0.3-0.1,0.5-0.1c0.1,0,0.2,0,0.2-0.1c0.3-0.1,0.5-0.2,0.8-0.3c0.2,0,0.3-0.1,0.5-0.2c0.1,0,0.3-0.1,0.4-0.1
			c0.2,0,0.4-0.1,0.6-0.2c0.1,0,0.2-0.1,0.3-0.1c0.2-0.1,0.5-0.2,0.7-0.3c0.2-0.1,0.5-0.1,0.7-0.2c0,0,0.1,0,0.2-0.1
			c0,0,0.1,0,0.2,0c0.2,0.1,0.4,0.1,0.6,0.2c0,0,0,0,0.1,0c-0.1,0-0.1,0.1-0.2,0.1C24.2,40,24.1,40,24,40c-0.3,0.1-0.5,0.1-0.8,0.2
			c-0.2,0.1-0.5,0.2-0.7,0.3c-0.1,0-0.3,0.1-0.4,0.1c-0.2,0-0.4,0.1-0.6,0.2c-0.1,0-0.2,0.1-0.4,0.1c-0.3,0.1-0.7,0.2-1,0.4
			c-0.2,0.1-0.5,0.2-0.7,0.3C19.4,41.7,19.2,41.7,19.1,41.7z M25.5,40.8c-0.3,0.1-0.5,0.2-0.8,0.3c-0.1,0-0.3,0.1-0.4,0.1
			c-0.2,0-0.3,0.1-0.5,0.2c-0.2,0.1-0.5,0.2-0.7,0.2c-0.1,0-0.3,0.1-0.4,0.1c-0.2,0-0.4,0.1-0.6,0.2c-0.1,0-0.1,0.1-0.2,0.1
			c-0.4,0.1-0.7,0.3-1.1,0.4c-0.2,0.1-0.5,0.2-0.7,0.2c-0.1,0-0.3,0.1-0.5,0.2c-0.1,0-0.2,0-0.2-0.1c0-0.3,0-0.5,0-0.8
			c0-0.1,0.1-0.2,0.2-0.2c0.3-0.1,0.5-0.2,0.8-0.3c0.1,0,0.3-0.1,0.4-0.1c0.2-0.1,0.5-0.1,0.7-0.2c0.2-0.1,0.5-0.2,0.7-0.3
			c0.2-0.1,0.5-0.2,0.8-0.2c0.1,0,0.2-0.1,0.3-0.1c0.3-0.1,0.7-0.3,1-0.4c0.2,0,0.4-0.1,0.6-0.2c0-0.4,0-0.7,0-1.2
			c0.2,0.2,0.5,0.2,0.7,0.4c0,0,0,0.1,0,0.2c0,0.4,0,0.8,0,1.2C25.7,40.7,25.7,40.7,25.5,40.8z M42.8,44.2c0,0-0.1,0-0.1,0
			c-0.3-0.1-0.7-0.2-1-0.3c-0.4-0.1-0.7-0.2-1.1-0.3c-0.3-0.1-0.7-0.2-1-0.3c-0.3-0.1-0.6-0.2-0.8-0.3c-0.2,0-0.3-0.1-0.5-0.1
			c-0.2,0-0.3-0.1-0.5-0.2c-0.1,0-0.3-0.1-0.4-0.1c-0.3-0.1-0.6-0.2-0.8-0.3c-0.1,0-0.3-0.1-0.5-0.2c-0.1,0-0.3-0.1-0.5-0.1
			c-0.2,0-0.4-0.1-0.6-0.2c-0.1,0-0.2-0.1-0.4-0.1c-0.3-0.1-0.7-0.2-1-0.3c-0.3-0.1-0.6-0.2-0.8-0.2c-0.3-0.1-0.6-0.2-0.8-0.3
			c-0.2,0-0.4-0.1-0.6-0.1c-0.1,0-0.2-0.1-0.3-0.1c-0.3-0.1-0.6-0.2-0.8-0.3c-0.2,0-0.4-0.1-0.6-0.1c-0.1,0-0.2-0.1-0.3-0.1
			c-0.2,0-0.3-0.1-0.5-0.2c-0.1,0-0.2-0.1-0.4-0.1c-0.2,0-0.3-0.1-0.5-0.1c-0.1,0-0.2-0.1-0.3-0.1c-0.2,0-0.3-0.1-0.5-0.2
			c-0.1,0-0.2-0.1-0.3-0.1c-0.2,0-0.3-0.1-0.5-0.1c-0.2,0-0.3-0.1-0.3-0.3c0-0.4-0.1-0.8-0.2-1.2c0-0.2,0-0.4-0.1-0.6
			c0-0.1,0-0.1,0.1-0.1c0.2,0,0.4,0.1,0.6,0.2c0.2,0,0.4,0.1,0.6,0.2c0.2,0,0.4,0.1,0.7,0.2c0.1,0,0.3,0.1,0.4,0.1
			c0.2,0,0.4,0.1,0.7,0.2c0.1,0,0.3,0.1,0.5,0.1c0.2,0,0.3,0.1,0.5,0.1c0.2,0.1,0.4,0.1,0.7,0.2c0.1,0,0.3,0.1,0.5,0.1
			c0.2,0,0.4,0.1,0.6,0.2c0.1,0,0.3,0.1,0.5,0.1c0.3,0.1,0.7,0.2,1,0.3c0.3,0.1,0.6,0.2,0.9,0.3c0.2,0,0.4,0.1,0.6,0.1
			c0,0,0.1,0,0.2,0.1c0.3,0.1,0.6,0.2,0.8,0.3c0.2,0,0.4,0.1,0.6,0.2c0.1,0,0.2,0.1,0.4,0.1c0.2,0,0.4,0.1,0.6,0.1
			c0.1,0,0.3,0.1,0.5,0.1c0.1,0,0.3,0.1,0.5,0.1c0,0,0,0,0.1,0c0-0.4-0.2-0.8-0.2-1.3c-0.1-0.6-0.1-1.2,0-1.8c0-0.2,0-0.5,0.1-0.7
			c0.1,0,0.2,0,0.4,0c0.2,0,0.4,0.1,0.7,0.2c0,0,0.1,0,0.1,0c0.1,0,0.2,0,0.3,0c0.3-0.1,0.7-0.3,1-0.4c0.2-0.1,0.5-0.1,0.7-0.2
			c0.2-0.1,0.5-0.2,0.7-0.3c0,0,0.1,0,0.1,0c0,0,0,0,0,0c0,0.3,0.1,0.6,0.1,0.9c0,0.4,0.1,0.8,0.2,1.3c0,0,0,0.1,0,0.2
			c0,0.2,0,0.4,0.1,0.7v0c0,0.4,0.1,0.7,0.1,1.1c0,0.4,0.1,0.8,0.2,1.2v0c0,0.4,0.1,0.8,0.1,1.2c0,0.3,0.1,0.7,0.1,1
			c0,0.2,0,0.4,0.1,0.6C42.8,44.1,42.8,44.1,42.8,44.2z M43.1,42.8c-0.1,0-0.2-0.1-0.3-0.3c0,0,0,0,0-0.1c0-0.4-0.1-0.7-0.1-1.1
			c0-0.1,0-0.3-0.1-0.4c0,0,0,0,0-0.1c0-0.3-0.1-0.7-0.1-1c0-0.4-0.1-0.8-0.2-1.3v0c0-0.4-0.1-0.7-0.1-1.1c0-0.1,0-0.2,0-0.3
			c0-0.4-0.1-0.8-0.2-1.3c0.3-0.1,0.5-0.2,0.7-0.2c0.1,0,0.2-0.1,0.3-0.1c0.2-0.1,0.5-0.2,0.7-0.3c0.1,0,0.1,0,0.3,0
			c0,0.1,0,0.2,0,0.3c0,2.5,0,4.9,0,7.4c0,0,0,0.1,0,0.1c0,0.1,0,0.1-0.1,0.1C43.6,42.9,43.3,42.8,43.1,42.8z M38.6,48.3
			c0.3-0.1,0.6-0.2,0.9-0.4c0.2-0.1,0.4-0.2,0.6-0.3c0.2-0.1,0.4-0.2,0.6-0.3c0.2-0.1,0.4-0.2,0.7-0.3c0.2-0.1,0.4-0.2,0.7-0.3
			c0.2-0.1,0.5-0.2,0.7-0.3c0.2-0.1,0.4-0.2,0.6-0.2c0.2-0.1,0.5-0.2,0.7-0.3c0.1,0,0.2,0,0.3,0c0.1,0,0.2,0.1,0.3,0.1
			c0,0,0.1,0,0.1,0c0.1,0,0.2,0,0.1,0.2c-0.3,0.1-0.6,0.2-0.9,0.4c-0.2,0.1-0.4,0.2-0.6,0.3c-0.2,0.1-0.4,0.1-0.6,0.2
			c-0.2,0.1-0.4,0.2-0.6,0.3c-0.2,0.1-0.4,0.2-0.6,0.3c-0.2,0.1-0.4,0.2-0.6,0.3c-0.1,0-0.3,0.1-0.4,0.2c-0.3,0.1-0.6,0.3-0.9,0.4
			c-0.1,0.1-0.3,0-0.5,0c-0.2,0-0.4-0.1-0.6-0.2C38.6,48.5,38.5,48.4,38.6,48.3C38.6,48.4,38.6,48.4,38.6,48.3z M46,47.3
			c0,0,0,0.1-0.1,0.1c-0.4,0.1-0.7,0.3-1.1,0.5c-0.2,0.1-0.5,0.2-0.7,0.3c-0.4,0.2-0.7,0.3-1.1,0.5c-0.3,0.1-0.6,0.2-0.9,0.4
			c-0.2,0.1-0.4,0.2-0.6,0.3c-0.2,0.1-0.4,0.2-0.7,0.3c-0.2,0.1-0.4,0.2-0.6,0.3c-0.2,0.1-0.4,0.2-0.6,0.3c-0.2,0-0.4,0-0.6,0
			c-0.1,0-0.2-0.1-0.3-0.1c-0.2,0-0.3-0.1-0.5-0.2c0-0.4,0-0.8,0-1.3c0.2,0,0.3,0.1,0.5,0.2c0.2,0,0.4,0.1,0.5,0.2h0
			c0.2,0.1,0.4,0,0.6-0.1c0.2-0.1,0.4-0.2,0.6-0.2c0.2-0.1,0.4-0.2,0.6-0.3c0.2-0.1,0.4-0.2,0.7-0.3c0.2-0.1,0.4-0.2,0.7-0.3
			c0.2-0.1,0.4-0.2,0.6-0.2c0.2-0.1,0.4-0.2,0.6-0.3c0.2-0.1,0.4-0.2,0.6-0.3c0.2-0.1,0.4-0.2,0.6-0.3c0.1-0.1,0.3-0.1,0.5-0.2
			c0-0.1,0-0.2,0-0.3c0-3.8,0-7.6,0-11.3c0,0,0-0.1,0-0.1c0-0.1,0-0.2,0.1-0.2c0,0,0.1,0,0.2-0.1c0.1,0,0.2-0.1,0.3,0
			c0,0.1,0,0.1,0,0.2c0,4.2,0,8.4,0,12.6C46,47.2,46,47.3,46,47.3z M46.4,34.2c0-0.1,0-0.2,0.3-0.1c0,0.5,0.2,1,0.5,1.4
			c0,0-0.1,0-0.1,0c-0.2,0-0.4-0.1-0.5-0.1c0,0-0.1-0.1-0.1-0.2C46.4,34.9,46.4,34.5,46.4,34.2z M49.2,36.2c-0.3,0.5-0.7,1-0.9,1.5
			c-0.3,0.4-0.6,0.9-0.8,1.3c-0.2,0.3-0.4,0.7-0.6,1c-0.1,0.1-0.1,0.2-0.2,0.4c0,0-0.1,0.1-0.1,0.1h0c0,0,0-0.1,0-0.2
			c0-1.4,0-2.8,0-4.2c0,0,0,0,0-0.1c0-0.3,0-0.3,0.3-0.2c0.2,0,0.3,0.1,0.5,0.1c0.2,0,0.5,0.2,0.7,0.2c0.3,0,0.7,0.1,1,0
			c0.1,0,0.2,0,0.3-0.1C49.2,36.1,49.2,36.1,49.2,36.2z M50.6,33c0,0.2-0.1,0.4-0.2,0.7c0,0.2-0.1,0.5-0.2,0.7
			c-0.3,0.5-0.6,1-1.1,1.3c-0.3,0.2-0.7,0.2-1.1,0.1c-0.3,0-0.5-0.3-0.7-0.5c-0.1-0.2-0.2-0.4-0.3-0.7c0-0.2-0.1-0.5-0.1-0.7
			c0.3-0.1,0.6-0.2,0.9-0.4c0.1,0.1,0.1,0.2,0.1,0.4c0,0.2,0.1,0.4,0.3,0.6c0.2,0.2,0.5,0.2,0.8,0c0.3-0.2,0.5-0.5,0.7-0.9
			c0.1-0.4,0.1-0.8,0.1-1.2c0-0.3-0.2-0.6-0.5-0.7c-0.1,0-0.3,0-0.5,0c-0.3,0.1-0.6,0.3-0.7,0.7c0,0.1-0.1,0.2-0.1,0.3
			c-0.1,0-0.1,0-0.1-0.1c0-0.1,0-0.3,0-0.5c0-0.3,0-0.7,0-1c0-0.1,0-0.2,0.1-0.3c0.2-0.1,0.5-0.3,0.7-0.4c0.1,0,0.2-0.1,0.3-0.1
			c0.3,0,0.7,0.2,0.9,0.4c0.2,0.3,0.4,0.6,0.5,0.9C50.7,32.1,50.7,32.6,50.6,33z"/>
		<path class="st1" d="M45.9,29.6c0,0-0.1,0-0.1,0c-0.2,0-0.5-0.1-0.7-0.1c-0.5,0-0.8,0.2-1.1,0.5c-0.2,0.2-0.3,0.5-0.4,0.7
			c-0.1,0.2-0.2,0.4-0.1,0.7c0,0.2,0,0.4,0,0.6s0,0.5,0.1,0.7c0.1,0.1,0.1,0.3,0.3,0.4c0.2,0.2,0.5,0.2,0.7,0.3c0,0,0.1,0,0.2,0
			c0.5,0.1,0.9,0.1,1.3-0.2c0.6-0.5,0.8-1.2,0.8-1.9c0-0.4,0-0.7-0.2-1C46.5,29.9,46.3,29.7,45.9,29.6z M44.2,32.8
			c-0.2-0.2-0.3-0.4-0.4-0.7c0-0.3,0-0.6,0-0.9c0.1-0.5,0.3-1,0.8-1.3c0.2-0.1,0.4-0.2,0.7-0.1c0.1,0,0.2,0,0.4,0.1
			c0,0.1-0.1,0.1-0.1,0.1c-0.3,0.2-0.5,0.6-0.7,1c-0.1,0.3-0.2,0.6-0.2,0.9c0,0.3,0,0.6,0.2,0.8c0,0,0,0.1,0.1,0.2
			C44.7,32.9,44.4,32.9,44.2,32.8z M46.5,31.2c0,0.1,0,0.3,0,0.4c0,0.1,0,0.3-0.1,0.5c-0.1,0.3-0.3,0.6-0.6,0.8
			c-0.1,0-0.2,0.1-0.3,0.2c-0.1,0-0.3,0-0.4-0.1c-0.1-0.2-0.2-0.4-0.2-0.6c0-0.1,0-0.2,0-0.3c0-0.3,0-0.7,0.1-0.9
			c0.1-0.4,0.3-0.7,0.7-1c0.2-0.1,0.4-0.1,0.6,0.1c0.1,0.1,0.2,0.3,0.2,0.4C46.5,30.8,46.6,31,46.5,31.2z"/>
		<path class="st1" d="M45.8,27.4c-0.2,0.3-0.4,0.7-0.3,1.1c0,0.2,0.1,0.3,0.2,0.5c0,0.1,0.2,0.2,0.3,0.2c0,0,0.1,0,0.1,0
			c0.3,0.1,0.5,0.1,0.7-0.1c0.3-0.3,0.4-0.6,0.5-1c0-0.1-0.1-0.3-0.1-0.5c0-0.1-0.1-0.2-0.3-0.3c-0.1,0-0.2,0-0.3-0.1
			C46.3,27.1,46,27.2,45.8,27.4z M46.9,27.8c0.1,0.3,0,0.6-0.2,0.9c0,0.1-0.1,0.1-0.2,0.1c0,0-0.1-0.1-0.1-0.2c0,0,0-0.1,0-0.2
			c0-0.2,0.1-0.5,0.2-0.6C46.7,27.6,46.8,27.6,46.9,27.8z M46.5,27.5c0,0,0,0.1,0,0.2c-0.1,0.1-0.2,0.3-0.2,0.5c0,0.2,0,0.4,0,0.5
			c0,0,0,0,0,0.1c-0.2,0-0.3,0-0.4-0.3c-0.1-0.3,0.1-0.8,0.4-1C46.3,27.4,46.3,27.4,46.5,27.5C46.4,27.4,46.5,27.5,46.5,27.5z"/>
	</g>
	<g>
		<g>
			<path class="st1" d="M17.4,28.9L17.4,28.9C17.3,28.8,17.3,28.8,17.4,28.9l0.8-1c0,0,0,0,0.1,0c0,0,0,0,0,0.1L17.4,28.9
				C17.5,28.9,17.4,28.9,17.4,28.9z"/>
		</g>
		<g>
			<path class="st1" d="M17,30.3L17,30.3C17,30.2,17,30.2,17,30.3l2.1-2.1c0,0,0.1,0,0.1,0c0,0,0,0.1,0,0.1L17,30.3
				C17.1,30.3,17.1,30.3,17,30.3z"/>
		</g>
		<g>
			<path class="st1" d="M17,31.6L17,31.6C16.9,31.5,16.9,31.5,17,31.6l3-3.3c0,0,0,0,0.1,0c0,0,0,0,0,0.1L17,31.6
				C17,31.6,17,31.6,17,31.6z"/>
		</g>
		<g>
			<path class="st1" d="M17,32.7L17,32.7C17,32.6,17,32.6,17,32.7l3.7-4c0,0,0,0,0.1,0c0,0,0,0,0,0.1L17,32.7
				C17.1,32.7,17.1,32.7,17,32.7z"/>
		</g>
		<g>
			<path class="st1" d="M17.3,33.4L17.3,33.4C17.2,33.4,17.2,33.3,17.3,33.4l4.4-4.5c0,0,0.1,0,0.1,0c0,0,0,0.1,0,0.1L17.3,33.4
				C17.4,33.4,17.4,33.4,17.3,33.4z"/>
		</g>
		<g>
			<path class="st1" d="M18.3,33.7L18.3,33.7C18.2,33.6,18.2,33.6,18.3,33.7l4.4-4.5c0,0,0.1,0,0.1,0c0,0,0,0.1,0,0.1L18.3,33.7
				L18.3,33.7z"/>
		</g>
		<g>
			<path class="st1" d="M19.1,33.9L19.1,33.9C19,33.8,19,33.8,19.1,33.9l4.3-4.4c0,0,0.1,0,0.1,0c0,0,0,0.1,0,0.1L19.1,33.9
				C19.1,33.9,19.1,33.9,19.1,33.9z"/>
		</g>
		<g>
			<path class="st1" d="M19.9,34.2L19.9,34.2C19.8,34.1,19.8,34.1,19.9,34.2l4.3-4.4c0,0,0.1,0,0.1,0c0,0,0,0.1,0,0.1L19.9,34.2
				C19.9,34.1,19.9,34.2,19.9,34.2z"/>
		</g>
		<g>
			<path class="st1" d="M20.8,34.4L20.8,34.4C20.7,34.3,20.7,34.3,20.8,34.4l4.5-4.6c0,0,0.1,0,0.1,0c0,0,0,0.1,0,0.1L20.8,34.4
				L20.8,34.4z"/>
		</g>
		<g>
			<path class="st1" d="M21.5,34.8L21.5,34.8C21.4,34.7,21.4,34.7,21.5,34.8l4.5-4.7c0,0,0.1,0,0.1,0c0,0,0,0.1,0,0.1L21.5,34.8
				C21.6,34.8,21.6,34.8,21.5,34.8z"/>
		</g>
		<g>
			<path class="st1" d="M22.4,35L22.4,35C22.3,35,22.3,34.9,22.4,35l4.6-4.7c0,0,0.1,0,0.1,0c0,0,0,0.1,0,0.1L22.4,35L22.4,35z"/>
		</g>
		<g>
			<path class="st1" d="M23.3,35.3L23.3,35.3C23.2,35.3,23.2,35.2,23.3,35.3l4.7-4.8c0,0,0.1,0,0.1,0c0,0,0,0.1,0,0.1L23.3,35.3
				C23.3,35.3,23.3,35.3,23.3,35.3z"/>
		</g>
		<g>
			<path class="st1" d="M24.1,35.6L24.1,35.6C24,35.6,24,35.5,24.1,35.6l4.7-4.9c0,0,0.1,0,0.1,0c0,0,0,0.1,0,0.1L24.1,35.6
				C24.1,35.6,24.1,35.6,24.1,35.6z"/>
		</g>
		<g>
			<path class="st1" d="M25,35.8L25,35.8C24.9,35.7,24.9,35.7,25,35.8l4.7-4.8c0,0,0.1,0,0.1,0c0,0,0,0.1,0,0.1L25,35.8L25,35.8z"/>
		</g>
		<g>
			<path class="st1" d="M25.9,36.1L25.9,36.1C25.8,36,25.8,36,25.9,36.1l4.7-4.8c0,0,0.1,0,0.1,0c0,0,0,0.1,0,0.1L25.9,36.1
				C26,36.1,26,36.1,25.9,36.1z"/>
		</g>
		<g>
			<path class="st1" d="M26.8,36.3L26.8,36.3C26.7,36.3,26.7,36.3,26.8,36.3l4.7-4.9c0,0,0.1,0,0.1,0c0,0,0,0.1,0,0.1L26.8,36.3
				C26.8,36.3,26.8,36.3,26.8,36.3z"/>
		</g>
		<g>
			<path class="st1" d="M27.6,36.5L27.6,36.5C27.5,36.4,27.5,36.4,27.6,36.5l4.5-4.7c0,0,0.1,0,0.1,0c0,0,0,0.1,0,0.1L27.6,36.5
				C27.6,36.5,27.6,36.5,27.6,36.5z"/>
		</g>
		<g>
			<path class="st1" d="M28.5,36.8L28.5,36.8C28.4,36.7,28.4,36.7,28.5,36.8l4.7-4.8c0,0,0.1,0,0.1,0c0,0,0,0.1,0,0.1L28.5,36.8
				C28.5,36.8,28.5,36.8,28.5,36.8z"/>
		</g>
		<g>
			<path class="st1" d="M29.3,37L29.3,37C29.2,37,29.2,37,29.3,37l4.8-4.9c0,0,0.1,0,0.1,0c0,0,0,0.1,0,0.1L29.3,37
				C29.4,37,29.3,37,29.3,37z"/>
		</g>
		<g>
			<path class="st1" d="M30.2,37.2L30.2,37.2C30.1,37.2,30.1,37.1,30.2,37.2l4.8-4.9c0,0,0.1,0,0.1,0c0,0,0,0.1,0,0.1L30.2,37.2
				C30.3,37.2,30.3,37.2,30.2,37.2z"/>
		</g>
		<g>
			<path class="st1" d="M31,37.5L31,37.5C31,37.5,31,37.4,31,37.5l4.8-4.9c0,0,0.1,0,0.1,0c0,0,0,0.1,0,0.1L31,37.5
				C31.1,37.5,31,37.5,31,37.5z"/>
		</g>
		<g>
			<path class="st1" d="M31.9,37.8L31.9,37.8C31.8,37.7,31.8,37.7,31.9,37.8l4.7-4.9c0,0,0.1,0,0.1,0c0,0,0,0.1,0,0.1L31.9,37.8
				C31.9,37.8,31.9,37.8,31.9,37.8z"/>
		</g>
		<g>
			<path class="st1" d="M32.7,38.1L32.7,38.1C32.6,38,32.6,38,32.7,38.1l4.7-4.9c0,0,0.1,0,0.1,0c0,0,0,0.1,0,0.1L32.7,38.1
				C32.7,38.1,32.7,38.1,32.7,38.1z"/>
		</g>
		<g>
			<path class="st1" d="M33.5,38.4L33.5,38.4C33.4,38.4,33.4,38.4,33.5,38.4l3.9-4c0,0,0.1,0,0.1,0c0,0,0,0.1,0,0.1L33.5,38.4
				C33.6,38.4,33.5,38.4,33.5,38.4z"/>
		</g>
		<g>
			<path class="st1" d="M34.4,38.7L34.4,38.7C34.3,38.6,34.3,38.6,34.4,38.7l2.7-2.8c0,0,0.1,0,0.1,0c0,0,0,0.1,0,0.1L34.4,38.7
				C34.4,38.7,34.4,38.7,34.4,38.7z"/>
		</g>
		<g>
			<path class="st1" d="M35.3,39L35.3,39C35.2,38.9,35.2,38.9,35.3,39l1.7-1.8c0,0,0.1,0,0.1,0c0,0,0,0.1,0,0.1L35.3,39
				C35.3,39,35.3,39,35.3,39z"/>
		</g>
		<g>
			<path class="st1" d="M36.1,39.2L36.1,39.2C36,39.2,36,39.1,36.1,39.2l1-1.1c0,0,0.1,0,0.1,0c0,0,0,0.1,0,0.1L36.1,39.2
				C36.1,39.2,36.1,39.2,36.1,39.2z"/>
		</g>
		<g>
			<path class="st1" d="M36.9,39.5L36.9,39.5C36.8,39.5,36.8,39.4,36.9,39.5l0.2-0.4c0,0,0.1,0,0.1,0c0,0,0,0.1,0,0.1L36.9,39.5
				C36.9,39.5,36.9,39.5,36.9,39.5z"/>
		</g>
	</g>
</g>
</svg>
