<?xml version="1.0" encoding="utf-8"?>
<!-- Generator: Adobe Illustrator 24.2.0, SVG Export Plug-In . SVG Version: 6.00 Build 0)  -->
<svg version="1.1" id="Layer_1" xmlns="http://www.w3.org/2000/svg" xmlns:xlink="http://www.w3.org/1999/xlink" x="0px" y="0px"
	 viewBox="0 0 67 67" style="enable-background:new 0 0 67 67;" xml:space="preserve">
<style type="text/css">
	.st0{fill:#24CDD5;}
	.st1{fill:#FFFFFF;}
</style>
<g>
	<circle class="st0" cx="33.5" cy="33.5" r="28.6"/>
</g>
<g>
	<path class="st0" d="M33.5,66.6c-18.3,0-33.1-14.8-33.1-33.1S15.2,0.4,33.5,0.4s33.1,14.8,33.1,33.1l0,0
		C66.6,51.8,51.8,66.6,33.5,66.6z"/>
</g>
<g>
	<path class="st1" d="M42.6,23.8c-2.1-1.8-4.7-2.8-7.4-3c7,1.1,11.8,7.8,10.7,14.8c-1.1,6.6-7,11.3-13.7,10.8
		c7,1.1,13.7-3.6,14.8-10.7C47.8,31.3,46.1,26.8,42.6,23.8z"/>
	<path class="st1" d="M34.3,47.1c-0.7,0-1.4-0.1-2.1-0.2l0.1-1c6.4,0.5,12.1-4,13.2-10.4c1.1-6.8-3.5-13.2-10.3-14.2l0.1-1
		c2.9,0.2,5.6,1.3,7.7,3.1l0,0c3.6,3.1,5.4,7.9,4.6,12.4c-0.5,3.5-2.4,6.6-5.3,8.7C39.9,46.2,37.1,47.1,34.3,47.1z M45.7,28.7
		c0.8,2.1,1.1,4.5,0.7,7c-0.3,1.9-1,3.6-1.9,5c1-1.5,1.7-3.2,2-5.1C46.9,33.3,46.6,30.9,45.7,28.7z"/>
</g>
<g>
	<path class="st1" d="M24.9,44.9c2.4,2,5.4,3.3,8.5,3.5c-2.7-0.4-5.1-1.6-7.2-3.3c-6.3-5.2-7.1-14.5-1.9-20.8
		c3-3.6,7.6-5.5,12.3-5.1c-5.1-0.9-10.3,1-13.6,4.9C17.8,30.4,18.7,39.7,24.9,44.9z"/>
	<path class="st1" d="M33.4,48.9c-3.1-0.2-6.2-1.5-8.8-3.6l0,0c-6.4-5.4-7.3-15-2-21.5c3.4-4.1,8.8-6,14.1-5.1l-0.1,1
		c-4.5-0.4-9,1.5-11.9,4.9c-2.4,2.9-3.6,6.7-3.2,10.4c0.3,3.8,2.1,7.2,5.1,9.6c2.2,1.8,4.5,2.8,7,3.2L33.4,48.9z M25.1,22.7
		c-0.6,0.5-1.2,1.1-1.7,1.7c-3.9,4.7-4.2,11.3-1.3,16.4c-0.9-1.7-1.5-3.6-1.6-5.6c-0.4-4.1,0.9-8,3.5-11.2
		C24.3,23.5,24.7,23.1,25.1,22.7z"/>
</g>
<g>
	<rect x="14.2" y="33.3" class="st1" width="38.6" height="0.4"/>
	<rect x="13.7" y="32.8" class="st1" width="39.6" height="1.4"/>
</g>
<g>
	<rect x="33.3" y="14.2" class="st1" width="0.4" height="38.6"/>
	<rect x="32.8" y="13.7" class="st1" width="1.4" height="39.6"/>
</g>
</svg>
