<?xml version="1.0" encoding="utf-8"?>
<!-- Generator: Adobe Illustrator 24.2.0, SVG Export Plug-In . SVG Version: 6.00 Build 0)  -->
<svg version="1.1" id="Layer_1" xmlns="http://www.w3.org/2000/svg" xmlns:xlink="http://www.w3.org/1999/xlink" x="0px" y="0px"
	 viewBox="0 0 15.5 15.5" style="enable-background:new 0 0 15.5 15.5;" xml:space="preserve">
<style type="text/css">
	.st0{fill:#898780;}
	.st1{fill:#FFFFFF;}
</style>
<g>
	<g>
		<path class="st0" d="M15.25,7.75c0-4.14-3.36-7.5-7.5-7.5s-7.5,3.36-7.5,7.5c0,3.74,2.74,6.85,6.33,7.41V9.92h-1.9V7.75h1.9V6.1
			c0-1.88,1.12-2.92,2.83-2.92c0.82,0,1.68,0.15,1.68,0.15v1.85h-0.95c-0.93,0-1.22,0.58-1.22,1.17v1.41H11l-0.33,2.17H8.92v5.24
			C12.51,14.6,15.25,11.49,15.25,7.75z"/>
		<path class="st1" d="M10.67,9.92L11,7.75H8.92V6.34c0-0.59,0.29-1.17,1.22-1.17h0.95V3.33c0,0-0.86-0.15-1.68-0.15
			c-1.71,0-2.83,1.04-2.83,2.92v1.65h-1.9v2.17h1.9v5.24c0.38,0.06,0.77,0.09,1.17,0.09s0.79-0.03,1.17-0.09V9.92H10.67z"/>
	</g>
</g>
</svg>
