<?xml version="1.0" encoding="utf-8"?>
<!-- Generator: Adobe Illustrator 24.2.0, SVG Export Plug-In . SVG Version: 6.00 Build 0)  -->
<svg version="1.1" id="Layer_1" xmlns="http://www.w3.org/2000/svg" xmlns:xlink="http://www.w3.org/1999/xlink" x="0px" y="0px"
	 viewBox="0 0 15.5 15.5" style="enable-background:new 0 0 15.5 15.5;" xml:space="preserve">
<style type="text/css">
	.st0{fill:#898780;}
	.st1{fill:#FFFFFF;}
</style>
<g>
	<circle class="st0" cx="7.75" cy="7.75" r="7.5"/>
	<g>
		<g>
			<g>
				<path class="st1" d="M10.08,4.91c-0.28,0-0.52,0.23-0.52,0.52c0,0.28,0.23,0.52,0.52,0.52c0.28,0,0.52-0.23,0.52-0.52
					C10.59,5.14,10.36,4.91,10.08,4.91z"/>
				<path class="st1" d="M7.79,5.57c-1.19,0-2.17,0.97-2.17,2.17c0,1.19,0.97,2.17,2.17,2.17s2.17-0.97,2.17-2.17
					C9.95,6.55,8.98,5.57,7.79,5.57z M7.79,9.13C7.02,9.13,6.4,8.5,6.4,7.74c0-0.76,0.62-1.39,1.39-1.39c0.76,0,1.39,0.62,1.39,1.39
					C9.17,8.5,8.55,9.13,7.79,9.13z"/>
				<path class="st1" d="M9.51,12.14H5.99c-1.46,0-2.64-1.18-2.64-2.64V5.98c0-1.46,1.18-2.64,2.64-2.64h3.51
					c1.46,0,2.64,1.18,2.64,2.64v3.51C12.15,10.95,10.96,12.14,9.51,12.14z M5.99,4.17c-1,0-1.81,0.81-1.81,1.81v3.51
					c0,1,0.81,1.81,1.81,1.81h3.51c1,0,1.81-0.81,1.81-1.81V5.98c0-1-0.81-1.81-1.81-1.81H5.99z"/>
			</g>
		</g>
	</g>
</g>
</svg>
