<?xml version="1.0" encoding="utf-8"?>
<!-- Generator: Adobe Illustrator 24.2.0, SVG Export Plug-In . SVG Version: 6.00 Build 0)  -->
<svg version="1.1" id="Layer_1" xmlns="http://www.w3.org/2000/svg" xmlns:xlink="http://www.w3.org/1999/xlink" x="0px" y="0px"
	 viewBox="0 0 15.5 15.5" style="enable-background:new 0 0 15.5 15.5;" xml:space="preserve">
<style type="text/css">
	.st0{fill:#898780;}
	.st1{fill:#FFFFFF;}
</style>
<g>
	<circle class="st0" cx="7.75" cy="7.75" r="7.5"/>
	<g>
		<g>
			<path class="st1" d="M7.75,2.75c-2.13,0-3.86,1.73-3.86,3.86c0,1.82,2.81,5.11,3.64,6.04c0.12,0.14,0.33,0.14,0.45,0
				c0.83-0.93,3.64-4.22,3.64-6.04C11.61,4.48,9.88,2.75,7.75,2.75z M7.75,8.33c-1.05,0-1.91-0.86-1.91-1.91
				c0-1.05,0.86-1.91,1.91-1.91c1.05,0,1.91,0.86,1.91,1.91C9.66,7.48,8.8,8.33,7.75,8.33z"/>
		</g>
	</g>
</g>
</svg>
