<?xml version="1.0" encoding="utf-8"?>
<!-- Generator: Adobe Illustrator 24.2.0, SVG Export Plug-In . SVG Version: 6.00 Build 0)  -->
<svg version="1.1" id="Layer_1" xmlns="http://www.w3.org/2000/svg" xmlns:xlink="http://www.w3.org/1999/xlink" x="0px" y="0px"
	 viewBox="0 0 103 100" style="enable-background:new 0 0 103 100;" xml:space="preserve">
<style type="text/css">
	.st0{fill:#898780;}
	.st1{fill-rule:evenodd;clip-rule:evenodd;fill:#898780;}
</style>
<g>
	<g>
		<g>
			<g>
				<g>
					<g>
						<g>
							<g>
								<polyline class="st0" points="37.89,24.46 37.89,24.46 37.9,24.46 37.89,24.46 								"/>
								<g>
									<g>
										<path class="st1" d="M40.39,23.72l-1-3.14l0-0.01c-6.72,2.21-11.84,5.76-13.98,9.76C28.96,27.4,34.22,25.02,40.39,23.72z"
											/>
									</g>
								</g>
								<path class="st0" d="M71.63,22.15c0.66,0.39,1.28,0.8,1.84,1.24c2.37,1.83,3.83,4.06,4.08,6.58
									c0.33,3.31-1.51,6.56-4.86,9.33c0.85-1.59,1.24-3.24,1.08-4.91c-0.29-2.95-2.26-5.52-5.39-7.49l3.19-4.65L71.63,22.15z"/>
								<g>
									<g>
										<path class="st0" d="M56.01,24.12v8.52c0,0,0,0,0.01,0l0,6.57h2.05c2.77,0,5.02-2.25,5.02-5.02v-1.48V25.7l0,0l0,0l0,0
											l0,0l0,0l0,0l0,0l-0.01,0l0,0l0,0l0,0l0,0l0,0l0,0l0,0l0,0l0,0l0,0l0,0l0,0l0,0l0,0l0,0l0,0l0,0l0,0l0,0l0,0l0,0l0,0l0,0
											l0,0l0,0l-0.02-0.01l0,0l0,0l0,0l0,0l0,0l0,0l0,0l0,0l0,0l0,0l-0.01,0l0,0l-0.03-0.01l0,0l0,0l0,0l0,0l-0.1-0.03h0
											l-0.1-0.03l-0.1-0.03l0,0l-0.1-0.03l0,0l-0.1-0.03l0,0l-0.1-0.03l0,0l-0.1-0.03l0,0c-0.03-0.01-0.07-0.02-0.1-0.03l0,0
											l-0.1-0.03l0,0l-0.1-0.03l0,0l-0.1-0.03l0,0c-0.03-0.01-0.07-0.02-0.1-0.03l0,0l-0.1-0.03l0,0l-0.1-0.03l0,0l-0.1-0.03
											l0,0c-0.03-0.01-0.07-0.02-0.1-0.03l0,0c-0.03-0.01-0.07-0.02-0.1-0.03l0,0l-0.1-0.03l0,0l-0.1-0.03l0,0l-0.1-0.03l0,0
											c-0.03-0.01-0.07-0.02-0.1-0.03l0,0l-0.1-0.03l0,0l-0.1-0.03l0,0c-0.03-0.01-0.07-0.02-0.1-0.02l0,0l-0.1-0.02l0,0
											l-0.1-0.02l0,0l-0.1-0.02l0,0l-0.1-0.02l0,0l-0.1-0.02l0,0c-0.03-0.01-0.07-0.02-0.1-0.02l0,0l-0.03-0.01l-0.08-0.02
											l-0.1-0.02l-0.01,0l-0.1-0.02l-0.01,0l-0.1-0.02l-0.01,0l-0.1-0.02l-0.01,0l-0.11-0.02l-0.1-0.02l-0.01,0l-0.1-0.02
											l-0.01,0l-0.1-0.02l-0.01,0l-0.01,0l-0.1-0.02l-0.1-0.02l-0.01,0l-0.01,0l-0.1-0.02l-0.1-0.02l-0.01,0l-0.1-0.02l-0.01,0
											l-0.1-0.02l-0.01,0l-0.02,0l-0.09-0.02l-0.1-0.02l-0.01,0l-0.1-0.02l-0.01,0l-0.1-0.02l-0.01,0l-0.1-0.02l-0.01,0
											l-0.1-0.02l-0.01,0l-0.1-0.02l-0.01,0l-0.1-0.02l-0.01,0l-0.1-0.02l-0.08-0.01l-0.03-0.01l-0.01,0
											c-0.03-0.01-0.07-0.01-0.1-0.02l-0.08-0.01l-0.03,0l-0.01,0l-0.1-0.01l-0.01,0l-0.1-0.01l-0.01,0l-0.1-0.01l-0.01,0
											l-0.1-0.01l-0.01,0l-0.1-0.01l-0.11-0.01L56.01,24.12z M67.49,4.5c-0.09,0-0.18,0-0.27,0c-0.09,0-0.18,0-0.26,0h-3.87
											h-7.08v4.6v1.33v6.65l0,0h0h0h0l0.01,0h0h0h0l0,0h0h0h0h0l0,0h0h0h0l0,0h0h0h0h0l0,0h0h0h0l0,0h0h0h0l0,0h0h0h0l0,0h0h0h0
											l0,0h0h0h0l0,0h0h0h0h0l0,0h0l0,0h0h0h0l0,0h0h0h0l0,0h0h0l0,0h0h0h0l0,0h0h0l0,0h0h0l0,0h0h0h0l0,0h0h0l0,0h0h0l0.12,0
											l0.11,0l0.01,0l0.1,0l0.02,0l0.03,0l0.07,0l0.05,0l0.07,0l0.04,0l0.08,0l0.04,0l0.07,0l0.05,0l0.06,0l0.05,0l0.07,0
											l0.03,0l0.09,0.01l0.03,0l0.08,0l0.05,0l0.06,0l0.04,0l0.08,0.01l0.03,0l0.07,0l0.06,0l0.03,0c0.07,0,0.13,0.01,0.2,0.01
											h0l0.11,0.01l0,0l0.11,0.01l0,0l0.11,0.01l0.01,0l0.1,0.01l0,0l0.08,0.01l0.03,0l0.07,0.01l0.05,0l0.05,0l0.06,0.01
											l0.05,0.01l0.06,0.01l0.06,0.01l0.05,0l0.06,0.01l0.05,0l0.07,0.01l0.04,0l0.07,0.01l0.04,0l0.08,0.01l0.03,0l0.08,0.01
											l0.04,0l0.06,0.01l0.06,0.01l0.07,0.01l0.02,0l0.09,0.01l0.01,0l0.1,0.01l0.01,0c0.07,0.01,0.14,0.02,0.2,0.02l0,0
											l0.11,0.01c0.1,0.01,0.2,0.03,0.3,0.04l0.03,0l0.09,0.01l0.02,0l0.09,0.01l0.02,0l0.09,0.01l0.02,0l0.1,0.01l0,0l0.1,0.02
											l0,0l0.1,0.01l0.01,0l0.09,0.01l0.02,0l0.09,0.01l0.01,0c0.1,0.02,0.21,0.03,0.31,0.05l0.01,0
											c0.35,0.06,0.69,0.12,1.04,0.18l0,0c0.07,0.01,0.14,0.03,0.2,0.04l0,0v-7.15h3.15c0.19,0,0.39,0,0.6-0.01h0.01
											c0.19,0,0.38-0.01,0.58-0.01c2.16,0.11,3.89,1.86,3.89,4.03c0,1.89-1.31,3.47-3.09,3.9c-0.02,0.01-0.05,0.01-0.07,0.01
											c-0.1,0.02-0.2,0.04-0.3,0.06l-0.25,0.36l0.09,0.03l0.04,0.01l0.09,0.03l0.04,0.01l0.01,0l0.03,0.01
											c0.06,0.02,0.11,0.04,0.17,0.06l0.04,0.02l0.08,0.03l0.04,0.02l0.08,0.03l0.04,0.02l0,0l0.04,0.01
											c0.07,0.03,0.14,0.05,0.21,0.08l0.04,0.02l0.04,0.02l0.03,0.01l0.01,0l0.04,0.02l0.04,0.02l0.01,0l0.04,0.02l0.04,0.02
											l0.08,0.03l0.04,0.02l0.08,0.03l0.04,0.02l0,0l0.04,0.01l0.02,0.01l0.02,0.01l0.04,0.02l0,0l0.04,0.02l0.02,0.01
											l0.02,0.01l0.02,0.01l0.06,0.03l0,0c0.07,0.03,0.13,0.06,0.2,0.08l0.04,0.02l0.01,0.01l0.03,0.01l0.03,0.01l0.01,0
											l0.04,0.02l0.01,0l0.03,0.01l0.03,0.01l0.01,0l0.04,0.02l0.01,0l0.05,0.02l0.01,0L69.98,20l0.04,0.02l0,0l0.06,0.03l0,0
											l0.02,0.01l0.04,0.02l0,0l0.04,0.02l0.02,0.01l0.02,0.01l0.01-0.02l0.91,0.47l0.04,0.02l1.14,0.58l-0.02,0.03
											c0.67,0.4,1.3,0.82,1.87,1.27l0.87-0.99c1.59-1.8,2.56-4.16,2.56-6.73C77.59,9.17,73.09,4.64,67.49,4.5z"/>
									</g>
								</g>
								<g>
									<path class="st0" d="M47.48,23.91c-1.59,0.14-3.2,0.33-4.83,0.57c-0.3,0.05-0.59,0.1-0.89,0.16l-0.04,0.01
										c-0.97,0.18-1.93,0.39-2.86,0.63c0.04,0.08,0.07,0.15,0.09,0.15c1.6,0.75,2.95,1.36,3.92,2.01
										c4.01,2.69,3.01,5.57,1.02,6.44c-0.04,0.02-0.09,0.02-0.14,0.03c-5.96,1.54-8.47-4.24-8.85-5.2
										c-0.01-0.04-0.02-0.08-0.02-0.11c0-0.02-0.02-0.02-0.03-0.02h-3.62c-0.02,0-0.03,0.01-0.03,0.03v9.88h0.01l-0.01,0.4
										l12.09-0.04c5.97,0,8.85-2.87,10.18-5.07c0.03-0.05,0.05-0.09,0.08-0.14c0.05-0.06,0.08-0.1,0.1-0.13
										c0.01-0.02,0.02-0.03,0.02-0.04c0.13-0.23,0.24-0.46,0.34-0.7c0.02-0.05,0.04-0.1,0.06-0.15c0.35-0.79,0.46-1.33,0.46-1.33
										c0.23-0.88,0.35-1.79,0.35-2.73c0.01-1.64-0.3-3.12-0.95-4.46c0-0.01-0.05-0.09-0.11-0.21c-1.02-0.07-2.07-0.11-3.12-0.11
										C49.64,23.81,48.56,23.84,47.48,23.91"/>
								</g>
								<g>
									<g>
										<path class="st0" d="M54.88,4.5L42.79,4.53c-5.97,0-8.85,2.87-10.18,5.07c-0.03,0.04-0.05,0.09-0.08,0.13
											c-0.05,0.06-0.08,0.1-0.1,0.13c-0.01,0.02-0.02,0.03-0.02,0.04c-0.13,0.23-0.24,0.46-0.34,0.7
											c-0.02,0.05-0.04,0.1-0.06,0.14c-0.35,0.79-0.46,1.33-0.46,1.33l0,0c-0.23,0.88-0.35,1.79-0.35,2.73
											c-0.01,1.64,0.3,3.12,0.96,4.46c0.36,0.74,0.87,1.47,1.52,2.18c0.01,0.01,0.02,0.01,0.04,0.01l0.14,0.13
											c1.59-0.79,3.33-1.5,5.18-2.1l-0.01-0.02l1.14-0.34l0.05-0.02l1.04-0.31l0,0.01c1.71-0.47,3.48-0.84,5.29-1.12
											c-1.34-0.63-2.48-1.16-3.33-1.73c-4-2.69-3.02-5.57-1.02-6.44c0.04-0.02,0.09-0.02,0.13-0.04
											c5.96-1.54,8.47,4.24,8.85,5.2c0.01,0.04,0.01,0.07,0.02,0.11c0,0.01,0.02,0.03,0.03,0.03h3.62
											c0.02,0,0.03-0.01,0.03-0.03V4.89h-0.01L54.88,4.5z"/>
									</g>
								</g>
							</g>
							<path class="st1" d="M55.32,18.24c0.27,0,0.55,0,0.82,0.01c2.5,0.09,4.88,0.37,7.08,0.83c1.33,0.28,2.6,0.62,3.78,1.01
								c1.3,0.43,2.51,0.93,3.61,1.5l-3.23,4.72c-1.24-0.69-2.64-1.29-4.16-1.79c-2.13-0.72-4.52-1.24-7.08-1.55
								c-0.45-0.05-0.91-0.1-1.37-0.14L55.32,18.24z"/>
							<path class="st1" d="M53.6,22.73l0.01-0.05l0.54-4.45c-1.5,0.01-3.04,0.08-4.6,0.24c-3.21,0.32-6.25,0.93-9.05,1.76
								l1.04,3.26c1.37-0.25,2.77-0.46,4.21-0.6c1.68-0.17,3.33-0.25,4.95-0.25C51.68,22.64,52.65,22.67,53.6,22.73"/>
						</g>
					</g>
				</g>
			</g>
		</g>
		<g>
			<g>
				<path class="st0" d="M6.15,55.46c0.02,0.07,0.04,0.12,0.04,0.17c0,0.04-0.01,0.07-0.03,0.1c-0.02,0.02-0.06,0.04-0.12,0.04
					c-0.05,0.01-0.13,0.01-0.22,0.01c-0.09,0-0.16,0-0.22-0.01s-0.09-0.01-0.12-0.02c-0.03-0.01-0.05-0.03-0.06-0.04
					c-0.01-0.02-0.03-0.04-0.04-0.07L4.9,54.16H2.56l-0.46,1.44c-0.01,0.03-0.02,0.05-0.03,0.07c-0.01,0.02-0.04,0.04-0.06,0.05
					c-0.03,0.01-0.07,0.02-0.12,0.03c-0.05,0.01-0.12,0.01-0.2,0.01c-0.08,0-0.15,0-0.21-0.01c-0.05-0.01-0.09-0.02-0.11-0.04
					c-0.02-0.02-0.03-0.05-0.03-0.1s0.01-0.1,0.04-0.16l1.89-5.58c0.01-0.03,0.03-0.06,0.05-0.08c0.02-0.02,0.05-0.04,0.08-0.05
					c0.04-0.01,0.08-0.02,0.14-0.03c0.06,0,0.13-0.01,0.22-0.01c0.09,0,0.17,0,0.23,0.01c0.06,0,0.11,0.01,0.15,0.03
					s0.07,0.03,0.09,0.05c0.02,0.02,0.04,0.05,0.05,0.09L6.15,55.46z M3.72,50.53L3.72,50.53l-0.98,2.99h1.96L3.72,50.53z"/>
				<path class="st0" d="M7.73,55.62c0,0.02-0.01,0.05-0.02,0.06c-0.01,0.02-0.03,0.03-0.06,0.04c-0.03,0.01-0.06,0.02-0.11,0.03
					c-0.05,0.01-0.11,0.01-0.18,0.01c-0.07,0-0.13,0-0.17-0.01c-0.05-0.01-0.08-0.02-0.11-0.03c-0.03-0.01-0.05-0.03-0.06-0.04
					c-0.01-0.02-0.02-0.04-0.02-0.06v-6.2c0-0.02,0.01-0.05,0.02-0.07c0.01-0.02,0.03-0.03,0.06-0.05c0.03-0.01,0.06-0.02,0.11-0.03
					c0.05-0.01,0.1-0.01,0.17-0.01c0.07,0,0.13,0,0.18,0.01c0.05,0.01,0.08,0.02,0.11,0.03c0.03,0.01,0.05,0.03,0.06,0.05
					c0.01,0.02,0.02,0.04,0.02,0.07V55.62z"/>
				<path class="st0" d="M14.2,54.06c0,0.28-0.05,0.53-0.15,0.75c-0.1,0.22-0.23,0.41-0.41,0.56c-0.17,0.15-0.38,0.27-0.61,0.35
					c-0.23,0.08-0.49,0.12-0.76,0.12c-0.19,0-0.36-0.02-0.53-0.05c-0.16-0.03-0.31-0.08-0.43-0.13c-0.13-0.05-0.23-0.1-0.32-0.15
					s-0.15-0.1-0.18-0.13c-0.03-0.04-0.06-0.08-0.07-0.14c-0.02-0.06-0.02-0.13-0.02-0.23c0-0.07,0-0.12,0.01-0.17
					c0.01-0.04,0.01-0.08,0.03-0.11c0.01-0.03,0.03-0.05,0.04-0.06s0.04-0.02,0.06-0.02c0.04,0,0.1,0.03,0.17,0.08
					c0.07,0.05,0.17,0.11,0.29,0.17c0.12,0.06,0.26,0.12,0.42,0.17c0.16,0.05,0.35,0.08,0.57,0.08c0.16,0,0.31-0.02,0.45-0.07
					c0.14-0.05,0.25-0.11,0.35-0.2c0.1-0.08,0.17-0.19,0.22-0.31c0.05-0.12,0.08-0.26,0.08-0.42c0-0.17-0.04-0.32-0.11-0.44
					c-0.07-0.12-0.17-0.23-0.29-0.32c-0.12-0.09-0.26-0.17-0.41-0.25c-0.15-0.08-0.31-0.15-0.47-0.23
					c-0.16-0.08-0.32-0.17-0.47-0.26c-0.15-0.1-0.29-0.21-0.41-0.34c-0.12-0.13-0.22-0.28-0.29-0.46c-0.07-0.18-0.11-0.38-0.11-0.63
					c0-0.25,0.04-0.47,0.13-0.67c0.09-0.2,0.21-0.36,0.36-0.49c0.15-0.13,0.33-0.23,0.55-0.3s0.44-0.1,0.68-0.1
					c0.13,0,0.25,0.01,0.38,0.03c0.13,0.02,0.25,0.05,0.36,0.09c0.11,0.04,0.21,0.08,0.3,0.13c0.09,0.05,0.15,0.09,0.17,0.12
					c0.03,0.03,0.05,0.05,0.05,0.07c0.01,0.02,0.02,0.04,0.02,0.06c0.01,0.03,0.01,0.06,0.01,0.09c0,0.04,0,0.09,0,0.14
					c0,0.06,0,0.1-0.01,0.15c0,0.04-0.01,0.08-0.02,0.11c-0.01,0.03-0.02,0.05-0.04,0.06c-0.02,0.01-0.03,0.02-0.05,0.02
					c-0.03,0-0.08-0.02-0.15-0.06c-0.07-0.04-0.15-0.09-0.25-0.15c-0.1-0.05-0.22-0.1-0.35-0.15c-0.14-0.04-0.29-0.07-0.46-0.07
					c-0.16,0-0.29,0.02-0.41,0.07c-0.12,0.04-0.21,0.1-0.29,0.18c-0.08,0.07-0.13,0.16-0.17,0.26c-0.04,0.1-0.06,0.21-0.06,0.33
					c0,0.17,0.04,0.31,0.11,0.43c0.07,0.12,0.17,0.23,0.29,0.32s0.26,0.18,0.41,0.25c0.15,0.08,0.31,0.16,0.47,0.23
					c0.16,0.08,0.32,0.17,0.47,0.26c0.15,0.09,0.29,0.21,0.41,0.33c0.12,0.13,0.22,0.28,0.29,0.45
					C14.16,53.61,14.2,53.82,14.2,54.06z"/>
				<path class="st0" d="M19.44,55.46c0.02,0.07,0.04,0.12,0.04,0.17c0,0.04-0.01,0.07-0.03,0.1c-0.02,0.02-0.06,0.04-0.12,0.04
					c-0.05,0.01-0.13,0.01-0.22,0.01c-0.09,0-0.16,0-0.22-0.01c-0.05,0-0.09-0.01-0.12-0.02c-0.03-0.01-0.05-0.03-0.06-0.04
					c-0.01-0.02-0.03-0.04-0.04-0.07l-0.48-1.46h-2.35l-0.46,1.44c-0.01,0.03-0.02,0.05-0.03,0.07c-0.01,0.02-0.04,0.04-0.06,0.05
					c-0.03,0.01-0.07,0.02-0.12,0.03c-0.05,0.01-0.12,0.01-0.2,0.01c-0.08,0-0.15,0-0.21-0.01c-0.05-0.01-0.09-0.02-0.11-0.04
					c-0.02-0.02-0.03-0.05-0.03-0.1s0.01-0.1,0.04-0.16l1.89-5.58c0.01-0.03,0.03-0.06,0.05-0.08c0.02-0.02,0.05-0.04,0.08-0.05
					c0.04-0.01,0.08-0.02,0.14-0.03c0.06,0,0.13-0.01,0.22-0.01c0.09,0,0.17,0,0.23,0.01c0.06,0,0.11,0.01,0.15,0.03
					s0.07,0.03,0.09,0.05c0.02,0.02,0.04,0.05,0.05,0.09L19.44,55.46z M17.01,50.53L17.01,50.53l-0.98,2.99h1.96L17.01,50.53z"/>
				<path class="st0" d="M24.45,55.62c0,0.02-0.01,0.05-0.02,0.06c-0.01,0.02-0.03,0.03-0.06,0.04c-0.03,0.01-0.07,0.02-0.12,0.03
					c-0.05,0.01-0.11,0.01-0.18,0.01c-0.08,0-0.14,0-0.18-0.01c-0.05-0.01-0.08-0.02-0.11-0.03c-0.03-0.01-0.05-0.03-0.06-0.04
					c-0.01-0.02-0.02-0.04-0.02-0.06v-2.66h-2.57v2.66c0,0.02-0.01,0.05-0.02,0.06c-0.01,0.02-0.03,0.03-0.06,0.04
					c-0.03,0.01-0.07,0.02-0.12,0.03c-0.05,0.01-0.11,0.01-0.18,0.01c-0.07,0-0.13,0-0.18-0.01c-0.05-0.01-0.09-0.02-0.12-0.03
					c-0.03-0.01-0.05-0.03-0.06-0.04c-0.01-0.02-0.02-0.04-0.02-0.06v-5.76c0-0.02,0.01-0.05,0.02-0.06
					c0.01-0.02,0.03-0.03,0.06-0.04c0.03-0.01,0.07-0.02,0.12-0.03c0.05-0.01,0.11-0.01,0.18-0.01c0.07,0,0.13,0,0.18,0.01
					c0.05,0.01,0.09,0.02,0.12,0.03c0.03,0.01,0.05,0.03,0.06,0.04c0.01,0.02,0.02,0.04,0.02,0.06v2.4h2.57v-2.4
					c0-0.02,0.01-0.05,0.02-0.06c0.01-0.02,0.03-0.03,0.06-0.04c0.03-0.01,0.07-0.02,0.11-0.03c0.05-0.01,0.11-0.01,0.18-0.01
					c0.07,0,0.13,0,0.18,0.01c0.05,0.01,0.09,0.02,0.12,0.03c0.03,0.01,0.05,0.03,0.06,0.04c0.01,0.02,0.02,0.04,0.02,0.06V55.62z"
					/>
				<path class="st0" d="M30.18,55.46c0.02,0.07,0.04,0.12,0.04,0.17c0,0.04-0.01,0.07-0.03,0.1c-0.02,0.02-0.06,0.04-0.12,0.04
					c-0.05,0.01-0.13,0.01-0.22,0.01c-0.09,0-0.16,0-0.22-0.01c-0.05,0-0.09-0.01-0.12-0.02c-0.03-0.01-0.05-0.03-0.06-0.04
					c-0.01-0.02-0.03-0.04-0.04-0.07l-0.48-1.46h-2.35l-0.46,1.44c-0.01,0.03-0.02,0.05-0.03,0.07c-0.01,0.02-0.04,0.04-0.06,0.05
					c-0.03,0.01-0.07,0.02-0.12,0.03c-0.05,0.01-0.12,0.01-0.2,0.01c-0.08,0-0.15,0-0.21-0.01c-0.05-0.01-0.09-0.02-0.11-0.04
					c-0.02-0.02-0.03-0.05-0.03-0.1c0-0.04,0.01-0.1,0.04-0.16l1.89-5.58c0.01-0.03,0.03-0.06,0.05-0.08
					c0.02-0.02,0.05-0.04,0.08-0.05c0.04-0.01,0.08-0.02,0.14-0.03c0.06,0,0.13-0.01,0.22-0.01c0.09,0,0.17,0,0.23,0.01
					c0.06,0,0.11,0.01,0.15,0.03c0.04,0.01,0.07,0.03,0.09,0.05c0.02,0.02,0.04,0.05,0.05,0.09L30.18,55.46z M27.75,50.53
					L27.75,50.53l-0.98,2.99h1.96L27.75,50.53z"/>
				<path class="st0" d="M34.84,54.02c0,0.19-0.02,0.36-0.07,0.52c-0.04,0.16-0.11,0.3-0.19,0.43c-0.08,0.13-0.18,0.24-0.29,0.33
					c-0.11,0.1-0.24,0.18-0.39,0.24s-0.3,0.11-0.46,0.15c-0.16,0.03-0.35,0.05-0.57,0.05H31.4c-0.07,0-0.13-0.02-0.19-0.07
					c-0.06-0.05-0.09-0.13-0.09-0.25v-5.35c0-0.12,0.03-0.21,0.09-0.25c0.06-0.05,0.12-0.07,0.19-0.07h1.28
					c0.34,0,0.61,0.03,0.83,0.1c0.22,0.07,0.4,0.17,0.54,0.3c0.14,0.13,0.25,0.29,0.32,0.48c0.07,0.19,0.11,0.4,0.11,0.64
					c0,0.14-0.02,0.28-0.05,0.41c-0.03,0.13-0.08,0.25-0.14,0.36c-0.06,0.11-0.14,0.21-0.24,0.29c-0.09,0.09-0.2,0.16-0.32,0.21
					c0.15,0.03,0.3,0.09,0.43,0.17c0.13,0.08,0.25,0.19,0.35,0.31c0.1,0.13,0.18,0.27,0.24,0.44
					C34.81,53.63,34.84,53.82,34.84,54.02z M33.71,51.33c0-0.15-0.02-0.28-0.06-0.39c-0.04-0.12-0.1-0.22-0.18-0.3
					c-0.08-0.08-0.19-0.14-0.32-0.19c-0.13-0.04-0.3-0.06-0.52-0.06h-0.77v1.94h0.85c0.19,0,0.35-0.03,0.47-0.08
					c0.12-0.05,0.22-0.13,0.3-0.22c0.08-0.09,0.14-0.2,0.17-0.32C33.69,51.59,33.71,51.46,33.71,51.33z M34.05,54.07
					c0-0.18-0.03-0.34-0.08-0.47c-0.05-0.14-0.13-0.25-0.24-0.34c-0.1-0.09-0.23-0.16-0.39-0.21c-0.16-0.05-0.35-0.07-0.59-0.07
					h-0.9v2.12h1.09c0.17,0,0.32-0.02,0.45-0.06c0.13-0.04,0.24-0.11,0.34-0.19c0.1-0.08,0.17-0.19,0.23-0.32
					C34.02,54.38,34.05,54.23,34.05,54.07z"/>
				<path class="st0" d="M40.12,55.46c0.02,0.07,0.04,0.12,0.04,0.17c0,0.04-0.01,0.07-0.03,0.1c-0.02,0.02-0.06,0.04-0.12,0.04
					c-0.05,0.01-0.13,0.01-0.22,0.01s-0.16,0-0.22-0.01c-0.05,0-0.09-0.01-0.12-0.02c-0.03-0.01-0.05-0.03-0.06-0.04
					c-0.01-0.02-0.03-0.04-0.04-0.07l-0.48-1.46h-2.35l-0.46,1.44c-0.01,0.03-0.02,0.05-0.03,0.07c-0.01,0.02-0.04,0.04-0.06,0.05
					c-0.03,0.01-0.07,0.02-0.12,0.03c-0.05,0.01-0.12,0.01-0.2,0.01c-0.08,0-0.15,0-0.21-0.01c-0.05-0.01-0.09-0.02-0.11-0.04
					c-0.02-0.02-0.03-0.05-0.03-0.1c0-0.04,0.01-0.1,0.04-0.16l1.89-5.58c0.01-0.03,0.03-0.06,0.05-0.08
					c0.02-0.02,0.05-0.04,0.08-0.05c0.04-0.01,0.08-0.02,0.14-0.03c0.06,0,0.13-0.01,0.22-0.01c0.09,0,0.17,0,0.23,0.01
					c0.06,0,0.11,0.01,0.15,0.03s0.07,0.03,0.09,0.05c0.02,0.02,0.04,0.05,0.05,0.09L40.12,55.46z M37.69,50.53L37.69,50.53
					l-0.98,2.99h1.96L37.69,50.53z"/>
				<path class="st0" d="M46.56,51.5c0,0.3-0.05,0.57-0.14,0.81c-0.09,0.24-0.23,0.45-0.4,0.62c-0.17,0.17-0.39,0.3-0.64,0.39
					c-0.25,0.09-0.55,0.14-0.9,0.14h-0.64v2.16c0,0.02-0.01,0.05-0.02,0.06c-0.01,0.02-0.03,0.03-0.06,0.04
					c-0.03,0.01-0.07,0.02-0.11,0.03c-0.05,0.01-0.11,0.01-0.18,0.01c-0.07,0-0.13,0-0.18-0.01c-0.05-0.01-0.09-0.02-0.12-0.03
					c-0.03-0.01-0.05-0.03-0.06-0.04c-0.01-0.02-0.02-0.04-0.02-0.06v-5.54c0-0.12,0.03-0.21,0.09-0.26
					c0.06-0.05,0.13-0.08,0.21-0.08h1.21c0.12,0,0.24,0.01,0.35,0.02s0.24,0.03,0.4,0.07c0.15,0.04,0.31,0.1,0.47,0.2
					c0.16,0.1,0.29,0.22,0.4,0.36c0.11,0.14,0.2,0.31,0.26,0.49S46.56,51.27,46.56,51.5z M45.77,51.56c0-0.24-0.04-0.45-0.13-0.61
					c-0.09-0.16-0.19-0.29-0.32-0.37c-0.13-0.08-0.26-0.13-0.39-0.15c-0.14-0.02-0.27-0.03-0.39-0.03h-0.69v2.41h0.68
					c0.23,0,0.42-0.03,0.57-0.09c0.15-0.06,0.28-0.15,0.38-0.26c0.1-0.11,0.18-0.24,0.23-0.39C45.74,51.91,45.77,51.74,45.77,51.56z
					"/>
				<path class="st0" d="M51.47,55.62c0,0.02,0,0.05-0.01,0.06c-0.01,0.02-0.03,0.03-0.06,0.05s-0.07,0.02-0.12,0.03
					c-0.05,0.01-0.12,0.01-0.21,0.01c-0.08,0-0.14,0-0.19-0.01c-0.05-0.01-0.09-0.02-0.12-0.03c-0.03-0.01-0.05-0.03-0.07-0.06
					c-0.02-0.02-0.03-0.06-0.04-0.09l-0.52-1.42c-0.06-0.16-0.12-0.31-0.19-0.44c-0.07-0.13-0.14-0.25-0.23-0.35
					c-0.09-0.1-0.2-0.17-0.32-0.23s-0.27-0.08-0.44-0.08h-0.5v2.56c0,0.02-0.01,0.05-0.02,0.06c-0.01,0.02-0.03,0.03-0.06,0.04
					c-0.03,0.01-0.07,0.02-0.11,0.03c-0.05,0.01-0.11,0.01-0.18,0.01c-0.07,0-0.13,0-0.18-0.01c-0.05-0.01-0.09-0.02-0.12-0.03
					c-0.03-0.01-0.05-0.03-0.06-0.04c-0.01-0.02-0.02-0.04-0.02-0.06v-5.56c0-0.12,0.03-0.21,0.09-0.25
					c0.06-0.05,0.12-0.07,0.19-0.07h1.2c0.14,0,0.26,0,0.36,0.01c0.09,0.01,0.18,0.02,0.26,0.03c0.22,0.04,0.41,0.1,0.58,0.19
					c0.17,0.09,0.31,0.2,0.42,0.33c0.11,0.13,0.2,0.29,0.26,0.46c0.06,0.17,0.08,0.36,0.08,0.57c0,0.2-0.03,0.38-0.08,0.54
					c-0.05,0.16-0.12,0.3-0.22,0.42c-0.1,0.12-0.21,0.23-0.34,0.32c-0.13,0.09-0.28,0.17-0.45,0.23c0.09,0.04,0.18,0.1,0.25,0.17
					c0.08,0.07,0.15,0.15,0.21,0.24c0.07,0.09,0.13,0.2,0.19,0.32c0.06,0.12,0.12,0.26,0.17,0.41l0.51,1.32
					c0.04,0.11,0.07,0.19,0.08,0.23C51.46,55.56,51.47,55.6,51.47,55.62z M50.34,51.4c0-0.23-0.05-0.43-0.15-0.6
					c-0.1-0.16-0.26-0.28-0.5-0.35c-0.07-0.02-0.16-0.04-0.25-0.05c-0.09-0.01-0.21-0.01-0.36-0.01h-0.63v2.02h0.73
					c0.2,0,0.37-0.02,0.51-0.08c0.14-0.05,0.26-0.12,0.36-0.21c0.1-0.09,0.17-0.2,0.21-0.32C50.32,51.68,50.34,51.55,50.34,51.4z"/>
				<path class="st0" d="M53.31,55.62c0,0.02-0.01,0.05-0.02,0.06c-0.01,0.02-0.03,0.03-0.06,0.04c-0.03,0.01-0.07,0.02-0.12,0.03
					c-0.05,0.01-0.11,0.01-0.18,0.01c-0.07,0-0.13,0-0.18-0.01c-0.05-0.01-0.09-0.02-0.12-0.03c-0.03-0.01-0.05-0.03-0.06-0.04
					c-0.01-0.02-0.02-0.04-0.02-0.06v-5.76c0-0.02,0.01-0.05,0.02-0.06c0.01-0.02,0.04-0.03,0.07-0.04
					c0.03-0.01,0.07-0.02,0.12-0.03c0.05-0.01,0.11-0.01,0.17-0.01c0.07,0,0.13,0,0.18,0.01c0.05,0.01,0.09,0.02,0.12,0.03
					c0.03,0.01,0.05,0.03,0.06,0.04c0.01,0.02,0.02,0.04,0.02,0.06V55.62z"/>
				<path class="st0" d="M59.08,55.41c0,0.06-0.01,0.11-0.03,0.16c-0.02,0.04-0.05,0.08-0.08,0.11c-0.03,0.03-0.07,0.05-0.11,0.06
					c-0.04,0.01-0.08,0.02-0.12,0.02H58.5c-0.08,0-0.15-0.01-0.21-0.03c-0.06-0.02-0.11-0.05-0.17-0.09
					c-0.05-0.04-0.11-0.11-0.16-0.18c-0.05-0.08-0.11-0.18-0.17-0.3l-1.72-3.41c-0.09-0.18-0.18-0.36-0.27-0.56
					c-0.09-0.19-0.18-0.38-0.26-0.56h-0.01c0.01,0.22,0.01,0.45,0.01,0.68c0,0.23,0,0.46,0,0.69v3.62c0,0.02-0.01,0.04-0.02,0.06
					c-0.01,0.02-0.03,0.04-0.06,0.05c-0.03,0.01-0.07,0.02-0.11,0.03c-0.05,0.01-0.11,0.01-0.18,0.01c-0.07,0-0.13,0-0.18-0.01
					c-0.05-0.01-0.09-0.02-0.11-0.03c-0.03-0.01-0.05-0.03-0.06-0.05c-0.01-0.02-0.02-0.04-0.02-0.06v-5.54
					c0-0.12,0.03-0.21,0.1-0.26c0.07-0.05,0.14-0.08,0.22-0.08h0.37c0.09,0,0.16,0.01,0.22,0.02c0.06,0.02,0.11,0.04,0.16,0.08
					c0.05,0.04,0.09,0.08,0.14,0.15c0.04,0.06,0.09,0.14,0.14,0.24l1.32,2.63c0.08,0.16,0.16,0.32,0.24,0.47
					c0.08,0.15,0.15,0.3,0.22,0.45c0.07,0.15,0.14,0.29,0.21,0.44c0.07,0.14,0.14,0.29,0.2,0.43h0c-0.01-0.24-0.01-0.5-0.01-0.76
					c0-0.26,0-0.52,0-0.76v-3.26c0-0.02,0.01-0.04,0.02-0.06c0.01-0.02,0.03-0.03,0.06-0.05c0.03-0.01,0.07-0.02,0.11-0.03
					c0.05-0.01,0.11-0.01,0.19-0.01c0.07,0,0.13,0,0.18,0.01c0.05,0.01,0.09,0.02,0.11,0.03c0.03,0.01,0.05,0.03,0.06,0.05
					c0.01,0.02,0.02,0.04,0.02,0.06V55.41z"/>
				<path class="st0" d="M64.12,50.08c0,0.06,0,0.11-0.01,0.15c-0.01,0.04-0.02,0.08-0.03,0.1c-0.01,0.03-0.03,0.05-0.05,0.06
					c-0.02,0.01-0.04,0.02-0.06,0.02h-1.59v5.21c0,0.02-0.01,0.05-0.02,0.06c-0.01,0.02-0.03,0.03-0.06,0.04
					c-0.03,0.01-0.07,0.02-0.12,0.03c-0.05,0.01-0.11,0.01-0.18,0.01c-0.07,0-0.13,0-0.18-0.01c-0.05-0.01-0.09-0.02-0.12-0.03
					c-0.03-0.01-0.05-0.03-0.06-0.04c-0.01-0.02-0.02-0.04-0.02-0.06v-5.21h-1.59c-0.02,0-0.04-0.01-0.06-0.02
					c-0.02-0.01-0.03-0.03-0.05-0.06c-0.01-0.03-0.02-0.06-0.03-0.1c-0.01-0.04-0.01-0.09-0.01-0.15c0-0.06,0-0.11,0.01-0.16
					c0.01-0.04,0.02-0.08,0.03-0.11c0.01-0.03,0.03-0.05,0.05-0.06c0.02-0.01,0.04-0.02,0.06-0.02h3.93c0.02,0,0.04,0.01,0.06,0.02
					c0.02,0.01,0.03,0.03,0.05,0.06c0.01,0.03,0.02,0.06,0.03,0.11C64.11,49.97,64.12,50.02,64.12,50.08z"/>
				<path class="st0" d="M65.68,55.62c0,0.02-0.01,0.05-0.02,0.06c-0.01,0.02-0.03,0.03-0.06,0.04c-0.03,0.01-0.07,0.02-0.12,0.03
					c-0.05,0.01-0.11,0.01-0.18,0.01c-0.07,0-0.13,0-0.18-0.01c-0.05-0.01-0.09-0.02-0.12-0.03c-0.03-0.01-0.05-0.03-0.06-0.04
					c-0.01-0.02-0.02-0.04-0.02-0.06v-5.76c0-0.02,0.01-0.05,0.02-0.06c0.01-0.02,0.04-0.03,0.07-0.04
					c0.03-0.01,0.07-0.02,0.12-0.03c0.05-0.01,0.11-0.01,0.17-0.01c0.07,0,0.13,0,0.18,0.01c0.05,0.01,0.09,0.02,0.12,0.03
					c0.03,0.01,0.05,0.03,0.06,0.04c0.01,0.02,0.02,0.04,0.02,0.06V55.62z"/>
				<path class="st0" d="M71.45,55.41c0,0.06-0.01,0.11-0.03,0.16c-0.02,0.04-0.05,0.08-0.08,0.11c-0.03,0.03-0.07,0.05-0.11,0.06
					s-0.08,0.02-0.12,0.02h-0.25c-0.08,0-0.15-0.01-0.21-0.03c-0.06-0.02-0.11-0.05-0.17-0.09c-0.05-0.04-0.11-0.11-0.16-0.18
					c-0.05-0.08-0.11-0.18-0.17-0.3l-1.72-3.41c-0.09-0.18-0.18-0.36-0.27-0.56c-0.09-0.19-0.18-0.38-0.26-0.56h-0.01
					c0.01,0.22,0.01,0.45,0.01,0.68c0,0.23,0,0.46,0,0.69v3.62c0,0.02-0.01,0.04-0.02,0.06c-0.01,0.02-0.03,0.04-0.06,0.05
					c-0.03,0.01-0.07,0.02-0.11,0.03c-0.05,0.01-0.11,0.01-0.18,0.01c-0.07,0-0.13,0-0.18-0.01c-0.05-0.01-0.09-0.02-0.11-0.03
					c-0.03-0.01-0.05-0.03-0.06-0.05c-0.01-0.02-0.02-0.04-0.02-0.06v-5.54c0-0.12,0.03-0.21,0.1-0.26
					c0.07-0.05,0.14-0.08,0.22-0.08h0.37c0.09,0,0.16,0.01,0.22,0.02c0.06,0.02,0.11,0.04,0.16,0.08c0.05,0.04,0.09,0.08,0.14,0.15
					c0.04,0.06,0.09,0.14,0.14,0.24l1.32,2.63c0.08,0.16,0.16,0.32,0.24,0.47c0.08,0.15,0.15,0.3,0.22,0.45
					c0.07,0.15,0.14,0.29,0.21,0.44c0.07,0.14,0.14,0.29,0.2,0.43h0c-0.01-0.24-0.01-0.5-0.01-0.76c0-0.26,0-0.52,0-0.76v-3.26
					c0-0.02,0.01-0.04,0.02-0.06c0.01-0.02,0.03-0.03,0.06-0.05c0.03-0.01,0.07-0.02,0.11-0.03c0.05-0.01,0.11-0.01,0.19-0.01
					c0.07,0,0.13,0,0.18,0.01s0.09,0.02,0.11,0.03c0.03,0.01,0.05,0.03,0.06,0.05c0.01,0.02,0.02,0.04,0.02,0.06V55.41z"/>
				<path class="st0" d="M77.2,50.55c0,0.06,0,0.11-0.01,0.16c-0.01,0.04-0.01,0.08-0.03,0.11c-0.01,0.03-0.03,0.05-0.04,0.06
					c-0.02,0.01-0.04,0.02-0.06,0.02c-0.03,0-0.09-0.03-0.17-0.09s-0.19-0.12-0.33-0.2s-0.3-0.14-0.49-0.19
					c-0.19-0.06-0.42-0.09-0.68-0.09c-0.31,0-0.59,0.06-0.84,0.18c-0.25,0.12-0.46,0.29-0.63,0.5c-0.17,0.21-0.3,0.47-0.4,0.76
					c-0.09,0.29-0.14,0.61-0.14,0.96c0,0.38,0.05,0.72,0.15,1.02c0.1,0.3,0.24,0.55,0.42,0.75c0.18,0.2,0.39,0.36,0.64,0.46
					c0.25,0.1,0.52,0.16,0.81,0.16c0.17,0,0.35-0.02,0.53-0.07c0.18-0.04,0.35-0.11,0.5-0.2v-1.75h-1.31
					c-0.05,0-0.09-0.03-0.11-0.08c-0.02-0.05-0.04-0.13-0.04-0.25c0-0.06,0-0.11,0.01-0.15c0.01-0.04,0.02-0.08,0.03-0.1
					c0.01-0.03,0.03-0.04,0.05-0.06c0.02-0.01,0.04-0.02,0.07-0.02h1.79c0.03,0,0.06,0.01,0.1,0.02c0.03,0.01,0.06,0.03,0.09,0.06
					s0.05,0.06,0.06,0.1c0.01,0.04,0.02,0.09,0.02,0.15v2.29c0,0.08-0.01,0.15-0.04,0.21c-0.03,0.06-0.08,0.11-0.17,0.16
					c-0.08,0.04-0.19,0.09-0.33,0.15c-0.13,0.05-0.27,0.1-0.41,0.13c-0.14,0.04-0.29,0.06-0.43,0.08c-0.15,0.02-0.29,0.03-0.43,0.03
					c-0.44,0-0.83-0.07-1.17-0.22c-0.34-0.14-0.63-0.35-0.87-0.61c-0.24-0.27-0.42-0.58-0.54-0.96c-0.13-0.37-0.19-0.79-0.19-1.24
					c0-0.48,0.07-0.91,0.2-1.29c0.14-0.39,0.33-0.72,0.57-0.99c0.25-0.27,0.54-0.48,0.89-0.63c0.34-0.15,0.73-0.23,1.15-0.23
					c0.22,0,0.42,0.02,0.61,0.06c0.19,0.04,0.36,0.09,0.5,0.14c0.15,0.05,0.27,0.11,0.37,0.18c0.1,0.06,0.17,0.12,0.21,0.16
					c0.04,0.04,0.06,0.09,0.08,0.14C77.19,50.38,77.2,50.45,77.2,50.55z"/>
				<path class="st0" d="M84.08,51.5c0,0.3-0.05,0.57-0.14,0.81c-0.09,0.24-0.23,0.45-0.4,0.62c-0.17,0.17-0.39,0.3-0.64,0.39
					c-0.25,0.09-0.55,0.14-0.9,0.14h-0.64v2.16c0,0.02-0.01,0.05-0.02,0.06c-0.01,0.02-0.03,0.03-0.06,0.04
					c-0.03,0.01-0.07,0.02-0.11,0.03c-0.05,0.01-0.11,0.01-0.18,0.01c-0.07,0-0.13,0-0.18-0.01c-0.05-0.01-0.09-0.02-0.12-0.03
					c-0.03-0.01-0.05-0.03-0.06-0.04c-0.01-0.02-0.02-0.04-0.02-0.06v-5.54c0-0.12,0.03-0.21,0.09-0.26
					c0.06-0.05,0.13-0.08,0.21-0.08h1.21c0.12,0,0.24,0.01,0.35,0.02s0.24,0.03,0.4,0.07c0.15,0.04,0.31,0.1,0.47,0.2
					c0.16,0.1,0.29,0.22,0.4,0.36c0.11,0.14,0.2,0.31,0.26,0.49C84.05,51.06,84.08,51.27,84.08,51.5z M83.29,51.56
					c0-0.24-0.04-0.45-0.13-0.61c-0.09-0.16-0.19-0.29-0.32-0.37c-0.13-0.08-0.26-0.13-0.39-0.15c-0.14-0.02-0.27-0.03-0.39-0.03
					h-0.69v2.41h0.68c0.23,0,0.42-0.03,0.57-0.09c0.15-0.06,0.28-0.15,0.38-0.26c0.1-0.11,0.18-0.24,0.23-0.39
					C83.27,51.91,83.29,51.74,83.29,51.56z"/>
				<path class="st0" d="M89,55.62c0,0.02,0,0.05-0.01,0.06c-0.01,0.02-0.03,0.03-0.06,0.05s-0.07,0.02-0.12,0.03
					c-0.05,0.01-0.12,0.01-0.21,0.01c-0.08,0-0.14,0-0.19-0.01c-0.05-0.01-0.09-0.02-0.12-0.03c-0.03-0.01-0.05-0.03-0.07-0.06
					c-0.02-0.02-0.03-0.06-0.04-0.09l-0.52-1.42c-0.06-0.16-0.12-0.31-0.19-0.44c-0.07-0.13-0.14-0.25-0.23-0.35
					c-0.09-0.1-0.2-0.17-0.32-0.23c-0.12-0.05-0.27-0.08-0.44-0.08h-0.5v2.56c0,0.02-0.01,0.05-0.02,0.06
					c-0.01,0.02-0.03,0.03-0.06,0.04c-0.03,0.01-0.07,0.02-0.11,0.03c-0.05,0.01-0.11,0.01-0.18,0.01c-0.07,0-0.13,0-0.18-0.01
					c-0.05-0.01-0.09-0.02-0.12-0.03c-0.03-0.01-0.05-0.03-0.06-0.04c-0.01-0.02-0.02-0.04-0.02-0.06v-5.56
					c0-0.12,0.03-0.21,0.09-0.25c0.06-0.05,0.12-0.07,0.19-0.07h1.2c0.14,0,0.26,0,0.36,0.01c0.09,0.01,0.18,0.02,0.26,0.03
					c0.22,0.04,0.41,0.1,0.58,0.19c0.17,0.09,0.31,0.2,0.42,0.33c0.11,0.13,0.2,0.29,0.26,0.46c0.06,0.17,0.08,0.36,0.08,0.57
					c0,0.2-0.03,0.38-0.08,0.54c-0.05,0.16-0.12,0.3-0.22,0.42c-0.1,0.12-0.21,0.23-0.34,0.32c-0.13,0.09-0.28,0.17-0.45,0.23
					c0.09,0.04,0.18,0.1,0.25,0.17c0.08,0.07,0.15,0.15,0.21,0.24c0.07,0.09,0.13,0.2,0.19,0.32c0.06,0.12,0.12,0.26,0.17,0.41
					l0.51,1.32c0.04,0.11,0.07,0.19,0.08,0.23C88.99,55.56,89,55.6,89,55.62z M87.87,51.4c0-0.23-0.05-0.43-0.15-0.6
					c-0.1-0.16-0.26-0.28-0.5-0.35c-0.07-0.02-0.16-0.04-0.25-0.05c-0.09-0.01-0.21-0.01-0.36-0.01h-0.63v2.02h0.73
					c0.2,0,0.37-0.02,0.51-0.08c0.14-0.05,0.26-0.12,0.36-0.21c0.1-0.09,0.17-0.2,0.21-0.32C87.84,51.68,87.87,51.55,87.87,51.4z"/>
				<path class="st0" d="M93.23,55.41c0,0.06,0,0.1-0.01,0.15c-0.01,0.04-0.02,0.08-0.03,0.1c-0.01,0.03-0.03,0.05-0.05,0.06
					c-0.02,0.01-0.04,0.02-0.06,0.02h-2.71c-0.07,0-0.13-0.02-0.19-0.07c-0.06-0.05-0.09-0.13-0.09-0.25v-5.35
					c0-0.12,0.03-0.21,0.09-0.25c0.06-0.05,0.12-0.07,0.19-0.07h2.68c0.02,0,0.04,0.01,0.06,0.02c0.02,0.01,0.03,0.03,0.05,0.06
					c0.01,0.03,0.02,0.06,0.03,0.1c0.01,0.04,0.01,0.09,0.01,0.16c0,0.06,0,0.1-0.01,0.15c-0.01,0.04-0.02,0.08-0.03,0.1
					c-0.01,0.03-0.03,0.05-0.05,0.06c-0.02,0.01-0.04,0.02-0.06,0.02h-2.21v1.88h1.89c0.02,0,0.04,0.01,0.06,0.02
					c0.02,0.01,0.03,0.03,0.05,0.06c0.01,0.02,0.02,0.06,0.03,0.1c0.01,0.04,0.01,0.09,0.01,0.15c0,0.06,0,0.1-0.01,0.14
					c-0.01,0.04-0.02,0.07-0.03,0.1c-0.01,0.02-0.03,0.04-0.05,0.05c-0.02,0.01-0.04,0.02-0.06,0.02h-1.89v2.15h2.24
					c0.02,0,0.04,0.01,0.06,0.02c0.02,0.01,0.04,0.03,0.05,0.06c0.01,0.03,0.02,0.06,0.03,0.1C93.22,55.3,93.23,55.35,93.23,55.41z"
					/>
				<path class="st0" d="M97.39,54.06c0,0.28-0.05,0.53-0.15,0.75c-0.1,0.22-0.23,0.41-0.41,0.56c-0.17,0.15-0.38,0.27-0.61,0.35
					c-0.23,0.08-0.49,0.12-0.76,0.12c-0.19,0-0.36-0.02-0.53-0.05c-0.16-0.03-0.31-0.08-0.43-0.13c-0.13-0.05-0.23-0.1-0.32-0.15
					s-0.15-0.1-0.18-0.13c-0.03-0.04-0.06-0.08-0.07-0.14c-0.02-0.06-0.02-0.13-0.02-0.23c0-0.07,0-0.12,0.01-0.17
					c0.01-0.04,0.01-0.08,0.03-0.11c0.01-0.03,0.03-0.05,0.04-0.06s0.04-0.02,0.06-0.02c0.04,0,0.1,0.03,0.17,0.08
					c0.07,0.05,0.17,0.11,0.29,0.17c0.12,0.06,0.26,0.12,0.42,0.17c0.16,0.05,0.35,0.08,0.57,0.08c0.16,0,0.31-0.02,0.45-0.07
					c0.14-0.05,0.25-0.11,0.35-0.2c0.1-0.08,0.17-0.19,0.22-0.31c0.05-0.12,0.08-0.26,0.08-0.42c0-0.17-0.04-0.32-0.11-0.44
					c-0.07-0.12-0.17-0.23-0.29-0.32c-0.12-0.09-0.26-0.17-0.41-0.25c-0.15-0.08-0.31-0.15-0.47-0.23
					c-0.16-0.08-0.32-0.17-0.47-0.26c-0.15-0.1-0.29-0.21-0.41-0.34c-0.12-0.13-0.22-0.28-0.29-0.46c-0.07-0.18-0.11-0.38-0.11-0.63
					c0-0.25,0.04-0.47,0.13-0.67c0.09-0.2,0.21-0.36,0.36-0.49c0.15-0.13,0.33-0.23,0.55-0.3c0.21-0.07,0.44-0.1,0.68-0.1
					c0.13,0,0.25,0.01,0.38,0.03c0.13,0.02,0.25,0.05,0.36,0.09c0.11,0.04,0.21,0.08,0.3,0.13c0.09,0.05,0.15,0.09,0.17,0.12
					c0.03,0.03,0.05,0.05,0.05,0.07c0.01,0.02,0.02,0.04,0.02,0.06c0.01,0.03,0.01,0.06,0.01,0.09c0,0.04,0,0.09,0,0.14
					c0,0.06,0,0.1-0.01,0.15c0,0.04-0.01,0.08-0.02,0.11c-0.01,0.03-0.02,0.05-0.04,0.06c-0.02,0.01-0.03,0.02-0.05,0.02
					c-0.03,0-0.08-0.02-0.15-0.06c-0.07-0.04-0.15-0.09-0.25-0.15c-0.1-0.05-0.22-0.1-0.35-0.15c-0.14-0.04-0.29-0.07-0.46-0.07
					c-0.16,0-0.29,0.02-0.41,0.07c-0.12,0.04-0.21,0.1-0.29,0.18c-0.08,0.07-0.13,0.16-0.17,0.26c-0.04,0.1-0.06,0.21-0.06,0.33
					c0,0.17,0.04,0.31,0.11,0.43c0.07,0.12,0.17,0.23,0.29,0.32s0.26,0.18,0.41,0.25c0.15,0.08,0.31,0.16,0.47,0.23
					c0.16,0.08,0.32,0.17,0.47,0.26c0.15,0.09,0.29,0.21,0.41,0.33c0.12,0.13,0.22,0.28,0.29,0.45
					C97.36,53.61,97.39,53.82,97.39,54.06z"/>
				<path class="st0" d="M101.5,54.06c0,0.28-0.05,0.53-0.15,0.75c-0.1,0.22-0.23,0.41-0.41,0.56c-0.17,0.15-0.38,0.27-0.61,0.35
					c-0.23,0.08-0.49,0.12-0.76,0.12c-0.19,0-0.36-0.02-0.53-0.05c-0.16-0.03-0.31-0.08-0.43-0.13c-0.13-0.05-0.23-0.1-0.32-0.15
					c-0.09-0.05-0.15-0.1-0.18-0.13s-0.06-0.08-0.07-0.14c-0.02-0.06-0.02-0.13-0.02-0.23c0-0.07,0-0.12,0.01-0.17
					c0.01-0.04,0.01-0.08,0.03-0.11c0.01-0.03,0.03-0.05,0.04-0.06s0.04-0.02,0.06-0.02c0.04,0,0.1,0.03,0.17,0.08
					c0.07,0.05,0.17,0.11,0.29,0.17c0.12,0.06,0.26,0.12,0.42,0.17c0.16,0.05,0.35,0.08,0.57,0.08c0.16,0,0.31-0.02,0.45-0.07
					c0.14-0.05,0.25-0.11,0.35-0.2c0.1-0.08,0.17-0.19,0.22-0.31c0.05-0.12,0.08-0.26,0.08-0.42c0-0.17-0.04-0.32-0.11-0.44
					c-0.07-0.12-0.17-0.23-0.29-0.32c-0.12-0.09-0.26-0.17-0.41-0.25c-0.15-0.08-0.31-0.15-0.47-0.23
					c-0.16-0.08-0.32-0.17-0.47-0.26c-0.15-0.1-0.29-0.21-0.41-0.34c-0.12-0.13-0.22-0.28-0.29-0.46c-0.07-0.18-0.11-0.38-0.11-0.63
					c0-0.25,0.04-0.47,0.13-0.67c0.09-0.2,0.21-0.36,0.36-0.49c0.15-0.13,0.33-0.23,0.55-0.3c0.21-0.07,0.44-0.1,0.68-0.1
					c0.13,0,0.25,0.01,0.38,0.03c0.13,0.02,0.25,0.05,0.36,0.09c0.11,0.04,0.21,0.08,0.3,0.13c0.09,0.05,0.15,0.09,0.17,0.12
					c0.03,0.03,0.05,0.05,0.05,0.07c0.01,0.02,0.02,0.04,0.02,0.06c0.01,0.03,0.01,0.06,0.01,0.09c0,0.04,0,0.09,0,0.14
					c0,0.06,0,0.1-0.01,0.15c0,0.04-0.01,0.08-0.02,0.11c-0.01,0.03-0.02,0.05-0.04,0.06c-0.02,0.01-0.03,0.02-0.05,0.02
					c-0.03,0-0.08-0.02-0.15-0.06c-0.07-0.04-0.15-0.09-0.25-0.15c-0.1-0.05-0.22-0.1-0.35-0.15c-0.14-0.04-0.29-0.07-0.46-0.07
					c-0.16,0-0.29,0.02-0.41,0.07c-0.12,0.04-0.21,0.1-0.29,0.18c-0.08,0.07-0.13,0.16-0.17,0.26c-0.04,0.1-0.06,0.21-0.06,0.33
					c0,0.17,0.04,0.31,0.11,0.43c0.07,0.12,0.17,0.23,0.29,0.32s0.26,0.18,0.41,0.25c0.15,0.08,0.31,0.16,0.47,0.23
					c0.16,0.08,0.32,0.17,0.47,0.26c0.15,0.09,0.29,0.21,0.41,0.33c0.12,0.13,0.22,0.28,0.29,0.45
					C101.46,53.61,101.5,53.82,101.5,54.06z"/>
			</g>
		</g>
	</g>
	<g>
		<g>
			<g>
				<g>
					<path class="st0" d="M8.33,72.57c0,0.06,0,0.11-0.01,0.15c-0.01,0.04-0.02,0.08-0.04,0.11c-0.02,0.03-0.04,0.05-0.07,0.07
						c-0.03,0.02-0.06,0.02-0.09,0.02h-2.6v7.84c0,0.03-0.01,0.05-0.02,0.07c-0.01,0.02-0.04,0.04-0.07,0.05
						c-0.03,0.01-0.07,0.02-0.13,0.03c-0.05,0.01-0.12,0.01-0.2,0.01c-0.08,0-0.14,0-0.2-0.01c-0.05-0.01-0.1-0.02-0.13-0.03
						c-0.03-0.01-0.05-0.03-0.07-0.05c-0.01-0.02-0.02-0.05-0.02-0.07v-7.84h-2.6c-0.04,0-0.07-0.01-0.09-0.02
						c-0.02-0.02-0.05-0.04-0.06-0.07c-0.02-0.03-0.03-0.07-0.04-0.11c-0.01-0.04-0.01-0.1-0.01-0.15c0-0.06,0-0.12,0.01-0.17
						c0.01-0.05,0.02-0.09,0.04-0.12c0.02-0.03,0.04-0.06,0.06-0.07c0.02-0.02,0.05-0.02,0.09-0.02h6.01c0.03,0,0.06,0.01,0.09,0.02
						c0.03,0.02,0.05,0.04,0.07,0.07c0.02,0.03,0.03,0.07,0.04,0.12C8.32,72.45,8.33,72.51,8.33,72.57z"/>
					<path class="st0" d="M14.92,80.54c0,0.06,0,0.11-0.01,0.15c-0.01,0.05-0.02,0.08-0.04,0.11c-0.02,0.03-0.04,0.06-0.07,0.07
						c-0.03,0.02-0.06,0.02-0.09,0.02h-4.08c-0.08,0-0.16-0.03-0.25-0.09c-0.08-0.06-0.13-0.17-0.13-0.33v-7.86
						c0-0.16,0.04-0.27,0.13-0.33c0.09-0.06,0.17-0.09,0.25-0.09h4.02c0.03,0,0.06,0.01,0.09,0.02c0.03,0.02,0.05,0.04,0.07,0.07
						c0.02,0.03,0.03,0.07,0.04,0.12c0.01,0.05,0.01,0.1,0.01,0.17c0,0.06,0,0.11-0.01,0.15c-0.01,0.04-0.02,0.08-0.04,0.11
						c-0.02,0.03-0.04,0.05-0.07,0.07c-0.03,0.02-0.06,0.02-0.09,0.02h-3.57v3.06h3.08c0.04,0,0.07,0.01,0.09,0.02
						c0.03,0.02,0.05,0.04,0.07,0.07c0.02,0.03,0.03,0.07,0.04,0.11c0.01,0.05,0.01,0.1,0.01,0.17c0,0.06,0,0.11-0.01,0.15
						c-0.01,0.04-0.02,0.08-0.04,0.1c-0.02,0.03-0.04,0.05-0.07,0.06c-0.03,0.01-0.06,0.02-0.09,0.02h-3.08v3.47h3.63
						c0.03,0,0.06,0.01,0.09,0.02c0.03,0.02,0.05,0.04,0.07,0.07c0.02,0.03,0.03,0.07,0.04,0.11
						C14.92,80.42,14.92,80.47,14.92,80.54z"/>
					<path class="st0" d="M21.89,80.52c0,0.06,0,0.12-0.01,0.16c-0.01,0.04-0.02,0.08-0.04,0.12c-0.02,0.03-0.04,0.06-0.07,0.07
						c-0.03,0.02-0.06,0.02-0.09,0.02H17.9c-0.08,0-0.16-0.03-0.25-0.09c-0.08-0.06-0.13-0.17-0.13-0.33v-8.15
						c0-0.03,0.01-0.05,0.02-0.07c0.01-0.02,0.04-0.04,0.07-0.05c0.03-0.01,0.07-0.02,0.13-0.03c0.05-0.01,0.12-0.01,0.19-0.01
						c0.08,0,0.15,0,0.2,0.01c0.05,0.01,0.09,0.02,0.12,0.03c0.03,0.01,0.05,0.03,0.07,0.05c0.01,0.02,0.02,0.05,0.02,0.07v7.82
						h3.33c0.04,0,0.07,0.01,0.09,0.02c0.03,0.02,0.05,0.04,0.07,0.07c0.02,0.03,0.03,0.07,0.04,0.11
						C21.89,80.41,21.89,80.46,21.89,80.52z"/>
					<path class="st0" d="M27.92,74.35c0,0.12-0.01,0.22-0.02,0.31c-0.02,0.08-0.05,0.15-0.09,0.2c-0.04,0.05-0.1,0.08-0.18,0.1
						c-0.07,0.02-0.17,0.03-0.29,0.03c-0.12,0-0.21-0.01-0.28-0.03c-0.07-0.02-0.13-0.06-0.18-0.1c-0.04-0.05-0.07-0.12-0.09-0.2
						c-0.02-0.08-0.02-0.18-0.02-0.31c0-0.13,0.01-0.24,0.02-0.32c0.02-0.08,0.05-0.15,0.09-0.2s0.1-0.08,0.18-0.1
						c0.07-0.02,0.17-0.03,0.28-0.03c0.12,0,0.21,0.01,0.29,0.03s0.13,0.05,0.18,0.1s0.07,0.12,0.09,0.2
						C27.91,74.11,27.92,74.22,27.92,74.35z M27.92,79.17c0,0.13-0.01,0.23-0.02,0.31c-0.02,0.08-0.05,0.15-0.09,0.2
						c-0.04,0.05-0.1,0.08-0.18,0.1c-0.07,0.02-0.17,0.03-0.29,0.03c-0.12,0-0.21-0.01-0.28-0.03c-0.07-0.02-0.13-0.06-0.18-0.1
						c-0.04-0.05-0.07-0.12-0.09-0.2c-0.02-0.08-0.02-0.19-0.02-0.31c0-0.13,0.01-0.23,0.02-0.32c0.02-0.08,0.05-0.15,0.09-0.2
						c0.04-0.05,0.1-0.08,0.18-0.1c0.07-0.02,0.17-0.03,0.28-0.03c0.12,0,0.21,0.01,0.29,0.03s0.13,0.05,0.18,0.1
						c0.04,0.05,0.07,0.11,0.09,0.2C27.91,78.94,27.92,79.05,27.92,79.17z"/>
					<path class="st0" d="M38.59,76.53c0,0.66-0.05,1.26-0.16,1.8c-0.1,0.55-0.27,1.02-0.51,1.42c-0.24,0.4-0.55,0.71-0.94,0.93
						c-0.39,0.22-0.87,0.33-1.44,0.33c-0.52,0-0.97-0.1-1.34-0.29c-0.37-0.19-0.66-0.47-0.89-0.85c-0.23-0.38-0.39-0.84-0.49-1.4
						s-0.15-1.19-0.15-1.92c0-0.65,0.05-1.25,0.15-1.8c0.1-0.55,0.27-1.02,0.51-1.42c0.24-0.4,0.55-0.71,0.94-0.93
						s0.87-0.33,1.44-0.33c0.52,0,0.97,0.1,1.34,0.29c0.37,0.19,0.66,0.47,0.89,0.85c0.23,0.38,0.39,0.84,0.49,1.4
						C38.54,75.17,38.59,75.81,38.59,76.53z M37.73,76.61c0-0.44-0.02-0.85-0.05-1.21c-0.03-0.36-0.09-0.68-0.16-0.97
						c-0.07-0.28-0.16-0.53-0.27-0.74c-0.11-0.21-0.24-0.38-0.4-0.52c-0.15-0.14-0.33-0.24-0.53-0.3c-0.2-0.06-0.42-0.1-0.67-0.1
						c-0.44,0-0.8,0.1-1.08,0.31c-0.28,0.21-0.49,0.49-0.65,0.83c-0.15,0.35-0.26,0.74-0.31,1.18c-0.05,0.44-0.08,0.9-0.08,1.38
						c0,0.66,0.04,1.24,0.11,1.72c0.08,0.48,0.2,0.88,0.36,1.19c0.17,0.31,0.38,0.54,0.64,0.69c0.26,0.15,0.58,0.23,0.95,0.23
						c0.3,0,0.55-0.05,0.77-0.14c0.22-0.09,0.41-0.23,0.57-0.4c0.16-0.17,0.29-0.37,0.39-0.61c0.1-0.23,0.18-0.49,0.24-0.76
						c0.06-0.27,0.1-0.56,0.12-0.87C37.72,77.24,37.73,76.93,37.73,76.61z"/>
					<path class="st0" d="M45.14,78.44c0,0.38-0.06,0.72-0.18,1.04c-0.12,0.31-0.31,0.58-0.55,0.81c-0.24,0.23-0.54,0.41-0.91,0.53
						c-0.36,0.13-0.78,0.19-1.26,0.19c-0.29,0-0.56-0.02-0.81-0.07c-0.25-0.05-0.47-0.11-0.67-0.17c-0.2-0.07-0.36-0.14-0.49-0.21
						c-0.13-0.07-0.21-0.12-0.24-0.15c-0.03-0.03-0.05-0.05-0.07-0.08c-0.02-0.03-0.03-0.06-0.04-0.09
						c-0.01-0.03-0.02-0.08-0.03-0.13c-0.01-0.05-0.01-0.11-0.01-0.19c0-0.13,0.01-0.23,0.04-0.28c0.03-0.05,0.07-0.07,0.12-0.07
						c0.04,0,0.12,0.04,0.25,0.11c0.12,0.08,0.28,0.16,0.48,0.25s0.42,0.17,0.68,0.25c0.26,0.08,0.54,0.11,0.86,0.11
						c0.32,0,0.61-0.04,0.85-0.13c0.24-0.08,0.45-0.21,0.61-0.36c0.17-0.15,0.29-0.34,0.37-0.55c0.08-0.21,0.12-0.45,0.12-0.7
						c0-0.27-0.05-0.51-0.16-0.73c-0.11-0.22-0.26-0.4-0.46-0.56c-0.2-0.16-0.45-0.28-0.74-0.36c-0.29-0.08-0.62-0.13-0.98-0.13
						h-0.86c-0.03,0-0.05-0.01-0.08-0.02s-0.06-0.03-0.08-0.06c-0.02-0.03-0.04-0.07-0.06-0.11c-0.02-0.04-0.02-0.1-0.02-0.17
						c0-0.06,0.01-0.11,0.02-0.15c0.01-0.04,0.03-0.08,0.05-0.11c0.02-0.03,0.05-0.05,0.08-0.06c0.03-0.01,0.06-0.02,0.1-0.02h0.76
						c0.31,0,0.6-0.04,0.85-0.13c0.25-0.08,0.47-0.21,0.65-0.37c0.18-0.16,0.32-0.35,0.41-0.57c0.1-0.22,0.14-0.47,0.14-0.74
						c0-0.2-0.03-0.39-0.1-0.57c-0.06-0.18-0.16-0.34-0.29-0.47c-0.13-0.13-0.29-0.24-0.48-0.32c-0.2-0.08-0.42-0.11-0.68-0.11
						c-0.27,0-0.52,0.04-0.75,0.12c-0.22,0.08-0.42,0.17-0.6,0.27c-0.17,0.1-0.31,0.18-0.42,0.27c-0.11,0.08-0.19,0.12-0.23,0.12
						c-0.03,0-0.05,0-0.07-0.01c-0.02-0.01-0.04-0.03-0.06-0.05c-0.02-0.03-0.03-0.06-0.03-0.11s-0.01-0.11-0.01-0.19
						c0-0.05,0-0.09,0.01-0.13c0-0.04,0.01-0.07,0.03-0.1c0.01-0.03,0.03-0.06,0.05-0.09c0.02-0.03,0.05-0.06,0.09-0.1
						c0.04-0.04,0.12-0.1,0.25-0.18c0.13-0.08,0.28-0.16,0.46-0.24c0.18-0.08,0.39-0.14,0.62-0.19c0.23-0.05,0.48-0.08,0.75-0.08
						c0.4,0,0.75,0.05,1.04,0.16c0.29,0.11,0.54,0.26,0.73,0.44c0.19,0.19,0.34,0.41,0.43,0.67c0.09,0.26,0.14,0.54,0.14,0.84
						c0,0.28-0.04,0.54-0.11,0.78c-0.07,0.24-0.18,0.45-0.33,0.64c-0.14,0.19-0.32,0.34-0.53,0.47c-0.21,0.13-0.45,0.21-0.72,0.26
						v0.01c0.3,0.03,0.58,0.1,0.83,0.22c0.25,0.12,0.47,0.27,0.66,0.45c0.19,0.18,0.33,0.4,0.44,0.64
						C45.08,77.9,45.14,78.16,45.14,78.44z"/>
					<path class="st0" d="M55.52,72.56c0,0.05,0,0.1-0.01,0.15c0,0.05-0.01,0.09-0.02,0.14c-0.01,0.05-0.02,0.09-0.04,0.14
						c-0.02,0.05-0.03,0.1-0.06,0.15l-3.28,7.54c-0.02,0.05-0.05,0.1-0.07,0.13c-0.03,0.03-0.06,0.06-0.1,0.08
						c-0.04,0.02-0.09,0.03-0.15,0.04c-0.06,0.01-0.13,0.01-0.22,0.01c-0.1,0-0.18-0.01-0.24-0.02c-0.06-0.01-0.1-0.03-0.12-0.06
						c-0.02-0.03-0.03-0.06-0.02-0.09c0.01-0.04,0.02-0.08,0.04-0.13l3.42-7.71H50.2c-0.08,0-0.14-0.04-0.19-0.11
						c-0.04-0.07-0.06-0.16-0.06-0.26c0-0.06,0.01-0.11,0.02-0.16c0.01-0.04,0.03-0.08,0.05-0.11c0.02-0.03,0.05-0.06,0.08-0.07
						c0.03-0.02,0.06-0.02,0.1-0.02h5.01c0.06,0,0.11,0.01,0.15,0.02s0.07,0.04,0.09,0.07c0.02,0.03,0.04,0.07,0.05,0.11
						C55.51,72.44,55.52,72.5,55.52,72.56z"/>
					<path class="st0" d="M62.3,80.52c0,0.05-0.01,0.1-0.02,0.15c-0.01,0.05-0.03,0.09-0.05,0.12c-0.02,0.03-0.05,0.06-0.08,0.08
						c-0.03,0.02-0.07,0.03-0.11,0.03h-4.7c-0.04,0-0.08-0.01-0.11-0.02s-0.07-0.03-0.09-0.06c-0.03-0.03-0.05-0.07-0.06-0.12
						c-0.01-0.05-0.02-0.11-0.02-0.18c0-0.06,0-0.11,0.01-0.15c0-0.04,0.01-0.08,0.03-0.12c0.01-0.04,0.03-0.07,0.05-0.11
						c0.02-0.04,0.05-0.07,0.09-0.11l1.78-1.88c0.44-0.47,0.8-0.88,1.06-1.25c0.26-0.37,0.46-0.7,0.6-1
						c0.14-0.3,0.23-0.56,0.27-0.81c0.04-0.24,0.06-0.47,0.06-0.69c0-0.22-0.03-0.42-0.1-0.62c-0.07-0.19-0.17-0.37-0.31-0.51
						c-0.13-0.15-0.3-0.26-0.5-0.35c-0.2-0.09-0.43-0.13-0.69-0.13c-0.28,0-0.54,0.04-0.76,0.12c-0.22,0.08-0.42,0.17-0.59,0.26
						c-0.17,0.1-0.31,0.18-0.42,0.26c-0.11,0.08-0.2,0.12-0.25,0.12c-0.03,0-0.05-0.01-0.07-0.02s-0.04-0.04-0.06-0.06
						c-0.02-0.03-0.03-0.07-0.03-0.11c-0.01-0.04-0.01-0.1-0.01-0.15c0-0.05,0-0.1,0.01-0.13c0-0.04,0.01-0.07,0.02-0.1
						c0.01-0.03,0.02-0.06,0.04-0.08c0.02-0.03,0.05-0.06,0.1-0.11c0.05-0.04,0.14-0.1,0.26-0.18c0.12-0.08,0.28-0.15,0.47-0.23
						c0.19-0.08,0.4-0.15,0.63-0.2s0.47-0.08,0.71-0.08c0.41,0,0.76,0.06,1.07,0.18c0.3,0.12,0.55,0.29,0.76,0.49
						c0.2,0.21,0.35,0.44,0.45,0.72c0.1,0.27,0.15,0.56,0.15,0.86c0,0.28-0.02,0.56-0.07,0.83c-0.05,0.28-0.15,0.58-0.3,0.9
						c-0.15,0.33-0.38,0.69-0.67,1.08c-0.29,0.39-0.69,0.85-1.17,1.37l-1.59,1.66h3.98c0.04,0,0.07,0.01,0.1,0.02
						c0.03,0.02,0.06,0.04,0.08,0.07c0.02,0.03,0.04,0.07,0.05,0.11C62.3,80.42,62.3,80.47,62.3,80.52z"/>
					<path class="st0" d="M69.29,80.52c0,0.05-0.01,0.1-0.02,0.15c-0.01,0.05-0.03,0.09-0.05,0.12c-0.02,0.03-0.05,0.06-0.08,0.08
						c-0.03,0.02-0.07,0.03-0.11,0.03h-4.7c-0.04,0-0.08-0.01-0.11-0.02c-0.04-0.01-0.07-0.03-0.09-0.06
						c-0.03-0.03-0.05-0.07-0.06-0.12c-0.01-0.05-0.02-0.11-0.02-0.18c0-0.06,0-0.11,0.01-0.15c0-0.04,0.01-0.08,0.03-0.12
						c0.01-0.04,0.03-0.07,0.05-0.11c0.02-0.04,0.05-0.07,0.09-0.11L66,78.14c0.44-0.47,0.8-0.88,1.06-1.25s0.46-0.7,0.6-1
						s0.23-0.56,0.27-0.81C67.98,74.85,68,74.62,68,74.4c0-0.22-0.03-0.42-0.1-0.62c-0.07-0.19-0.17-0.37-0.31-0.51
						c-0.13-0.15-0.3-0.26-0.5-0.35c-0.2-0.09-0.43-0.13-0.69-0.13c-0.28,0-0.54,0.04-0.76,0.12c-0.22,0.08-0.42,0.17-0.59,0.26
						c-0.17,0.1-0.31,0.18-0.42,0.26c-0.11,0.08-0.2,0.12-0.25,0.12c-0.03,0-0.05-0.01-0.07-0.02c-0.02-0.01-0.04-0.04-0.06-0.06
						c-0.02-0.03-0.03-0.07-0.03-0.11c-0.01-0.04-0.01-0.1-0.01-0.15c0-0.05,0-0.1,0.01-0.13c0-0.04,0.01-0.07,0.02-0.1
						c0.01-0.03,0.02-0.06,0.04-0.08s0.05-0.06,0.1-0.11s0.14-0.1,0.26-0.18c0.12-0.08,0.28-0.15,0.47-0.23
						c0.19-0.08,0.4-0.15,0.63-0.2s0.47-0.08,0.71-0.08c0.41,0,0.76,0.06,1.07,0.18c0.3,0.12,0.55,0.29,0.76,0.49
						c0.2,0.21,0.35,0.44,0.45,0.72c0.1,0.27,0.15,0.56,0.15,0.86c0,0.28-0.02,0.56-0.07,0.83c-0.05,0.28-0.15,0.58-0.3,0.9
						c-0.15,0.33-0.38,0.69-0.67,1.08c-0.29,0.39-0.69,0.85-1.17,1.37l-1.59,1.66h3.98c0.04,0,0.07,0.01,0.1,0.02
						c0.03,0.02,0.06,0.04,0.08,0.07c0.02,0.03,0.04,0.07,0.05,0.11C69.28,80.42,69.29,80.47,69.29,80.52z"/>
					<path class="st0" d="M79.73,76.53c0,0.66-0.05,1.26-0.16,1.8c-0.1,0.55-0.27,1.02-0.51,1.42c-0.24,0.4-0.55,0.71-0.94,0.93
						s-0.87,0.33-1.44,0.33c-0.52,0-0.97-0.1-1.34-0.29c-0.37-0.19-0.66-0.47-0.89-0.85c-0.23-0.38-0.39-0.84-0.49-1.4
						s-0.15-1.19-0.15-1.92c0-0.65,0.05-1.25,0.15-1.8c0.1-0.55,0.27-1.02,0.51-1.42c0.24-0.4,0.55-0.71,0.94-0.93
						c0.39-0.22,0.87-0.33,1.44-0.33c0.52,0,0.97,0.1,1.34,0.29c0.37,0.19,0.66,0.47,0.89,0.85c0.23,0.38,0.39,0.84,0.49,1.4
						C79.68,75.17,79.73,75.81,79.73,76.53z M78.87,76.61c0-0.44-0.02-0.85-0.05-1.21c-0.03-0.36-0.09-0.68-0.16-0.97
						s-0.16-0.53-0.27-0.74c-0.11-0.21-0.24-0.38-0.4-0.52c-0.15-0.14-0.33-0.24-0.53-0.3c-0.2-0.06-0.42-0.1-0.67-0.1
						c-0.44,0-0.8,0.1-1.08,0.31c-0.28,0.21-0.49,0.49-0.65,0.83c-0.15,0.35-0.26,0.74-0.31,1.18c-0.05,0.44-0.08,0.9-0.08,1.38
						c0,0.66,0.04,1.24,0.11,1.72c0.08,0.48,0.2,0.88,0.36,1.19c0.17,0.31,0.38,0.54,0.64,0.69c0.26,0.15,0.58,0.23,0.95,0.23
						c0.3,0,0.55-0.05,0.77-0.14c0.22-0.09,0.41-0.23,0.57-0.4c0.16-0.17,0.29-0.37,0.39-0.61c0.1-0.23,0.18-0.49,0.24-0.76
						c0.06-0.27,0.1-0.56,0.12-0.87C78.86,77.24,78.87,76.93,78.87,76.61z"/>
					<path class="st0" d="M86.71,76.53c0,0.66-0.05,1.26-0.16,1.8c-0.1,0.55-0.27,1.02-0.51,1.42c-0.24,0.4-0.55,0.71-0.94,0.93
						c-0.39,0.22-0.87,0.33-1.44,0.33c-0.52,0-0.97-0.1-1.34-0.29c-0.37-0.19-0.66-0.47-0.89-0.85c-0.23-0.38-0.39-0.84-0.49-1.4
						s-0.15-1.19-0.15-1.92c0-0.65,0.05-1.25,0.15-1.8c0.1-0.55,0.27-1.02,0.51-1.42c0.24-0.4,0.55-0.71,0.94-0.93
						s0.87-0.33,1.44-0.33c0.52,0,0.97,0.1,1.34,0.29c0.37,0.19,0.66,0.47,0.89,0.85c0.23,0.38,0.39,0.84,0.49,1.4
						C86.66,75.17,86.71,75.81,86.71,76.53z M85.85,76.61c0-0.44-0.02-0.85-0.05-1.21c-0.03-0.36-0.09-0.68-0.16-0.97
						s-0.16-0.53-0.27-0.74c-0.11-0.21-0.24-0.38-0.4-0.52c-0.15-0.14-0.33-0.24-0.53-0.3c-0.2-0.06-0.42-0.1-0.67-0.1
						c-0.44,0-0.8,0.1-1.08,0.31c-0.28,0.21-0.49,0.49-0.65,0.83c-0.15,0.35-0.26,0.74-0.31,1.18c-0.05,0.44-0.08,0.9-0.08,1.38
						c0,0.66,0.04,1.24,0.11,1.72c0.08,0.48,0.2,0.88,0.36,1.19c0.17,0.31,0.38,0.54,0.64,0.69c0.26,0.15,0.58,0.23,0.95,0.23
						c0.3,0,0.55-0.05,0.77-0.14c0.22-0.09,0.41-0.23,0.57-0.4c0.16-0.17,0.29-0.37,0.39-0.61c0.1-0.23,0.18-0.49,0.24-0.76
						s0.1-0.56,0.12-0.87C85.84,77.24,85.85,76.93,85.85,76.61z"/>
					<path class="st0" d="M93.26,78.44c0,0.38-0.06,0.72-0.18,1.04c-0.12,0.31-0.31,0.58-0.55,0.81c-0.24,0.23-0.54,0.41-0.91,0.53
						c-0.36,0.13-0.78,0.19-1.26,0.19c-0.29,0-0.56-0.02-0.81-0.07c-0.25-0.05-0.47-0.11-0.67-0.17c-0.2-0.07-0.36-0.14-0.49-0.21
						c-0.13-0.07-0.21-0.12-0.24-0.15c-0.03-0.03-0.05-0.05-0.07-0.08c-0.02-0.03-0.03-0.06-0.04-0.09
						c-0.01-0.03-0.02-0.08-0.03-0.13c-0.01-0.05-0.01-0.11-0.01-0.19c0-0.13,0.01-0.23,0.04-0.28c0.03-0.05,0.07-0.07,0.12-0.07
						c0.04,0,0.12,0.04,0.25,0.11c0.12,0.08,0.28,0.16,0.48,0.25s0.42,0.17,0.68,0.25c0.26,0.08,0.54,0.11,0.86,0.11
						c0.32,0,0.61-0.04,0.85-0.13c0.24-0.08,0.45-0.21,0.61-0.36c0.17-0.15,0.29-0.34,0.37-0.55c0.08-0.21,0.12-0.45,0.12-0.7
						c0-0.27-0.05-0.51-0.16-0.73c-0.11-0.22-0.26-0.4-0.46-0.56c-0.2-0.16-0.45-0.28-0.74-0.36s-0.62-0.13-0.98-0.13h-0.86
						c-0.03,0-0.05-0.01-0.08-0.02c-0.03-0.01-0.06-0.03-0.08-0.06c-0.02-0.03-0.04-0.07-0.06-0.11c-0.02-0.04-0.02-0.1-0.02-0.17
						c0-0.06,0.01-0.11,0.02-0.15c0.01-0.04,0.03-0.08,0.05-0.11c0.02-0.03,0.05-0.05,0.08-0.06c0.03-0.01,0.06-0.02,0.1-0.02h0.76
						c0.31,0,0.6-0.04,0.85-0.13c0.25-0.08,0.47-0.21,0.65-0.37c0.18-0.16,0.32-0.35,0.41-0.57c0.1-0.22,0.14-0.47,0.14-0.74
						c0-0.2-0.03-0.39-0.1-0.57c-0.06-0.18-0.16-0.34-0.29-0.47c-0.13-0.13-0.29-0.24-0.48-0.32c-0.2-0.08-0.42-0.11-0.68-0.11
						c-0.27,0-0.52,0.04-0.75,0.12c-0.22,0.08-0.42,0.17-0.6,0.27s-0.31,0.18-0.42,0.27c-0.11,0.08-0.19,0.12-0.23,0.12
						c-0.03,0-0.05,0-0.07-0.01c-0.02-0.01-0.04-0.03-0.06-0.05c-0.02-0.03-0.03-0.06-0.03-0.11c-0.01-0.05-0.01-0.11-0.01-0.19
						c0-0.05,0-0.09,0.01-0.13c0-0.04,0.01-0.07,0.03-0.1c0.01-0.03,0.03-0.06,0.05-0.09c0.02-0.03,0.05-0.06,0.09-0.1
						c0.04-0.04,0.12-0.1,0.25-0.18c0.13-0.08,0.28-0.16,0.46-0.24c0.18-0.08,0.39-0.14,0.62-0.19c0.23-0.05,0.48-0.08,0.75-0.08
						c0.4,0,0.75,0.05,1.04,0.16c0.29,0.11,0.54,0.26,0.73,0.44c0.19,0.19,0.34,0.41,0.43,0.67c0.09,0.26,0.14,0.54,0.14,0.84
						c0,0.28-0.04,0.54-0.11,0.78c-0.07,0.24-0.18,0.45-0.33,0.64c-0.14,0.19-0.32,0.34-0.53,0.47c-0.21,0.13-0.45,0.21-0.72,0.26
						v0.01c0.3,0.03,0.58,0.1,0.83,0.22c0.25,0.12,0.47,0.27,0.66,0.45c0.19,0.18,0.33,0.4,0.44,0.64
						C93.21,77.9,93.26,78.16,93.26,78.44z"/>
					<path class="st0" d="M100.68,76.53c0,0.66-0.05,1.26-0.16,1.8c-0.1,0.55-0.27,1.02-0.51,1.42c-0.24,0.4-0.55,0.71-0.94,0.93
						s-0.87,0.33-1.44,0.33c-0.52,0-0.97-0.1-1.34-0.29c-0.37-0.19-0.66-0.47-0.89-0.85c-0.23-0.38-0.39-0.84-0.49-1.4
						s-0.15-1.19-0.15-1.92c0-0.65,0.05-1.25,0.15-1.8c0.1-0.55,0.27-1.02,0.51-1.42c0.24-0.4,0.55-0.71,0.94-0.93
						c0.39-0.22,0.87-0.33,1.44-0.33c0.52,0,0.97,0.1,1.34,0.29c0.37,0.19,0.66,0.47,0.89,0.85c0.23,0.38,0.39,0.84,0.49,1.4
						C100.63,75.17,100.68,75.81,100.68,76.53z M99.82,76.61c0-0.44-0.02-0.85-0.05-1.21c-0.03-0.36-0.09-0.68-0.16-0.97
						s-0.16-0.53-0.27-0.74c-0.11-0.21-0.24-0.38-0.4-0.52c-0.15-0.14-0.33-0.24-0.53-0.3c-0.2-0.06-0.42-0.1-0.67-0.1
						c-0.44,0-0.8,0.1-1.08,0.31c-0.28,0.21-0.49,0.49-0.65,0.83c-0.15,0.35-0.26,0.74-0.31,1.18c-0.05,0.44-0.08,0.9-0.08,1.38
						c0,0.66,0.04,1.24,0.11,1.72c0.08,0.48,0.2,0.88,0.36,1.19c0.17,0.31,0.38,0.54,0.64,0.69c0.26,0.15,0.58,0.23,0.95,0.23
						c0.3,0,0.55-0.05,0.77-0.14c0.22-0.09,0.41-0.23,0.57-0.4c0.16-0.17,0.29-0.37,0.39-0.61c0.1-0.23,0.18-0.49,0.24-0.76
						c0.06-0.27,0.1-0.56,0.12-0.87C99.81,77.24,99.82,76.93,99.82,76.61z"/>
				</g>
			</g>
			<g>
				<g>
					<g>
						<path class="st0" d="M7.27,93.01c0.02,0.04,0.02,0.08,0.02,0.1c0,0.03-0.01,0.05-0.03,0.06c-0.02,0.01-0.05,0.02-0.08,0.03
							c-0.04,0-0.08,0.01-0.14,0.01c-0.06,0-0.1,0-0.14-0.01c-0.03,0-0.06-0.01-0.08-0.02c-0.02-0.01-0.03-0.02-0.04-0.03
							c-0.01-0.01-0.02-0.03-0.03-0.05l-0.51-1.43H3.88l-0.49,1.42c-0.01,0.02-0.01,0.04-0.03,0.05c-0.01,0.01-0.03,0.02-0.05,0.03
							c-0.02,0.01-0.05,0.02-0.08,0.02C3.2,93.2,3.16,93.2,3.11,93.2c-0.06,0-0.11,0-0.15-0.01c-0.04,0-0.07-0.02-0.08-0.03
							s-0.03-0.03-0.03-0.06s0.01-0.06,0.02-0.1l1.88-5.1c0.01-0.02,0.02-0.04,0.04-0.06c0.02-0.02,0.04-0.03,0.06-0.04
							c0.03-0.01,0.06-0.01,0.09-0.02c0.04,0,0.08-0.01,0.13-0.01c0.05,0,0.09,0,0.13,0.01c0.04,0,0.07,0.01,0.1,0.02
							c0.03,0.01,0.05,0.02,0.06,0.04c0.01,0.02,0.03,0.03,0.03,0.06L7.27,93.01z M5.04,88.36L5.04,88.36l-1.01,2.88h2.05
							L5.04,88.36z"/>
						<path class="st0" d="M8.64,93.09c0,0.02,0,0.03-0.01,0.05c-0.01,0.01-0.02,0.02-0.04,0.03c-0.02,0.01-0.04,0.02-0.07,0.02
							C8.48,93.2,8.44,93.2,8.39,93.2c-0.05,0-0.09,0-0.12-0.01c-0.03,0-0.06-0.01-0.08-0.02c-0.02-0.01-0.03-0.02-0.04-0.03
							c-0.01-0.01-0.01-0.03-0.01-0.05v-5.58c0-0.02,0-0.03,0.01-0.05c0.01-0.01,0.02-0.03,0.04-0.04c0.02-0.01,0.04-0.02,0.08-0.02
							c0.03,0,0.07-0.01,0.12-0.01c0.05,0,0.09,0,0.12,0.01c0.03,0,0.06,0.01,0.07,0.02c0.02,0.01,0.03,0.02,0.04,0.04
							c0.01,0.01,0.01,0.03,0.01,0.05V93.09z"/>
						<path class="st0" d="M15.83,93.01c0.02,0.04,0.02,0.08,0.02,0.1c0,0.03-0.01,0.05-0.03,0.06c-0.02,0.01-0.05,0.02-0.08,0.03
							c-0.04,0-0.08,0.01-0.14,0.01c-0.06,0-0.1,0-0.14-0.01c-0.03,0-0.06-0.01-0.08-0.02c-0.02-0.01-0.03-0.02-0.04-0.03
							c-0.01-0.01-0.02-0.03-0.03-0.05l-0.51-1.43h-2.35l-0.49,1.42c-0.01,0.02-0.01,0.04-0.03,0.05c-0.01,0.01-0.03,0.02-0.05,0.03
							c-0.02,0.01-0.05,0.02-0.08,0.02c-0.03,0.01-0.08,0.01-0.13,0.01c-0.06,0-0.11,0-0.15-0.01c-0.04,0-0.07-0.02-0.08-0.03
							c-0.02-0.01-0.03-0.03-0.03-0.06s0.01-0.06,0.02-0.1l1.88-5.1c0.01-0.02,0.02-0.04,0.04-0.06c0.02-0.02,0.04-0.03,0.06-0.04
							c0.03-0.01,0.06-0.01,0.09-0.02c0.04,0,0.08-0.01,0.13-0.01c0.05,0,0.09,0,0.13,0.01c0.04,0,0.07,0.01,0.1,0.02
							c0.03,0.01,0.05,0.02,0.06,0.04c0.01,0.02,0.03,0.03,0.03,0.06L15.83,93.01z M13.61,88.36L13.61,88.36l-1.01,2.88h2.05
							L13.61,88.36z"/>
						<path class="st0" d="M17.28,88.08c0,0.13-0.02,0.22-0.07,0.27c-0.05,0.05-0.13,0.07-0.26,0.07c-0.12,0-0.2-0.02-0.25-0.07
							c-0.05-0.05-0.07-0.13-0.07-0.27s0.02-0.22,0.07-0.27c0.05-0.05,0.13-0.07,0.26-0.07c0.12,0,0.21,0.02,0.25,0.07
							C17.26,87.86,17.28,87.95,17.28,88.08z M17.2,93.09c0,0.02,0,0.03-0.01,0.05c-0.01,0.01-0.02,0.02-0.04,0.03
							c-0.02,0.01-0.04,0.02-0.07,0.02c-0.03,0.01-0.07,0.01-0.12,0.01c-0.05,0-0.09,0-0.12-0.01c-0.03,0-0.06-0.01-0.08-0.02
							c-0.02-0.01-0.03-0.02-0.04-0.03c-0.01-0.01-0.01-0.03-0.01-0.05v-3.75c0-0.02,0-0.03,0.01-0.05
							c0.01-0.01,0.02-0.03,0.04-0.04c0.02-0.01,0.04-0.02,0.08-0.02c0.03,0,0.07-0.01,0.12-0.01c0.05,0,0.09,0,0.12,0.01
							c0.03,0,0.06,0.01,0.07,0.02c0.02,0.01,0.03,0.02,0.04,0.04c0.01,0.01,0.01,0.03,0.01,0.05V93.09z"/>
						<path class="st0" d="M21.62,93.09c0,0.02,0,0.03-0.01,0.05c-0.01,0.01-0.02,0.02-0.04,0.03c-0.02,0.01-0.04,0.02-0.07,0.02
							c-0.03,0.01-0.07,0.01-0.12,0.01c-0.05,0-0.09,0-0.12-0.01c-0.03,0-0.06-0.01-0.07-0.02c-0.02-0.01-0.03-0.02-0.04-0.03
							c-0.01-0.01-0.01-0.03-0.01-0.05v-2.22c0-0.23-0.02-0.42-0.05-0.56c-0.04-0.15-0.09-0.27-0.16-0.37
							c-0.07-0.1-0.16-0.18-0.28-0.24s-0.24-0.08-0.39-0.08c-0.19,0-0.38,0.07-0.57,0.2c-0.19,0.14-0.39,0.33-0.6,0.6v2.69
							c0,0.02,0,0.03-0.01,0.05c-0.01,0.01-0.02,0.02-0.04,0.03c-0.02,0.01-0.04,0.02-0.07,0.02c-0.03,0.01-0.07,0.01-0.12,0.01
							c-0.05,0-0.09,0-0.12-0.01c-0.03,0-0.06-0.01-0.08-0.02c-0.02-0.01-0.03-0.02-0.04-0.03c-0.01-0.01-0.01-0.03-0.01-0.05v-3.75
							c0-0.02,0-0.03,0.01-0.05c0.01-0.01,0.02-0.03,0.04-0.04c0.02-0.01,0.04-0.02,0.07-0.02c0.03,0,0.07-0.01,0.11-0.01
							c0.05,0,0.09,0,0.12,0.01c0.03,0,0.05,0.01,0.07,0.02c0.02,0.01,0.03,0.02,0.03,0.04c0.01,0.01,0.01,0.03,0.01,0.05v0.53
							c0.22-0.24,0.43-0.41,0.63-0.52c0.21-0.11,0.41-0.16,0.62-0.16c0.25,0,0.45,0.04,0.62,0.12c0.17,0.08,0.3,0.19,0.41,0.34
							c0.1,0.14,0.18,0.3,0.22,0.49c0.05,0.19,0.07,0.41,0.07,0.68V93.09z"/>
						<path class="st0" d="M26.5,91.08c0,0.08-0.01,0.13-0.03,0.16c-0.02,0.03-0.05,0.04-0.09,0.04h-1.73
							c-0.04,0-0.07-0.02-0.09-0.05c-0.02-0.03-0.04-0.08-0.04-0.16c0-0.08,0.01-0.13,0.04-0.16c0.02-0.03,0.05-0.05,0.09-0.05h1.73
							c0.02,0,0.03,0,0.05,0.01c0.02,0.01,0.03,0.02,0.04,0.04c0.01,0.02,0.02,0.04,0.02,0.06C26.49,91.01,26.5,91.04,26.5,91.08z"
							/>
						<path class="st0" d="M30.01,93.09c0,0.02,0,0.03-0.01,0.05s-0.02,0.02-0.04,0.03c-0.02,0.01-0.04,0.02-0.08,0.02
							c-0.03,0.01-0.07,0.01-0.12,0.01c-0.05,0-0.09,0-0.12-0.01c-0.03,0-0.06-0.01-0.08-0.02c-0.02-0.01-0.03-0.02-0.04-0.03
							c-0.01-0.01-0.01-0.03-0.01-0.05V87.9c0-0.02,0-0.03,0.01-0.05c0.01-0.01,0.02-0.02,0.05-0.03c0.02-0.01,0.05-0.02,0.08-0.02
							c0.03-0.01,0.07-0.01,0.11-0.01c0.05,0,0.09,0,0.12,0.01c0.03,0,0.06,0.01,0.08,0.02c0.02,0.01,0.03,0.02,0.04,0.03
							c0.01,0.01,0.01,0.03,0.01,0.05V93.09z"/>
						<path class="st0" d="M34.52,93.09c0,0.02,0,0.03-0.01,0.05c-0.01,0.01-0.02,0.02-0.04,0.03c-0.02,0.01-0.04,0.02-0.07,0.02
							c-0.03,0.01-0.07,0.01-0.12,0.01c-0.05,0-0.09,0-0.12-0.01c-0.03,0-0.06-0.01-0.07-0.02c-0.02-0.01-0.03-0.02-0.04-0.03
							c-0.01-0.01-0.01-0.03-0.01-0.05v-2.22c0-0.23-0.02-0.42-0.05-0.56c-0.04-0.15-0.09-0.27-0.16-0.37
							c-0.07-0.1-0.16-0.18-0.28-0.24s-0.24-0.08-0.39-0.08c-0.19,0-0.38,0.07-0.57,0.2c-0.19,0.14-0.39,0.33-0.6,0.6v2.69
							c0,0.02,0,0.03-0.01,0.05c-0.01,0.01-0.02,0.02-0.04,0.03c-0.02,0.01-0.04,0.02-0.07,0.02c-0.03,0.01-0.07,0.01-0.12,0.01
							c-0.05,0-0.09,0-0.12-0.01c-0.03,0-0.06-0.01-0.08-0.02c-0.02-0.01-0.03-0.02-0.04-0.03c-0.01-0.01-0.01-0.03-0.01-0.05v-3.75
							c0-0.02,0-0.03,0.01-0.05c0.01-0.01,0.02-0.03,0.04-0.04c0.02-0.01,0.04-0.02,0.07-0.02c0.03,0,0.07-0.01,0.11-0.01
							c0.05,0,0.09,0,0.12,0.01c0.03,0,0.05,0.01,0.07,0.02c0.02,0.01,0.03,0.02,0.03,0.04c0.01,0.01,0.01,0.03,0.01,0.05v0.53
							c0.22-0.24,0.43-0.41,0.63-0.52c0.21-0.11,0.41-0.16,0.62-0.16c0.25,0,0.45,0.04,0.62,0.12c0.17,0.08,0.3,0.19,0.41,0.34
							c0.1,0.14,0.18,0.3,0.22,0.49c0.05,0.19,0.07,0.41,0.07,0.68V93.09z"/>
						<path class="st0" d="M38.91,93.09c0,0.02,0,0.04-0.01,0.05c-0.01,0.01-0.02,0.02-0.04,0.03c-0.02,0.01-0.04,0.01-0.07,0.02
							c-0.03,0-0.06,0.01-0.1,0.01c-0.04,0-0.08,0-0.11-0.01c-0.03,0-0.05-0.01-0.07-0.02c-0.02-0.01-0.03-0.02-0.04-0.03
							c-0.01-0.01-0.01-0.03-0.01-0.05v-0.54c-0.2,0.22-0.4,0.38-0.62,0.51c-0.21,0.12-0.44,0.18-0.7,0.18
							c-0.27,0-0.5-0.05-0.69-0.16c-0.19-0.1-0.35-0.25-0.47-0.43c-0.12-0.18-0.21-0.39-0.26-0.63c-0.06-0.24-0.08-0.5-0.08-0.77
							c0-0.32,0.03-0.6,0.1-0.86c0.07-0.26,0.17-0.47,0.31-0.65s0.3-0.32,0.5-0.41c0.2-0.1,0.43-0.15,0.69-0.15
							c0.23,0,0.43,0.05,0.62,0.15c0.19,0.1,0.37,0.25,0.55,0.45v-2.26c0-0.02,0-0.03,0.01-0.05c0.01-0.01,0.02-0.02,0.04-0.03
							c0.02-0.01,0.04-0.02,0.08-0.02c0.03,0,0.07-0.01,0.12-0.01c0.05,0,0.09,0,0.12,0.01c0.03,0.01,0.06,0.01,0.07,0.02
							c0.02,0.01,0.03,0.02,0.04,0.03c0.01,0.01,0.01,0.03,0.01,0.05V93.09z M38.42,90.39c-0.21-0.25-0.41-0.44-0.6-0.58
							c-0.19-0.13-0.39-0.2-0.6-0.2c-0.19,0-0.35,0.04-0.49,0.14c-0.14,0.09-0.25,0.21-0.33,0.36c-0.09,0.15-0.15,0.32-0.19,0.5
							c-0.04,0.19-0.06,0.38-0.06,0.57c0,0.21,0.02,0.41,0.05,0.6c0.03,0.2,0.09,0.37,0.17,0.52c0.08,0.15,0.19,0.28,0.32,0.37
							c0.13,0.09,0.3,0.14,0.5,0.14c0.1,0,0.2-0.01,0.29-0.04c0.09-0.03,0.19-0.07,0.29-0.14c0.1-0.06,0.2-0.15,0.31-0.25
							c0.11-0.1,0.22-0.23,0.34-0.38V90.39z"/>
						<path class="st0" d="M43.32,93.09c0,0.02,0,0.03-0.01,0.05c-0.01,0.01-0.02,0.02-0.04,0.03c-0.02,0.01-0.04,0.02-0.07,0.02
							c-0.03,0.01-0.07,0.01-0.11,0.01c-0.05,0-0.09,0-0.12-0.01c-0.03,0-0.05-0.01-0.07-0.02c-0.02-0.01-0.03-0.02-0.03-0.03
							c-0.01-0.01-0.01-0.03-0.01-0.05v-0.53c-0.22,0.24-0.43,0.41-0.63,0.52c-0.21,0.11-0.41,0.16-0.61,0.16
							c-0.25,0-0.45-0.04-0.62-0.12c-0.17-0.08-0.3-0.2-0.41-0.34c-0.1-0.14-0.18-0.31-0.22-0.49c-0.05-0.19-0.07-0.41-0.07-0.68
							v-2.26c0-0.02,0-0.03,0.01-0.05c0.01-0.01,0.02-0.03,0.04-0.04c0.02-0.01,0.04-0.02,0.08-0.02c0.03,0,0.07-0.01,0.12-0.01
							c0.05,0,0.09,0,0.12,0.01c0.03,0,0.06,0.01,0.07,0.02s0.03,0.02,0.04,0.04c0.01,0.01,0.01,0.03,0.01,0.05v2.22
							c0,0.23,0.02,0.42,0.05,0.57c0.04,0.15,0.09,0.27,0.16,0.37c0.07,0.1,0.16,0.18,0.28,0.24c0.11,0.06,0.24,0.08,0.39,0.08
							c0.19,0,0.38-0.07,0.57-0.2c0.19-0.13,0.39-0.33,0.6-0.6v-2.69c0-0.02,0-0.03,0.01-0.05c0.01-0.01,0.02-0.03,0.04-0.04
							c0.02-0.01,0.04-0.02,0.08-0.02c0.03,0,0.07-0.01,0.12-0.01c0.05,0,0.09,0,0.12,0.01c0.03,0,0.06,0.01,0.07,0.02
							c0.02,0.01,0.03,0.02,0.04,0.04c0.01,0.01,0.01,0.03,0.01,0.05V93.09z"/>
						<path class="st0" d="M46.9,92.09c0,0.18-0.03,0.34-0.1,0.48c-0.07,0.14-0.16,0.26-0.28,0.36c-0.12,0.1-0.27,0.17-0.44,0.23
							c-0.17,0.05-0.36,0.08-0.57,0.08c-0.13,0-0.25-0.01-0.37-0.03c-0.12-0.02-0.22-0.05-0.31-0.08c-0.09-0.03-0.17-0.07-0.24-0.1
							c-0.06-0.04-0.11-0.07-0.14-0.1c-0.03-0.03-0.05-0.06-0.07-0.1c-0.01-0.04-0.02-0.1-0.02-0.17c0-0.04,0-0.07,0.01-0.1
							c0.01-0.03,0.01-0.05,0.02-0.07c0.01-0.02,0.02-0.03,0.03-0.04c0.01-0.01,0.03-0.01,0.05-0.01c0.03,0,0.07,0.02,0.13,0.06
							c0.06,0.04,0.13,0.08,0.22,0.13c0.09,0.04,0.19,0.09,0.31,0.13c0.12,0.04,0.26,0.06,0.42,0.06c0.13,0,0.24-0.01,0.35-0.04
							c0.1-0.03,0.2-0.07,0.27-0.12c0.08-0.06,0.14-0.13,0.18-0.21c0.04-0.09,0.06-0.19,0.06-0.3c0-0.12-0.03-0.21-0.08-0.29
							c-0.05-0.08-0.13-0.15-0.22-0.21s-0.19-0.11-0.31-0.16c-0.11-0.05-0.23-0.09-0.35-0.14c-0.12-0.05-0.24-0.1-0.35-0.16
							c-0.11-0.06-0.22-0.13-0.31-0.21c-0.09-0.08-0.16-0.18-0.22-0.3c-0.06-0.12-0.08-0.25-0.08-0.42c0-0.13,0.02-0.26,0.07-0.38
							c0.05-0.13,0.13-0.24,0.23-0.34c0.1-0.1,0.24-0.18,0.4-0.24c0.16-0.06,0.35-0.09,0.57-0.09c0.09,0,0.19,0.01,0.28,0.02
							c0.09,0.02,0.18,0.04,0.25,0.06c0.08,0.02,0.14,0.05,0.2,0.08c0.06,0.03,0.1,0.06,0.13,0.08c0.03,0.02,0.05,0.04,0.06,0.06
							c0.01,0.02,0.02,0.03,0.02,0.05c0,0.02,0.01,0.04,0.01,0.06c0,0.02,0,0.05,0,0.08s0,0.06-0.01,0.09
							c0,0.03-0.01,0.05-0.02,0.07c-0.01,0.02-0.02,0.03-0.03,0.04c-0.01,0.01-0.03,0.01-0.04,0.01c-0.02,0-0.06-0.01-0.1-0.04
							c-0.04-0.03-0.1-0.06-0.17-0.1c-0.07-0.04-0.16-0.07-0.26-0.1c-0.1-0.03-0.21-0.05-0.34-0.05s-0.24,0.02-0.34,0.05
							c-0.1,0.03-0.18,0.07-0.24,0.13c-0.06,0.06-0.11,0.12-0.14,0.19c-0.03,0.07-0.05,0.16-0.05,0.24c0,0.12,0.03,0.22,0.08,0.31
							c0.06,0.08,0.13,0.15,0.22,0.21c0.09,0.06,0.19,0.11,0.31,0.16c0.12,0.05,0.23,0.09,0.35,0.14c0.12,0.05,0.24,0.1,0.35,0.16
							c0.12,0.06,0.22,0.13,0.31,0.2c0.09,0.08,0.16,0.18,0.22,0.29C46.87,91.8,46.9,91.94,46.9,92.09z"/>
						<path class="st0" d="M49.68,92.87c0,0.06,0,0.1-0.01,0.14c-0.01,0.04-0.02,0.06-0.05,0.08c-0.02,0.02-0.05,0.04-0.09,0.06
							c-0.04,0.02-0.09,0.03-0.14,0.05s-0.11,0.02-0.17,0.03c-0.06,0.01-0.11,0.01-0.17,0.01c-0.18,0-0.34-0.02-0.47-0.07
							s-0.24-0.13-0.32-0.23c-0.08-0.1-0.14-0.23-0.18-0.38c-0.04-0.15-0.06-0.34-0.06-0.55v-2.33h-0.56
							c-0.04,0-0.07-0.02-0.09-0.05c-0.02-0.03-0.03-0.09-0.03-0.15c0-0.04,0-0.07,0.01-0.09c0.01-0.03,0.01-0.05,0.02-0.07
							c0.01-0.02,0.02-0.03,0.04-0.04c0.02-0.01,0.03-0.01,0.05-0.01h0.56v-0.92c0-0.02,0-0.03,0.01-0.04
							c0.01-0.01,0.02-0.03,0.04-0.04c0.02-0.01,0.04-0.02,0.08-0.02c0.03,0,0.07-0.01,0.12-0.01c0.05,0,0.09,0,0.12,0.01
							c0.03,0,0.06,0.01,0.07,0.02c0.02,0.01,0.03,0.02,0.04,0.04c0.01,0.01,0.01,0.03,0.01,0.04v0.92h1.03c0.02,0,0.04,0,0.05,0.01
							c0.01,0.01,0.03,0.02,0.04,0.04c0.01,0.02,0.02,0.04,0.02,0.07c0.01,0.03,0.01,0.06,0.01,0.09c0,0.07-0.01,0.12-0.03,0.15
							c-0.02,0.04-0.05,0.05-0.09,0.05h-1.03v2.26c0,0.28,0.04,0.5,0.12,0.65c0.08,0.15,0.23,0.22,0.45,0.22
							c0.07,0,0.13-0.01,0.18-0.02c0.05-0.01,0.1-0.03,0.14-0.05c0.04-0.02,0.08-0.03,0.11-0.05c0.03-0.01,0.05-0.02,0.08-0.02
							c0.01,0,0.03,0,0.04,0.01c0.01,0.01,0.02,0.02,0.03,0.03c0.01,0.02,0.01,0.03,0.02,0.06C49.68,92.8,49.68,92.83,49.68,92.87z"
							/>
						<path class="st0" d="M52.74,89.54c0,0.04,0,0.08,0,0.11c0,0.03-0.01,0.05-0.01,0.07c-0.01,0.02-0.02,0.03-0.02,0.04
							c-0.01,0.01-0.02,0.01-0.04,0.01c-0.02,0-0.05-0.01-0.09-0.02c-0.03-0.01-0.07-0.02-0.12-0.04c-0.04-0.01-0.09-0.03-0.14-0.04
							c-0.05-0.01-0.11-0.02-0.17-0.02c-0.07,0-0.15,0.02-0.22,0.05c-0.07,0.03-0.15,0.08-0.23,0.15s-0.16,0.16-0.25,0.28
							c-0.09,0.12-0.18,0.26-0.29,0.43v2.53c0,0.02,0,0.03-0.01,0.05c-0.01,0.01-0.02,0.02-0.04,0.03
							c-0.02,0.01-0.04,0.02-0.07,0.02c-0.03,0.01-0.07,0.01-0.12,0.01c-0.05,0-0.09,0-0.12-0.01c-0.03,0-0.06-0.01-0.08-0.02
							c-0.02-0.01-0.03-0.02-0.04-0.03c-0.01-0.01-0.01-0.03-0.01-0.05v-3.75c0-0.02,0-0.03,0.01-0.05
							c0.01-0.01,0.02-0.03,0.04-0.04c0.02-0.01,0.04-0.02,0.07-0.02c0.03,0,0.07-0.01,0.11-0.01c0.05,0,0.09,0,0.12,0.01
							c0.03,0,0.05,0.01,0.07,0.02c0.02,0.01,0.03,0.02,0.03,0.04c0.01,0.01,0.01,0.03,0.01,0.05v0.59c0.11-0.16,0.21-0.28,0.3-0.38
							c0.09-0.1,0.18-0.17,0.26-0.23c0.08-0.05,0.16-0.09,0.24-0.11c0.08-0.02,0.16-0.03,0.24-0.03c0.04,0,0.08,0,0.12,0.01
							c0.05,0,0.1,0.01,0.15,0.02c0.05,0.01,0.1,0.02,0.15,0.04c0.04,0.02,0.07,0.03,0.09,0.04c0.02,0.01,0.03,0.02,0.03,0.03
							c0.01,0.01,0.01,0.02,0.01,0.04c0,0.02,0.01,0.04,0.01,0.06C52.74,89.46,52.74,89.5,52.74,89.54z"/>
						<path class="st0" d="M54.15,88.08c0,0.13-0.02,0.22-0.07,0.27c-0.05,0.05-0.13,0.07-0.26,0.07c-0.12,0-0.2-0.02-0.25-0.07
							c-0.05-0.05-0.07-0.13-0.07-0.27s0.02-0.22,0.07-0.27c0.05-0.05,0.13-0.07,0.26-0.07c0.12,0,0.21,0.02,0.25,0.07
							C54.13,87.86,54.15,87.95,54.15,88.08z M54.07,93.09c0,0.02,0,0.03-0.01,0.05c-0.01,0.01-0.02,0.02-0.04,0.03
							c-0.02,0.01-0.04,0.02-0.07,0.02c-0.03,0.01-0.07,0.01-0.12,0.01c-0.05,0-0.09,0-0.12-0.01c-0.03,0-0.06-0.01-0.08-0.02
							c-0.02-0.01-0.03-0.02-0.04-0.03c-0.01-0.01-0.01-0.03-0.01-0.05v-3.75c0-0.02,0-0.03,0.01-0.05
							c0.01-0.01,0.02-0.03,0.04-0.04c0.02-0.01,0.04-0.02,0.08-0.02c0.03,0,0.07-0.01,0.12-0.01c0.05,0,0.09,0,0.12,0.01
							c0.03,0,0.06,0.01,0.07,0.02c0.02,0.01,0.03,0.02,0.04,0.04c0.01,0.01,0.01,0.03,0.01,0.05V93.09z"/>
						<path class="st0" d="M58.08,93.09c0,0.03-0.01,0.05-0.03,0.06c-0.02,0.02-0.04,0.03-0.07,0.03c-0.03,0.01-0.07,0.01-0.12,0.01
							c-0.05,0-0.09,0-0.12-0.01c-0.03-0.01-0.06-0.02-0.08-0.03c-0.02-0.01-0.03-0.04-0.03-0.06v-0.42
							c-0.17,0.18-0.35,0.32-0.56,0.42c-0.2,0.1-0.41,0.15-0.63,0.15c-0.2,0-0.37-0.03-0.53-0.08c-0.16-0.05-0.29-0.12-0.4-0.22
							c-0.11-0.1-0.19-0.21-0.25-0.35c-0.06-0.13-0.09-0.29-0.09-0.46c0-0.21,0.04-0.39,0.13-0.54c0.09-0.15,0.21-0.28,0.36-0.38
							c0.16-0.1,0.35-0.18,0.57-0.23c0.22-0.05,0.47-0.08,0.74-0.08h0.6V90.6c0-0.16-0.02-0.3-0.05-0.42
							c-0.03-0.12-0.09-0.23-0.16-0.31s-0.17-0.15-0.29-0.19c-0.12-0.04-0.26-0.06-0.43-0.06c-0.17,0-0.31,0.02-0.45,0.06
							c-0.13,0.04-0.25,0.08-0.35,0.13c-0.1,0.05-0.18,0.09-0.25,0.13C55.54,89.98,55.5,90,55.47,90c-0.02,0-0.03,0-0.05-0.01
							c-0.01-0.01-0.03-0.02-0.04-0.03c-0.01-0.02-0.02-0.03-0.02-0.06c0-0.02-0.01-0.05-0.01-0.08c0-0.06,0-0.1,0.01-0.14
							c0.01-0.03,0.03-0.07,0.06-0.1c0.03-0.03,0.1-0.08,0.18-0.12c0.09-0.05,0.19-0.09,0.3-0.13s0.24-0.07,0.37-0.1
							c0.13-0.02,0.26-0.04,0.4-0.04c0.26,0,0.47,0.03,0.65,0.09c0.18,0.06,0.32,0.15,0.43,0.27c0.11,0.12,0.19,0.26,0.23,0.43
							c0.05,0.17,0.07,0.36,0.07,0.58V93.09z M57.59,91.32H56.9c-0.2,0-0.37,0.02-0.52,0.05c-0.15,0.04-0.27,0.09-0.37,0.16
							c-0.1,0.07-0.17,0.15-0.22,0.25c-0.05,0.1-0.07,0.21-0.07,0.33c0,0.21,0.07,0.39,0.21,0.52c0.14,0.13,0.33,0.19,0.58,0.19
							c0.2,0,0.38-0.05,0.55-0.15c0.17-0.1,0.35-0.26,0.54-0.47V91.32z"/>
						<path class="st0" d="M59.94,93.09c0,0.02,0,0.03-0.01,0.05c-0.01,0.01-0.02,0.02-0.04,0.03c-0.02,0.01-0.04,0.02-0.07,0.02
							c-0.03,0.01-0.07,0.01-0.12,0.01c-0.05,0-0.09,0-0.12-0.01c-0.03,0-0.06-0.01-0.08-0.02c-0.02-0.01-0.03-0.02-0.04-0.03
							c-0.01-0.01-0.01-0.03-0.01-0.05v-5.58c0-0.02,0-0.03,0.01-0.05c0.01-0.01,0.02-0.03,0.04-0.04c0.02-0.01,0.04-0.02,0.08-0.02
							c0.03,0,0.07-0.01,0.12-0.01c0.05,0,0.09,0,0.12,0.01c0.03,0,0.06,0.01,0.07,0.02c0.02,0.01,0.03,0.02,0.04,0.04
							c0.01,0.01,0.01,0.03,0.01,0.05V93.09z"/>
						<path class="st0" d="M67.13,93.01c0.02,0.04,0.02,0.08,0.02,0.1c0,0.03-0.01,0.05-0.03,0.06c-0.02,0.01-0.05,0.02-0.08,0.03
							c-0.04,0-0.08,0.01-0.14,0.01c-0.06,0-0.1,0-0.14-0.01c-0.03,0-0.06-0.01-0.08-0.02c-0.02-0.01-0.03-0.02-0.04-0.03
							c-0.01-0.01-0.02-0.03-0.03-0.05l-0.51-1.43h-2.35l-0.49,1.42c-0.01,0.02-0.01,0.04-0.03,0.05c-0.01,0.01-0.03,0.02-0.05,0.03
							c-0.02,0.01-0.05,0.02-0.08,0.02c-0.03,0.01-0.08,0.01-0.13,0.01c-0.06,0-0.11,0-0.15-0.01c-0.04,0-0.07-0.02-0.08-0.03
							s-0.03-0.03-0.03-0.06s0.01-0.06,0.02-0.1l1.88-5.1c0.01-0.02,0.02-0.04,0.04-0.06c0.02-0.02,0.04-0.03,0.06-0.04
							c0.03-0.01,0.06-0.01,0.09-0.02c0.04,0,0.08-0.01,0.13-0.01c0.05,0,0.09,0,0.13,0.01c0.04,0,0.07,0.01,0.1,0.02
							c0.03,0.01,0.05,0.02,0.06,0.04c0.01,0.02,0.03,0.03,0.03,0.06L67.13,93.01z M64.9,88.36L64.9,88.36l-1.01,2.88h2.05
							L64.9,88.36z"/>
						<path class="st0" d="M70.09,89.54c0,0.04,0,0.08,0,0.11c0,0.03-0.01,0.05-0.01,0.07c-0.01,0.02-0.02,0.03-0.02,0.04
							s-0.02,0.01-0.04,0.01c-0.02,0-0.05-0.01-0.09-0.02c-0.03-0.01-0.07-0.02-0.12-0.04c-0.04-0.01-0.09-0.03-0.14-0.04
							c-0.05-0.01-0.11-0.02-0.17-0.02c-0.07,0-0.15,0.02-0.22,0.05c-0.07,0.03-0.15,0.08-0.23,0.15s-0.16,0.16-0.25,0.28
							c-0.09,0.12-0.18,0.26-0.29,0.43v2.53c0,0.02,0,0.03-0.01,0.05c-0.01,0.01-0.02,0.02-0.04,0.03
							c-0.02,0.01-0.04,0.02-0.07,0.02c-0.03,0.01-0.07,0.01-0.12,0.01c-0.05,0-0.09,0-0.12-0.01c-0.03,0-0.06-0.01-0.08-0.02
							c-0.02-0.01-0.03-0.02-0.04-0.03c-0.01-0.01-0.01-0.03-0.01-0.05v-3.75c0-0.02,0-0.03,0.01-0.05
							c0.01-0.01,0.02-0.03,0.04-0.04c0.02-0.01,0.04-0.02,0.07-0.02c0.03,0,0.07-0.01,0.11-0.01c0.05,0,0.09,0,0.12,0.01
							c0.03,0,0.05,0.01,0.07,0.02c0.02,0.01,0.03,0.02,0.03,0.04c0.01,0.01,0.01,0.03,0.01,0.05v0.59c0.11-0.16,0.21-0.28,0.3-0.38
							c0.09-0.1,0.18-0.17,0.26-0.23c0.08-0.05,0.16-0.09,0.24-0.11c0.08-0.02,0.16-0.03,0.24-0.03c0.04,0,0.08,0,0.12,0.01
							c0.05,0,0.1,0.01,0.15,0.02c0.05,0.01,0.1,0.02,0.15,0.04c0.04,0.02,0.07,0.03,0.09,0.04c0.02,0.01,0.03,0.02,0.03,0.03
							c0.01,0.01,0.01,0.02,0.01,0.04c0,0.02,0.01,0.04,0.01,0.06C70.09,89.46,70.09,89.5,70.09,89.54z"/>
						<path class="st0" d="M73.86,91.03c0,0.1-0.03,0.17-0.08,0.2c-0.05,0.04-0.1,0.06-0.15,0.06h-2.55c0,0.23,0.02,0.44,0.07,0.63
							c0.05,0.19,0.12,0.35,0.23,0.48c0.1,0.13,0.24,0.24,0.41,0.31c0.17,0.07,0.38,0.11,0.62,0.11c0.17,0,0.33-0.02,0.47-0.05
							c0.14-0.03,0.26-0.06,0.36-0.1c0.1-0.04,0.18-0.07,0.25-0.1c0.06-0.03,0.11-0.04,0.14-0.04c0.02,0,0.03,0,0.05,0.01
							c0.01,0.01,0.02,0.02,0.03,0.04c0.01,0.02,0.01,0.04,0.02,0.07c0,0.03,0.01,0.06,0.01,0.1c0,0.02,0,0.04,0,0.06
							c0,0.02-0.01,0.04-0.01,0.05c0,0.02-0.01,0.03-0.02,0.04c-0.01,0.01-0.02,0.03-0.03,0.04c-0.01,0.01-0.06,0.04-0.13,0.07
							c-0.07,0.04-0.17,0.07-0.28,0.1c-0.12,0.03-0.25,0.06-0.4,0.09c-0.15,0.03-0.32,0.04-0.49,0.04c-0.29,0-0.55-0.04-0.77-0.13
							c-0.22-0.09-0.41-0.21-0.56-0.38c-0.15-0.17-0.27-0.38-0.35-0.63c-0.08-0.25-0.12-0.54-0.12-0.87c0-0.32,0.04-0.6,0.12-0.85
							c0.08-0.25,0.2-0.46,0.35-0.64c0.15-0.17,0.33-0.31,0.55-0.4c0.21-0.09,0.45-0.14,0.71-0.14c0.28,0,0.52,0.05,0.72,0.14
							c0.2,0.09,0.36,0.22,0.49,0.38c0.13,0.16,0.22,0.34,0.28,0.55c0.06,0.21,0.09,0.43,0.09,0.66V91.03z M73.35,90.88
							c0.01-0.4-0.08-0.71-0.27-0.93c-0.19-0.22-0.47-0.33-0.83-0.33c-0.19,0-0.35,0.03-0.49,0.1s-0.26,0.16-0.36,0.28
							c-0.1,0.12-0.17,0.25-0.23,0.4c-0.05,0.15-0.08,0.31-0.09,0.48H73.35z"/>
						<path class="st0" d="M77.62,93.09c0,0.03-0.01,0.05-0.03,0.06c-0.02,0.02-0.04,0.03-0.07,0.03c-0.03,0.01-0.07,0.01-0.12,0.01
							c-0.05,0-0.09,0-0.12-0.01c-0.03-0.01-0.06-0.02-0.08-0.03c-0.02-0.01-0.03-0.04-0.03-0.06v-0.42
							c-0.17,0.18-0.35,0.32-0.56,0.42c-0.2,0.1-0.41,0.15-0.63,0.15c-0.2,0-0.37-0.03-0.53-0.08c-0.16-0.05-0.29-0.12-0.4-0.22
							c-0.11-0.1-0.19-0.21-0.25-0.35c-0.06-0.13-0.09-0.29-0.09-0.46c0-0.21,0.04-0.39,0.13-0.54c0.09-0.15,0.21-0.28,0.36-0.38
							c0.16-0.1,0.35-0.18,0.57-0.23c0.22-0.05,0.47-0.08,0.74-0.08h0.6V90.6c0-0.16-0.02-0.3-0.05-0.42
							c-0.03-0.12-0.09-0.23-0.16-0.31c-0.07-0.08-0.17-0.15-0.29-0.19c-0.12-0.04-0.26-0.06-0.43-0.06c-0.17,0-0.31,0.02-0.45,0.06
							c-0.13,0.04-0.25,0.08-0.35,0.13c-0.1,0.05-0.18,0.09-0.25,0.13C75.09,89.98,75.04,90,75.01,90C75,90,74.98,90,74.97,90
							c-0.01-0.01-0.03-0.02-0.04-0.03c-0.01-0.02-0.02-0.03-0.02-0.06c0-0.02-0.01-0.05-0.01-0.08c0-0.06,0-0.1,0.01-0.14
							s0.03-0.07,0.06-0.1c0.03-0.03,0.1-0.08,0.18-0.12c0.09-0.05,0.19-0.09,0.3-0.13s0.24-0.07,0.37-0.1
							c0.13-0.02,0.26-0.04,0.4-0.04c0.26,0,0.47,0.03,0.65,0.09c0.18,0.06,0.32,0.15,0.43,0.27c0.11,0.12,0.19,0.26,0.23,0.43
							c0.05,0.17,0.07,0.36,0.07,0.58V93.09z M77.13,91.32h-0.68c-0.2,0-0.37,0.02-0.52,0.05c-0.15,0.04-0.27,0.09-0.37,0.16
							c-0.1,0.07-0.17,0.15-0.22,0.25c-0.05,0.1-0.07,0.21-0.07,0.33c0,0.21,0.07,0.39,0.21,0.52c0.14,0.13,0.33,0.19,0.58,0.19
							c0.2,0,0.38-0.05,0.55-0.15c0.17-0.1,0.35-0.26,0.54-0.47V91.32z"/>
						<path class="st0" d="M82.5,91.08c0,0.08-0.01,0.13-0.03,0.16c-0.02,0.03-0.05,0.04-0.09,0.04h-1.73
							c-0.04,0-0.07-0.02-0.09-0.05c-0.02-0.03-0.04-0.08-0.04-0.16c0-0.08,0.01-0.13,0.04-0.16c0.02-0.03,0.05-0.05,0.09-0.05h1.73
							c0.02,0,0.03,0,0.05,0.01c0.02,0.01,0.03,0.02,0.04,0.04c0.01,0.02,0.02,0.04,0.02,0.06C82.49,91.01,82.5,91.04,82.5,91.08z"
							/>
						<path class="st0" d="M89.34,91.2c0,0.33-0.05,0.62-0.14,0.87c-0.09,0.25-0.22,0.47-0.4,0.64c-0.17,0.17-0.38,0.31-0.62,0.4
							c-0.24,0.09-0.51,0.13-0.82,0.13c-0.27,0-0.52-0.04-0.76-0.13c-0.23-0.08-0.43-0.21-0.6-0.38c-0.17-0.17-0.3-0.37-0.39-0.62
							c-0.09-0.25-0.14-0.53-0.14-0.86V87.9c0-0.02,0-0.03,0.01-0.05c0.01-0.01,0.02-0.02,0.04-0.03c0.02-0.01,0.05-0.02,0.08-0.02
							c0.03-0.01,0.07-0.01,0.12-0.01c0.05,0,0.09,0,0.12,0.01c0.03,0,0.06,0.01,0.08,0.02c0.02,0.01,0.03,0.02,0.04,0.03
							C85.99,87.87,86,87.88,86,87.9v3.28c0,0.27,0.03,0.5,0.1,0.7c0.06,0.2,0.16,0.37,0.28,0.5c0.12,0.13,0.27,0.23,0.45,0.3
							c0.18,0.07,0.37,0.1,0.59,0.1c0.22,0,0.42-0.03,0.6-0.1c0.18-0.06,0.32-0.16,0.45-0.3c0.12-0.13,0.21-0.3,0.28-0.49
							c0.06-0.2,0.1-0.43,0.1-0.69V87.9c0-0.02,0-0.03,0.01-0.05c0.01-0.01,0.02-0.02,0.04-0.03c0.02-0.01,0.05-0.02,0.08-0.02
							c0.03-0.01,0.07-0.01,0.12-0.01c0.05,0,0.09,0,0.12,0.01c0.03,0,0.06,0.01,0.08,0.02c0.02,0.01,0.03,0.02,0.04,0.03
							c0.01,0.01,0.01,0.03,0.01,0.05V91.2z"/>
						<path class="st0" d="M94.53,93.01c0.02,0.04,0.02,0.08,0.02,0.1c0,0.03-0.01,0.05-0.03,0.06c-0.02,0.01-0.05,0.02-0.08,0.03
							c-0.04,0-0.08,0.01-0.14,0.01c-0.06,0-0.1,0-0.14-0.01c-0.03,0-0.06-0.01-0.08-0.02c-0.02-0.01-0.03-0.02-0.04-0.03
							c-0.01-0.01-0.02-0.03-0.03-0.05l-0.51-1.43h-2.35l-0.49,1.42c-0.01,0.02-0.01,0.04-0.03,0.05c-0.01,0.01-0.03,0.02-0.05,0.03
							c-0.02,0.01-0.05,0.02-0.08,0.02c-0.03,0.01-0.08,0.01-0.13,0.01c-0.06,0-0.11,0-0.15-0.01c-0.04,0-0.07-0.02-0.08-0.03
							c-0.02-0.01-0.03-0.03-0.03-0.06s0.01-0.06,0.02-0.1l1.88-5.1c0.01-0.02,0.02-0.04,0.04-0.06c0.02-0.02,0.04-0.03,0.06-0.04
							c0.03-0.01,0.06-0.01,0.09-0.02c0.04,0,0.08-0.01,0.13-0.01c0.05,0,0.09,0,0.13,0.01c0.04,0,0.07,0.01,0.1,0.02
							c0.03,0.01,0.05,0.02,0.06,0.04c0.01,0.02,0.03,0.03,0.03,0.06L94.53,93.01z M92.31,88.36L92.31,88.36l-1.01,2.88h2.05
							L92.31,88.36z"/>
						<path class="st0" d="M98.38,92.95c0,0.04,0,0.07-0.01,0.1c-0.01,0.03-0.01,0.05-0.03,0.07c-0.01,0.02-0.03,0.03-0.04,0.04
							c-0.02,0.01-0.03,0.01-0.05,0.01h-2.51c-0.05,0-0.1-0.02-0.15-0.06c-0.05-0.04-0.08-0.1-0.08-0.2v-4.84
							c0-0.1,0.03-0.17,0.08-0.21c0.05-0.04,0.1-0.06,0.15-0.06h2.47c0.02,0,0.04,0,0.05,0.01c0.02,0.01,0.03,0.02,0.04,0.04
							c0.01,0.02,0.02,0.04,0.02,0.07c0.01,0.03,0.01,0.06,0.01,0.1c0,0.04,0,0.07-0.01,0.1c-0.01,0.03-0.01,0.05-0.02,0.07
							c-0.01,0.02-0.02,0.03-0.04,0.04c-0.02,0.01-0.03,0.01-0.05,0.01h-2.2v1.88h1.9c0.02,0,0.04,0.01,0.06,0.02
							s0.03,0.02,0.04,0.04c0.01,0.02,0.02,0.04,0.02,0.07c0.01,0.03,0.01,0.06,0.01,0.1c0,0.04,0,0.07-0.01,0.09
							c-0.01,0.03-0.01,0.05-0.02,0.06c-0.01,0.02-0.02,0.03-0.04,0.04c-0.02,0.01-0.04,0.01-0.06,0.01h-1.9v2.14h2.24
							c0.02,0,0.04,0,0.05,0.01c0.02,0.01,0.03,0.02,0.04,0.04c0.01,0.02,0.02,0.04,0.03,0.07C98.38,92.88,98.38,92.91,98.38,92.95z
							"/>
					</g>
				</g>
			</g>
		</g>
	</g>
</g>
</svg>
