<?xml version="1.0" encoding="utf-8"?>
<!-- Generator: Adobe Illustrator 24.2.0, SVG Export Plug-In . SVG Version: 6.00 Build 0)  -->
<svg version="1.1" id="Layer_1" xmlns="http://www.w3.org/2000/svg" xmlns:xlink="http://www.w3.org/1999/xlink" x="0px" y="0px"
	 viewBox="0 0 190 30" style="enable-background:new 0 0 190 30;" xml:space="preserve">
<style type="text/css">
	.st0{fill:#898780;}
	.st1{fill-rule:evenodd;clip-rule:evenodd;fill:#898780;}
</style>
<g>
	<g>
		<path class="st0" d="M43.74,21.17c0.05,0.14,0.07,0.25,0.08,0.34c0,0.09-0.02,0.15-0.07,0.19c-0.05,0.04-0.13,0.07-0.24,0.09
			c-0.11,0.01-0.26,0.02-0.44,0.02s-0.33,0-0.44-0.01c-0.11-0.01-0.19-0.02-0.25-0.05c-0.06-0.02-0.1-0.05-0.13-0.09
			c-0.03-0.04-0.05-0.09-0.08-0.14l-0.99-2.99h-4.8l-0.95,2.95c-0.02,0.06-0.04,0.11-0.07,0.15c-0.03,0.04-0.07,0.08-0.13,0.1
			c-0.06,0.03-0.14,0.05-0.24,0.06c-0.1,0.01-0.24,0.02-0.41,0.02c-0.17,0-0.31-0.01-0.42-0.02c-0.11-0.02-0.19-0.05-0.23-0.09
			c-0.04-0.04-0.07-0.11-0.06-0.19c0-0.09,0.03-0.2,0.08-0.34l3.87-11.4c0.02-0.07,0.05-0.13,0.09-0.17
			c0.04-0.04,0.09-0.08,0.17-0.1c0.07-0.03,0.17-0.04,0.29-0.05c0.12-0.01,0.26-0.01,0.44-0.01c0.19,0,0.35,0,0.47,0.01
			c0.12,0.01,0.23,0.03,0.3,0.05c0.08,0.03,0.14,0.06,0.18,0.11c0.04,0.05,0.07,0.11,0.1,0.18L43.74,21.17z M38.77,11.11
			L38.77,11.11l-2,6.12h4.02L38.77,11.11z"/>
		<path class="st0" d="M46.97,21.51c0,0.05-0.01,0.09-0.04,0.13c-0.02,0.03-0.06,0.06-0.12,0.09c-0.05,0.02-0.13,0.04-0.22,0.06
			c-0.1,0.01-0.22,0.02-0.37,0.02c-0.14,0-0.26-0.01-0.36-0.02c-0.1-0.01-0.17-0.03-0.23-0.06c-0.06-0.03-0.1-0.06-0.12-0.09
			s-0.03-0.08-0.03-0.13V8.84c0-0.05,0.01-0.09,0.03-0.13s0.06-0.07,0.12-0.09c0.06-0.03,0.13-0.04,0.23-0.06
			c0.09-0.01,0.21-0.02,0.36-0.02c0.15,0,0.27,0.01,0.37,0.02c0.09,0.01,0.17,0.03,0.22,0.06c0.05,0.03,0.09,0.06,0.12,0.09
			c0.02,0.04,0.04,0.08,0.04,0.13V21.51z"/>
		<path class="st0" d="M60.2,18.3c0,0.58-0.1,1.09-0.3,1.54c-0.2,0.45-0.48,0.83-0.83,1.14c-0.35,0.31-0.77,0.55-1.25,0.71
			c-0.48,0.16-0.99,0.24-1.55,0.24c-0.39,0-0.75-0.03-1.08-0.1c-0.33-0.07-0.62-0.16-0.88-0.26c-0.26-0.1-0.48-0.21-0.65-0.31
			c-0.18-0.11-0.3-0.2-0.37-0.27c-0.07-0.08-0.12-0.17-0.15-0.29c-0.03-0.12-0.05-0.27-0.05-0.47c0-0.14,0.01-0.25,0.02-0.35
			c0.01-0.09,0.03-0.17,0.05-0.22c0.02-0.06,0.05-0.1,0.09-0.12c0.04-0.02,0.08-0.03,0.12-0.03c0.08,0,0.2,0.05,0.35,0.16
			c0.15,0.11,0.35,0.22,0.58,0.35c0.24,0.13,0.52,0.25,0.86,0.36c0.34,0.11,0.72,0.17,1.16,0.17c0.33,0,0.64-0.05,0.91-0.14
			c0.28-0.09,0.51-0.23,0.71-0.4c0.2-0.17,0.35-0.39,0.46-0.64c0.11-0.25,0.16-0.54,0.16-0.86c0-0.35-0.07-0.65-0.22-0.89
			c-0.15-0.25-0.35-0.46-0.59-0.65c-0.24-0.19-0.52-0.36-0.83-0.51c-0.31-0.16-0.63-0.31-0.96-0.47s-0.65-0.34-0.95-0.54
			c-0.31-0.2-0.59-0.43-0.83-0.69c-0.24-0.27-0.44-0.58-0.59-0.93c-0.15-0.36-0.23-0.79-0.23-1.29c0-0.51,0.09-0.97,0.26-1.37
			c0.18-0.4,0.42-0.74,0.73-1.01s0.68-0.48,1.12-0.62c0.43-0.14,0.9-0.21,1.4-0.21c0.26,0,0.51,0.02,0.77,0.07
			c0.26,0.05,0.5,0.11,0.73,0.19c0.23,0.08,0.43,0.17,0.61,0.27c0.18,0.1,0.3,0.18,0.35,0.24c0.06,0.06,0.09,0.11,0.11,0.14
			c0.02,0.03,0.03,0.08,0.04,0.13c0.01,0.05,0.02,0.12,0.03,0.19c0.01,0.08,0.01,0.17,0.01,0.29c0,0.11,0,0.22-0.01,0.3
			c-0.01,0.09-0.02,0.16-0.04,0.22c-0.02,0.06-0.04,0.1-0.08,0.13c-0.03,0.03-0.07,0.04-0.11,0.04c-0.07,0-0.17-0.04-0.31-0.13
			c-0.14-0.09-0.31-0.19-0.51-0.3c-0.2-0.11-0.44-0.21-0.72-0.3c-0.28-0.09-0.59-0.14-0.93-0.14c-0.32,0-0.6,0.05-0.84,0.14
			c-0.24,0.09-0.43,0.21-0.59,0.36s-0.27,0.33-0.35,0.54c-0.08,0.21-0.12,0.43-0.12,0.66c0,0.34,0.07,0.64,0.22,0.88
			c0.15,0.25,0.35,0.46,0.59,0.65c0.25,0.19,0.53,0.36,0.84,0.52c0.31,0.16,0.64,0.32,0.96,0.48s0.65,0.34,0.96,0.53
			c0.32,0.19,0.6,0.42,0.84,0.68c0.25,0.26,0.45,0.57,0.6,0.93C60.12,17.4,60.2,17.82,60.2,18.3z"/>
		<path class="st0" d="M70.9,21.17c0.05,0.14,0.07,0.25,0.08,0.34c0,0.09-0.02,0.15-0.07,0.19c-0.05,0.04-0.13,0.07-0.24,0.09
			c-0.11,0.01-0.26,0.02-0.44,0.02s-0.33,0-0.44-0.01c-0.11-0.01-0.19-0.02-0.25-0.05c-0.06-0.02-0.1-0.05-0.13-0.09
			c-0.03-0.04-0.05-0.09-0.08-0.14l-0.99-2.99h-4.8l-0.95,2.95c-0.02,0.06-0.04,0.11-0.07,0.15c-0.03,0.04-0.07,0.08-0.13,0.1
			c-0.06,0.03-0.14,0.05-0.24,0.06c-0.1,0.01-0.24,0.02-0.41,0.02c-0.17,0-0.31-0.01-0.42-0.02c-0.11-0.02-0.19-0.05-0.23-0.09
			c-0.04-0.04-0.07-0.11-0.06-0.19c0-0.09,0.03-0.2,0.08-0.34l3.87-11.4c0.02-0.07,0.05-0.13,0.09-0.17
			c0.04-0.04,0.09-0.08,0.17-0.1c0.07-0.03,0.17-0.04,0.29-0.05c0.12-0.01,0.26-0.01,0.44-0.01c0.19,0,0.35,0,0.47,0.01
			c0.12,0.01,0.23,0.03,0.3,0.05c0.08,0.03,0.14,0.06,0.18,0.11c0.04,0.05,0.07,0.11,0.1,0.18L70.9,21.17z M65.93,11.11L65.93,11.11
			l-2,6.12h4.02L65.93,11.11z"/>
		<path class="st0" d="M81.15,21.5c0,0.05-0.01,0.09-0.04,0.13c-0.02,0.04-0.07,0.07-0.13,0.09c-0.06,0.02-0.14,0.04-0.24,0.06
			c-0.1,0.01-0.22,0.02-0.36,0.02c-0.15,0-0.28-0.01-0.37-0.02c-0.1-0.02-0.17-0.03-0.23-0.06c-0.06-0.02-0.1-0.05-0.13-0.09
			c-0.02-0.04-0.04-0.08-0.04-0.13v-5.45h-5.26v5.45c0,0.05-0.01,0.09-0.04,0.13c-0.02,0.04-0.07,0.07-0.12,0.09
			c-0.06,0.02-0.14,0.04-0.24,0.06c-0.1,0.01-0.22,0.02-0.37,0.02c-0.14,0-0.26-0.01-0.37-0.02c-0.1-0.02-0.18-0.03-0.24-0.06
			c-0.06-0.02-0.1-0.05-0.13-0.09c-0.02-0.04-0.04-0.08-0.04-0.13V9.72c0-0.05,0.01-0.09,0.04-0.13c0.02-0.04,0.07-0.07,0.13-0.09
			c0.06-0.02,0.14-0.04,0.24-0.06c0.1-0.02,0.22-0.02,0.37-0.02c0.15,0,0.27,0.01,0.37,0.02c0.1,0.02,0.18,0.03,0.24,0.06
			c0.06,0.02,0.1,0.05,0.12,0.09c0.02,0.04,0.04,0.08,0.04,0.13v4.91h5.26V9.72c0-0.05,0.01-0.09,0.04-0.13
			c0.02-0.04,0.07-0.07,0.13-0.09s0.14-0.04,0.23-0.06c0.09-0.02,0.22-0.02,0.37-0.02c0.14,0,0.26,0.01,0.36,0.02
			c0.1,0.02,0.18,0.03,0.24,0.06s0.1,0.05,0.13,0.09c0.02,0.04,0.04,0.08,0.04,0.13V21.5z"/>
		<path class="st0" d="M92.86,21.17c0.05,0.14,0.07,0.25,0.08,0.34c0,0.09-0.02,0.15-0.07,0.19c-0.05,0.04-0.13,0.07-0.24,0.09
			c-0.11,0.01-0.26,0.02-0.44,0.02s-0.33,0-0.44-0.01c-0.11-0.01-0.19-0.02-0.25-0.05c-0.06-0.02-0.1-0.05-0.13-0.09
			c-0.03-0.04-0.05-0.09-0.08-0.14l-0.99-2.99h-4.8l-0.95,2.95c-0.02,0.06-0.04,0.11-0.07,0.15c-0.03,0.04-0.07,0.08-0.13,0.1
			c-0.06,0.03-0.14,0.05-0.24,0.06c-0.1,0.01-0.24,0.02-0.41,0.02c-0.17,0-0.31-0.01-0.42-0.02c-0.11-0.02-0.19-0.05-0.23-0.09
			C83.02,21.65,83,21.58,83,21.5c0-0.09,0.03-0.2,0.08-0.34l3.87-11.4c0.02-0.07,0.05-0.13,0.09-0.17c0.04-0.04,0.09-0.08,0.17-0.1
			c0.07-0.03,0.17-0.04,0.29-0.05c0.12-0.01,0.26-0.01,0.44-0.01c0.19,0,0.35,0,0.47,0.01c0.12,0.01,0.23,0.03,0.3,0.05
			c0.08,0.03,0.14,0.06,0.18,0.11c0.04,0.05,0.07,0.11,0.1,0.18L92.86,21.17z M87.89,11.11L87.89,11.11l-2,6.12h4.02L87.89,11.11z"
			/>
		<path class="st0" d="M102.4,18.23c0,0.39-0.05,0.74-0.14,1.07c-0.09,0.33-0.22,0.62-0.39,0.88c-0.17,0.26-0.37,0.49-0.6,0.68
			s-0.5,0.36-0.79,0.49c-0.29,0.13-0.61,0.23-0.95,0.3c-0.34,0.07-0.72,0.1-1.15,0.1h-3.02c-0.14,0-0.27-0.05-0.39-0.15
			c-0.12-0.1-0.18-0.27-0.18-0.52V10.14c0-0.25,0.06-0.42,0.18-0.52c0.12-0.1,0.25-0.15,0.39-0.15h2.62c0.69,0,1.26,0.07,1.69,0.21
			c0.44,0.14,0.81,0.34,1.1,0.61c0.29,0.27,0.52,0.59,0.66,0.98c0.15,0.39,0.22,0.82,0.22,1.31c0,0.29-0.03,0.57-0.1,0.83
			c-0.07,0.27-0.16,0.51-0.29,0.74c-0.13,0.22-0.29,0.43-0.48,0.6c-0.19,0.18-0.42,0.32-0.66,0.44c0.31,0.06,0.61,0.18,0.88,0.35
			c0.27,0.17,0.51,0.38,0.72,0.64c0.2,0.26,0.37,0.56,0.48,0.91C102.34,17.43,102.4,17.81,102.4,18.23z M100.09,12.74
			c0-0.3-0.04-0.57-0.12-0.81s-0.2-0.44-0.36-0.61s-0.38-0.3-0.65-0.38c-0.27-0.09-0.62-0.13-1.06-0.13h-1.58v3.97h1.74
			c0.4,0,0.72-0.06,0.96-0.17c0.24-0.11,0.44-0.26,0.61-0.45c0.16-0.19,0.28-0.4,0.35-0.65C100.05,13.26,100.09,13,100.09,12.74z
			 M100.79,18.32c0-0.37-0.06-0.69-0.16-0.97c-0.11-0.28-0.27-0.51-0.48-0.7c-0.21-0.19-0.47-0.33-0.79-0.43
			c-0.32-0.1-0.72-0.15-1.2-0.15h-1.83v4.33h2.23c0.35,0,0.66-0.04,0.92-0.13c0.26-0.09,0.49-0.22,0.69-0.39
			c0.2-0.17,0.35-0.39,0.47-0.65C100.73,18.97,100.79,18.67,100.79,18.32z"/>
		<path class="st0" d="M113.2,21.17c0.05,0.14,0.07,0.25,0.08,0.34c0,0.09-0.02,0.15-0.07,0.19c-0.05,0.04-0.13,0.07-0.24,0.09
			c-0.11,0.01-0.26,0.02-0.44,0.02c-0.18,0-0.33,0-0.44-0.01c-0.11-0.01-0.19-0.02-0.25-0.05c-0.06-0.02-0.1-0.05-0.13-0.09
			c-0.03-0.04-0.05-0.09-0.08-0.14l-0.99-2.99h-4.8l-0.95,2.95c-0.02,0.06-0.04,0.11-0.07,0.15c-0.03,0.04-0.07,0.08-0.13,0.1
			c-0.06,0.03-0.14,0.05-0.24,0.06c-0.1,0.01-0.24,0.02-0.41,0.02c-0.17,0-0.31-0.01-0.42-0.02c-0.11-0.02-0.19-0.05-0.23-0.09
			c-0.05-0.04-0.07-0.11-0.06-0.19c0-0.09,0.03-0.2,0.08-0.34l3.87-11.4c0.02-0.07,0.06-0.13,0.09-0.17
			c0.04-0.04,0.09-0.08,0.17-0.1c0.08-0.03,0.17-0.04,0.29-0.05c0.12-0.01,0.26-0.01,0.44-0.01c0.19,0,0.35,0,0.47,0.01
			c0.13,0.01,0.23,0.03,0.3,0.05c0.08,0.03,0.14,0.06,0.18,0.11c0.04,0.05,0.07,0.11,0.1,0.18L113.2,21.17z M108.23,11.11
			L108.23,11.11l-2,6.12h4.02L108.23,11.11z"/>
		<path class="st0" d="M126.35,13.07c0,0.61-0.1,1.17-0.29,1.66c-0.19,0.49-0.46,0.91-0.82,1.26c-0.35,0.35-0.79,0.62-1.3,0.81
			c-0.51,0.19-1.13,0.28-1.84,0.28h-1.31v4.42c0,0.05-0.01,0.09-0.04,0.13c-0.03,0.04-0.07,0.07-0.12,0.09
			c-0.06,0.02-0.13,0.04-0.23,0.06c-0.1,0.01-0.22,0.02-0.37,0.02c-0.15,0-0.27-0.01-0.37-0.02c-0.1-0.02-0.18-0.03-0.24-0.06
			c-0.06-0.02-0.1-0.05-0.13-0.09c-0.02-0.04-0.04-0.08-0.04-0.13V10.18c0-0.25,0.06-0.43,0.19-0.54c0.12-0.11,0.26-0.16,0.42-0.16
			h2.47c0.25,0,0.49,0.01,0.72,0.03c0.23,0.02,0.5,0.07,0.81,0.14c0.31,0.07,0.63,0.21,0.96,0.41c0.32,0.2,0.6,0.44,0.83,0.74
			c0.23,0.29,0.4,0.63,0.52,1.01C126.29,12.19,126.35,12.61,126.35,13.07z M124.74,13.2c0-0.5-0.09-0.92-0.26-1.25
			c-0.18-0.34-0.39-0.58-0.65-0.75c-0.26-0.16-0.53-0.27-0.8-0.31c-0.28-0.04-0.55-0.07-0.81-0.07h-1.42v4.92h1.38
			c0.46,0,0.85-0.06,1.15-0.19c0.31-0.13,0.56-0.3,0.77-0.53c0.21-0.22,0.37-0.49,0.47-0.81C124.68,13.91,124.74,13.57,124.74,13.2z
			"/>
		<path class="st0" d="M136.4,21.5c0,0.05-0.01,0.09-0.03,0.13c-0.02,0.04-0.06,0.07-0.12,0.09c-0.06,0.02-0.14,0.04-0.25,0.06
			c-0.11,0.01-0.25,0.02-0.43,0.02c-0.16,0-0.28-0.01-0.38-0.02c-0.1-0.01-0.18-0.03-0.24-0.06c-0.06-0.03-0.11-0.07-0.14-0.12
			s-0.06-0.11-0.08-0.19l-1.06-2.89c-0.12-0.33-0.25-0.63-0.39-0.91c-0.13-0.27-0.29-0.51-0.48-0.71c-0.18-0.2-0.4-0.35-0.65-0.46
			c-0.25-0.11-0.55-0.17-0.9-0.17h-1.03v5.23c0,0.05-0.01,0.09-0.04,0.13c-0.03,0.04-0.07,0.07-0.12,0.09
			c-0.06,0.02-0.13,0.04-0.23,0.06c-0.1,0.01-0.22,0.02-0.37,0.02c-0.15,0-0.27-0.01-0.37-0.02c-0.1-0.02-0.18-0.03-0.24-0.06
			c-0.06-0.02-0.1-0.05-0.13-0.09c-0.02-0.04-0.04-0.08-0.04-0.13V10.14c0-0.25,0.06-0.42,0.18-0.52c0.12-0.1,0.25-0.15,0.39-0.15
			h2.45c0.29,0,0.53,0.01,0.73,0.02c0.19,0.02,0.37,0.03,0.52,0.05c0.45,0.08,0.84,0.21,1.18,0.39c0.34,0.18,0.63,0.4,0.86,0.67
			c0.23,0.27,0.41,0.58,0.52,0.93c0.12,0.35,0.17,0.74,0.17,1.16c0,0.41-0.05,0.78-0.16,1.1c-0.1,0.33-0.25,0.61-0.45,0.86
			c-0.2,0.25-0.43,0.47-0.7,0.65c-0.27,0.18-0.58,0.34-0.92,0.46c0.19,0.09,0.36,0.2,0.52,0.34c0.16,0.14,0.3,0.3,0.43,0.49
			c0.13,0.19,0.26,0.41,0.38,0.66c0.12,0.25,0.24,0.52,0.36,0.83l1.04,2.7c0.08,0.23,0.14,0.39,0.16,0.48
			C136.39,21.38,136.4,21.45,136.4,21.5z M134.09,12.88c0-0.48-0.1-0.89-0.3-1.22c-0.2-0.33-0.54-0.57-1.02-0.72
			c-0.15-0.04-0.32-0.08-0.5-0.09c-0.19-0.02-0.43-0.03-0.74-0.03h-1.29v4.14h1.5c0.4,0,0.75-0.05,1.05-0.16
			c0.29-0.1,0.54-0.25,0.74-0.44c0.2-0.19,0.34-0.41,0.43-0.66C134.04,13.45,134.09,13.18,134.09,12.88z"/>
		<path class="st0" d="M140.16,21.5c0,0.05-0.01,0.09-0.04,0.13c-0.02,0.04-0.07,0.07-0.13,0.09c-0.06,0.02-0.14,0.04-0.24,0.06
			c-0.1,0.01-0.22,0.02-0.37,0.02c-0.14,0-0.26-0.01-0.37-0.02c-0.1-0.02-0.18-0.03-0.24-0.06c-0.06-0.02-0.1-0.05-0.13-0.09
			c-0.02-0.04-0.04-0.08-0.04-0.13V9.72c0-0.05,0.01-0.09,0.04-0.13c0.03-0.04,0.07-0.07,0.13-0.09c0.06-0.02,0.14-0.04,0.24-0.06
			s0.22-0.02,0.35-0.02c0.15,0,0.27,0.01,0.37,0.02c0.1,0.02,0.18,0.03,0.24,0.06c0.06,0.02,0.1,0.05,0.13,0.09
			c0.02,0.04,0.04,0.08,0.04,0.13V21.5z"/>
		<path class="st0" d="M151.95,21.08c0,0.13-0.02,0.23-0.06,0.32c-0.04,0.09-0.09,0.16-0.16,0.22c-0.07,0.06-0.14,0.1-0.22,0.12
			c-0.08,0.03-0.16,0.04-0.24,0.04h-0.51c-0.16,0-0.3-0.02-0.42-0.05c-0.12-0.03-0.23-0.1-0.34-0.19c-0.11-0.09-0.22-0.22-0.32-0.37
			c-0.11-0.16-0.22-0.36-0.34-0.61l-3.52-6.98c-0.18-0.36-0.37-0.74-0.56-1.13c-0.19-0.39-0.36-0.78-0.52-1.15h-0.02
			c0.01,0.46,0.02,0.92,0.03,1.39c0.01,0.47,0.01,0.95,0.01,1.41v7.41c0,0.04-0.01,0.09-0.04,0.13c-0.03,0.04-0.07,0.07-0.13,0.09
			c-0.06,0.02-0.14,0.04-0.24,0.06c-0.1,0.01-0.22,0.02-0.37,0.02c-0.15,0-0.27-0.01-0.37-0.02c-0.1-0.02-0.17-0.03-0.23-0.06
			c-0.06-0.02-0.1-0.05-0.12-0.09c-0.02-0.04-0.04-0.08-0.04-0.13V10.18c0-0.25,0.07-0.43,0.2-0.54c0.14-0.11,0.28-0.16,0.44-0.16
			h0.76c0.18,0,0.33,0.02,0.45,0.05s0.23,0.08,0.32,0.16c0.09,0.07,0.19,0.17,0.28,0.3c0.09,0.13,0.18,0.29,0.28,0.49l2.71,5.39
			c0.17,0.33,0.33,0.65,0.48,0.96c0.16,0.31,0.31,0.62,0.45,0.92s0.29,0.6,0.43,0.9c0.14,0.29,0.28,0.59,0.42,0.89h0.01
			c-0.01-0.5-0.02-1.02-0.02-1.56c0-0.54,0-1.06,0-1.56V9.75c0-0.04,0.01-0.09,0.04-0.12c0.02-0.04,0.07-0.07,0.13-0.1
			c0.06-0.03,0.14-0.05,0.24-0.06c0.1-0.01,0.22-0.02,0.38-0.02c0.14,0,0.26,0.01,0.36,0.02c0.1,0.01,0.18,0.03,0.24,0.06
			c0.06,0.03,0.1,0.06,0.12,0.1c0.02,0.04,0.04,0.08,0.04,0.12V21.08z"/>
		<path class="st0" d="M162.26,10.18c0,0.12-0.01,0.22-0.02,0.31c-0.01,0.09-0.03,0.16-0.06,0.21c-0.03,0.05-0.06,0.09-0.1,0.12
			c-0.04,0.03-0.08,0.04-0.13,0.04h-3.25V21.5c0,0.05-0.01,0.09-0.04,0.13c-0.02,0.04-0.07,0.07-0.13,0.09
			c-0.06,0.02-0.14,0.04-0.24,0.06c-0.1,0.01-0.22,0.02-0.37,0.02c-0.14,0-0.26-0.01-0.37-0.02c-0.1-0.02-0.18-0.03-0.24-0.06
			c-0.06-0.02-0.1-0.05-0.12-0.09c-0.02-0.04-0.04-0.08-0.04-0.13V10.86h-3.25c-0.05,0-0.09-0.01-0.13-0.04
			c-0.04-0.03-0.07-0.06-0.09-0.12c-0.02-0.05-0.04-0.13-0.06-0.21s-0.02-0.19-0.02-0.31s0.01-0.23,0.02-0.32
			c0.01-0.09,0.03-0.17,0.06-0.22c0.02-0.06,0.05-0.1,0.09-0.12c0.04-0.03,0.08-0.04,0.13-0.04h8.03c0.05,0,0.09,0.01,0.13,0.04
			c0.04,0.03,0.07,0.07,0.1,0.12c0.03,0.06,0.05,0.13,0.06,0.22C162.25,9.95,162.26,10.06,162.26,10.18z"/>
		<path class="st0" d="M165.46,21.5c0,0.05-0.01,0.09-0.04,0.13c-0.02,0.04-0.07,0.07-0.13,0.09c-0.06,0.02-0.14,0.04-0.24,0.06
			c-0.1,0.01-0.22,0.02-0.37,0.02c-0.14,0-0.26-0.01-0.37-0.02c-0.1-0.02-0.18-0.03-0.24-0.06c-0.06-0.02-0.1-0.05-0.13-0.09
			c-0.02-0.04-0.04-0.08-0.04-0.13V9.72c0-0.05,0.01-0.09,0.04-0.13c0.03-0.04,0.07-0.07,0.13-0.09c0.06-0.02,0.14-0.04,0.24-0.06
			c0.1-0.02,0.22-0.02,0.35-0.02c0.15,0,0.27,0.01,0.37,0.02c0.1,0.02,0.18,0.03,0.24,0.06c0.06,0.02,0.1,0.05,0.13,0.09
			c0.02,0.04,0.04,0.08,0.04,0.13V21.5z"/>
		<path class="st0" d="M177.26,21.08c0,0.13-0.02,0.23-0.06,0.32c-0.04,0.09-0.09,0.16-0.16,0.22c-0.07,0.06-0.14,0.1-0.22,0.12
			c-0.08,0.03-0.16,0.04-0.24,0.04h-0.51c-0.16,0-0.3-0.02-0.42-0.05c-0.12-0.03-0.23-0.1-0.34-0.19c-0.11-0.09-0.22-0.22-0.32-0.37
			c-0.11-0.16-0.22-0.36-0.34-0.61l-3.52-6.98c-0.18-0.36-0.37-0.74-0.56-1.13c-0.19-0.39-0.36-0.78-0.52-1.15h-0.02
			c0.01,0.46,0.02,0.92,0.03,1.39c0.01,0.47,0.01,0.95,0.01,1.41v7.41c0,0.04-0.01,0.09-0.04,0.13c-0.03,0.04-0.07,0.07-0.13,0.09
			c-0.06,0.02-0.14,0.04-0.24,0.06c-0.1,0.01-0.22,0.02-0.37,0.02c-0.15,0-0.27-0.01-0.37-0.02c-0.1-0.02-0.17-0.03-0.23-0.06
			c-0.06-0.02-0.1-0.05-0.12-0.09c-0.02-0.04-0.04-0.08-0.04-0.13V10.18c0-0.25,0.07-0.43,0.2-0.54c0.14-0.11,0.28-0.16,0.44-0.16
			h0.76c0.18,0,0.33,0.02,0.45,0.05s0.23,0.08,0.32,0.16c0.09,0.07,0.19,0.17,0.28,0.3c0.09,0.13,0.18,0.29,0.28,0.49l2.71,5.39
			c0.17,0.33,0.33,0.65,0.48,0.96c0.16,0.31,0.31,0.62,0.45,0.92s0.29,0.6,0.43,0.9c0.14,0.29,0.28,0.59,0.42,0.89h0.01
			c-0.01-0.5-0.02-1.02-0.02-1.56c0-0.54,0-1.06,0-1.56V9.75c0-0.04,0.01-0.09,0.04-0.12c0.02-0.04,0.07-0.07,0.13-0.1
			c0.06-0.03,0.14-0.05,0.24-0.06c0.1-0.01,0.22-0.02,0.38-0.02c0.14,0,0.26,0.01,0.36,0.02c0.1,0.01,0.18,0.03,0.24,0.06
			c0.06,0.03,0.1,0.06,0.12,0.1c0.02,0.04,0.04,0.08,0.04,0.12V21.08z"/>
		<path class="st0" d="M189,11.14c0,0.12-0.01,0.23-0.02,0.32c-0.01,0.09-0.03,0.17-0.05,0.23c-0.02,0.06-0.05,0.1-0.09,0.13
			c-0.04,0.03-0.08,0.04-0.12,0.04c-0.07,0-0.19-0.06-0.36-0.18c-0.17-0.12-0.39-0.25-0.67-0.4c-0.28-0.15-0.61-0.28-1-0.4
			c-0.39-0.12-0.85-0.18-1.39-0.18c-0.64,0-1.21,0.12-1.71,0.37c-0.51,0.25-0.93,0.59-1.29,1.02c-0.35,0.44-0.62,0.96-0.81,1.56
			c-0.19,0.6-0.28,1.25-0.28,1.95c0,0.79,0.1,1.48,0.31,2.09c0.21,0.61,0.49,1.12,0.85,1.54c0.36,0.42,0.8,0.73,1.3,0.95
			c0.5,0.22,1.05,0.32,1.66,0.32c0.36,0,0.72-0.05,1.08-0.14c0.37-0.09,0.71-0.23,1.02-0.41v-3.58h-2.68c-0.1,0-0.18-0.05-0.23-0.16
			c-0.05-0.11-0.08-0.27-0.08-0.5c0-0.12,0.01-0.22,0.02-0.31c0.01-0.09,0.03-0.15,0.06-0.21c0.03-0.05,0.06-0.09,0.09-0.12
			c0.04-0.03,0.08-0.04,0.13-0.04h3.67c0.07,0,0.13,0.01,0.2,0.04c0.07,0.03,0.12,0.06,0.18,0.11c0.05,0.05,0.1,0.12,0.13,0.21
			c0.03,0.09,0.04,0.19,0.04,0.3v4.68c0,0.16-0.03,0.31-0.08,0.43c-0.05,0.12-0.17,0.23-0.34,0.32c-0.17,0.09-0.4,0.19-0.67,0.3
			c-0.27,0.11-0.56,0.2-0.85,0.27c-0.29,0.08-0.59,0.13-0.88,0.17c-0.3,0.04-0.59,0.06-0.88,0.06c-0.89,0-1.69-0.15-2.39-0.44
			c-0.7-0.29-1.3-0.71-1.78-1.26c-0.48-0.54-0.86-1.19-1.11-1.95c-0.26-0.76-0.38-1.61-0.38-2.54c0-0.97,0.14-1.86,0.42-2.65
			c0.28-0.79,0.67-1.46,1.17-2.02c0.5-0.56,1.11-0.99,1.81-1.29c0.7-0.31,1.49-0.46,2.34-0.46c0.44,0,0.85,0.04,1.24,0.12
			c0.39,0.08,0.73,0.18,1.03,0.29c0.3,0.11,0.55,0.23,0.76,0.36c0.2,0.13,0.35,0.24,0.42,0.32c0.08,0.08,0.13,0.18,0.16,0.28
			C188.99,10.79,189,10.94,189,11.14z"/>
	</g>
	<g>
		<g>
			<polyline class="st0" points="7.71,16.38 7.71,16.38 7.71,16.38 7.71,16.38 			"/>
			<path class="st1" d="M9.06,15.98L8.52,14.3l0,0C4.9,15.48,2.15,17.39,1,19.54C2.91,17.96,5.74,16.68,9.06,15.98z"/>
			<path class="st0" d="M25.85,15.14c0.36,0.21,0.69,0.43,0.99,0.67c1.27,0.98,2.06,2.18,2.19,3.53c0.18,1.78-0.81,3.53-2.61,5.02
				c0.46-0.85,0.67-1.74,0.58-2.64c-0.16-1.58-1.22-2.96-2.9-4.03l1.71-2.5L25.85,15.14z"/>
			<path class="st0" d="M17.45,16.19v4.58c0,0,0,0,0,0l0,3.53h1.1c1.49,0,2.7-1.21,2.7-2.7v-0.8v-3.77l0,0l0,0l0,0l0,0l0,0l0,0l0,0
				l-0.01,0l0,0l0,0l0,0l0,0l0,0l0,0l0,0l0,0l0,0l0,0l0,0l0,0l0,0l0,0l0,0l0,0l0,0l0,0l0,0l0,0l0,0l0,0l0,0l0,0l0,0l-0.01,0l0,0l0,0
				l0,0l0,0l0,0l0,0l0,0l0,0l0,0l0,0l-0.01,0l0,0L21.13,17l0,0l0,0l0,0l0,0l-0.05-0.02h0l-0.05-0.02l-0.05-0.02l0,0l-0.05-0.02l0,0
				l-0.05-0.02l0,0l-0.05-0.02l0,0l-0.05-0.02l0,0c-0.02-0.01-0.04-0.01-0.05-0.02l0,0l-0.05-0.02l0,0l-0.05-0.02l0,0l-0.05-0.02
				l0,0c-0.02-0.01-0.04-0.01-0.05-0.02l0,0l-0.05-0.02l0,0l-0.05-0.02l0,0l-0.05-0.02l0,0c-0.02,0-0.04-0.01-0.05-0.01l0,0
				c-0.02,0-0.04-0.01-0.05-0.01l0,0l-0.05-0.01l0,0l-0.05-0.01l0,0l-0.05-0.01l0,0c-0.02,0-0.04-0.01-0.05-0.01l0,0l-0.05-0.01l0,0
				l-0.05-0.01l0,0c-0.02,0-0.04-0.01-0.05-0.01l0,0l-0.05-0.01l0,0l-0.05-0.01l0,0l-0.05-0.01l0,0l-0.05-0.01l0,0l-0.05-0.01l0,0
				c-0.02,0-0.04-0.01-0.05-0.01l0,0l-0.02,0l-0.04-0.01l-0.05-0.01l0,0L19.3,16.5l0,0l-0.06-0.01l0,0l-0.05-0.01l0,0l-0.06-0.01
				l-0.06-0.01l0,0l-0.06-0.01l0,0l-0.06-0.01l0,0l-0.01,0l-0.05-0.01l-0.06-0.01l0,0l0,0l-0.06-0.01l-0.06-0.01l0,0l-0.06-0.01l0,0
				l-0.06-0.01l0,0l-0.01,0l-0.05-0.01l-0.06-0.01l0,0l-0.06-0.01l0,0l-0.06-0.01l0,0l-0.06-0.01l0,0l-0.06-0.01l0,0l-0.06-0.01l0,0
				l-0.06-0.01l0,0l-0.06-0.01l-0.04-0.01l-0.02,0l0,0c-0.02,0-0.04-0.01-0.06-0.01l-0.04-0.01l-0.02,0l-0.01,0l-0.06-0.01l-0.01,0
				l-0.06-0.01l-0.01,0l-0.06-0.01l-0.01,0l-0.06-0.01l-0.01,0l-0.06-0.01l-0.06-0.01L17.45,16.19z M23.62,5.65
				c-0.05,0-0.09,0-0.14,0c-0.05,0-0.1,0-0.14,0h-2.08h-3.8v2.47v0.72v3.58l0,0h0h0h0l0,0h0h0h0l0,0h0h0h0h0l0,0h0h0h0l0,0h0h0h0h0
				l0,0h0h0h0l0,0h0h0h0l0,0h0h0h0l0,0h0h0h0l0,0h0h0h0l0,0h0h0h0h0l0,0h0l0,0h0h0h0l0,0h0h0h0l0,0h0h0l0,0h0h0h0l0,0h0h0l0,0h0h0
				l0,0h0h0h0l0,0h0h0l0,0h0h0l0.06,0l0.06,0l0.01,0l0.05,0l0.01,0l0.02,0l0.04,0l0.03,0l0.04,0l0.02,0l0.04,0l0.02,0l0.04,0l0.03,0
				l0.03,0l0.03,0l0.04,0l0.02,0l0.05,0l0.02,0l0.04,0l0.03,0l0.03,0l0.02,0l0.04,0l0.02,0l0.04,0l0.03,0l0.01,0
				c0.04,0,0.07,0.01,0.11,0.01h0l0.06,0l0,0l0.06,0l0,0l0.06,0l0,0l0.05,0l0,0l0.05,0l0.01,0l0.04,0l0.02,0l0.03,0l0.03,0l0.03,0
				l0.03,0l0.03,0l0.03,0l0.03,0l0.03,0l0.04,0l0.02,0l0.04,0l0.02,0l0.04,0l0.01,0l0.05,0l0.02,0l0.03,0l0.03,0l0.04,0l0.01,0
				l0.05,0.01l0,0l0.05,0.01l0.01,0c0.04,0,0.07,0.01,0.11,0.01l0,0l0.06,0.01c0.05,0.01,0.11,0.01,0.16,0.02l0.01,0L20,12.63
				l0.01,0l0.05,0.01l0.01,0l0.05,0.01l0.01,0l0.05,0.01l0,0l0.06,0.01l0,0l0.05,0.01l0.01,0l0.05,0.01l0.01,0l0.05,0.01l0,0
				c0.06,0.01,0.11,0.02,0.17,0.03l0,0c0.19,0.03,0.37,0.06,0.56,0.1l0,0c0.04,0.01,0.07,0.01,0.11,0.02l0,0V8.99h1.69
				c0.1,0,0.21,0,0.32,0h0.01c0.1,0,0.21,0,0.31,0c1.16,0.06,2.09,1,2.09,2.17c0,1.01-0.7,1.86-1.66,2.1c-0.01,0-0.03,0-0.04,0.01
				c-0.05,0.01-0.11,0.02-0.16,0.03l-0.13,0.19l0.05,0.02l0.02,0.01l0.05,0.02l0.02,0.01l0.01,0l0.02,0.01
				c0.03,0.01,0.06,0.02,0.09,0.03l0.02,0.01L24,13.59l0.02,0.01l0.04,0.02l0.02,0.01l0,0l0.02,0.01c0.04,0.01,0.07,0.03,0.11,0.04
				l0.02,0.01l0.02,0.01l0.02,0.01l0,0l0.02,0.01l0.02,0.01l0,0l0.02,0.01l0.02,0.01l0.04,0.02l0.02,0.01l0.04,0.02l0.02,0.01l0,0
				l0.02,0.01l0.01,0.01l0.01,0l0.02,0.01l0,0l0.02,0.01l0.01,0l0.01,0l0.01,0l0.03,0.01l0,0c0.04,0.02,0.07,0.03,0.11,0.05
				l0.02,0.01l0.01,0l0.01,0.01l0.02,0.01l0,0l0.02,0.01l0.01,0l0.02,0.01l0.02,0.01l0.01,0l0.02,0.01l0,0l0.03,0.01l0.01,0l0.01,0
				l0.02,0.01l0,0L25.01,14l0,0l0.01,0l0.02,0.01l0,0l0.02,0.01l0.01,0l0.01,0l0.01-0.01l0.49,0.25l0.02,0.01l0.61,0.31l-0.01,0.02
				c0.36,0.21,0.7,0.44,1.01,0.68l0.47-0.53c0.86-0.97,1.38-2.23,1.38-3.62C29.05,8.16,26.63,5.72,23.62,5.65z"/>
			<path class="st0" d="M12.86,16.08c-0.85,0.08-1.72,0.18-2.6,0.3c-0.16,0.03-0.32,0.05-0.48,0.08l-0.02,0
				c-0.52,0.1-1.04,0.21-1.54,0.34c0.02,0.04,0.04,0.08,0.05,0.08c0.86,0.4,1.59,0.73,2.11,1.08c2.15,1.45,1.62,2.99,0.55,3.46
				c-0.02,0.01-0.05,0.01-0.07,0.02c-3.2,0.83-4.55-2.28-4.76-2.79c0-0.02-0.01-0.04-0.01-0.06c0-0.01-0.01-0.01-0.01-0.01H4.14
				c-0.01,0-0.02,0.01-0.02,0.01v5.31h0l0,0.21l6.5-0.02c3.21,0,4.76-1.54,5.47-2.72c0.01-0.02,0.03-0.05,0.04-0.07
				c0.02-0.03,0.04-0.05,0.05-0.07c0.01-0.01,0.01-0.01,0.01-0.02c0.07-0.12,0.13-0.25,0.18-0.37c0.01-0.03,0.02-0.05,0.03-0.08
				c0.19-0.42,0.25-0.71,0.25-0.71c0.13-0.47,0.19-0.96,0.19-1.47c0.01-0.88-0.16-1.68-0.51-2.4c0,0-0.03-0.05-0.06-0.11
				c-0.55-0.04-1.11-0.06-1.67-0.06C14.02,16.03,13.44,16.05,12.86,16.08"/>
			<path class="st0" d="M16.84,5.65l-6.5,0.02c-3.21,0-4.76,1.54-5.47,2.72C4.86,8.42,4.85,8.44,4.83,8.46
				C4.81,8.5,4.79,8.52,4.78,8.54C4.77,8.54,4.77,8.55,4.77,8.56C4.7,8.68,4.64,8.8,4.59,8.93C4.57,8.96,4.56,8.98,4.55,9.01
				C4.37,9.43,4.31,9.72,4.31,9.72l0,0c-0.13,0.47-0.19,0.96-0.19,1.47c-0.01,0.88,0.16,1.68,0.51,2.4c0.19,0.4,0.47,0.79,0.81,1.17
				c0.01,0.01,0.01,0.01,0.02,0l0.07,0.07c0.86-0.42,1.79-0.8,2.79-1.13l0-0.01l0.61-0.18l0.03-0.01l0.56-0.17l0,0.01
				c0.92-0.25,1.87-0.45,2.84-0.6c-0.72-0.34-1.33-0.62-1.79-0.93c-2.15-1.45-1.62-2.99-0.55-3.46c0.02-0.01,0.05-0.01,0.07-0.02
				c3.2-0.83,4.56,2.28,4.76,2.79c0,0.02,0.01,0.04,0.01,0.06c0,0.01,0.01,0.01,0.02,0.01h1.94c0.01,0,0.02-0.01,0.02-0.02V5.86h0
				L16.84,5.65z"/>
		</g>
		<path class="st1" d="M17.08,13.03c0.15,0,0.29,0,0.44,0.01c1.34,0.05,2.62,0.2,3.81,0.44c0.72,0.15,1.4,0.33,2.03,0.54
			c0.7,0.23,1.35,0.5,1.94,0.81l-1.74,2.54c-0.67-0.37-1.42-0.69-2.24-0.96c-1.15-0.38-2.43-0.67-3.81-0.83
			c-0.24-0.03-0.49-0.05-0.74-0.08L17.08,13.03z"/>
		<path class="st1" d="M16.16,15.45l0-0.03l0.29-2.39c-0.81,0-1.63,0.05-2.47,0.13c-1.72,0.17-3.36,0.5-4.86,0.95l0.56,1.75
			c0.73-0.14,1.49-0.25,2.26-0.32c0.9-0.09,1.79-0.13,2.66-0.13C15.12,15.4,15.65,15.42,16.16,15.45"/>
	</g>
</g>
</svg>
