<?xml version="1.0" encoding="utf-8"?>
<!-- Generator: Adobe Illustrator 24.2.0, SVG Export Plug-In . SVG Version: 6.00 Build 0)  -->
<svg version="1.1" id="Layer_1" xmlns="http://www.w3.org/2000/svg" xmlns:xlink="http://www.w3.org/1999/xlink" x="0px" y="0px"
	 viewBox="0 0 30 30" style="enable-background:new 0 0 30 30;" xml:space="preserve">
<style type="text/css">
	.st0{fill:#898780;}
	.st1{fill-rule:evenodd;clip-rule:evenodd;fill:#898780;}
</style>
<g>
	<g>
		<g>
			<polyline class="st0" points="7.44,16.44 7.44,16.44 7.44,16.44 7.44,16.44 			"/>
			<path class="st1" d="M8.83,16.01l-0.56-1.74l0,0c-3.74,1.23-6.58,3.2-7.77,5.43C2.48,18.06,5.4,16.74,8.83,16.01z"/>
			<path class="st0" d="M26.19,15.15c0.37,0.22,0.71,0.45,1.02,0.69c1.31,1.02,2.13,2.26,2.27,3.65c0.18,1.84-0.84,3.65-2.7,5.19
				c0.47-0.88,0.69-1.8,0.6-2.73c-0.16-1.64-1.26-3.06-2.99-4.16l1.77-2.59L26.19,15.15z"/>
			<path class="st0" d="M17.51,16.24v4.74l0,0v3.65h1.14c1.54,0,2.79-1.25,2.79-2.79v-0.82v-3.9l0,0l0,0l0,0l0,0l0,0l0,0l0,0h-0.01
				l0,0l0,0l0,0l0,0l0,0l0,0l0,0l0,0l0,0l0,0l0,0l0,0l0,0l0,0l0,0l0,0l0,0l0,0l0,0l0,0l0,0l0,0l0,0l0,0l0,0h-0.01l0,0l0,0l0,0l0,0
				l0,0l0,0l0,0l0,0l0,0l0,0h-0.01l0,0l-0.02-0.01l0,0l0,0l0,0l0,0l-0.05-0.02l0,0l-0.05-0.02l-0.05-0.02l0,0l-0.05-0.02l0,0
				L21.14,17l0,0l-0.06-0.02l0,0l-0.05-0.02l0,0c-0.02-0.01-0.04-0.01-0.05-0.02l0,0l-0.06-0.02l0,0l-0.06-0.02l0,0l-0.06-0.02l0,0
				c-0.02-0.01-0.04-0.01-0.06-0.02l0,0l-0.06-0.02l0,0l-0.06-0.02l0,0l-0.06-0.02l0,0c-0.02-0.01-0.04-0.01-0.06-0.02l0,0
				c-0.02-0.01-0.04-0.01-0.06-0.02l0,0l-0.06-0.02l0,0l-0.06-0.01l0,0l-0.06-0.01l0,0c-0.02,0-0.04-0.01-0.06-0.01l0,0l-0.06-0.01
				l0,0l-0.06-0.01l0,0c-0.02,0-0.04-0.01-0.06-0.01l0,0l-0.06-0.01l0,0l-0.06-0.01l0,0l-0.06-0.01l0,0l-0.06-0.01l0,0l-0.06-0.01
				l0,0c-0.02,0-0.04-0.01-0.06-0.01l0,0h-0.02l-0.04-0.01l-0.06-0.01l0,0l-0.06-0.01l0,0l-0.06-0.01l0,0l-0.06-0.01l0,0l-0.06-0.01
				l-0.06-0.01l0,0l-0.06-0.01l0,0l-0.06-0.01l0,0h-0.01L19,16.48l-0.06-0.01l0,0l0,0l-0.06-0.01l-0.06-0.01l0,0l-0.06-0.01l0,0
				l-0.06-0.01l0,0h-0.01l-0.05-0.01l-0.06-0.01l0,0l-0.06-0.01l0,0l-0.06-0.01l0,0l-0.06-0.01l0,0l-0.06-0.01l0,0l-0.06-0.01l0,0
				l-0.06-0.01l0,0l-0.06-0.01l-0.04-0.01H18.1h-0.01c-0.02,0-0.04-0.01-0.06-0.01l-0.05-0.01h-0.02h-0.01l-0.06-0.01h-0.01
				l-0.06-0.01h-0.01l-0.06-0.01h-0.01l-0.06-0.01h-0.01l-0.06-0.01l-0.06-0.01L17.51,16.24z M23.88,5.34c-0.05,0-0.1,0-0.15,0
				s-0.1,0-0.15,0h-2.15H17.5v2.56v0.74v3.7l0,0l0,0l0,0l0,0l0,0l0,0l0,0l0,0l0,0l0,0l0,0l0,0l0,0l0,0l0,0l0,0l0,0l0,0l0,0l0,0l0,0
				l0,0l0,0l0,0l0,0l0,0l0,0l0,0l0,0l0,0l0,0l0,0l0,0l0,0l0,0l0,0l0,0l0,0l0,0l0,0l0,0l0,0l0,0l0,0l0,0l0,0l0,0l0,0l0,0l0,0l0,0l0,0
				l0,0l0,0l0,0l0,0l0,0l0,0l0,0l0,0l0,0l0,0l0,0l0,0l0,0l0,0l0,0l0,0l0,0l0,0l0,0l0,0l0,0l0,0l0,0l0,0l0,0l0,0l0,0l0,0h0.07h0.06
				h0.01h0.06h0.01h0.02h0.04h0.03h0.04h0.02h0.04h0.02h0.04h0.03h0.03h0.03h0.04h0.02h0.05h0.02h0.04h0.03h0.04h0.02h0.04h0.02
				h0.04h0.03h0.02c0.04,0,0.07,0.01,0.11,0.01l0,0h0.06l0,0h0.06l0,0h0.06l0,0h0.06l0,0h0.05h0.01h0.04h0.03h0.03h0.04h0.03h0.03
				h0.03h0.03h0.04h0.03h0.04h0.02h0.04h0.02h0.04h0.01l0.05,0.01h0.02h0.03h0.03h0.04h0.01l0.05,0.01l0,0l0.06,0.01h0.01
				c0.04,0,0.08,0.01,0.11,0.01l0,0l0.06,0.01c0.06,0.01,0.11,0.01,0.17,0.02h0.01l0.05,0.01h0.01l0.05,0.01h0.01l0.05,0.01h0.01
				l0.05,0.01l0,0l0.06,0.01l0,0l0.05,0.01h0.01l0.05,0.01h0.01l0.05,0.01l0,0c0.06,0.01,0.12,0.02,0.17,0.03l0,0
				c0.19,0.03,0.39,0.07,0.58,0.1l0,0c0.04,0.01,0.08,0.01,0.11,0.02l0,0V8.8h1.75c0.1,0,0.21,0,0.33,0h0.01c0.1,0,0.21,0,0.32-0.01
				c1.2,0.06,2.16,1.04,2.16,2.24c0,1.05-0.73,1.93-1.72,2.17c-0.01,0-0.03,0-0.04,0.01c-0.05,0.01-0.11,0.02-0.17,0.03l-0.14,0.2
				L24,13.44l0.02,0.01l0.05,0.02l0.02,0.01h0.01l0.02,0.01c0.03,0.01,0.06,0.02,0.09,0.03l0.02,0.01l0.05,0.02l0.02,0.01l0.05,0.02
				l0.02,0.01l0,0l0.02,0.01c0.04,0.01,0.08,0.03,0.12,0.04l0.02,0.01l0.02,0.01l0.02,0.01l0,0l0.02,0.01l0.02,0.01l0,0l0.02,0.01
				l0.02,0.01l0.05,0.02l0.02,0.01l0.05,0.02l0.02,0.01l0,0l0.02,0.01l0.01,0.01h0.01l0.02,0.01l0,0l0.02,0.01h0.01h0.01h0.01
				l0.04,0.01l0,0c0.04,0.02,0.07,0.03,0.11,0.05l0.02,0.01h0.01l0.02,0.01l0.02,0.01h0.01l0.02,0.01h0.01l0.02,0.01l0.02,0.01h0.01
				l0.02,0.01l0,0l0.03,0.01h0.01h0.01l0.02,0.01l0,0l0.03,0.01l0,0h0.01l0.02,0.01l0,0L25.38,14h0.01h0.01l0.01-0.01l0.51,0.26
				l0.02,0.01l0.63,0.32l-0.01,0.02c0.37,0.22,0.72,0.46,1.04,0.7l0.48-0.55c0.88-1,1.42-2.31,1.42-3.74
				C29.5,7.93,27,5.41,23.88,5.34z"/>
			<path class="st0" d="M12.76,16.13c-0.88,0.08-1.78,0.18-2.69,0.31c-0.16,0.03-0.33,0.06-0.49,0.09H9.56
				c-0.54,0.1-1.07,0.22-1.59,0.35c0.02,0.04,0.04,0.08,0.05,0.08c0.89,0.42,1.64,0.75,2.18,1.12c2.23,1.5,1.67,3.09,0.57,3.58
				c-0.02,0.01-0.05,0.01-0.08,0.02c-3.31,0.86-4.71-2.35-4.92-2.89c-0.01-0.02-0.01-0.04-0.01-0.06c0-0.01-0.01-0.01-0.02-0.01h-2
				c-0.01,0-0.02,0.01-0.02,0.02v5.49l0,0v0.22l6.72-0.02c3.32,0,4.92-1.59,5.66-2.82c0.02-0.03,0.03-0.05,0.04-0.08
				c0.03-0.03,0.04-0.06,0.05-0.07c0.01-0.01,0.01-0.02,0.01-0.02c0.07-0.13,0.13-0.26,0.19-0.39c0.01-0.03,0.02-0.05,0.03-0.08
				c0.19-0.44,0.26-0.74,0.26-0.74c0.13-0.49,0.19-0.99,0.19-1.52c0.01-0.91-0.17-1.73-0.53-2.48c0,0-0.03-0.05-0.06-0.11
				c-0.57-0.04-1.15-0.06-1.73-0.06C13.97,16.06,13.37,16.08,12.76,16.13"/>
			<path class="st0" d="M16.88,5.34l-6.72,0.02c-3.32,0-4.92,1.6-5.66,2.82C4.49,8.19,4.48,8.23,4.46,8.24
				C4.44,8.28,4.42,8.31,4.41,8.32C4.4,8.34,4.4,8.34,4.4,8.35C4.33,8.47,4.26,8.6,4.21,8.74C4.2,8.76,4.18,8.78,4.17,8.82
				C3.98,9.24,3.92,9.55,3.92,9.55l0,0c-0.13,0.49-0.19,0.99-0.19,1.52c-0.01,0.91,0.17,1.73,0.53,2.48
				c0.2,0.41,0.48,0.82,0.84,1.21c0.01,0.01,0.01,0.01,0.02,0l0.08,0.07c0.88-0.44,1.85-0.83,2.88-1.17v-0.01l0.63-0.19l0.03-0.01
				l0.58-0.17v0.01c0.95-0.26,1.93-0.47,2.94-0.62c-0.75-0.35-1.38-0.65-1.85-0.96c-2.24-1.5-1.69-3.1-0.58-3.59
				C9.85,8.1,9.88,8.1,9.91,8.1c3.31-0.86,4.71,2.35,4.92,2.89c0,0.02,0.01,0.04,0.01,0.06c0,0.01,0.01,0.01,0.02,0.01h2.01
				c0.01,0,0.02-0.01,0.02-0.02V5.56l0,0L16.88,5.34z"/>
		</g>
		<path class="st1" d="M17.12,12.98c0.15,0,0.3,0,0.45,0.01c1.39,0.05,2.71,0.21,3.93,0.46c0.74,0.15,1.44,0.34,2.1,0.56
			c0.72,0.24,1.39,0.52,2,0.83l-1.8,2.62c-0.69-0.38-1.47-0.72-2.31-1c-1.19-0.4-2.51-0.69-3.93-0.86
			c-0.25-0.03-0.51-0.06-0.76-0.08L17.12,12.98z"/>
		<path class="st1" d="M16.17,15.47v-0.03l0.3-2.47c-0.83,0-1.69,0.05-2.56,0.13c-1.78,0.18-3.47,0.51-5.03,0.98l0.58,1.81
			c0.76-0.14,1.54-0.26,2.34-0.34c0.93-0.09,1.85-0.14,2.75-0.14C15.1,15.43,15.64,15.44,16.17,15.47"/>
	</g>
</g>
</svg>
