<?xml version="1.0" encoding="utf-8"?>
<!-- Generator: Adobe Illustrator 24.2.0, SVG Export Plug-In . SVG Version: 6.00 Build 0)  -->
<svg version="1.1" id="Layer_1" xmlns="http://www.w3.org/2000/svg" xmlns:xlink="http://www.w3.org/1999/xlink" x="0px" y="0px"
	 viewBox="0 0 15.5 15.5" style="enable-background:new 0 0 15.5 15.5;" xml:space="preserve">
<style type="text/css">
	.st0{fill:#898780;}
	.st1{fill:#FFFFFF;}
</style>
<g>
	<path class="st0" d="M7.75,0.25c-4.14,0-7.5,3.36-7.5,7.5c0,3.05,1.82,5.67,4.44,6.84c-0.01-0.21-0.02-0.42-0.01-0.63
		c0.02-0.73,0.11-0.98,1.05-4.93c0.01-0.06,0-0.11-0.02-0.16C5.49,8.25,5.44,7.64,5.64,7.01c0.43-1.35,1.95-1.45,2.22-0.34
		c0.16,0.69-0.27,1.59-0.61,2.92c-0.28,1.1,1.02,1.88,2.12,1.08c1.02-0.74,1.41-2.51,1.34-3.77c-0.15-2.5-2.89-3.05-4.64-2.24
		c-2,0.92-2.45,3.4-1.55,4.53c0.11,0.14,0.2,0.23,0.16,0.38c-0.06,0.23-0.11,0.45-0.17,0.68c-0.05,0.17-0.19,0.23-0.36,0.16
		c-0.33-0.13-0.61-0.35-0.83-0.62C2.57,8.84,2.35,6.96,3.36,5.38c1.12-1.76,3.21-2.47,5.11-2.26c2.28,0.26,3.71,1.81,3.98,3.58
		c0.12,0.8,0.03,2.78-1.09,4.19c-1.3,1.61-3.4,1.72-4.37,0.73c-0.07-0.08-0.13-0.16-0.21-0.25c-0.01,0.04-0.02,0.07-0.03,0.1
		c-0.47,1.83-0.52,2.23-1,3.08c-0.07,0.13-0.16,0.25-0.24,0.38c0.7,0.22,1.45,0.34,2.23,0.34c4.14,0,7.5-3.36,7.5-7.5
		C15.25,3.61,11.89,0.25,7.75,0.25z"/>
	<path class="st1" d="M6.76,11.45c0.01-0.03,0.02-0.06,0.03-0.1c0.07,0.09,0.13,0.18,0.21,0.25c0.97,0.99,3.07,0.88,4.37-0.73
		c1.13-1.4,1.22-3.38,1.09-4.19c-0.27-1.76-1.71-3.32-3.98-3.58c-1.91-0.22-3.99,0.5-5.11,2.26C2.35,6.96,2.57,8.84,3.33,9.79
		c0.22,0.28,0.5,0.49,0.83,0.62c0.17,0.07,0.31,0.01,0.36-0.16c0.06-0.23,0.11-0.45,0.17-0.68C4.73,9.43,4.64,9.34,4.53,9.2
		c-0.9-1.13-0.45-3.61,1.55-4.53c1.74-0.81,4.49-0.27,4.64,2.24c0.08,1.26-0.32,3.03-1.34,3.77c-1.11,0.8-2.4,0.02-2.12-1.08
		c0.33-1.33,0.77-2.23,0.61-2.92c-0.27-1.11-1.8-1.01-2.22,0.34c-0.2,0.62-0.15,1.24,0.07,1.85c0.02,0.05,0.04,0.1,0.02,0.16
		c-0.94,3.95-1.03,4.2-1.05,4.93c-0.01,0.21,0,0.42,0.01,0.63c0.27,0.12,0.55,0.23,0.83,0.32c0.08-0.13,0.16-0.25,0.24-0.38
		C6.24,13.69,6.29,13.28,6.76,11.45z"/>
</g>
</svg>
