<?xml version="1.0" encoding="utf-8"?>
<!-- Generator: Adobe Illustrator 24.2.0, SVG Export Plug-In . SVG Version: 6.00 Build 0)  -->
<svg version="1.1" id="Layer_1" xmlns="http://www.w3.org/2000/svg" xmlns:xlink="http://www.w3.org/1999/xlink" x="0px" y="0px"
	 viewBox="0 0 15.5 15.5" style="enable-background:new 0 0 15.5 15.5;" xml:space="preserve">
<style type="text/css">
	.st0{fill:#898780;}
	.st1{fill-rule:evenodd;clip-rule:evenodd;fill:#FFFFFF;}
</style>
<g>
	<circle class="st0" cx="7.75" cy="7.75" r="7.5"/>
	<g>
		<path class="st1" d="M9.72,6.46c0.61,0.43,1.35,0.69,2.16,0.69V5.6c-0.15,0-0.3-0.02-0.45-0.05v1.22c-0.8,0-1.55-0.26-2.16-0.69
			v3.16c0,1.58-1.28,2.86-2.86,2.86c-0.59,0-1.14-0.18-1.59-0.48c0.52,0.53,1.24,0.86,2.05,0.86c1.58,0,2.86-1.28,2.86-2.86
			L9.72,6.46L9.72,6.46z M10.28,4.9C9.97,4.56,9.76,4.12,9.72,3.64v-0.2H9.29C9.4,4.05,9.77,4.58,10.28,4.9L10.28,4.9z M5.81,10.4
			C5.64,10.18,5.55,9.9,5.55,9.61c0-0.72,0.59-1.31,1.31-1.31c0.13,0,0.27,0.02,0.4,0.06V6.78C7.1,6.76,6.95,6.75,6.8,6.76v1.23
			C6.67,7.95,6.54,7.93,6.4,7.93c-0.72,0-1.31,0.59-1.31,1.31C5.09,9.75,5.39,10.19,5.81,10.4z"/>
		<path class="st1" d="M9.27,6.08c0.61,0.43,1.35,0.69,2.16,0.69V5.55c-0.45-0.1-0.85-0.33-1.15-0.66C9.77,4.58,9.4,4.05,9.29,3.44
			H8.16v6.18c0,0.72-0.59,1.3-1.31,1.3c-0.43,0-0.8-0.2-1.04-0.52c-0.43-0.22-0.72-0.66-0.72-1.17c0-0.72,0.59-1.31,1.31-1.31
			c0.14,0,0.27,0.02,0.4,0.06V6.76C5.25,6.79,4,8.06,4,9.62c0,0.78,0.31,1.48,0.82,2c0.46,0.31,1,0.48,1.59,0.48
			c1.58,0,2.86-1.28,2.86-2.86V6.08z"/>
		<path class="st1" d="M11.42,5.55V5.23c-0.4,0-0.8-0.11-1.15-0.33C10.58,5.23,10.98,5.46,11.42,5.55z M9.29,3.44
			C9.28,3.38,9.27,3.32,9.27,3.26v-0.2H7.71v6.18c0,0.72-0.59,1.3-1.31,1.3c-0.21,0-0.41-0.05-0.59-0.14
			c0.24,0.31,0.62,0.52,1.04,0.52c0.72,0,1.31-0.58,1.31-1.3V3.44H9.29z M6.8,6.76V6.41C6.67,6.39,6.54,6.38,6.41,6.38
			c-1.58,0-2.86,1.28-2.86,2.86c0,0.99,0.5,1.86,1.27,2.38C4.31,11.1,4,10.39,4,9.62C4,8.06,5.25,6.79,6.8,6.76L6.8,6.76z"/>
	</g>
</g>
</svg>
