<?xml version="1.0" encoding="utf-8"?>
<!-- Generator: Adobe Illustrator 24.2.0, SVG Export Plug-In . SVG Version: 6.00 Build 0)  -->
<svg version="1.1" id="Layer_1" xmlns="http://www.w3.org/2000/svg" xmlns:xlink="http://www.w3.org/1999/xlink" x="0px" y="0px"
	 viewBox="0 0 20 20" style="enable-background:new 0 0 20 20;" xml:space="preserve">
<style type="text/css">
	.st0{clip-path:url(#SVGID_2_);}
	.st1{fill:#E30A17;}
	.st2{fill:#FFFFFF;}
	.st3{opacity:0.25;fill:#FFFFFF;enable-background:new    ;}
</style>
<g>
	<g>
		<g>
			<defs>
				<circle id="SVGID_1_" cx="10" cy="10" r="9.5"/>
			</defs>
			<clipPath id="SVGID_2_">
				<use xlink:href="#SVGID_1_"  style="overflow:visible;"/>
			</clipPath>
			<g class="st0">
				<path class="st1" d="M-2.12,0.5h28.5v19h-28.5C-2.12,19.5-2.12,0.5-2.12,0.5z"/>
				<path class="st2" d="M11.11,10l4.3-1.4l-2.66,3.65V7.74l2.66,3.65L11.11,10z M11.4,12.54c-1.4,2.22-4.34,2.88-6.55,1.47
					S1.97,9.68,3.37,7.46s4.34-2.88,6.55-1.47c0.59,0.38,1.1,0.88,1.47,1.47C10,5.9,7.59,5.77,6.03,7.18s-1.69,3.81-0.29,5.37
					s3.81,1.69,5.37,0.29C11.21,12.74,11.31,12.64,11.4,12.54z"/>
			</g>
		</g>
	</g>
	<g id="dome_shading_7_">
		<path id="arc_7_" class="st3" d="M10,0.69c-5.19,0-9.41,4.21-9.41,9.41c0,0.11,0.01,0.22,0.01,0.33C0.73,5.32,4.9,1.26,10,1.25
			c5.06,0,9.22,4.01,9.39,9.08c0-0.08,0.01-0.16,0.01-0.23C19.41,4.9,15.19,0.69,10,0.69L10,0.69z"/>
	</g>
</g>
</svg>
