<?xml version="1.0" encoding="utf-8"?>
<!-- Generator: Adobe Illustrator 24.2.0, SVG Export Plug-In . SVG Version: 6.00 Build 0)  -->
<svg version="1.1" id="Layer_1" xmlns="http://www.w3.org/2000/svg" xmlns:xlink="http://www.w3.org/1999/xlink" x="0px" y="0px"
	 viewBox="0 0 20 20" style="enable-background:new 0 0 20 20;" xml:space="preserve">
<style type="text/css">
	.st0{clip-path:url(#SVGID_2_);}
	.st1{fill:#00732E;}
	.st2{fill:#FF0000;}
	.st3{fill:#FFFFFF;}
	.st4{clip-path:url(#SVGID_4_);}
	.st5{opacity:0.25;fill:#FFFFFF;enable-background:new    ;}
</style>
<g>
	<g id="Dome_6_">
		<g>
			<defs>
				<circle id="SVGID_1_" cx="10" cy="10" r="9.5"/>
			</defs>
			<clipPath id="SVGID_2_">
				<use xlink:href="#SVGID_1_"  style="overflow:visible;"/>
			</clipPath>
			<g id="Flag_6_" class="st0">
				<rect id="green_9:2_3_" x="6.67" y="0.41" class="st1" width="16.26" height="6.4"/>
				<rect id="black_9:2_3_" x="6.67" y="13.2" width="16.26" height="6.4"/>
				<rect id="red_3:6_3_" x="-2.93" y="0.41" class="st2" width="9.59" height="19.19"/>
				<rect id="white_9:2_3_" x="6.67" y="6.8" class="st3" width="16.26" height="6.4"/>
			</g>
		</g>
		<g>
			<defs>
				<circle id="SVGID_3_" cx="10" cy="10" r="9.5"/>
			</defs>
			<clipPath id="SVGID_4_">
				<use xlink:href="#SVGID_3_"  style="overflow:visible;"/>
			</clipPath>
			<g id="dome_shading_9_" class="st4">
				<path id="arc_9_" class="st5" d="M10,0.69c-5.19,0-9.4,4.21-9.4,9.4c0,0.11,0.01,0.22,0.01,0.33C0.73,5.33,4.9,1.26,10,1.25
					c5.06,0,9.22,4.01,9.39,9.08c0-0.08,0.01-0.16,0.01-0.23C19.41,4.9,15.19,0.69,10,0.69L10,0.69z"/>
			</g>
		</g>
	</g>
</g>
</svg>
