<?xml version="1.0" encoding="utf-8"?>
<!-- Generator: Adobe Illustrator 24.2.0, SVG Export Plug-In . SVG Version: 6.00 Build 0)  -->
<svg version="1.1" id="Layer_1" xmlns="http://www.w3.org/2000/svg" xmlns:xlink="http://www.w3.org/1999/xlink" x="0px" y="0px"
	 viewBox="0 0 20 20" style="enable-background:new 0 0 20 20;" xml:space="preserve">
<style type="text/css">
	.st0{clip-path:url(#SVGID_2_);}
	.st1{fill:#00247D;}
	.st2{fill:#FFFFFF;}
	.st3{fill:#CF142B;}
	.st4{clip-path:url(#SVGID_4_);}
	.st5{opacity:0.25;fill:#FFFFFF;enable-background:new    ;}
</style>
<g id="Dome_5_">
	<g>
		<defs>
			<circle id="SVGID_1_" cx="10" cy="10" r="9.5"/>
		</defs>
		<clipPath id="SVGID_2_">
			<use xlink:href="#SVGID_1_"  style="overflow:visible;"/>
		</clipPath>
		<g id="Flag_5_" class="st0">
			<g>
				<polygon class="st1" points="20.06,1.77 12.16,0.36 12.16,6.78 				"/>
				<polygon class="st1" points="7.84,0.36 -0.06,1.77 7.84,6.78 				"/>
				<polygon class="st1" points="12.16,19.3 20.06,18.21 12.16,13.2 				"/>
				<polygon class="st1" points="-0.06,18.21 7.84,19.49 7.84,13.2 				"/>
				<polygon class="st1" points="-2.95,3.61 -2.95,7.25 2.79,7.25 				"/>
				<polygon class="st1" points="-2.95,12.73 -2.95,16.37 2.79,12.73 				"/>
				<polygon class="st1" points="22.95,16.37 22.95,12.73 17.21,12.73 				"/>
				<polygon class="st1" points="17.21,7.25 22.95,7.25 22.95,3.61 				"/>
			</g>
			<polygon class="st2" points="12.9,9.99 22.95,3.61 22.95,1.77 20.06,1.77 10,8.15 -0.06,1.77 -2.95,1.77 -2.95,3.61 7.1,9.99 
				-2.95,16.37 -2.95,18.21 -0.06,18.21 10,11.83 20.06,18.21 22.95,18.21 22.95,16.37 			"/>
			<polygon class="st3" points="22.95,1.77 21.02,1.77 9.03,9.38 -2.95,1.77 -2.95,2.99 9.03,10.6 -2.95,18.21 -1.02,18.21 
				10.97,10.6 22.95,18.21 22.95,16.99 10.97,9.38 			"/>
			<polygon class="st2" points="22.95,7.25 12.16,7.25 12.16,0.36 7.84,0.36 7.84,7.25 -2.95,7.25 -2.95,12.73 7.84,12.73 
				7.84,20.03 12.16,20.03 12.16,12.73 22.95,12.73 			"/>
			<polygon class="st3" points="22.95,8.35 11.3,8.35 11.3,-0.32 8.7,-0.32 8.7,8.35 -2.95,8.35 -2.95,11.64 8.7,11.64 8.7,19.88 
				11.3,19.88 11.3,11.64 22.95,11.64 			"/>
		</g>
	</g>
	<g>
		<defs>
			<circle id="SVGID_3_" cx="10" cy="10" r="9.5"/>
		</defs>
		<clipPath id="SVGID_4_">
			<use xlink:href="#SVGID_3_"  style="overflow:visible;"/>
		</clipPath>
		<g id="dome_shading_8_" class="st4">
			<path id="arc_8_" class="st5" d="M10,0.69c-5.19,0-9.4,4.21-9.4,9.4c0,0.11,0.01,0.22,0.01,0.33C0.73,5.33,4.9,1.26,10,1.25
				c5.06,0,9.22,4.01,9.39,9.08c0-0.08,0.01-0.16,0.01-0.23C19.41,4.9,15.19,0.69,10,0.69L10,0.69z"/>
		</g>
	</g>
</g>
</svg>
