<?xml version="1.0" encoding="utf-8"?>
<!-- Generator: Adobe Illustrator 24.2.0, SVG Export Plug-In . SVG Version: 6.00 Build 0)  -->
<svg version="1.1" id="Layer_1" xmlns="http://www.w3.org/2000/svg" xmlns:xlink="http://www.w3.org/1999/xlink" x="0px" y="0px"
	 viewBox="0 0 15.5 15.5" style="enable-background:new 0 0 15.5 15.5;" xml:space="preserve">
<style type="text/css">
	.st0{fill:#898780;}
	.st1{fill:#FFFFFF;}
	.st2{fill-rule:evenodd;clip-rule:evenodd;fill:#FFFFFF;}
</style>
<g>
	<ellipse transform="matrix(0.1586 -0.9873 0.9873 0.1586 -1.1312 14.1725)" class="st0" cx="7.75" cy="7.75" rx="7.5" ry="7.5"/>
	<path class="st1" d="M3.7,11.99l0.63-2.33C3.97,9.02,3.78,8.31,3.78,7.58c0-2.38,1.93-4.31,4.31-4.31c2.38,0,4.31,1.93,4.31,4.31
		c0,2.38-1.93,4.31-4.31,4.31c-0.71,0-1.42-0.18-2.05-0.52L3.7,11.99z M6.16,10.49l0.15,0.09c0.54,0.32,1.16,0.49,1.78,0.49
		c1.93,0,3.49-1.57,3.49-3.49c0-1.93-1.57-3.49-3.49-3.49c-1.93,0-3.49,1.57-3.49,3.49c0,0.64,0.18,1.26,0.51,1.81L5.2,9.54
		l-0.35,1.3L6.16,10.49z"/>
	<path class="st2" d="M9.69,8.18C9.52,8.07,9.29,7.95,9.08,8.04C8.92,8.11,8.81,8.36,8.71,8.48c-0.05,0.07-0.12,0.08-0.2,0.04
		c-0.6-0.24-1.06-0.64-1.39-1.19C7.06,7.25,7.07,7.18,7.14,7.1c0.1-0.12,0.23-0.25,0.25-0.41C7.42,6.53,7.34,6.34,7.28,6.2
		C7.19,6.02,7.1,5.76,6.92,5.66C6.75,5.57,6.53,5.62,6.38,5.74C6.13,5.95,6,6.28,6.01,6.6c0,0.09,0.01,0.18,0.03,0.27
		c0.05,0.21,0.15,0.41,0.26,0.6c0.08,0.14,0.18,0.28,0.27,0.42C6.9,8.33,7.3,8.71,7.76,8.99C7.99,9.13,8.24,9.26,8.5,9.34
		c0.29,0.1,0.55,0.2,0.86,0.14c0.33-0.06,0.65-0.26,0.78-0.58c0.04-0.09,0.06-0.2,0.04-0.3C10.13,8.4,9.86,8.28,9.69,8.18z"/>
</g>
</svg>
