<?xml version="1.0" encoding="utf-8"?>
<!-- Generator: Adobe Illustrator 24.2.0, SVG Export Plug-In . SVG Version: 6.00 Build 0)  -->
<svg version="1.1" id="Layer_1" xmlns="http://www.w3.org/2000/svg" xmlns:xlink="http://www.w3.org/1999/xlink" x="0px" y="0px"
	 viewBox="0 0 275 145" style="enable-background:new 0 0 275 145;" xml:space="preserve">
<style type="text/css">
	.st0{fill:#F29100;}
	.st1{fill:#F6F7F8;}
	.st2{fill:#F19000;}
	.st3{fill:#FFFFFF;}
	.st4{fill:none;stroke:#FFFFFF;stroke-width:1.2124;stroke-linecap:round;stroke-miterlimit:10;}
</style>
<g>
	<g>
		<rect x="208.05" y="70.74" class="st2" width="65.2" height="2"/>
		<rect x="1.75" y="70.75" class="st2" width="65.2" height="2"/>
	</g>
	<g>
		<g>
			<g>
				<circle class="st2" cx="137.21" cy="72.5" r="61.2"/>
			</g>
			<g>
				<path class="st2" d="M137.21,143.5c-39.1,0-71-31.9-71-71s31.9-71,71-71s71,31.9,71,71S176.41,143.5,137.21,143.5z M137.21,2.7
					c-38.5,0-69.8,31.3-69.8,69.8s31.3,69.8,69.8,69.8s69.8-31.3,69.8-69.8S175.71,2.7,137.21,2.7z"/>
			</g>
		</g>
	</g>
	<g>
		<g>
			<path class="st3" d="M175.81,65.8c-0.2-0.7-0.5-1.3-0.8-1.8c-0.9-1.3-2.2-1.9-3.7-2.2c-0.4-0.1-0.8-0.2-1.1-0.3
				c-0.2,0-0.3-0.2-0.3-0.4c0-0.1,0-0.2,0-0.3c0-1.3,0.1-2.6,0.1-3.9c0.1-2.5,0.1-5,0.1-7.4c0-0.2,0-0.3,0-0.5
				c-0.5-0.1-0.9-0.1-1.3-0.3c-0.4-0.1-0.9-0.2-1.4-0.3h-0.1c-0.5-0.1-0.9-0.3-1.4-0.4c-0.6-0.1-1.2-0.2-1.8-0.3s-0.6-0.2-0.6-0.8
				c0-1,0-2,0-3s-0.3-1.8-0.9-2.5c-0.8-0.9-1.8-1.5-3-1.5c-0.2,0-0.5,0-0.7,0c-0.3,0-0.6,0-0.9,0.2c-0.1,0.1-0.3,0.1-0.5-0.1
				c-0.6-0.5-1.2-0.9-2-1.1c-0.7-0.2-1.4-0.2-2.1,0c-0.3,0.1-0.7,0.2-0.9-0.2c-0.1-0.2-0.3-0.3-0.5-0.4c-0.7-0.5-1.5-0.7-2.3-0.7
				c-0.5,0-1.1,0.2-1.6,0.3c-0.1-0.1-0.2-0.2-0.3-0.3c-0.5-0.5-1.2-0.9-1.9-1c-1-0.2-2-0.1-2.9,0.4c-0.8,0.4-1.4,1-1.8,1.8
				c-0.3,0.7-0.5,1.4-0.5,2.2c0,0.4,0,0.8,0,1.1c0,0.1,0,0.3,0,0.5c-0.2,0-0.3,0-0.4,0c-0.2,0-0.5-0.1-0.7-0.2
				c-0.2,0-0.4-0.1-0.6-0.1c-0.2,0-0.3-0.1-0.5-0.1c-0.5-0.1-1-0.2-1.5-0.3c-0.6-0.1-1.1-0.3-1.7-0.4c-0.5-0.1-1.1-0.2-1.6-0.3h-0.1
				c-0.6-0.1-1.1-0.3-1.7-0.4c-0.5-0.1-1.1-0.2-1.6-0.3h-0.1c-0.5-0.1-1-0.3-1.5-0.4c-0.8-0.1-1.5-0.3-2.2-0.5
				c-0.8-0.2-1.6-0.3-2.4-0.5c-0.5-0.1-1.1-0.2-1.6-0.3h-0.1c-0.6-0.1-1.1-0.3-1.7-0.4c-0.6-0.1-1.1-0.2-1.7-0.3
				c-0.1,0-0.1,0-0.2-0.1c-0.2-0.1-0.4-0.1-0.6-0.2c-0.2,0-0.4-0.1-0.6-0.1c-0.4-0.1-0.7-0.1-1.1,0c-0.2,0-0.4,0.1-0.6,0.2
				c-0.3,0.1-0.7,0.2-1,0.3c-0.5,0.2-0.9,0.4-1.4,0.6c-0.4,0.2-0.8,0.3-1.2,0.6c-0.6,0.3-1.2,0.7-1.8,1.1c-0.7,0.4-1.4,0.9-2.1,1.4
				c-0.4,0.3-0.7,0.6-1.1,0.9c-1.2,0.9-2.2,2.1-3.1,3.3c-0.7,0.9-1.3,1.8-1.8,2.7c-0.5,0.8-0.9,1.7-1.3,2.6
				c-0.2,0.4-0.4,0.9-0.5,1.4c-0.2,0.6-0.4,1.1-0.6,1.7c-0.1,0.3-0.2,0.5-0.2,0.8c-0.1,0.5-0.2,1-0.3,1.5c-0.1,0.6-0.3,1.1-0.4,1.7
				c-0.1,0.5-0.2,1-0.2,1.5c-0.1,1.3-0.2,2.5-0.3,3.8c0,0.1,0,0.3,0,0.4c0.6,0.2,1.1,0.3,1.6,0.5c0,0.3,0,0.5,0,0.6
				c-0.1,1.4,0,2.9,0,4.3c0,0.2,0,0.3,0.1,0.4c0.1,0.6,0.3,1.3,0.4,1.9c0,0.2,0.2,0.5,0.4,0.5c0.6,0.2,1.3,0.3,1.9,0.5
				c0.3,0.1,0.6,0.2,0.9,0.3c0.6,0.2,1.3,0.4,1.9,0.6c0.7,0.2,1.4,0.4,2.1,0.7c0.3,0.1,0.6,0.2,0.9,0.3c0.4,0.1,0.8,0.2,1.2,0.3
				c0.7,0.2,1.4,0.4,2,0.7c0.2,0.1,0.4,0.1,0.6,0.2c0.4,0.1,0.8,0.2,1.2,0.3c0.4,0.1,0.8,0.3,1.2,0.4c0.3,0.1,0.5,0.2,0.5,0.6
				c0,1.4,0,2.9,0,4.3c0,0.3-0.2,0.5-0.5,0.6s-0.7,0.2-1,0.3c-0.6,0.2-1.2,0.4-1.8,0.6c-0.3,0.1-0.6,0.2-0.9,0.3
				c-0.5,0.2-1.1,0.4-1.6,0.6c-0.3,0.1-0.7,0.2-1,0.3c-0.3,0.1-0.5,0.2-0.8,0.3c-0.5,0.2-1.1,0.4-1.6,0.6c-0.6,0.2-1.1,0.3-1.7,0.5
				c-0.4,0.1-0.7,0.3-1.1,0.4c-0.3,0.1-0.4,0.3-0.4,0.6c0,1.4,0,2.8,0,4.3c0,0.3,0.1,0.4,0.3,0.5c0.2,0.1,0.5,0.2,0.8,0.3
				c0.6,0.2,1.1,0.3,1.7,0.5c0.5,0.2,1,0.4,1.5,0.6c0.1,0,0.2,0,0.3,0c0.3-0.1,0.6-0.2,0.9-0.4c0.5-0.2,1.1-0.4,1.6-0.6
				c0.6-0.2,1.2-0.4,1.8-0.6c0.3-0.1,0.6-0.2,0.9-0.3c0.5-0.2,1-0.4,1.6-0.6c0.5-0.2,1-0.3,1.6-0.5c0.8-0.3,1.5-0.6,2.3-0.9
				c0.2-0.1,0.4-0.2,0.6-0.2c0.3-0.1,0.7-0.2,1-0.3c0.5-0.2,1.1-0.4,1.6-0.6s1-0.4,1.5-0.6c0-0.2,0-0.4,0-0.5c0-0.7,0-1.3,0-2
				c0-0.2,0.1-0.3,0.1-0.5c0.5,0.2,0.9,0.3,1.4,0.4c0.3,0.1,0.7,0.2,1,0.3c0.4,0.1,0.8,0.3,1.1,0.4c0.2,0.1,0.4,0.2,0.6,0.2
				c0.4,0.1,0.8,0.2,1.2,0.3c0.7,0.2,1.4,0.5,2.1,0.7c0.3,0.1,0.7,0.2,1,0.3c0.3,0.1,0.7,0.3,1,0.4c0.4,0.1,0.8,0.2,1.1,0.3
				c0.6,0.2,1.2,0.4,1.8,0.6c0.7,0.2,1.5,0.5,2.2,0.7s1.4,0.5,2.2,0.7c0.6,0.2,1.3,0.4,1.9,0.6c0.3,0.1,0.5,0.2,0.8,0.2
				c0.4,0.1,0.7,0.3,1.1,0.4c0.2,0.1,0.5,0.2,0.7,0.2c0.4,0.1,0.7,0.2,1.1,0.3c0.2,0.1,0.5,0.1,0.7,0.2c0.4,0.1,0.8,0.3,1.2,0.4
				c0.3,0.1,0.7,0.2,1,0.3c0.4,0.1,0.8,0.3,1.2,0.4c0.6,0.2,1.2,0.4,1.8,0.6c0.1,0,0.2,0.1,0.3,0.1c0.4,0.1,0.7,0.2,1.1,0.3
				c0.6,0.2,1.2,0.4,1.8,0.6s1.2,0.4,1.8,0.5c0.7,0.2,1.4,0.5,2.1,0.7c0.1,0,0.2,0.1,0.2,0.2s-0.1,0.2-0.2,0.2
				c-0.1,0.1-0.2,0.1-0.3,0.1c-0.5,0.2-1,0.4-1.5,0.6c-0.4,0.2-0.9,0.3-1.3,0.5c-0.5,0.2-1,0.4-1.5,0.7c-0.5,0.2-0.9,0.4-1.4,0.6
				c-0.4,0.2-0.8,0.4-1.2,0.5c-0.5,0.2-0.9,0.4-1.4,0.6c-0.4,0.2-0.9,0.4-1.3,0.6c-0.8,0.3-1.6,0.7-2.4,1c0,0.2,0,0.4,0,0.6
				c0,1.4,0,2.8,0,4.2c0,0.7,0,0.7,0.6,0.9c0.1,0,0.1,0.1,0.2,0.1c0.3,0.1,0.6,0.2,0.9,0.3c0.3,0.1,0.7,0.2,1,0.3
				c0.3,0.1,0.5,0.2,0.8,0.3c0.3,0.1,0.6,0.3,1,0.4c0.1,0,0.3,0,0.4,0c0.4-0.2,0.8-0.4,1.3-0.6c0.4-0.2,0.9-0.4,1.3-0.6
				c0.5-0.2,0.9-0.4,1.4-0.6c0.4-0.2,0.9-0.4,1.3-0.6c0.4-0.2,0.9-0.4,1.3-0.6c0.4-0.2,0.9-0.4,1.3-0.6c0.5-0.2,0.9-0.4,1.4-0.6
				c0.4-0.2,0.8-0.4,1.3-0.6c0.4-0.2,0.9-0.3,1.3-0.5c0.4-0.2,0.8-0.4,1.3-0.6c0.8-0.4,1.6-0.7,2.4-1c0-0.2,0-0.4,0-0.6
				c0-3.4,0-6.9,0-10.3c0-0.9,0-1.8,0-2.7c0-0.2,0-0.3,0.1-0.5c0.5-0.8,0.9-1.6,1.4-2.3c0.6-0.9,1.2-1.9,1.8-2.8
				c0.5-0.7,0.9-1.5,1.3-2.2c0.6-1,1.2-2,1.8-2.9c0.5-0.8,1-1.7,1.6-2.5c0.3-0.4,0.6-0.9,0.8-1.4s0.4-0.9,0.6-1.4
				c0.2-0.6,0.4-1.1,0.4-1.7c0-0.1,0-0.2,0.1-0.4c0-0.3,0.1-0.6,0.1-0.9C176.31,68,176.11,66.9,175.81,65.8z M168.71,63.3
				c0.5-0.2,0.8-0.1,0.9,0.3c-0.3,0-0.5,0.4-0.9,0.3C168.71,63.7,168.71,63.5,168.71,63.3z M168.21,50.7c0,0.2,0,0.4,0,0.5
				c0,2.3,0,4.6-0.1,6.9c-0.2,3.5-0.1,7-0.2,10.5c0,0.3,0,0.7,0,1c0,0.4-0.1,0.5-0.5,0.7c-0.5,0.2-1,0.4-1.5,0.6s-1,0.3-1.6,0.5
				c-0.5,0.2-1,0.4-1.5,0.6c-0.2,0.1-0.5,0.2-0.8,0.3c-0.7,0.3-1.5,0.5-2.2,0.8c-0.5,0.2-1,0.4-1.5,0.6s-1,0.3-1.6,0.5
				c-0.5,0.2-1.1,0.4-1.6,0.6s-1,0.4-1.5,0.6s-1.1,0.4-1.6,0.6c-0.3,0.1-0.7,0.2-1,0.4c-0.3,0.1-0.6,0.2-0.9,0.3
				c-0.1,0-0.2,0.1-0.3,0.1c0-0.2-0.1-0.4,0-0.5c0-0.5,0.1-0.9,0.2-1.4c0-0.2,0-0.4,0-0.6c0.1-0.4,0.1-0.8,0.2-1.3
				c0-0.1,0-0.1,0-0.2c0.1-0.6,0.2-1.2,0.3-1.8c0.1-0.5,0.2-1,0.4-1.4c0.1-0.4,0.2-0.8,0.3-1.2c0.1-0.3,0.2-0.7,0.3-1
				c0.1-0.4,0.3-0.8,0.4-1.1c0.2-0.4,0.3-0.9,0.5-1.3s0.4-0.8,0.6-1.2c0.3-0.5,0.5-1.1,0.8-1.5c0.6-0.9,1.2-1.8,1.8-2.7
				c1-1.4,2.2-2.6,3.5-3.8s2.7-2.1,4.2-3c0.7-0.4,1.5-0.8,2.3-1.2c0.5-0.2,1-0.4,1.5-0.5C167.41,51,167.81,50.9,168.21,50.7z
				 M162.51,98c-0.6-0.2-1.2-0.5-1.8-0.7c-0.1-0.4-0.1-23.1,0-23.6c0.6-0.2,1.2-0.4,1.8-0.7c0,0.2,0.1,0.3,0.1,0.5
				c0,0.1,0,0.2,0,0.3c0,7.8,0,15.6,0,23.4C162.61,97.5,162.71,97.7,162.51,98z M156.91,44.1c0-0.9,0.5-1.6,1.3-2
				c0.6-0.3,1.3-0.3,1.8-0.2c0.6,0.2,1.1,0.6,1.4,1.2c0.2,0.4,0.2,0.8,0.2,1.2c0,0.6,0,1.3,0,1.9l0,0c0,0.7,0,1.3,0,2
				c0,0.9-0.3,1.5-1.1,2c-0.7,0.4-1.3,0.5-2.1,0.2c-0.6-0.2-1-0.6-1.2-1.1c-0.2-0.3-0.3-0.7-0.3-1
				C156.91,47,156.91,45.5,156.91,44.1z M152.11,43c0-1,0.6-1.7,1.5-2.1c0.5-0.2,0.9-0.2,1.4-0.1c0.6,0.1,1,0.5,1.4,0.9
				c0.3,0.4,0.4,0.7,0.1,1.2c-0.2,0.3-0.3,0.7-0.3,1.2c0,0.7,0,1.5,0,2.2l0,0c0,0.7,0,1.5,0,2.2c0,0.2-0.1,0.4-0.3,0.5
				c-0.8,0.6-1.6,0.7-2.5,0.3s-1.3-1.1-1.3-2C152.11,45.8,152.11,44.4,152.11,43z M147.41,41.2c0.2-0.7,0.7-1.2,1.4-1.5
				c0.2-0.1,0.3-0.1,0.5-0.1s0.4-0.1,0.5,0c0.9,0.2,1.6,0.7,2,1.5c0,0.1,0.1,0.3,0,0.4c-0.4,0.6-0.4,1.2-0.4,1.9c0,1.3,0,2.7,0,4
				c0,0.2-0.1,0.4-0.2,0.5c-0.4,0.3-1.1,0.6-1.5,0.6c-0.9,0-2.1-0.8-2.3-1.9c-0.1-0.5-0.1-1-0.1-1.4c0-0.8,0-1.6,0-2.4
				C147.21,42.3,147.31,41.7,147.41,41.2z M142.51,40.7c0.1-0.9,0.5-1.5,1.3-2c0.6-0.3,1.1-0.3,1.7-0.2c0.7,0.2,1.2,0.6,1.5,1.3
				c0.1,0.3,0.1,0.5,0,0.7c-0.3,0.5-0.3,1-0.4,1.5c0,1.3-0.1,2.6,0,3.9c0,0.6-0.2,0.8-0.7,1.1s-1.1,0.3-1.6,0.2
				c-0.6-0.1-1-0.4-1.4-0.9c-0.3-0.5-0.5-1-0.5-1.6s0-1.2,0-1.9l0,0C142.51,42.2,142.41,41.5,142.51,40.7z M103.31,50.9
				c0.3-0.7,0.7-1.3,1.1-1.9c0.1-0.1,0.2-0.3,0.3-0.4c0.1-0.1,0.2-0.1,0.2-0.1c0.4,0,0.7,0.1,1.1,0.1c0.1,0,0.3,0.1,0.4,0.1
				c0.6,0.1,1.2,0.2,1.7,0.4c0.4,0.1,0.8,0.2,1.2,0.3c0.6,0.1,1.2,0.3,1.8,0.5c0.5,0.1,0.9,0.2,1.4,0.3s1,0.3,1.5,0.4
				c0.5,0.1,1,0.2,1.4,0.3c0.2,0,0.3,0.1,0.5,0.1c0.5,0.1,1,0.2,1.4,0.3c0.2,0,0.3,0.1,0.5,0.1c0.1,0,0.1,0.1,0.2,0.1
				c0.4,0.1,0.9,0.2,1.3,0.3c0.6,0.2,1.1,0.2,1.7,0.4c0.3,0.1,0.6,0.1,0.9,0.2c0.5,0.1,1,0.2,1.5,0.3c0.4,0.1,0.9,0.2,1.3,0.3
				c0.2,0,0.3,0.1,0.5,0.1c0.5,0.1,1,0.3,1.5,0.4h0.1c0.5,0.1,1.1,0.2,1.6,0.3c0.4,0.1,0.8,0.2,1.2,0.3c0.2,0,0.3,0.1,0.5,0.1
				s0.4,0.1,0.6,0.2c0.1,0,0.2,0.1,0.3,0.1c0.6,0.1,1.2,0.2,1.8,0.4h0.1c0.6,0.1,1.3,0.3,1.9,0.4c0.4,0.1,0.7,0.1,1.1,0.3
				c0.2,0.1,0.3,0,0.5-0.2c0.6-0.8,1.2-1.5,1.9-2.2c0.5-0.6,1-1.2,1.5-1.7c-0.2-0.2-0.5-0.3-0.8-0.3c-0.6-0.1-1.2-0.2-1.8-0.4h-0.1
				c-0.5-0.1-1-0.2-1.5-0.3s-1-0.3-1.5-0.4c-0.5-0.1-0.9-0.2-1.4-0.3c-0.2,0-0.4-0.1-0.6-0.1c-0.1,0-0.1-0.1-0.2-0.1
				c-0.5-0.1-1-0.2-1.5-0.3s-1-0.3-1.5-0.4c-0.1,0-0.2,0-0.3-0.1c-0.6-0.1-1.2-0.2-1.8-0.4h-0.1c-0.5-0.1-1-0.2-1.5-0.3
				s-1.1-0.3-1.6-0.4c-0.3-0.1-0.6-0.1-0.9-0.2c-0.5-0.1-1.1-0.2-1.6-0.3c-0.4-0.1-0.9-0.2-1.3-0.3c-0.2-0.1-0.5-0.1-0.7-0.2
				c-0.2-0.1-0.4-0.2-0.6-0.2c-0.5-0.1-1-0.2-1.5-0.3s-1.1-0.3-1.6-0.4c-0.3-0.1-0.6-0.1-0.9-0.2c-0.5-0.1-1.1-0.2-1.6-0.3
				s-1-0.3-1.6-0.4h-0.1c-0.5-0.1-1-0.2-1.5-0.3c-0.3-0.1-0.7-0.2-1.1-0.3c0.2-0.2,0.3-0.3,0.4-0.4c0.7-0.5,1.4-1.1,2.1-1.6
				s1.5-0.9,2.3-1.3c0.6-0.3,1.2-0.6,1.8-0.8c0.5-0.2,1-0.3,1.4-0.5c0.2-0.1,0.4,0,0.6,0s0.4,0.1,0.6,0.1c0.2,0.1,0.5,0.1,0.7,0.2
				c0.1,0,0.1,0.1,0.2,0.1c0.5,0.1,1.1,0.2,1.6,0.3c0.6,0.1,1.1,0.3,1.7,0.4c0.5,0.1,1.1,0.2,1.6,0.3c0.2,0,0.4,0.1,0.6,0.1
				c0.1,0,0.1,0.1,0.2,0.1c0.5,0.1,1,0.2,1.6,0.3c0.6,0.1,1.2,0.3,1.7,0.4c0.4,0.1,0.7,0.2,1.1,0.2c0.6,0.1,1.2,0.2,1.7,0.3
				c0.6,0.1,1.1,0.3,1.7,0.4c0.1,0,0.1,0,0.2,0c0.3,0,0.7,0.1,1,0.2c0.5,0.2,1.1,0.2,1.6,0.3c0.1,0,0.3,0.1,0.4,0.1
				c0.1,0,0.2,0.1,0.3,0.1c0.5,0.1,1.1,0.1,1.6,0.3c0.6,0.2,1.2,0.2,1.8,0.4c0.5,0.2,1,0.2,1.5,0.3c0.4,0.1,0.8,0.2,1.1,0.3
				c0.1,0.4,0.2,0.7,0.3,1.1c0.3,0.8,0.9,1.4,1.7,1.7c0.5,0.2,0.9,0.2,1.4,0.2s0.9-0.2,1.3-0.4c0.2-0.1,0.3-0.2,0.5-0.3
				c0.5,0.8,1.2,1.4,2.1,1.7c1,0.3,1.8-0.1,2.7-0.6c0.1,0.1,0.2,0.2,0.3,0.4c0.6,1,1.5,1.4,2.6,1.4c0.6,0,1.1-0.1,1.6-0.5
				c0.1-0.1,0.3-0.1,0.4-0.1c0.4,0.9,1.1,1.4,1.9,1.6c0.8,0.2,1.6,0.1,2.3-0.3c0.6-0.4,1-0.8,1.3-1.4c0.1-0.3,0.3-0.3,0.5-0.2
				c0.1,0,0.1,0,0.2,0.1c0.6,0.1,1.2,0.2,1.8,0.3c0.2,0,0.5,0.1,0.7,0.2c0.5,0.1,0.9,0.2,1.4,0.3c0.1,0,0.1,0.1,0.2,0.1
				c-0.2,0.1-0.4,0.2-0.5,0.3c-1.1,0.4-2.2,0.9-3.2,1.5c-1.1,0.6-2.1,1.3-3,2c-1.2,0.9-2.3,1.9-3.3,3c-0.6,0.7-1.2,1.4-1.8,2.1
				c-0.9,1.1-1.6,2.3-2.3,3.6c-0.1,0.2-0.2,0.5-0.3,0.7c-0.2,0.4-0.3,0.5-0.7,0.4c-0.6-0.1-1.2-0.2-1.7-0.4
				c-0.3-0.1-0.6-0.1-0.8-0.2c-0.5-0.1-1-0.2-1.4-0.3s-0.8-0.2-1.3-0.3c-0.2-0.1-0.4-0.1-0.6-0.2c-0.4-0.1-0.8-0.2-1.3-0.3
				s-1.1-0.3-1.6-0.4c-0.4,0-0.7-0.2-1-0.3c-0.4-0.1-0.9-0.3-1.3-0.4c-0.3-0.1-0.6-0.2-0.9-0.2c-0.5-0.1-1-0.2-1.5-0.3
				c-0.4-0.1-0.7-0.2-1.1-0.3c-0.6-0.1-1.1-0.3-1.7-0.4c-0.4-0.1-0.8-0.2-1.3-0.4c-0.1,0-0.1-0.1-0.2-0.1c-0.5-0.1-0.9-0.2-1.4-0.3
				c-0.4-0.1-0.9-0.3-1.3-0.4h-0.1c-0.6-0.1-1.3-0.3-1.9-0.5c-0.8-0.2-1.6-0.3-2.4-0.5c-0.5-0.1-0.9-0.3-1.4-0.4
				c-0.5-0.1-0.9-0.2-1.4-0.3c-0.4-0.1-0.8-0.2-1.2-0.3c-0.6-0.1-1.1-0.4-1.7-0.4c-0.3,0-0.6-0.2-1-0.2c-0.4-0.1-0.9-0.3-1.3-0.4
				c-0.3-0.1-0.6-0.2-1-0.2c-0.5-0.1-0.9-0.2-1.4-0.3c-0.4-0.1-0.8-0.2-1.2-0.3c-0.2,0-0.4-0.1-0.6-0.1c-0.2-0.1-0.4-0.1-0.6-0.2
				c-0.4-0.1-0.8-0.2-1.2-0.3c-0.5-0.1-1.1-0.3-1.6-0.4c-0.4-0.1-0.9-0.2-1.3-0.3c-0.2,0-0.3-0.1-0.5-0.1c-0.1,0-0.2-0.1-0.3-0.1
				c-0.6-0.2-1.2-0.3-1.7-0.4c-0.5-0.1-0.9-0.2-1.4-0.3s-0.9-0.3-1.4-0.4c-0.1,0-0.2,0-0.3-0.1c-0.5-0.1-0.9-0.2-1.3-0.3
				C102.91,51.4,103.21,51.1,103.31,50.9z M102.81,52.1c0.5,0.1,0.9,0.3,1.4,0.4c0.9,0.2,1.8,0.4,2.7,0.7c0.5,0.1,1,0.2,1.4,0.3
				c0.4,0.1,0.9,0.3,1.3,0.4h0.1c0.5,0.1,0.9,0.2,1.4,0.3s0.9,0.3,1.4,0.4c0.3,0.1,0.6,0.1,0.9,0.2c0.5,0.1,1,0.2,1.4,0.3
				c0.4,0.1,0.9,0.2,1.3,0.3c0.1,0,0.3,0.1,0.4,0.1c0.2,0.1,0.4,0.1,0.6,0.2c0.1,0,0.1,0,0.2,0.1c0.4,0.1,0.9,0.2,1.3,0.3
				c0.5,0.1,1,0.3,1.5,0.4c0.4,0.1,0.8,0.2,1.2,0.3c0.2,0,0.4,0.1,0.6,0.2c0,0,0.1,0,0.1,0.1c0.4,0.1,0.9,0.2,1.3,0.3
				c0.5,0.1,1,0.3,1.6,0.4c0.3,0.1,0.6,0.1,0.8,0.2c0.5,0.1,1,0.2,1.4,0.3c0.5,0.1,0.9,0.2,1.3,0.3c0.1,0,0.3,0.1,0.4,0.1
				c0.5,0.1,0.9,0.2,1.4,0.3c0.2,0,0.4,0.1,0.6,0.2c0.5,0.1,1,0.3,1.5,0.4c0.3,0.1,0.6,0.2,0.9,0.2c0.5,0.1,1,0.2,1.4,0.3
				s0.9,0.2,1.3,0.4h0.1c0.5,0.1,1,0.2,1.4,0.3s0.9,0.3,1.3,0.4c0.1,0,0.1,0,0.2,0c0.6,0.1,1.1,0.2,1.7,0.4c0.1,0,0.2,0,0.3,0
				c0.2,0.1,0.5,0.1,0.7,0.2c0.3,0.1,0.6,0.2,0.9,0.2c0.5,0.1,1,0.2,1.4,0.3s0.8,0.2,1.3,0.3c0.2,0,0.3,0.1,0.5,0.1
				c0.2,0.1,0.4,0.1,0.6,0.2c0.1,0,0.1,0.1,0.2,0.1c0.6,0.1,1.2,0.2,1.7,0.4c0.4,0.1,0.9,0.2,1.3,0.3c0.7,0.2,1.4,0.3,2.1,0.5
				c-0.2,0.4-0.3,0.9-0.5,1.3c-0.2,0-0.3,0-0.5,0c-0.3,0-0.5-0.1-0.8-0.2c-0.4-0.1-0.9-0.3-1.3-0.4c-0.2,0-0.4-0.1-0.5-0.1
				c-0.5-0.1-0.9-0.3-1.4-0.4c-0.4-0.1-0.8-0.2-1.3-0.3c-0.2,0-0.3-0.1-0.5-0.1c-0.1,0-0.1-0.1-0.2-0.1c-0.5-0.1-0.9-0.2-1.4-0.3
				s-0.9-0.3-1.4-0.4c-0.4-0.1-0.9-0.2-1.3-0.3c-0.2-0.1-0.4-0.2-0.6-0.2c-0.3-0.1-0.6-0.1-0.9-0.2c-0.5-0.1-0.9-0.2-1.4-0.3
				c-0.4-0.1-0.7-0.2-1.1-0.3c-0.6-0.2-1.1-0.4-1.7-0.4c-0.4-0.1-0.8-0.2-1.2-0.4h-0.1c-0.5-0.1-0.9-0.2-1.4-0.3s-0.9-0.3-1.4-0.4
				h-0.1c-0.5-0.1-1-0.2-1.4-0.3s-0.9-0.3-1.3-0.4c-0.4-0.1-0.8-0.2-1.2-0.3c-0.5-0.1-1-0.3-1.6-0.4c-0.4-0.1-0.8-0.2-1.3-0.3
				c-0.2,0-0.3-0.1-0.5-0.1c-0.1,0-0.1-0.1-0.2-0.1c-0.4-0.1-0.9-0.2-1.3-0.3c-0.5-0.1-0.9-0.3-1.4-0.4c-0.4-0.1-0.9-0.2-1.3-0.3
				c-0.1,0-0.3-0.1-0.4-0.1c-0.1,0-0.1-0.1-0.2-0.1c-0.4-0.1-0.9-0.2-1.3-0.3c-0.5-0.1-0.9-0.3-1.4-0.4c-0.3-0.1-0.5-0.1-0.8-0.2
				c-0.5-0.1-1-0.2-1.4-0.3c-0.4-0.1-0.9-0.2-1.3-0.3c-0.1,0-0.3-0.1-0.4-0.1c-0.2-0.1-0.4-0.1-0.6-0.2c-0.1,0-0.1,0-0.2-0.1
				c-0.4-0.1-0.9-0.2-1.3-0.3c-0.5-0.1-0.9-0.3-1.4-0.4c-0.4-0.1-0.9-0.2-1.3-0.3c-0.1,0-0.3-0.1-0.4-0.1c-0.1,0-0.2-0.1-0.3-0.1
				c-0.6-0.1-1.2-0.3-1.7-0.4c-0.4-0.1-0.8-0.2-1.2-0.3s-0.8-0.2-1.3-0.3C102.21,52.9,102.51,52.5,102.81,52.1z M102.11,53.8
				c0.1,0,0.1,0,0.2,0c0.5,0.1,1,0.2,1.5,0.4c0.3,0.1,0.6,0.2,1,0.3c0.4,0.1,0.8,0.2,1.1,0.3c0.5,0.2,1.1,0.3,1.6,0.4h0.1
				c0.5,0.1,1,0.2,1.4,0.3c0.4,0.1,0.9,0.3,1.3,0.4c0.3,0.1,0.7,0.2,1,0.2c0.6,0.2,1.2,0.3,1.8,0.5c0.4,0.1,0.8,0.2,1.3,0.3
				c0.1,0,0.3,0.1,0.4,0.1c0.1,0,0.1,0.1,0.2,0.1c0.5,0.1,0.9,0.2,1.4,0.3c0.4,0.1,0.9,0.3,1.3,0.4c0.3,0.1,0.6,0.1,0.9,0.2
				c0.5,0.1,1,0.2,1.4,0.3c0.4,0.1,0.8,0.2,1.3,0.3c0.1,0,0.3,0.1,0.4,0.1c0.2,0.1,0.4,0.1,0.6,0.2c0.3,0.1,0.6,0.1,0.8,0.2
				c0.5,0.1,1,0.2,1.5,0.4c0.4,0.1,0.9,0.2,1.3,0.4c0.1,0,0.1,0.1,0.2,0.1c0.5,0.1,1,0.2,1.4,0.3c0.4,0.1,0.8,0.2,1.2,0.4h0.1
				c0.5,0,0.9,0.2,1.4,0.3s0.9,0.3,1.4,0.4h0.1c0.5,0.1,0.9,0.2,1.4,0.3s0.9,0.3,1.4,0.4c0.4,0.1,0.8,0.2,1.3,0.3
				c0.1,0,0.3,0.1,0.4,0.1c0.1,0,0.1,0.1,0.2,0.1c0.4,0.1,0.9,0.2,1.3,0.3c0.5,0.1,1,0.3,1.5,0.4c0.3,0.1,0.7,0.2,1,0.3
				c0.8,0.2,1.5,0.4,2.3,0.6c0.6,0.1,1.2,0.3,1.8,0.5c0.4,0.1,0.9,0.3,1.3,0.4h0.1c0.6,0.1,1.2,0.3,1.8,0.4c0.5,0.1,1,0.2,1.4,0.3
				c0.4,0.1,0.9,0.3,1.3,0.4c0.2,0,0.4,0,0.5,0.1c0.3,0,0.3,0.2,0.2,0.4c-0.1,0.4-0.3,0.8-0.4,1.1c-0.1,0.2-0.2,0.5-0.2,0.7
				c-0.1,0.4-0.3,0.9-0.4,1.3c0,0.2-0.1,0.4-0.1,0.5c0,0.3-0.2,0.4-0.4,0.3c-0.1,0-0.2,0-0.2,0c-0.5-0.1-0.9-0.3-1.4-0.4
				c-0.3-0.1-0.6-0.2-0.9-0.3c-0.5-0.1-0.9-0.2-1.4-0.3c-0.3-0.1-0.6-0.2-0.9-0.2c-0.7-0.2-1.5-0.4-2.2-0.6
				c-0.4-0.1-0.9-0.2-1.4-0.3c-0.3-0.1-0.6-0.2-0.9-0.2c-0.4-0.1-0.9-0.3-1.3-0.4c-0.3-0.1-0.5-0.2-0.8-0.2
				c-0.5-0.1-0.9-0.2-1.4-0.3c-0.3-0.1-0.6-0.2-0.9-0.2c-0.4-0.1-0.9-0.3-1.3-0.4c-0.3-0.1-0.5-0.1-0.8-0.2
				c-0.4-0.1-0.9-0.2-1.4-0.3c-0.4-0.1-0.7-0.2-1.1-0.3c-0.5-0.1-1.1-0.3-1.6-0.4c-0.4-0.1-0.8-0.3-1.2-0.4h-0.1
				c-0.5-0.1-0.9-0.2-1.4-0.3c-0.4-0.1-0.8-0.3-1.2-0.4s-0.7-0.2-1.1-0.3c-0.8-0.2-1.6-0.5-2.4-0.7c-0.5-0.1-0.9-0.2-1.4-0.3
				c-0.3-0.1-0.6-0.2-0.9-0.2c-0.4-0.1-0.9-0.3-1.3-0.4c-0.4-0.1-0.8-0.2-1.2-0.3s-0.9-0.3-1.3-0.4c-0.4-0.1-0.9-0.2-1.3-0.3
				c-0.4-0.1-0.8-0.2-1.2-0.3c-0.5-0.1-1-0.4-1.6-0.4c-0.4,0-0.8-0.2-1.1-0.3c-0.5-0.1-1-0.3-1.5-0.4c-0.4-0.1-0.8-0.3-1.2-0.4h-0.1
				c-0.7-0.2-1.5-0.3-2.2-0.5s-1.4-0.4-2.1-0.6h-0.1c-0.6,0-1.1-0.3-1.7-0.4c-0.4-0.1-0.8-0.1-1.1-0.4
				C101.21,56.1,101.71,54.9,102.11,53.8z M149.01,72.9c-0.3-0.1-0.5-0.2-0.8-0.2c-0.2-0.1-0.5-0.2-0.8-0.3c0.2-0.5,0.4-1,0.5-1.6
				c0.6,0.2,1.1,0.3,1.6,0.5c0.2,0.1,0.2,0.2,0.2,0.4c-0.1,0.3-0.1,0.6-0.2,0.9C149.51,72.9,149.31,73.1,149.01,72.9z M149.31,73.7
				c-0.1,1.1-0.2,2.1-0.3,3.2c-0.2,0-0.3,0-0.5,0c-0.4-0.1-0.8-0.3-1.1-0.4c-0.1,0-0.2,0-0.3-0.1c-0.3-0.1-0.4-0.2-0.4-0.5
				c0.1-0.8,0.2-1.5,0.5-2.3c0.1-0.2,0.1-0.3,0.1-0.5C148.01,73.3,148.61,73.5,149.31,73.7z M100.91,58.2c0.3,0,0.5,0,0.8,0.1
				c0.1,0.1,0.3,0.1,0.5,0.1c0.3,0.1,0.4,0.2,0.3,0.5c-0.1,0.2-0.1,0.4-0.2,0.5c-0.1,0.3-0.1,0.4-0.4,0.3c-0.4-0.1-0.7-0.2-1.1-0.3
				c-0.1,0-0.2-0.2-0.2-0.3C100.71,59,100.71,58.6,100.91,58.2z M100.31,62.9c-0.1,0-0.1-0.2-0.1-0.4c0-0.6,0.1-1.2,0.2-1.8
				c0-0.3,0.1-0.4,0.4-0.4c0.3,0.1,0.7,0.2,1,0.3c0,0.3-0.1,0.6-0.1,0.9c0,0.3-0.1,0.6-0.2,0.8c-0.1,0.3-0.1,0.5-0.2,0.8
				C100.91,63.3,100.61,63,100.31,62.9z M115.01,75.1c-0.3-0.1-0.6-0.2-0.9-0.3c-0.5-0.1-0.9-0.3-1.4-0.4c-0.3-0.1-0.7-0.2-1-0.3
				c-0.4-0.1-0.8-0.3-1.2-0.4c-0.4-0.1-0.7-0.2-1.1-0.3c-0.4-0.1-0.7-0.2-1.1-0.3c-0.4-0.1-0.9-0.3-1.3-0.4c-0.3-0.1-0.7-0.2-1-0.3
				c-0.4-0.1-0.9-0.3-1.3-0.4c-0.3-0.1-0.7-0.2-1-0.4c-0.1,0-0.1-0.1-0.2-0.1c-0.4-0.1-0.8-0.2-1.1-0.3c-0.3-0.1-0.4-0.4-0.4-0.6
				c-0.3-1.7-0.4-3.4-0.3-5.1c0.1-0.7,0.1-1.4,0.3-2.1c0.1-0.6,0.3-1.1,0.4-1.7c0.1-0.4,0.2-0.9,0.3-1.3c0.1-0.5,0.3-0.9,0.5-1.4
				c0.1-0.2,0.2-0.3,0.4-0.2c0.2,0,0.3,0.1,0.5,0.1l0,0l1.7,0.5c0.1,0,0.2,0,0.4,0.1c0.1,0,0.3,0.1,0.4,0.1l1,0.3
				c0.1,0,0.3,0,0.5,0.1c0,0,0.1,0,0.1,0.1l1.2,0.3c0.1,0,0.2,0,0.4,0.1l0.6,0.2c0.1,0,0.1,0,0.2,0l0,0l0.8,0.2c0.1,0,0.2,0,0.2,0.1
				l0.5,0.1c0.1,0,0.1,0,0.2,0h0.1l0.8,0.2c0.1,0,0.1,0,0.3,0.1l0.5,0.1h0.1c0.1,0,0.1,0,0.2,0.1l0.8,0.2c0.1,0,0.2,0,0.3,0.1
				l0.5,0.1l0,0c0.1,0,0.2,0,0.2,0.1l1.2,0.3c0.1,0,0.2,0,0.3,0.1l1.7,0.4c0.1,0,0.3,0.1,0.4,0.1l6.8,1.8h0.1c0.1,0,0.3,0.1,0.4,0.1
				l1.3,0.3c0.1,0,0.1,0,0.2,0c0.1,0,0.2,0.1,0.3,0.1l2.3,0.6l0,0l0,0l2.6,0.7l0,0l0,0l1.8,0.5l0,0c0,0,0,0,0.1,0l12.4,3.3l-0.1,0.1
				c0,0.1,0,0.2,0,0.3c-0.1,0.4-0.3,0.8-0.4,1.2c-0.1,0.5-0.3,0.9-0.4,1.4v0.1c-0.1,0.5-0.1,1.1-0.3,1.6c-0.2,0.8-0.1,1.6-0.4,2.4
				c-0.1,0.3-0.1,0.6-0.1,0.9c0,1.2,0,2.3,0,3.5c0,0.6,0.1,1.3,0.2,1.9c0,0.4,0,0.4-0.4,0.3c-0.5-0.1-0.9-0.3-1.4-0.4
				c-0.3-0.1-0.7-0.2-1-0.3c-0.7-0.2-1.4-0.4-2.1-0.7c-0.4-0.1-0.8-0.2-1.2-0.3c-0.3-0.1-0.5-0.1-0.8-0.2c-0.6-0.2-1.3-0.4-1.9-0.6
				c-0.4-0.1-0.8-0.2-1.2-0.3c-0.2-0.1-0.5-0.1-0.7-0.2c-0.6-0.2-1.3-0.4-1.9-0.6c-0.4-0.1-0.8-0.2-1.3-0.3
				c-0.2-0.1-0.5-0.2-0.7-0.2c-0.4-0.1-0.8-0.3-1.2-0.4c-0.3-0.1-0.6-0.2-0.9-0.3c-0.4-0.1-0.8-0.2-1.2-0.3
				c-0.3-0.1-0.6-0.2-0.9-0.3c-0.5-0.1-0.9-0.3-1.4-0.4c-0.3-0.1-0.7-0.2-1-0.4c-0.1,0-0.1,0-0.2-0.1c-0.5-0.1-1-0.3-1.5-0.4
				c-0.4-0.1-0.8-0.2-1.2-0.3c-0.4-0.1-0.7-0.2-1.1-0.4c-0.3-0.1-0.6-0.2-0.9-0.3c-0.4-0.1-0.7-0.2-1.1-0.3
				c-0.3-0.1-0.6-0.2-0.9-0.3c-0.5-0.2-1-0.3-1.5-0.5C116.21,75.6,115.61,75.3,115.01,75.1z M120.51,78.9c-0.4,0.3-0.7,0.5-1.1,0.8
				c-0.1-0.4-0.1-2.2,0-2.6c0.2,0,0.4,0.1,0.6,0.1c0.1,0,0.2,0.1,0.2,0.2c0.1,0.4,0.2,0.9,0.2,1.3
				C120.51,78.8,120.51,78.9,120.51,78.9z M119.01,77.4c0,2,0,4,0,6c0,0.4-0.1,0.5-0.5,0.4c-0.4-0.1-0.7-0.3-1.1-0.4
				c-0.2-0.1-0.3-0.2-0.3-0.4c0-0.1,0-0.2,0-0.3c0-1.9,0-3.8,0-5.7c0-0.2,0-0.4,0-0.6c0.2,0,0.4,0,0.5,0.1c0.3,0.1,0.6,0.2,0.9,0.2
				C118.91,76.8,119.01,77.1,119.01,77.4z M107.01,90.9c0,0.1,0,0.1-0.1,0.2c-0.3-0.1-0.5-0.1-0.8-0.2c-0.4-0.1-0.8-0.3-1.2-0.5
				c-0.2-0.1-0.3-0.2-0.3-0.5c0-0.6,0-1.2,0-1.8c0.3-0.3,0.5-0.1,0.8,0c0.4,0.1,0.8,0.3,1.2,0.4c0.2,0.1,0.4,0.2,0.4,0.4
				C107.01,89.6,107.01,90.3,107.01,90.9z M106.71,88.3c-0.4-0.1-0.9-0.3-1.4-0.5c0.3-0.1,0.4-0.2,0.6-0.3c0.4-0.1,0.7-0.2,1.1-0.3
				c0.2-0.1,0.4-0.1,0.5-0.2c0.6-0.2,1.1-0.4,1.7-0.6c0.4-0.1,0.7-0.2,1.1-0.4c0.3-0.1,0.6-0.2,0.8-0.3c0.4-0.1,0.8-0.3,1.2-0.4
				c0.2-0.1,0.5-0.2,0.7-0.2c0.5-0.2,1-0.4,1.6-0.6c0.5-0.2,1-0.3,1.6-0.5c0.1,0,0.3-0.1,0.4-0.2c0.1,0,0.3-0.1,0.4,0
				c0.4,0.2,0.8,0.3,1.2,0.4c0.1,0,0.1,0.1,0.2,0.1c-0.2,0.1-0.3,0.2-0.4,0.3c-0.2,0.1-0.4,0.2-0.6,0.2c-0.6,0.2-1.1,0.3-1.7,0.5
				c-0.5,0.2-1.1,0.4-1.6,0.6c-0.3,0.1-0.6,0.2-0.9,0.3c-0.4,0.1-0.8,0.3-1.2,0.4c-0.3,0.1-0.5,0.2-0.8,0.3
				c-0.7,0.3-1.5,0.5-2.2,0.8c-0.5,0.2-1.1,0.5-1.6,0.6C107.41,88.4,107.01,88.4,106.71,88.3z M120.51,86.4
				c-0.6,0.2-1.1,0.4-1.7,0.6c-0.3,0.1-0.6,0.2-0.9,0.3c-0.4,0.1-0.7,0.3-1.1,0.4c-0.5,0.2-1.1,0.4-1.6,0.5
				c-0.3,0.1-0.6,0.2-0.9,0.3c-0.4,0.1-0.8,0.3-1.2,0.4c-0.2,0.1-0.3,0.2-0.5,0.2c-0.8,0.3-1.6,0.6-2.3,0.9c-0.5,0.2-1,0.4-1.6,0.5
				c-0.3,0.1-0.7,0.2-1,0.4c-0.3,0.1-0.5,0.1-0.5-0.3c0-0.6,0-1.1,0-1.7c0-0.3,0.2-0.4,0.4-0.5c0.6-0.2,1.1-0.4,1.7-0.6
				c0.3-0.1,0.6-0.2,0.8-0.3c0.5-0.2,1.1-0.3,1.6-0.5s1.1-0.4,1.6-0.6s1.1-0.4,1.7-0.5c0.2-0.1,0.4-0.2,0.7-0.3
				c0.7-0.3,1.5-0.6,2.2-0.9c0.4-0.1,0.8-0.2,1.2-0.4c0.1-0.8,0-1.6,0.1-2.5c0.5,0.5,1.1,0.5,1.6,0.8c0,0.1,0,0.3,0,0.4
				c0,0.9,0,1.8,0,2.6C121.01,86.2,120.91,86.3,120.51,86.4z M157.61,93.7c-0.1,0-0.2,0-0.3,0c-0.7-0.2-1.4-0.5-2.1-0.7
				c-0.8-0.2-1.5-0.5-2.3-0.7c-0.7-0.2-1.4-0.4-2.1-0.7c-0.6-0.2-1.2-0.4-1.8-0.6c-0.4-0.1-0.7-0.2-1.1-0.3
				c-0.4-0.1-0.7-0.3-1.1-0.4c-0.3-0.1-0.6-0.2-0.9-0.3c-0.6-0.2-1.2-0.4-1.8-0.6c-0.3-0.1-0.6-0.3-1-0.4c-0.3-0.1-0.7-0.2-1-0.3
				c-0.4-0.1-0.9-0.3-1.3-0.4c-0.3-0.1-0.5-0.2-0.8-0.2c-0.7-0.2-1.4-0.5-2.2-0.7c-0.6-0.2-1.2-0.4-1.8-0.5
				c-0.6-0.2-1.2-0.4-1.8-0.6c-0.4-0.1-0.8-0.2-1.2-0.3c-0.2-0.1-0.5-0.2-0.7-0.2c-0.6-0.2-1.2-0.4-1.8-0.6
				c-0.4-0.1-0.8-0.2-1.2-0.3c-0.2-0.1-0.5-0.2-0.7-0.2c-0.4-0.1-0.7-0.3-1.1-0.4c-0.3-0.1-0.5-0.2-0.8-0.2
				c-0.4-0.1-0.7-0.2-1.1-0.3c-0.2-0.1-0.5-0.2-0.7-0.2c-0.4-0.1-0.7-0.3-1.1-0.4c-0.2-0.1-0.5-0.2-0.7-0.2
				c-0.4-0.1-0.7-0.2-1.1-0.3c-0.4-0.1-0.6-0.3-0.6-0.7c-0.1-0.9-0.3-1.7-0.4-2.6c-0.1-0.4-0.1-0.8-0.2-1.3c0-0.2,0.1-0.3,0.3-0.3
				c0.4,0.1,0.9,0.2,1.3,0.4c0.4,0.1,0.8,0.3,1.2,0.4c0.5,0.1,0.9,0.3,1.4,0.4c0.3,0.1,0.6,0.2,0.9,0.3c0.5,0.1,0.9,0.3,1.4,0.4
				c0.3,0.1,0.7,0.2,1,0.3c0.4,0.1,0.7,0.2,1.1,0.3c0.5,0.2,0.9,0.3,1.4,0.4c0.3,0.1,0.7,0.2,1,0.3c0.4,0.1,0.8,0.2,1.2,0.4
				c0.3,0.1,0.7,0.2,1,0.3c0.7,0.2,1.4,0.4,2.1,0.7c0.6,0.2,1.3,0.4,1.9,0.6c0.4,0.1,0.8,0.2,1.2,0.3c0.1,0,0.3,0.1,0.4,0.2
				c0.6,0.2,1.2,0.4,1.8,0.6c0.4,0.1,0.8,0.3,1.2,0.4c0.3,0.1,0.5,0.2,0.8,0.2c0.4,0.1,0.8,0.2,1.2,0.3c0.3,0.1,0.7,0.2,1,0.3
				c0.3,0.1,0.6,0.2,1,0.3c0,0,0.1,0,0.2,0c-0.1-0.9-0.4-1.8-0.4-2.8c-0.3-1.3-0.2-2.6-0.1-3.9c0-0.5,0.1-1,0.2-1.5
				c0.3-0.1,0.5,0,0.8,0.1c0.5,0.1,0.9,0.3,1.4,0.4c0.1,0,0.2,0.1,0.3,0.1c0.2,0,0.4,0.1,0.6,0c0.7-0.3,1.4-0.6,2.1-0.8
				c0.5-0.2,1-0.3,1.6-0.5c0.5-0.2,1-0.4,1.5-0.6c0.1,0,0.2,0,0.3-0.1c0,0.1,0.1,0.1,0.1,0.1c0.1,0.6,0.2,1.3,0.3,1.9
				c0.1,0.9,0.3,1.8,0.4,2.8c0,0.1,0,0.2,0,0.4c0,0.5,0,0.9,0.2,1.4v0.1c0.1,0.8,0.2,1.6,0.3,2.3c0.1,0.8,0.3,1.7,0.4,2.5v0.1
				c0.1,0.8,0.2,1.7,0.3,2.5c0.1,0.7,0.2,1.4,0.3,2.1c0,0.4,0.1,0.8,0.2,1.2C157.61,93.5,157.61,93.6,157.61,93.7z M158.31,90.7
				c-0.3-0.1-0.5-0.3-0.6-0.6c0-0.1,0-0.1,0-0.2c-0.1-0.8-0.2-1.6-0.3-2.3c0-0.3-0.1-0.6-0.2-0.9c0-0.1,0-0.1-0.1-0.2
				c-0.1-0.7-0.2-1.5-0.3-2.2c-0.1-0.9-0.3-1.8-0.4-2.8v-0.1c-0.1-0.8-0.2-1.6-0.3-2.4c0-0.2-0.1-0.5-0.1-0.7
				c-0.1-0.9-0.2-1.8-0.4-2.7c0.6-0.2,1-0.4,1.5-0.5c0.2-0.1,0.4-0.2,0.7-0.3c0.5-0.2,1-0.4,1.5-0.6c0.2-0.1,0.3,0,0.6,0
				c0,0.2,0,0.4,0,0.6c0,5.3,0,10.6,0,15.9c0,0.1,0,0.2,0,0.3c0,0.2-0.1,0.3-0.3,0.2C159.21,90.9,158.71,90.8,158.31,90.7z
				 M148.51,102.6c0.7-0.3,1.3-0.5,2-0.8c0.4-0.2,0.9-0.4,1.3-0.6c0.4-0.2,0.9-0.4,1.3-0.6c0.5-0.2,0.9-0.4,1.4-0.6s0.9-0.4,1.4-0.6
				s1-0.4,1.4-0.6s0.8-0.4,1.3-0.5c0.5-0.2,1-0.4,1.5-0.6c0.2-0.1,0.4-0.1,0.7-0.1c0.3,0.1,0.5,0.2,0.7,0.3c0.1,0,0.2,0.1,0.3,0.1
				c0.2,0,0.4,0.1,0.3,0.4c-0.6,0.3-1.2,0.5-1.9,0.8c-0.4,0.2-0.8,0.4-1.3,0.6c-0.4,0.2-0.8,0.3-1.3,0.5c-0.4,0.2-0.8,0.4-1.3,0.6
				c-0.4,0.2-0.9,0.4-1.3,0.6c-0.4,0.2-0.9,0.4-1.3,0.6c-0.3,0.1-0.6,0.3-0.8,0.4c-0.6,0.3-1.3,0.6-1.9,0.9c-0.3,0.2-0.7,0.1-1.1,0
				c-0.4-0.1-0.8-0.3-1.2-0.4c-0.2-0.1-0.3-0.2-0.4-0.3C148.51,102.7,148.51,102.7,148.51,102.6z M164.51,100.4
				c0,0.1-0.1,0.2-0.2,0.3c-0.8,0.3-1.5,0.7-2.3,1c-0.5,0.2-1.1,0.5-1.6,0.7c-0.8,0.4-1.5,0.7-2.3,1.1c-0.6,0.3-1.3,0.5-1.9,0.8
				c-0.4,0.2-0.8,0.4-1.2,0.6s-0.9,0.4-1.4,0.6c-0.4,0.2-0.9,0.4-1.3,0.6c-0.4,0.2-0.8,0.4-1.2,0.6c-0.4,0.1-0.8,0.1-1.3-0.1
				c-0.2-0.1-0.5-0.2-0.7-0.3c-0.4-0.1-0.7-0.2-1.1-0.4c0-0.9,0-1.8,0-2.8c0.4,0.1,0.7,0.2,1,0.4c0.4,0.1,0.8,0.3,1.1,0.4h0.1
				c0.5,0.3,0.9,0,1.3-0.2c0.4-0.2,0.8-0.4,1.2-0.5c0.4-0.2,0.9-0.4,1.3-0.6c0.5-0.2,0.9-0.4,1.4-0.6s0.9-0.4,1.4-0.7
				c0.4-0.2,0.9-0.4,1.3-0.5c0.4-0.2,0.9-0.4,1.3-0.6c0.4-0.2,0.9-0.4,1.3-0.6c0.4-0.2,0.9-0.4,1.3-0.6c0.3-0.2,0.7-0.3,1.1-0.5
				c0-0.2,0-0.4,0-0.7c0-8.1,0-16.2,0-24.3c0-0.1,0-0.2,0-0.3c0-0.2,0.1-0.4,0.3-0.4c0.1,0,0.3-0.1,0.4-0.2c0.2-0.1,0.4-0.2,0.7-0.1
				c0,0.2,0,0.3,0,0.5c0,9,0,18.1,0,27.1C164.51,100.2,164.51,100.3,164.51,100.4z M165.21,72.3c0-0.3,0.1-0.4,0.6-0.3
				c0.1,1.1,0.4,2.1,1,3c-0.1,0-0.2,0.1-0.3,0.1c-0.4-0.1-0.8-0.2-1.1-0.3c-0.1,0-0.2-0.2-0.2-0.4
				C165.21,73.7,165.21,73,165.21,72.3z M171.21,76.5c-0.7,1.1-1.4,2.2-2,3.3c-0.6,0.9-1.2,1.9-1.8,2.8c-0.4,0.7-0.9,1.5-1.3,2.2
				c-0.2,0.3-0.3,0.5-0.5,0.8c-0.1,0.1-0.2,0.2-0.3,0.2h-0.1c0-0.1,0-0.3,0-0.4c0-3,0-6.1,0-9.1c0-0.1,0-0.1,0-0.2
				c0-0.6,0-0.7,0.7-0.5c0.4,0.1,0.7,0.2,1.1,0.3c0.5,0.1,1.1,0.4,1.6,0.4c0.7,0.1,1.4,0.2,2.1-0.1c0.2-0.1,0.4-0.1,0.6-0.2
				C171.31,76.3,171.31,76.4,171.21,76.5z M174.31,69.8c0,0.5-0.3,0.9-0.4,1.4c-0.1,0.5-0.3,1-0.5,1.4c-0.6,1.1-1.3,2.1-2.4,2.8
				c-0.7,0.5-1.6,0.5-2.4,0.3c-0.6-0.1-1.1-0.6-1.4-1.1c-0.3-0.5-0.5-0.9-0.7-1.4c-0.1-0.5-0.3-1-0.2-1.6c0.7-0.3,1.3-0.5,2-0.8
				c0.3,0.2,0.3,0.5,0.3,0.8c0.1,0.5,0.3,0.9,0.7,1.2c0.5,0.4,1.1,0.4,1.7,0.1c0.7-0.5,1.1-1.1,1.4-1.9c0.3-0.8,0.3-1.7,0.2-2.5
				c-0.1-0.7-0.5-1.2-1.1-1.5c-0.3-0.1-0.7-0.1-1,0c-0.7,0.3-1.2,0.7-1.5,1.4c-0.1,0.2-0.2,0.4-0.3,0.6c-0.2,0-0.2-0.1-0.2-0.3
				c0-0.3,0-0.7,0-1c0-0.7,0-1.5,0-2.2c0-0.3,0.1-0.5,0.3-0.7c0.5-0.3,1-0.7,1.6-0.8c0.2,0,0.5-0.2,0.7-0.2c0.7,0.1,1.4,0.4,1.9,0.9
				c0.5,0.6,0.8,1.3,1,2C174.51,67.7,174.41,68.8,174.31,69.8z"/>
			<path class="st3" d="M164.31,62.5c-0.1,0-0.2-0.1-0.3-0.1c-0.5-0.1-1-0.3-1.4-0.3c-1-0.1-1.7,0.4-2.3,1.1c-0.4,0.4-0.7,1-0.9,1.5
				c-0.2,0.4-0.4,0.9-0.3,1.4c0,0.4,0,0.8,0,1.3s0,1,0.3,1.4c0.2,0.3,0.3,0.6,0.6,0.9c0.4,0.4,1,0.5,1.5,0.7c0.1,0,0.3,0,0.4,0.1
				c1,0.3,1.9,0.3,2.7-0.4c1.3-1.1,1.7-2.6,1.8-4.1c0-0.8-0.1-1.5-0.5-2.1C165.51,63.1,165.01,62.6,164.31,62.5z M160.61,69.2
				c-0.5-0.4-0.7-0.9-0.8-1.4c-0.1-0.7-0.1-1.3,0-2c0.2-1.1,0.7-2.1,1.7-2.7c0.4-0.3,0.9-0.4,1.5-0.2c0.2,0.1,0.5,0.1,0.9,0.2
				c-0.1,0.2-0.2,0.3-0.3,0.3c-0.7,0.5-1.1,1.3-1.4,2.1c-0.2,0.7-0.4,1.3-0.4,2c0,0.6,0.1,1.2,0.4,1.7c0.1,0.1,0.1,0.3,0.2,0.5
				C161.61,69.6,161.01,69.6,160.61,69.2z M165.61,65.8c0,0.3-0.1,0.6-0.1,0.9c-0.1,0.3-0.1,0.7-0.3,1c-0.3,0.7-0.6,1.3-1.2,1.7
				c-0.2,0.1-0.4,0.3-0.6,0.4c-0.2,0.1-0.6,0-0.9-0.3c-0.3-0.4-0.5-0.8-0.5-1.2c0-0.3,0-0.5,0-0.7c-0.1-0.7,0-1.4,0.2-1.9
				c0.3-0.8,0.7-1.6,1.4-2.1c0.4-0.3,0.9-0.2,1.2,0.2c0.2,0.3,0.4,0.6,0.4,0.9C165.51,65,165.71,65.4,165.61,65.8z"/>
			<path class="st3" d="M164.01,57.7c-0.5,0.7-0.8,1.4-0.7,2.3c0.1,0.4,0.2,0.7,0.5,1c0.1,0.2,0.4,0.4,0.7,0.4
				c0.1,0,0.2,0.1,0.2,0.1c0.6,0.2,1.1,0.2,1.6-0.3c0.6-0.6,0.8-1.3,1-2.2c-0.1-0.3-0.2-0.7-0.3-1c-0.1-0.2-0.3-0.5-0.6-0.6
				c-0.2-0.1-0.5-0.1-0.7-0.2C165.01,57,164.41,57.2,164.01,57.7z M166.31,58.5c0.2,0.7,0.1,1.3-0.4,1.9c-0.1,0.2-0.3,0.3-0.4,0.2
				c-0.1-0.1-0.2-0.3-0.3-0.4c-0.1-0.1,0-0.3,0-0.4c0-0.5,0.2-1,0.5-1.3C165.91,58.1,166.21,58.2,166.31,58.5z M165.41,57.9
				c0,0.1,0,0.3-0.1,0.4c-0.2,0.3-0.4,0.6-0.4,1c-0.1,0.4-0.1,0.8,0,1.1c0,0.1,0,0.1,0,0.2c-0.5,0.1-0.7,0-0.9-0.6
				c-0.2-0.7,0.2-1.7,0.9-2.1c0.1-0.1,0.2-0.1,0.4-0.1C165.31,57.8,165.41,57.9,165.41,57.9z"/>
		</g>
		<g>
			<g>
				<path class="st3" d="M103.21,60.9h-0.1c-0.1-0.1-0.1-0.1,0-0.2l1.9-2c0.1-0.1,0.1-0.1,0.2,0c0.1,0.1,0.1,0.1,0,0.2l-1.9,2
					C103.31,60.9,103.21,60.9,103.21,60.9z"/>
			</g>
			<g>
				<path class="st3" d="M102.41,63.9h-0.1c-0.1-0.1-0.1-0.2,0-0.2l4.7-4.4c0.1-0.1,0.2-0.1,0.2,0c0.1,0.1,0.1,0.2,0,0.2l-4.7,4.4
					C102.51,63.9,102.51,63.9,102.41,63.9z"/>
			</g>
			<g>
				<path class="st3" d="M102.21,66.7h-0.1c-0.1-0.1-0.1-0.1,0-0.2l6.6-6.8c0.1-0.1,0.1-0.1,0.2,0c0.1,0.1,0.1,0.1,0,0.2l-6.6,6.8
					C102.31,66.7,102.31,66.7,102.21,66.7z"/>
			</g>
			<g>
				<path class="st3" d="M102.41,69h-0.1c-0.1-0.1-0.1-0.1,0-0.2l8.1-8.3c0.1-0.1,0.1-0.1,0.2,0c0.1,0.1,0.1,0.1,0,0.2l-8.1,8.3
					C102.51,69,102.51,69,102.41,69z"/>
			</g>
			<g>
				<path class="st3" d="M103.01,70.6h-0.1c-0.1-0.1-0.1-0.2,0-0.2l9.5-9.5c0.1-0.1,0.2-0.1,0.2,0c0.1,0.1,0.1,0.2,0,0.2l-9.5,9.5
					C103.11,70.6,103.11,70.6,103.01,70.6z"/>
			</g>
			<g>
				<path class="st3" d="M105.01,71.2h-0.1c-0.1-0.1-0.1-0.2,0-0.2l9.5-9.5c0.1-0.1,0.2-0.1,0.2,0c0.1,0.1,0.1,0.2,0,0.2l-9.5,9.5
					H105.01z"/>
			</g>
			<g>
				<path class="st3" d="M106.81,71.6h-0.1c-0.1-0.1-0.1-0.2,0-0.2l9.3-9.3c0.1-0.1,0.2-0.1,0.2,0c0.1,0.1,0.1,0.2,0,0.2l-9.3,9.3
					C106.81,71.6,106.81,71.6,106.81,71.6z"/>
			</g>
			<g>
				<path class="st3" d="M108.51,72.2h-0.1c-0.1-0.1-0.1-0.2,0-0.2l9.3-9.3c0.1-0.1,0.2-0.1,0.2,0c0.1,0.1,0.1,0.2,0,0.2l-9.3,9.3
					C108.61,72.1,108.61,72.2,108.51,72.2z"/>
			</g>
			<g>
				<path class="st3" d="M110.51,72.7h-0.1c-0.1-0.1-0.1-0.2,0-0.2l9.7-9.7c0.1-0.1,0.2-0.1,0.2,0c0.1,0.1,0.1,0.2,0,0.2l-9.7,9.7
					H110.51z"/>
			</g>
			<g>
				<path class="st3" d="M112.01,73.5h-0.1c-0.1-0.1-0.1-0.2,0-0.2l9.8-9.8c0.1-0.1,0.2-0.1,0.2,0c0.1,0.1,0.1,0.2,0,0.2l-9.8,9.8
					C112.11,73.5,112.11,73.5,112.01,73.5z"/>
			</g>
			<g>
				<path class="st3" d="M113.81,74.1h-0.1c-0.1-0.1-0.1-0.2,0-0.2l9.9-9.9c0.1-0.1,0.2-0.1,0.2,0c0.1,0.1,0.1,0.2,0,0.2l-9.9,9.9
					H113.81z"/>
			</g>
			<g>
				<path class="st3" d="M115.81,74.7h-0.1c-0.1-0.1-0.1-0.2,0-0.2l10.1-10.1c0.1-0.1,0.2-0.1,0.2,0c0.1,0.1,0.1,0.2,0,0.2
					l-10.1,10.1C115.81,74.7,115.81,74.7,115.81,74.7z"/>
			</g>
			<g>
				<path class="st3" d="M117.51,75.3h-0.1c-0.1-0.1-0.1-0.2,0-0.2l10.2-10.2c0.1-0.1,0.2-0.1,0.2,0c0.1,0.1,0.1,0.2,0,0.2
					l-10.2,10.2C117.61,75.3,117.61,75.3,117.51,75.3z"/>
			</g>
			<g>
				<path class="st3" d="M119.51,75.7h-0.1c-0.1-0.1-0.1-0.2,0-0.2l10.1-10.1c0.1-0.1,0.2-0.1,0.2,0c0.1,0.1,0.1,0.2,0,0.2
					l-10.1,10.1H119.51z"/>
			</g>
			<g>
				<path class="st3" d="M121.41,76.3h-0.1c-0.1-0.1-0.1-0.2,0-0.2l10.1-10.1c0.1-0.1,0.2-0.1,0.2,0c0.1,0.1,0.1,0.2,0,0.2
					l-10.1,10.1C121.51,76.3,121.51,76.3,121.41,76.3z"/>
			</g>
			<g>
				<path class="st3" d="M123.21,76.9h-0.1c-0.1-0.1-0.1-0.2,0-0.2l10.2-10.2c0.1-0.1,0.2-0.1,0.2,0c0.1,0.1,0.1,0.2,0,0.2
					l-10.2,10.2C123.31,76.8,123.21,76.9,123.21,76.9z"/>
			</g>
			<g>
				<path class="st3" d="M125.01,77.2h-0.1c-0.1-0.1-0.1-0.2,0-0.2l9.8-9.8c0.1-0.1,0.2-0.1,0.2,0c0.1,0.1,0.1,0.2,0,0.2l-9.8,9.8
					C125.01,77.2,125.01,77.2,125.01,77.2z"/>
			</g>
			<g>
				<path class="st3" d="M126.91,77.8h-0.1c-0.1-0.1-0.1-0.2,0-0.2l10.1-10.1c0.1-0.1,0.2-0.1,0.2,0c0.1,0.1,0.1,0.2,0,0.2
					l-10.1,10.1C127.01,77.8,127.01,77.8,126.91,77.8z"/>
			</g>
			<g>
				<path class="st3" d="M128.71,78.4h-0.1c-0.1-0.1-0.1-0.2,0-0.2l10.3-10.3c0.1-0.1,0.2-0.1,0.2,0c0.1,0.1,0.1,0.2,0,0.2
					l-10.3,10.3C128.81,78.4,128.71,78.4,128.71,78.4z"/>
			</g>
			<g>
				<path class="st3" d="M130.61,78.8h-0.1c-0.1-0.1-0.1-0.2,0-0.2l10.3-10.3c0.1-0.1,0.2-0.1,0.2,0c0.1,0.1,0.1,0.2,0,0.2
					l-10.3,10.3C130.71,78.8,130.71,78.8,130.61,78.8z"/>
			</g>
			<g>
				<path class="st3" d="M132.41,79.4h-0.1c-0.1-0.1-0.1-0.2,0-0.2l10.3-10.3c0.1-0.1,0.2-0.1,0.2,0c0.1,0.1,0.1,0.2,0,0.2
					l-10.3,10.3C132.51,79.4,132.41,79.4,132.41,79.4z"/>
			</g>
			<g>
				<path class="st3" d="M134.21,80h-0.1c-0.1-0.1-0.1-0.2,0-0.2l10.2-10.2c0.1-0.1,0.2-0.1,0.2,0c0.1,0.1,0.1,0.2,0,0.2L134.31,80
					C134.21,80,134.21,80,134.21,80z"/>
			</g>
			<g>
				<path class="st3" d="M135.91,80.6h-0.1c-0.1-0.1-0.1-0.2,0-0.2l10.2-10.3c0.1-0.1,0.2-0.1,0.2,0c0.1,0.1,0.1,0.2,0,0.2
					l-10.2,10.2C136.01,80.6,136.01,80.6,135.91,80.6z"/>
			</g>
			<g>
				<path class="st3" d="M137.71,81.4h-0.1c-0.1-0.1-0.1-0.2,0-0.2l8.4-8.4c0.1-0.1,0.2-0.1,0.2,0c0.1,0.1,0.1,0.2,0,0.2l-8.4,8.4
					C137.81,81.3,137.71,81.4,137.71,81.4z"/>
			</g>
			<g>
				<path class="st3" d="M139.51,81.9h-0.1c-0.1-0.1-0.1-0.2,0-0.2l5.9-5.9c0.1-0.1,0.2-0.1,0.2,0c0.1,0.1,0.1,0.2,0,0.2l-5.9,5.9
					C139.51,81.9,139.51,81.9,139.51,81.9z"/>
			</g>
			<g>
				<path class="st3" d="M141.41,82.5h-0.1c-0.1-0.1-0.1-0.2,0-0.2l3.7-3.7c0.1-0.1,0.2-0.1,0.2,0c0.1,0.1,0.1,0.2,0,0.2l-3.7,3.7
					C141.51,82.5,141.51,82.5,141.41,82.5z"/>
			</g>
			<g>
				<path class="st3" d="M143.21,83.1h-0.1c-0.1-0.1-0.1-0.2,0-0.2l2.2-2.2c0.1-0.1,0.2-0.1,0.2,0c0.1,0.1,0.1,0.2,0,0.2l-2.2,2.2
					C143.31,83.1,143.21,83.1,143.21,83.1z"/>
			</g>
			<g>
				<path class="st3" d="M144.91,83.7h-0.1c-0.1-0.1-0.1-0.2,0-0.2l0.6-0.6c0.1-0.1,0.2-0.1,0.2,0c0.1,0.1,0.1,0.2,0,0.2l-0.6,0.6
					C145.01,83.7,145.01,83.7,144.91,83.7z"/>
			</g>
		</g>
	</g>
</g>
</svg>
