<?xml version="1.0" encoding="utf-8"?>
<!-- Generator: Adobe Illustrator 24.2.0, SVG Export Plug-In . SVG Version: 6.00 Build 0)  -->
<svg version="1.1" id="Layer_1" xmlns="http://www.w3.org/2000/svg" xmlns:xlink="http://www.w3.org/1999/xlink" x="0px" y="0px"
	 viewBox="0 0 275 145" style="enable-background:new 0 0 275 145;" xml:space="preserve">
<style type="text/css">
	.st0{fill:#F29100;}
	.st1{fill:#F6F7F8;}
	.st2{fill:#F19000;}
	.st3{fill:#FFFFFF;}
	.st4{fill:none;stroke:#FFFFFF;stroke-width:1.2124;stroke-linecap:round;stroke-miterlimit:10;}
</style>
<g>
	<g>
		<g>
			<circle class="st0" cx="136.83" cy="72.5" r="62.03"/>
		</g>
		<g>
			<path class="st0" d="M136.83,144.43c-39.66,0-71.93-32.27-71.93-71.93S97.17,0.57,136.83,0.57c39.66,0,71.93,32.27,71.93,71.93
				S176.49,144.43,136.83,144.43z M136.83,1.77c-39,0-70.73,31.73-70.73,70.73c0,39,31.73,70.73,70.73,70.73
				s70.73-31.73,70.73-70.73C207.56,33.5,175.83,1.77,136.83,1.77z"/>
		</g>
		<g>
			<g>
				<path class="st3" d="M157.63,52.57c-4.71-3.99-10.36-6.15-16.07-6.56c4.87,0.78,9.59,2.86,13.63,6.28
					c11.82,10,13.29,27.7,3.29,39.52c-6.02,7.11-14.82,10.47-23.45,9.85c9.38,1.51,19.3-1.78,25.89-9.57
					C170.93,80.27,169.46,62.58,157.63,52.57z"/>
			</g>
			<g>
				<path class="st3" d="M119.16,98.38c5.42,4.59,11.9,7.1,18.45,7.61c-5.58-0.93-11-3.34-15.65-7.27
					c-13.61-11.52-15.43-31.74-4.07-45.17c6.83-8.08,16.88-11.85,26.77-11.07c-10.75-1.8-22.09,1.89-29.57,10.73
					C103.73,66.64,105.55,86.86,119.16,98.38z"/>
			</g>
			<g>
				<rect x="95.83" y="73.12" class="st3" width="83.93" height="0.9"/>
			</g>
			<g>
				
					<rect x="95.83" y="73.12" transform="matrix(-1.836970e-16 1 -1 -1.836970e-16 211.365 -64.2343)" class="st3" width="83.93" height="0.9"/>
			</g>
		</g>
	</g>
	<g>
		
			<rect x="241" y="39.33" transform="matrix(-1.836970e-16 1 -1 -1.836970e-16 314.3296 -169.6704)" class="st0" width="2" height="66"/>
		
			<rect x="32" y="39.33" transform="matrix(-1.836970e-16 1 -1 -1.836970e-16 105.3296 39.3296)" class="st0" width="2" height="66"/>
	</g>
</g>
</svg>
