<?xml version="1.0" encoding="utf-8"?>
<!-- Generator: Adobe Illustrator 24.2.0, SVG Export Plug-In . SVG Version: 6.00 Build 0)  -->
<svg version="1.1" id="Layer_1" xmlns="http://www.w3.org/2000/svg" xmlns:xlink="http://www.w3.org/1999/xlink" x="0px" y="0px"
	 viewBox="0 0 275 145" style="enable-background:new 0 0 275 145;" xml:space="preserve">
<style type="text/css">
	.st0{fill:#F29100;}
	.st1{fill:#F6F7F8;}
	.st2{fill:#F19000;}
	.st3{fill:#FFFFFF;}
	.st4{fill:none;stroke:#FFFFFF;stroke-width:1.2124;stroke-linecap:round;stroke-miterlimit:10;}
</style>
<g>
	<g>
		
			<rect x="241" y="38.71" transform="matrix(-1.836970e-16 1 -1 -1.836970e-16 313.7144 -170.2856)" class="st0" width="2" height="66"/>
		
			<rect x="32" y="38.71" transform="matrix(-1.836970e-16 1 -1 -1.836970e-16 104.7144 38.7144)" class="st0" width="2" height="66"/>
	</g>
	<g>
		<g>
			<g>
				<g>
					<circle class="st2" cx="137.43" cy="72.5" r="62.03"/>
				</g>
			</g>
			<g>
				<g>
					<path class="st0" d="M137.43,144.44c-39.67,0-71.94-32.27-71.94-71.94c0-39.67,32.27-71.94,71.94-71.94
						c39.67,0,71.94,32.27,71.94,71.94C209.37,112.17,177.1,144.44,137.43,144.44z M137.43,1.78c-39,0-70.72,31.73-70.72,70.72
						s31.73,70.72,70.72,70.72s70.72-31.73,70.72-70.72S176.43,1.78,137.43,1.78z"/>
				</g>
			</g>
		</g>
		<g>
			<g>
				<g>
					<g>
						<g>
							<g>
								<g>
									<path class="st3" d="M126.44,46.9c-1.23,0-2.34,0.01-3.45,0c-1.51-0.01-2.52-1.01-2.53-2.54c-0.01-2.67-0.01-5.34,0-8.01
										c0.01-1.57,1-2.54,2.58-2.54c11.77,0,23.53,0,35.3,0c1.56,0,2.56,0.91,2.58,2.47c0.04,2.72,0.04,5.43,0,8.15
										c-0.02,1.54-1.05,2.46-2.6,2.47c-1.04,0.01-2.09,0.01-3.13,0.01c-0.04,0-0.08,0.03-0.21,0.08c0,1.49-0.05,3.02,0.02,4.54
										c0.05,1.11-0.25,2.06-0.82,3.01c-2.41,4.04-4.77,8.11-7.11,12.19c-0.64,1.11-1.51,1.64-2.77,1.59c-0.76-0.03-1.53,0-2.39,0
										c0,0.29,0,0.53,0,0.78c0,1.65,0,3.3,0,4.94c0,0.84-0.51,1.41-1.22,1.4c-0.69-0.01-1.17-0.54-1.17-1.36
										c-0.01-1.88,0-3.75,0-5.76c-0.64,0-1.23-0.05-1.82,0.01c-1.7,0.17-2.79-0.52-3.64-2.04c-2.27-4.06-4.68-8.05-7.05-12.06
										c-0.39-0.66-0.58-1.33-0.57-2.1C126.47,50.41,126.44,48.7,126.44,46.9z M129.76,54.01c0.08,0.18,0.11,0.27,0.15,0.34
										c2.16,3.71,4.31,7.41,6.49,11.1c0.13,0.21,0.5,0.39,0.77,0.39c2.32,0.03,4.64,0,6.96,0.03c0.48,0.01,0.74-0.14,0.98-0.56
										c2.05-3.55,4.12-7.09,6.18-10.64c0.11-0.19,0.2-0.4,0.35-0.67c-0.34,0-0.59,0-0.84,0c-3.67,0-7.33,0.01-11-0.02
										c-0.42,0-0.95-0.18-1.2-0.47c-0.22-0.26-0.24-0.83-0.14-1.2c0.14-0.51,0.62-0.69,1.16-0.69c4.04,0.01,8.08,0,12.11,0
										c0.25,0,0.5,0,0.78,0c0-1.61,0-3.15,0-4.69c-7.92,0-15.8,0-23.66,0c0,1.59,0,3.13,0,4.66c0.1,0.01,0.15,0.03,0.19,0.03
										c1.44,0,2.88,0,4.32,0.01c0.84,0,1.41,0.5,1.4,1.2c-0.01,0.68-0.56,1.16-1.36,1.17C132.23,54.02,131.05,54.01,129.76,54.01
										z M146.64,36.21c0,0.75,0,1.42,0,2.1c0,0.9-0.49,1.48-1.21,1.47c-0.71-0.02-1.16-0.57-1.16-1.44c-0.01-0.71,0-1.42,0-2.1
										c-0.85,0-1.59,0-2.3,0c-0.03,0.09-0.05,0.13-0.05,0.18c-0.01,0.63-0.01,1.25-0.01,1.88c-0.01,0.9-0.48,1.49-1.2,1.49
										c-0.72,0-1.18-0.56-1.19-1.49c-0.01-0.69,0-1.38,0-2.06c-0.84,0-1.57,0-2.35,0c0,0.72,0.02,1.39-0.01,2.06
										c-0.01,0.29-0.05,0.62-0.18,0.87c-0.25,0.47-0.69,0.7-1.22,0.59c-0.58-0.12-0.96-0.49-0.98-1.11
										c-0.03-0.8-0.01-1.61-0.01-2.4c-0.85,0-1.58,0-2.35,0c0,0.75,0.05,1.45-0.02,2.14c-0.04,0.38-0.2,0.86-0.48,1.08
										c-0.27,0.21-0.78,0.26-1.14,0.19c-0.57-0.11-0.78-0.63-0.8-1.17c-0.03-0.75-0.01-1.51-0.01-2.25c-0.84,0-1.54,0-2.31,0
										c0,0.71,0.01,1.38,0,2.05c-0.02,0.91-0.49,1.49-1.22,1.49c-0.73,0-1.22-0.58-1.23-1.48c-0.01-0.69,0-1.37,0-2.09
										c-0.81,0-1.52,0-2.26,0c0,2.77,0,5.51,0,8.25c11.87,0,23.68,0,35.5,0c0-2.77,0-5.5,0-8.22c-0.77,0-1.5,0-2.21,0
										c-0.03,0.09-0.06,0.14-0.06,0.18c-0.01,0.65,0,1.3-0.02,1.95c-0.02,0.87-0.5,1.42-1.2,1.41c-0.7,0-1.19-0.58-1.2-1.42
										c-0.01-0.71,0-1.42,0-2.13c-0.83,0-1.56,0-2.36,0c0,0.71,0,1.38,0,2.05c-0.01,0.93-0.46,1.49-1.18,1.5
										c-0.72,0.01-1.2-0.58-1.2-1.48c0-0.69,0-1.38,0-2.08C148.18,36.21,147.45,36.21,146.64,36.21z"/>
								</g>
							</g>
						</g>
					</g>
					<g>
						<g>
							<g>
								<g>
									<path class="st3" d="M141.9,85.54c0,2.09,0,2.14,0,4.22c0,0.9-0.49,1.48-1.21,1.48c-0.71-0.01-1.18-0.55-1.18-1.43
										c-0.01-4.22-0.01-13.2,0-17.43c0-0.89,0.46-1.39,1.2-1.38c0.74,0.01,1.19,0.52,1.19,1.4
										C141.9,74.52,141.9,83.43,141.9,85.54z"/>
								</g>
							</g>
						</g>
					</g>
					<g>
						<g>
							<g>
								<g>
									<path class="st3" d="M125.72,99.97c-1.74,1.15-1.78,1.18-3.52,2.33c-0.75,0.49-1.5,0.41-1.9-0.2
										c-0.38-0.59-1.69-0.27-0.96-0.75c3.52-2.33,17.01-9.88,20.53-12.2c0.74-0.49,1.41-0.39,1.82,0.24
										c0.4,0.62,0.22,1.28-0.52,1.77C139.41,92.32,127.48,98.8,125.72,99.97z"/>
								</g>
							</g>
						</g>
					</g>
				</g>
				<g>
					<g>
						<g>
							<g>
								<path class="st3" d="M140.56,110.34c-0.26,0-0.53-0.04-0.78-0.11L100.2,98.98c-1.15-0.33-1.95-1.31-2.04-2.49
									c-0.1-1.19,0.54-2.28,1.61-2.79l39.65-18.75c0.59-0.28,1.26-0.34,1.89-0.19l37.11,8.7c1.13,0.28,1.94,1.15,2.13,2.28
									c0.19,1.13-0.28,2.22-1.24,2.84l-0.07,0.04l-37.17,21.28C141.62,110.2,141.09,110.34,140.56,110.34z M140.63,77.4
									c-0.02,0-0.03,0-0.04,0.01l-39.65,18.75c-0.03,0.02-0.07,0.03-0.06,0.11c0.01,0.08,0.04,0.09,0.08,0.1l39.58,11.25
									c0.03,0.01,0.06,0,0.09-0.01l0.07-0.04l37.15-21.27c0.02-0.02,0.04-0.04,0.03-0.1c-0.01-0.07-0.05-0.08-0.08-0.09
									l-37.11-8.7C140.66,77.41,140.64,77.4,140.63,77.4z"/>
							</g>
						</g>
					</g>
				</g>
			</g>
			<g>
				<g>
					<g>
						<g>
							<path class="st3" d="M143.84,88.42c-0.1,0-0.19-0.03-0.28-0.09c-0.22-0.15-0.28-0.45-0.12-0.68l2.04-2.96
								c0.15-0.22,0.46-0.28,0.68-0.12c0.22,0.15,0.28,0.45,0.12,0.68l-2.04,2.96C144.14,88.35,143.99,88.42,143.84,88.42z"/>
						</g>
					</g>
				</g>
				<g>
					<g>
						<g>
							<path class="st3" d="M146.72,93.93c-0.1,0-0.21-0.03-0.3-0.1l-2.88-2.23c-0.21-0.16-0.25-0.47-0.09-0.68
								c0.16-0.21,0.47-0.25,0.68-0.09l2.88,2.23c0.21,0.16,0.25,0.47,0.09,0.68C147,93.86,146.86,93.93,146.72,93.93z"/>
						</g>
					</g>
				</g>
				<g>
					<g>
						<g>
							<path class="st3" d="M148.97,90.47c-0.01,0-0.03,0-0.04,0l-4.2-0.36c-0.27-0.02-0.46-0.26-0.44-0.52
								c0.02-0.27,0.27-0.45,0.52-0.44l4.2,0.36c0.27,0.02,0.46,0.26,0.44,0.52C149.43,90.28,149.22,90.47,148.97,90.47z"/>
						</g>
					</g>
				</g>
			</g>
			<g>
				<g>
					<g>
						<g>
							<path class="st3" d="M141.18,96.48c-0.02,0-0.05,0-0.07-0.01c-0.27-0.04-0.45-0.29-0.41-0.55l0.48-3.21
								c0.04-0.27,0.3-0.45,0.55-0.41c0.27,0.04,0.45,0.29,0.41,0.55l-0.48,3.21C141.62,96.31,141.42,96.48,141.18,96.48z"/>
						</g>
					</g>
				</g>
			</g>
			<g>
				<g>
					<g>
						<path class="st3" d="M137.74,87.43c-0.14,0-0.27-0.06-0.37-0.17l-1.66-1.97c-0.17-0.2-0.15-0.51,0.06-0.68
							c0.2-0.17,0.51-0.15,0.68,0.06l1.66,1.97c0.17,0.2,0.15,0.51-0.06,0.68C137.96,87.39,137.85,87.43,137.74,87.43z"/>
					</g>
				</g>
			</g>
		</g>
	</g>
</g>
</svg>
