<?xml version="1.0" encoding="utf-8"?>
<!-- Generator: Adobe Illustrator 24.2.0, SVG Export Plug-In . SVG Version: 6.00 Build 0)  -->
<svg version="1.1" id="Layer_1" xmlns="http://www.w3.org/2000/svg" xmlns:xlink="http://www.w3.org/1999/xlink" x="0px" y="0px"
	 viewBox="0 0 275 145" style="enable-background:new 0 0 275 145;" xml:space="preserve">
<style type="text/css">
	.st0{fill:#F29100;}
	.st1{fill:#F6F7F8;}
	.st2{fill:#F19000;}
	.st3{fill:#FFFFFF;}
	.st4{fill:none;stroke:#FFFFFF;stroke-width:1.2124;stroke-linecap:round;stroke-miterlimit:10;}
</style>
<g>
	<g>
		<polyline class="st0" points="208.66,70.78 208.66,72.78 274.66,72.78 274.66,70.78 		"/>
		
			<rect x="31.66" y="38.78" transform="matrix(-1.836970e-16 1 -1 -1.836970e-16 104.4369 39.1228)" class="st0" width="2" height="66"/>
	</g>
	<g>
		<g>
			<g>
				<circle class="st0" cx="137.03" cy="72.45" r="62.03"/>
			</g>
			<g>
				<path class="st0" d="M137.03,144.39c-39.67,0-71.94-32.27-71.94-71.94S97.37,0.52,137.03,0.52s71.94,32.27,71.94,71.94
					S176.7,144.39,137.03,144.39z M137.03,1.73c-39,0-70.72,31.73-70.72,70.72s31.73,70.72,70.72,70.72s70.72-31.73,70.72-70.72
					S176.03,1.73,137.03,1.73z"/>
			</g>
		</g>
		<g>
			<g>
				<g>
					<path class="st1" d="M126.05,66.81c-2.63,0.44-4.9,0.37-7.15-0.26c-0.27-0.08-0.65,0.06-0.94,0.19
						c-2.69,1.16-5.37,2.33-8.05,3.5c-0.55,0.24-1.1,0.44-1.57-0.12c-0.46-0.55-0.22-1.06,0.16-1.55c1.44-1.86,2.87-3.73,4.34-5.63
						c-2.71-2.89-4.15-6.28-4.1-10.25c0.04-2.85,0.86-5.47,2.49-7.82c3.43-4.95,9.42-7.17,15.19-5.75
						c4.79,1.18,10.58,5.69,10.8,13.96c1.35,0.31,2.71,0.54,4.03,0.94c1.29,0.39,2.52,0.95,3.66,1.39c0.43-1.55,0.71-3.17,1.31-4.66
						c3.16-7.73,12.3-10.98,19.73-7.09c7.3,3.83,9.79,13.19,5.33,20.16c-0.43,0.66-0.54,1.23-0.32,2c0.61,2.15,1.12,4.32,1.67,6.48
						c0.14,0.56,0.34,1.13-0.24,1.57c-0.62,0.47-1.14,0.09-1.65-0.22c-2.01-1.23-4-2.48-6.02-3.68c-0.3-0.18-0.75-0.3-1.07-0.21
						c-4.84,1.41-9.24,0.59-13.25-2.46c-0.07-0.05-0.15-0.08-0.3-0.15c-0.23,0.66-0.3,1.1,0.26,1.74c0.53,0.6,0.84,1.55,0.9,2.38
						c0.16,2.41-0.27,4.69-2.11,6.49c-0.19,0.19-0.27,0.53-0.32,0.81c-0.57,3.42-2.38,6-5.31,7.8c-0.49,0.3-0.7,0.6-0.55,1.15
						c0.14,0.52,0.24,1.06,0.39,1.58c0.26,0.91,0.81,1.47,1.75,1.77c4.38,1.38,8.64,3.05,12.76,5.08c1.76,0.87,2.9,2.07,3.25,4.02
						c0.18,1,0.54,1.98,0.77,2.98c0.75,3.29-1.57,6.27-4.95,6.28c-12.79,0.02-25.59,0.02-38.38,0c-3.39,0-5.69-2.96-4.95-6.27
						c0.29-1.26,0.7-2.5,0.99-3.76c0.31-1.34,1.08-2.29,2.31-2.83c3.36-1.48,6.73-2.94,10.12-4.37c1-0.42,2.03-0.78,3.08-1.04
						c1.29-0.32,1.88-1.16,2.18-2.37c0.4-1.64,0.42-1.63-0.91-2.59c-2.59-1.86-4.2-4.35-4.75-7.51c-0.05-0.28-0.18-0.58-0.36-0.78
						c-1.95-2.14-2.37-4.69-1.88-7.42c0.12-0.64,0.77-1.17,1.09-1.8C125.74,68.06,125.83,67.52,126.05,66.81z M148.18,94.07
						c-1.17-0.4-2.28-0.87-3.43-1.16c-2.09-0.52-3.08-1.97-3.53-3.92c-0.16-0.67-0.23-1.37-0.36-2.05c-0.19-0.97,0.15-1.55,1.07-2
						c2.45-1.21,4.02-3.2,4.75-5.84c0.33-1.19,0.37-2.35,1.49-3.38c1.21-1.12,1.3-2.99,1.04-4.69c-0.03-0.22-0.3-0.54-0.5-0.58
						c-0.9-0.15-1.14-0.68-1.02-1.49c0.15-0.95,0.26-1.91,0.45-2.86c0.12-0.6-0.03-1.05-0.33-1.59c-0.79-1.41-1.8-2.84-2.06-4.37
						c-0.35-2.07-1.53-2.95-3.26-3.54c-0.57-0.19-1.12-0.47-1.7-0.62c-1.24-0.31-2.49-0.57-3.74-0.85c-0.11,0.38-0.16,0.55-0.2,0.72
						c-0.88,3.97-3.07,7.03-6.51,9.18c-0.78,0.49-1.92,0.72-2.31,1.41c-0.4,0.71-0.1,1.82-0.11,2.75c-0.01,0.65-0.28,1.06-0.96,1.24
						c-0.26,0.07-0.59,0.4-0.62,0.65c-0.22,1.56,0.05,3.06,0.82,4.45c0.14,0.26,0.34,0.56,0.58,0.66c0.68,0.27,0.81,0.81,0.89,1.44
						c0.4,3.45,2.16,5.95,5.29,7.45c0.6,0.29,0.9,0.71,0.79,1.36c-0.19,1.13-0.33,2.27-0.64,3.36c-0.42,1.48-1.34,2.52-2.9,2.95
						c-1.07,0.3-2.11,0.71-3.17,1.08c-0.2,0.07-0.39,0.19-0.62,0.3C132,97.76,144.42,97.44,148.18,94.07z M137.75,107.23
						c6.31,0,12.61,0.01,18.92,0c2.43,0,3.77-1.73,3.18-4.09c-0.29-1.17-0.57-2.35-0.98-3.48c-0.19-0.52-0.6-1.1-1.07-1.34
						c-2.26-1.13-4.57-2.17-6.88-3.2c-0.21-0.09-0.59,0.06-0.84,0.2c-1.26,0.69-2.44,1.59-3.77,2.09
						c-4.26,1.57-8.68,1.71-13.12,1.02c-2.88-0.44-5.67-1.22-7.91-3.27c-0.14-0.13-0.52-0.12-0.72-0.03
						c-2.12,0.94-4.23,1.92-6.34,2.87c-0.94,0.42-1.53,1.09-1.74,2.13c-0.19,0.94-0.5,1.86-0.74,2.8c-0.68,2.64,0.63,4.3,3.37,4.3
						C125.32,107.23,131.53,107.23,137.75,107.23z M112.57,66.65c0.04,0.05,0.08,0.1,0.11,0.14c1.56-0.68,3.14-1.33,4.69-2.04
						c0.75-0.35,1.42-0.39,2.24-0.15c8.7,2.49,17.03-5.13,15.29-13.96c-1.03-5.24-5.25-9.18-10.5-9.82
						c-5.14-0.62-10.21,2.15-12.42,6.8c-2.3,4.85-1.28,10.4,2.6,14.13c0.85,0.82,0.88,1.1,0.15,2.07
						C114.03,64.77,113.3,65.71,112.57,66.65z M170.16,70.91c-0.49-1.95-0.89-3.68-1.38-5.37c-0.25-0.86-0.11-1.5,0.4-2.25
						c2.7-3.93,3.11-8.15,1-12.42c-2.11-4.28-5.7-6.63-10.46-6.76c-5.26-0.15-9.23,2.28-11.44,7.06c-2.17,4.68-1.44,9.16,1.89,13.09
						c3.19,3.76,8.31,5.09,13,3.5c0.86-0.29,1.52-0.25,2.28,0.25C166.92,68.96,168.45,69.85,170.16,70.91z"/>
				</g>
				<g>
					<path class="st1" d="M118.66,84.61c-1.34-0.69-2.35,0.04-3.41,1.21c-1.07,1.18-3.24,0.5-3.46-1.11
						c-0.21-1.55-0.86-2.38-2.29-3.01c-1.52-0.67-1.53-2.98-0.02-3.67c1.41-0.64,1.96-1.51,2.14-3.02c0.21-1.77,2.29-2.36,3.62-1.17
						c0.11,0.1,0.24,0.2,0.32,0.32c0.65,0.97,1.5,1.12,2.57,0.77c0.98-0.32,1.87-0.08,2.51,0.76c0.61,0.81,0.66,1.74,0.08,2.54
						c-0.78,1.08-0.54,1.96,0.09,3.02C121.78,82.86,120.69,84.68,118.66,84.61z M119.09,76.85c-2.32,0.96-4.02,0.24-5.48-1.65
						c0.14,2.45-0.95,3.92-3.26,4.67c2.4,0.64,3.42,2.15,3.44,4.55c1.37-1.98,3.07-2.65,5.41-1.82
						C117.72,80.68,117.59,78.85,119.09,76.85z"/>
				</g>
				<g>
					<path class="st1" d="M147.75,41.94c0.02,2.82-2.27,5.13-5.09,5.13c-2.82,0-5.11-2.28-5.12-5.11c-0.01-2.81,2.29-5.13,5.1-5.14
						C145.45,36.82,147.73,39.1,147.75,41.94z M145.71,42c0.02-1.74-1.33-3.12-3.06-3.12c-1.67,0-3.07,1.36-3.09,3.01
						c-0.02,1.71,1.39,3.14,3.08,3.13C144.33,45.02,145.69,43.68,145.71,42z"/>
				</g>
				<g>
					<path class="st1" d="M155.61,83.23c-0.02-1.96,1.62-3.58,3.64-3.61c2.17-0.02,3.78,1.62,3.79,3.86
						c0.01,1.91-1.69,3.59-3.67,3.62C157.23,87.13,155.63,85.49,155.61,83.23z M159.26,85.08c0.91,0.02,1.72-0.77,1.76-1.7
						c0.03-0.87-0.72-1.67-1.63-1.71c-0.99-0.04-1.76,0.66-1.78,1.62C157.59,84.25,158.34,85.06,159.26,85.08z"/>
				</g>
				<g>
					<path class="st1" d="M114.82,55.3c0-1.36-0.01-2.72,0-4.07c0.01-1.23,0.54-1.77,1.76-1.78c1.18-0.01,2.36,0.04,3.53-0.03
						c0.35-0.02,0.8-0.26,0.99-0.54c0.61-0.89,1.12-1.86,1.68-2.79c0.63-1.04,1.59-1.44,2.6-1.09c1.01,0.35,1.49,1.25,1.31,2.48
						c-0.13,0.86-0.27,1.73-0.45,2.58c-0.13,0.66,0.13,0.87,0.76,0.85c0.69-0.02,1.39-0.02,2.08,0.03c1.17,0.07,1.77,0.47,1.81,1.6
						c0.07,1.88,0,3.78-0.2,5.66c-0.14,1.34-1.05,2.29-2.39,2.53c-2.01,0.36-4.04,0.67-6.07,0.77c-1.83,0.09-3.66-0.15-5.5-0.2
						c-1.41-0.04-1.9-0.5-1.9-1.91C114.81,58.01,114.82,56.66,114.82,55.3z M124.62,47.3c-1.14,1.96-2.97,3.62-2.47,6.23
						c0.16,0.84,0.03,1.74,0.03,2.62c0,1.08,0,2.15,0,3.33c2.08,0.06,4.02-0.09,5.86-0.84c0.3-0.12,0.6-0.55,0.66-0.89
						c0.18-0.97,0.32-1.96,0.34-2.95c0.05-1.86,0.01-1.86-1.79-1.88c-0.15,0-0.3,0-0.45-0.01c-2.11-0.08-2.83-0.89-2.59-2.98
						C124.29,49.05,124.47,48.18,124.62,47.3z M116.93,51.49c0,2.62,0,5.15,0,7.69c1.1,0,2.13,0,3.14,0c0-2.61,0-5.14,0-7.69
						C119,51.49,118.01,51.49,116.93,51.49z"/>
				</g>
				<g>
					<path class="st1" d="M150.01,53.06c0.1-2.51,1.75-4.19,4.21-3.82c1.51,0.22,2.97,0.9,4.4,1.48c0.53,0.22,0.86,0.21,1.38-0.01
						c1.34-0.57,2.71-1.24,4.13-1.46c2.85-0.45,4.69,1.55,4.28,4.42c-0.37,2.57-1.61,4.76-3.35,6.59c-1.5,1.58-3.27,2.91-4.94,4.32
						c-0.49,0.41-1.04,0.39-1.59,0.04c-3.4-2.14-6.09-4.91-7.7-8.63C150.44,55.07,150.28,54.04,150.01,53.06z M154.3,51.24
						c-1.6-0.04-2.18,0.52-2.1,1.84c0.03,0.56,0.15,1.14,0.35,1.67c1.25,3.28,3.53,5.72,6.37,7.66c0.2,0.14,0.72,0.07,0.92-0.1
						c1.37-1.22,2.79-2.4,4.01-3.76c1.31-1.47,2.29-3.19,2.56-5.21c0.2-1.51-0.53-2.39-2-2.06c-1.38,0.3-2.73,0.91-3.98,1.58
						c-0.83,0.45-1.43,0.53-2.21-0.02C156.96,51.97,155.59,51.33,154.3,51.24z"/>
				</g>
			</g>
		</g>
	</g>
</g>
</svg>
